<?xml version="1.0" encoding="UTF-8"?>
<svg width="700.0" height="583.571035516846" viewBox="0 0 700.0 583.571035516846" xmlns="http://www.w3.org/2000/svg">
<defs>
  <style>
    .station-220 { fill: #2563eb; stroke: #1e40af; stroke-width: 2; }
    .station-500 { fill: #ef4444; stroke: #1e40af; stroke-width: 2; }
    .station-default { fill: #2563eb; stroke: #1e40af; stroke-width: 2; }
    .bend { fill: #111827; stroke: #111827; stroke-width: 1; }
    .dummy { fill: #8b4513; stroke: #8b4513; stroke-width: 1; }
    .inter { fill: #6b7280; stroke: #6b7280; stroke-width: 1; }
    .station-label { font-family: Arial, sans-serif; font-size: 8px; fill: white; text-anchor: middle; dominant-baseline: central; }
    .edge { stroke: #6b7280; stroke-width: 2; fill: none; }
    .background { fill: #f8fafc; }
  </style>
</defs>
<rect class="background" width="700.0" height="583.571035516846"/>
<!-- Edges -->
<line class="edge" x1="371.7129031710383" y1="312.99505538576216" x2="454.97832137826424" y2="198.39003916486485"/>
<line class="edge" x1="368.4768351935385" y1="310.6439143765923" x2="451.7422534007644" y2="196.03889815569494"/>
<line class="edge" x1="370.0948691822884" y1="313.81948488117723" x2="500.86343395888736" y2="313.81948488117723"/>
<line class="edge" x1="370.0948691822884" y1="309.81948488117723" x2="500.86343395888736" y2="309.81948488117723"/>
<line class="edge" x1="369.4768351935385" y1="313.72159791376754" x2="458.1774554478037" y2="342.542176502454"/>
<line class="edge" x1="370.7129031710383" y1="309.9173718485869" x2="459.41352342530354" y2="338.7379504372734"/>
<line class="edge" x1="371.7129031710383" y1="310.6439143765923" x2="213.71229918199526" y2="93.17473962254734"/>
<line class="edge" x1="368.4768351935385" y1="312.99505538576216" x2="210.4762312044955" y2="95.52588063171721"/>
<line class="edge" x1="371.2704396868733" y1="310.2014508924273" x2="117.14131457323572" y2="125.5658338925745"/>
<line class="edge" x1="368.91929867770347" y1="313.43751886992715" x2="114.79017356406584" y2="128.8019018700743"/>
<line class="edge" x1="370.7129031710383" y1="309.9173718485869" x2="201.99429738655263" y2="255.09737370825206"/>
<line class="edge" x1="369.4768351935385" y1="313.72159791376754" x2="200.75822940905286" y2="258.9015997734327"/>
<line class="edge" x1="368.0948691822884" y1="311.81948488117723" x2="368.0948691822884" y2="489.2207253897117"/>
<line class="edge" x1="372.0948691822884" y1="311.81948488117723" x2="372.0948691822884" y2="489.2207253897117"/>
<line class="edge" x1="368.1927561496981" y1="312.4375188699271" x2="411.42362403272716" y2="445.4884492513286"/>
<line class="edge" x1="371.9969822148787" y1="311.2014508924274" x2="415.2278500979078" y2="444.25238127382886"/>
<line class="edge" x1="368.1927561496981" y1="311.2014508924273" x2="339.3721775610103" y2="399.9020711466972"/>
<line class="edge" x1="371.9969822148787" y1="312.43751886992715" x2="343.1764036261909" y2="401.13813912419704"/>
<line class="edge" x1="371.9969822148787" y1="312.43751886992715" x2="415.2278500979104" y2="179.38658848852367"/>
<line class="edge" x1="368.1927561496981" y1="311.2014508924273" x2="411.4236240327298" y2="178.15052051102384"/>
<line class="edge" x1="452.7422534007644" y1="199.1165816928702" x2="594.5619678709133" y2="245.19660023834868"/>
<line class="edge" x1="453.97832137826424" y1="195.31235562768958" x2="595.7980358484131" y2="241.39237417316806"/>
<line class="edge" x1="594.0044313550783" y1="241.6764532170085" x2="499.68786345430243" y2="310.2014508924273"/>
<line class="edge" x1="596.3555723642481" y1="244.91252119450826" x2="502.0390044634723" y2="313.43751886992715"/>
<line class="edge" x1="596.7980358484131" y1="244.47005771034335" x2="651.6180339887499" y2="169.01680338972338"/>
<line class="edge" x1="593.5619678709133" y1="242.1189167011734" x2="648.3819660112501" y2="166.6656623805534"/>
<line class="edge" x1="547.4961096908203" y1="309.81948488117723" x2="500.86343395888736" y2="309.81948488117723"/>
<line class="edge" x1="547.4961096908203" y1="313.81948488117723" x2="500.86343395888736" y2="313.81948488117723"/>
<line class="edge" x1="546.8780757020704" y1="309.9173718485869" x2="458.1774554478037" y2="338.7379504372734"/>
<line class="edge" x1="548.1141436795701" y1="313.72159791376754" x2="459.41352342530354" y2="342.542176502454"/>
<line class="edge" x1="213.99637822583568" y1="93.73227613838237" x2="199.58608893149244" y2="49.38196601125009"/>
<line class="edge" x1="210.19215216065507" y1="94.96834411588218" x2="195.78186286631183" y2="50.61803398874991"/>
<line class="edge" x1="72.23346793026771" y1="143.49627020825727" x2="116.58377805740065" y2="129.0859809139147"/>
<line class="edge" x1="70.99739995276796" y1="139.69204414307666" x2="115.3477100799009" y2="125.28175484873408"/>
<line class="edge" x1="73.51754697410813" y1="140.97612318691702" x2="51.90211303259029" y2="74.45065799621463"/>
<line class="edge" x1="69.71332090892754" y1="142.2121911644169" x2="48.09788696740971" y2="75.68672597371452"/>
<line class="edge" x1="72.79100444610278" y1="143.21219116441688" x2="198.85954640348706" y2="51.6180339887499"/>
<line class="edge" x1="70.4398634369329" y1="139.97612318691705" x2="196.5084053943172" y2="48.3819660112501"/>
<line class="edge" x1="146.6884356899282" y1="215.26645414684103" x2="117.86785710124109" y2="126.5658338925745"/>
<line class="edge" x1="142.8842096247476" y1="216.50252212434086" x2="114.06363103606047" y2="127.8019018700743"/>
<line class="edge" x1="143.61075215275295" y1="217.50252212434083" x2="200.2006928932178" y2="258.6175207295923"/>
<line class="edge" x1="145.96189316192286" y1="214.26645414684106" x2="202.5518339023877" y2="255.38145275209249"/>
<line class="edge" x1="370.0948691822884" y1="491.2207253897117" x2="427.73602635966" y2="491.2207253897117"/>
<line class="edge" x1="370.0948691822884" y1="487.2207253897117" x2="427.73602635966" y2="487.2207253897117"/>
<line class="edge" x1="489.3970253746873" y1="467.4845507036277" x2="413.9437710540673" y2="442.9683022299884"/>
<line class="edge" x1="488.1609573971876" y1="471.2887767688083" x2="412.7077030765676" y2="446.772528295169"/>
<line class="edge" x1="488.16095739718753" y1="467.4845507036277" x2="427.1179923709101" y2="487.31861235712137"/>
<line class="edge" x1="489.39702537468736" y1="471.2887767688083" x2="428.3540603484099" y2="491.122838422302"/>
<line class="edge" x1="443.3218861585888" y1="531.9530015280961" x2="314.0308114588661" y2="438.0175372672289"/>
<line class="edge" x1="440.970745149419" y1="535.1890695055959" x2="311.67967044969623" y2="441.2536052447287"/>
<line class="edge" x1="444.0484286865942" y1="532.9530015280961" x2="429.6381393922503" y2="488.60269140096176"/>
<line class="edge" x1="440.2442026214136" y1="534.1890695055959" x2="425.8339133270697" y2="489.8387593784616"/>
<line class="edge" x1="339.6562566048507" y1="399.34453463086214" x2="311.23720696553124" y2="438.4600007513938"/>
<line class="edge" x1="342.8923245823505" y1="401.6956756400321" x2="314.4732749430311" y2="440.81114176056377"/>
<line class="edge" x1="411.42362403272716" y1="445.4884492513286" x2="425.8339133270697" y2="489.83875937846153"/>
<line class="edge" x1="415.2278500979078" y1="444.25238127382886" x2="429.6381393922503" y2="488.6026914009618"/>
<line class="edge" x1="414.50130756990507" y1="177.15052051102387" x2="376.7746804095954" y2="149.74052144085644"/>
<line class="edge" x1="412.1501665607351" y1="180.38658848852364" x2="374.42353940042545" y2="152.9765894183562"/>
<line class="edge" x1="377.50122293760074" y1="151.9765894183562" x2="391.911512231944" y2="107.6262792912233"/>
<line class="edge" x1="373.69699687242013" y1="150.74052144085644" x2="388.1072861667634" y2="106.3902113137235"/>
<!-- Node Halos -->
<circle class="background" cx="370.0948691822884" cy="311.81948488117723" r="12.0"/>
<circle class="background" cx="453.3602873895143" cy="197.2144686602799" r="12.0"/>
<circle class="background" cx="595.1800018596632" cy="243.29448720575837" r="12.0"/>
<circle class="background" cx="547.4961096908203" cy="311.81948488117723" r="12.0"/>
<circle class="background" cx="458.7954894365536" cy="340.6400634698637" r="12.0"/>
<circle class="background" cx="500.86343395888736" cy="311.81948488117723" r="12.0"/>
<circle class="background" cx="212.09426519324538" cy="94.35031012713227" r="12.0"/>
<circle class="background" cx="71.61543394151784" cy="141.59415717566696" r="12.0"/>
<circle class="background" cx="144.7863226573379" cy="215.88448813559094" r="12.0"/>
<circle class="background" cx="201.37626339780275" cy="256.99948674084237" r="12.0"/>
<circle class="background" cx="115.96574406865078" cy="127.1838678813244" r="12.0"/>
<circle class="background" cx="370.0948691822884" cy="489.2207253897117" r="12.0"/>
<circle class="background" cx="488.77899138593745" cy="469.386663736218" r="12.0"/>
<circle class="background" cx="442.1463156540039" cy="533.571035516846" r="12.0"/>
<circle class="background" cx="341.2742905936006" cy="400.5201051354471" r="12.0"/>
<circle class="background" cx="413.32573706531747" cy="444.8704152625787" r="12.0"/>
<circle class="background" cx="413.3257370653201" cy="178.76855449977376" r="12.0"/>
<circle class="background" cx="375.59910990501044" cy="151.35855542960633" r="12.0"/>
<circle class="background" cx="390.0093991993537" cy="107.0082453024734" r="12.0"/>
<circle class="background" cx="650.0" cy="167.8412328851384" r="12.0"/>
<circle class="background" cx="50.0" cy="75.06869198496457" r="12.0"/>
<circle class="background" cx="197.68397589890213" cy="50.0" r="5.5"/>
<circle class="background" cx="312.85524095428116" cy="439.6355712559788" r="5.5"/>
<circle class="background" cx="427.73602635966" cy="489.2207253897117" r="5.5"/>
<!-- Stations -->
<circle class="station-500" cx="370.0948691822884" cy="311.81948488117723" r="10.0"/>
<circle class="station-220" cx="453.3602873895143" cy="197.2144686602799" r="10.0"/>
<circle class="station-220" cx="595.1800018596632" cy="243.29448720575837" r="10.0"/>
<circle class="station-220" cx="547.4961096908203" cy="311.81948488117723" r="10.0"/>
<circle class="station-220" cx="458.7954894365536" cy="340.6400634698637" r="10.0"/>
<circle class="station-220" cx="500.86343395888736" cy="311.81948488117723" r="10.0"/>
<circle class="station-220" cx="212.09426519324538" cy="94.35031012713227" r="10.0"/>
<circle class="station-220" cx="71.61543394151784" cy="141.59415717566696" r="10.0"/>
<circle class="station-220" cx="144.7863226573379" cy="215.88448813559094" r="10.0"/>
<circle class="station-220" cx="201.37626339780275" cy="256.99948674084237" r="10.0"/>
<circle class="station-220" cx="115.96574406865078" cy="127.1838678813244" r="10.0"/>
<circle class="station-220" cx="370.0948691822884" cy="489.2207253897117" r="10.0"/>
<circle class="station-220" cx="488.77899138593745" cy="469.386663736218" r="10.0"/>
<circle class="station-220" cx="442.1463156540039" cy="533.571035516846" r="10.0"/>
<circle class="station-220" cx="341.2742905936006" cy="400.5201051354471" r="10.0"/>
<circle class="station-220" cx="413.32573706531747" cy="444.8704152625787" r="10.0"/>
<circle class="station-220" cx="413.3257370653201" cy="178.76855449977376" r="10.0"/>
<circle class="station-220" cx="375.59910990501044" cy="151.35855542960633" r="10.0"/>
<circle class="station-220" cx="390.0093991993537" cy="107.0082453024734" r="10.0"/>
<circle class="station-220" cx="650.0" cy="167.8412328851384" r="10.0"/>
<circle class="station-220" cx="50.0" cy="75.06869198496457" r="10.0"/>
<circle class="inter" cx="197.68397589890213" cy="50.0" r="5.0"/>
<text class="station-label" x="197.68397589890213" y="50.0">I0</text>
<circle class="inter" cx="312.85524095428116" cy="439.6355712559788" r="5.0"/>
<text class="station-label" x="312.85524095428116" y="439.6355712559788">I1</text>
<circle class="dummy" cx="427.73602635966" cy="489.2207253897117" r="5.0"/>
<text class="station-label" x="427.73602635966" y="489.2207253897117">D0</text>
</svg>
