<?xml version="1.0" encoding="UTF-8"?>
<svg width="700.0" height="535.2769399578419" viewBox="0 0 700.0 535.2769399578419" xmlns="http://www.w3.org/2000/svg">
<defs>
  <style>
    .station-220 { fill: #2563eb; stroke: #1e40af; stroke-width: 2; }
    .station-500 { fill: #ef4444; stroke: #1e40af; stroke-width: 2; }
    .station-default { fill: #2563eb; stroke: #1e40af; stroke-width: 2; }
    .bend { fill: #111827; stroke: #111827; stroke-width: 1; }
    .dummy { fill: #8b4513; stroke: #8b4513; stroke-width: 1; }
    .inter { fill: #6b7280; stroke: #6b7280; stroke-width: 1; }
    .station-label { font-family: Arial, sans-serif; font-size: 8px; fill: white; text-anchor: middle; dominant-baseline: central; }
    .edge { stroke: #6b7280; stroke-width: 2; fill: none; }
    .background { fill: #f8fafc; }
  </style>
</defs>
<rect class="background" width="700.0" height="535.2769399578419"/>
<!-- Edges -->
<line class="edge" x1="193.4207732629209" y1="373.267612457835" x2="82.86609343867285" y2="196.86675061379773"/>
<line class="edge" x1="190.0314090612193" y1="375.3918088489965" x2="79.47672923697125" y2="198.99094700495928"/>
<line class="edge" x1="193.72577210527209" y1="374.365433550763" x2="197.62487958600997" y2="156.10287637512184"/>
<line class="edge" x1="189.72641021886812" y1="374.29398775606853" x2="193.625517699606" y2="156.03143058042738"/>
<line class="edge" x1="80.20055608329982" y1="199.67740251880997" x2="438.93752119876575" y2="398.860113175693"/>
<line class="edge" x1="82.14226659234428" y1="196.18029509994705" x2="440.8792317078102" y2="395.3630057568301"/>
<line class="edge" x1="79.291396291557" y1="198.61115623702167" x2="174.103471968963" y2="459.8542874408659"/>
<line class="edge" x1="83.0514263840871" y1="197.24654138173534" x2="177.86350206149308" y2="458.4896725855795"/>
<line class="edge" x1="439.7030411801038" y1="395.12212803351844" x2="192.55817914747553" y2="420.6307014511826"/>
<line class="edge" x1="440.11371172647216" y1="399.10099089900467" x2="192.96884969384388" y2="424.6095643166688"/>
<line class="edge" x1="441.45460220159407" y1="395.84302253921715" x2="253.9271610945652" y2="167.26492459671587"/>
<line class="edge" x1="438.3621507049819" y1="398.38009639330596" x2="250.83470959795304" y2="169.80199845080475"/>
<line class="edge" x1="194.743276834385" y1="422.9039299684784" x2="231.7414456152431" y2="164.805493036118"/>
<line class="edge" x1="190.7837520069344" y1="422.336335799373" x2="227.7819207877925" y2="164.23789886701266"/>
<line class="edge" x1="194.45896060787425" y1="421.5592548389744" x2="51.69544618721455" y2="193.40121410114872"/>
<line class="edge" x1="191.06806823344516" y1="423.68101092887696" x2="48.30455381278545" y2="195.52297019105126"/>
<line class="edge" x1="531.4772978632557" y1="85.25350156244977" x2="119.02539290420535" y2="137.1737289067987"/>
<line class="edge" x1="531.9768827270243" y1="89.22218080923872" x2="119.52497776797398" y2="141.14240815358764"/>
<line class="edge" x1="531.3258434910516" y1="85.27850430766101" x2="195.22395183871956" y2="154.1078165995914"/>
<line class="edge" x1="532.1283370992284" y1="89.19717806402748" x2="196.02644544689642" y2="158.02649035595783"/>
<line class="edge" x1="531.2312016329263" y1="85.30029262266244" x2="229.2657945393041" y2="162.5841473883835"/>
<line class="edge" x1="532.2229789573537" y1="89.17538974902605" x2="230.2575718637315" y2="166.45924451474716"/>
<line class="edge" x1="530.0350750283081" y1="88.30418275251418" x2="648.3079847331682" y2="275.9734766525867"/>
<line class="edge" x1="533.4191055619718" y1="86.17149961917431" x2="651.6920152668318" y2="273.8407935192469"/>
<line class="edge" x1="531.166758762216" y1="483.97466126387474" x2="263.2320100497956" y2="171.6739597313888"/>
<line class="edge" x1="528.130925958362" y1="486.57921865180913" x2="260.1961772459416" y2="174.27851711932325"/>
<line class="edge" x1="531.3848313293227" y1="486.2700876303426" x2="651.7359889690337" y2="275.90028275841746"/>
<line class="edge" x1="527.9128533912553" y1="484.2837922853413" x2="648.2640110309663" y2="273.9139874134162"/>
<line class="edge" x1="261.15074739026755" y1="174.89525926788144" x2="616.2126207174558" y2="279.12694509598333"/>
<line class="edge" x1="262.27743990546963" y1="171.05721758283062" x2="617.339313232658" y2="275.2889034109325"/>
<line class="edge" x1="260.38972372807166" y1="174.47491928382362" x2="552.3084956105489" y2="432.4407419076743"/>
<line class="edge" x1="263.03846356766553" y1="171.47755756688844" x2="554.9572354501428" y2="429.4433801907391"/>
<line class="edge" x1="618.7005832762792" y1="276.6640013792656" x2="554.4885181905113" y2="49.45607712580768"/>
<line class="edge" x1="614.8513506738346" y1="277.75184712765025" x2="550.6392855880667" y2="50.54392287419232"/>
<line class="edge" x1="617.3475542408752" y1="275.2913418791378" x2="252.95252261207733" y2="166.61687914944022"/>
<line class="edge" x1="616.2043797092387" y1="279.12450662777803" x2="251.8093480804409" y2="170.4500438980804"/>
<line class="edge" x1="119.67828111179523" y1="141.11702585377333" x2="552.9669976649946" y2="51.95895732358016"/>
<line class="edge" x1="118.8720895603841" y1="137.199111206613" x2="552.1608061135835" y2="48.04104267641984"/>
<line class="edge" x1="118.02739348712677" y1="137.59505365449243" x2="48.7522081510371" y2="192.89907727039926"/>
<line class="edge" x1="120.52297718505255" y1="140.7210834058939" x2="51.2477918489629" y2="196.02510702180072"/>
<line class="edge" x1="553.4837781606999" y1="428.94762555107394" x2="175.8343996455821" y2="457.17754451508995"/>
<line class="edge" x1="553.7819528999918" y1="432.93649654733946" x2="176.13257438487398" y2="461.16641551135547"/>
<!-- Node Halos -->
<circle class="background" cx="191.7260911620701" cy="374.32971065341576" r="12.0"/>
<circle class="background" cx="81.17141133782205" cy="197.9288488093785" r="12.0"/>
<circle class="background" cx="439.908376453288" cy="397.11155946626155" r="12.0"/>
<circle class="background" cx="192.7635144206597" cy="422.6201328839257" r="12.0"/>
<circle class="background" cx="531.72709029514" cy="87.23784118584425" r="12.0"/>
<circle class="background" cx="529.648842360289" cy="485.27693995784193" r="12.0"/>
<circle class="background" cx="261.7140936478686" cy="172.97623842535603" r="12.0"/>
<circle class="background" cx="616.7759669750569" cy="277.2079242534579" r="12.0"/>
<circle class="background" cx="119.27518533608966" cy="139.15806853019316" r="12.0"/>
<circle class="background" cx="553.6328655303458" cy="430.9420610492067" r="12.0"/>
<circle class="background" cx="175.98348701522804" cy="459.1719800132227" r="5.5"/>
<circle class="background" cx="552.563901889289" cy="50.0" r="5.5"/>
<circle class="background" cx="195.625198642808" cy="156.0671534777746" r="5.5"/>
<circle class="background" cx="229.7616832015178" cy="164.52169595156533" r="5.5"/>
<circle class="background" cx="252.38093534625912" cy="168.5334615237603" r="5.5"/>
<circle class="background" cx="50.0" cy="194.4620921461" r="5.5"/>
<circle class="background" cx="650.0" cy="274.9071350859168" r="5.5"/>
<!-- Stations -->
<circle class="station-220" cx="191.7260911620701" cy="374.32971065341576" r="10.0"/>
<circle class="station-220" cx="81.17141133782205" cy="197.9288488093785" r="10.0"/>
<circle class="station-220" cx="439.908376453288" cy="397.11155946626155" r="10.0"/>
<circle class="station-220" cx="192.7635144206597" cy="422.6201328839257" r="10.0"/>
<circle class="station-220" cx="531.72709029514" cy="87.23784118584425" r="10.0"/>
<circle class="station-220" cx="529.648842360289" cy="485.27693995784193" r="10.0"/>
<circle class="station-220" cx="261.7140936478686" cy="172.97623842535603" r="10.0"/>
<circle class="station-220" cx="616.7759669750569" cy="277.2079242534579" r="10.0"/>
<circle class="station-220" cx="119.27518533608966" cy="139.15806853019316" r="10.0"/>
<circle class="station-220" cx="553.6328655303458" cy="430.9420610492067" r="10.0"/>
<circle class="bend" cx="175.98348701522804" cy="459.1719800132227" r="3.5"/>
<circle class="bend" cx="552.563901889289" cy="50.0" r="3.5"/>
<circle class="bend" cx="195.625198642808" cy="156.0671534777746" r="3.5"/>
<circle class="bend" cx="229.7616832015178" cy="164.52169595156533" r="3.5"/>
<circle class="bend" cx="252.38093534625912" cy="168.5334615237603" r="3.5"/>
<circle class="bend" cx="50.0" cy="194.4620921461" r="3.5"/>
<circle class="bend" cx="650.0" cy="274.9071350859168" r="3.5"/>
</svg>
