<?xml version="1.0" encoding="UTF-8"?>
<svg width="700.0" height="685.6410256410256" viewBox="0 0 700.0 685.6410256410256" xmlns="http://www.w3.org/2000/svg">
<defs>
  <style>
    .station-220 { fill: #2563eb; stroke: #1e40af; stroke-width: 2; }
    .station-500 { fill: #ef4444; stroke: #1e40af; stroke-width: 2; }
    .station-default { fill: #2563eb; stroke: #1e40af; stroke-width: 2; }
    .bend { fill: #111827; stroke: #111827; stroke-width: 1; }
    .dummy { fill: #8b4513; stroke: #8b4513; stroke-width: 1; }
    .inter { fill: #6b7280; stroke: #6b7280; stroke-width: 1; }
    .station-label { font-family: Arial, sans-serif; font-size: 8px; fill: white; text-anchor: middle; dominant-baseline: central; }
    .edge { stroke: #6b7280; stroke-width: 2; fill: none; }
    .background { fill: #f8fafc; }
  </style>
</defs>
<rect class="background" width="700.0" height="685.6410256410256"/>
<!-- Edges -->
<line class="edge" x1="362.8178395144071" y1="283.5134575636912" x2="492.04860874517635" y2="206.59038064061428"/>
<line class="edge" x1="360.7719040753364" y1="280.07628602605234" x2="490.00267330610563" y2="203.15320910297544"/>
<line class="edge" x1="360.20346326776723" y1="283.0062424647573" x2="464.8188478831518" y2="420.4421399006547"/>
<line class="edge" x1="363.3862803219763" y1="280.58350112498624" x2="468.0016649373609" y2="418.01939856088364"/>
<line class="edge" x1="362.5886940962427" y1="279.9591577229515" x2="210.79382230137094" y2="214.31813208192585"/>
<line class="edge" x1="361.00104949350083" y1="283.63058586679205" x2="209.20617769862906" y2="217.9895602257664"/>
<line class="edge" x1="360.4808029223169" y1="280.28715066741404" x2="248.6859311274451" y2="377.7230481033115"/>
<line class="edge" x1="363.1089406674266" y1="283.3025929223295" x2="251.31406887255486" y2="380.73849035822695"/>
<line class="edge" x1="363.6543960316166" y1="282.531193472509" x2="424.1672165444371" y2="129.71068065199617"/>
<line class="edge" x1="359.9353475581269" y1="281.0585501172345" x2="420.4481680709474" y2="128.23803729672173"/>
<line class="edge" x1="363.5218439192708" y1="280.78612639510595" x2="235.31671571414262" y2="61.29894690792651"/>
<line class="edge" x1="360.06789967047274" y1="282.8036171946376" x2="231.8627714653445" y2="63.3164377074581"/>
<line class="edge" x1="359.84175930455984" y1="282.22539659112334" x2="401.8930413558419" y2="472.9946273603541"/>
<line class="edge" x1="363.7479842851837" y1="281.3643469986202" x2="405.79926633646573" y2="472.13357776785097"/>
<line class="edge" x1="359.8892657508601" y1="281.18769339849547" x2="293.2225990841934" y2="490.4184626292647"/>
<line class="edge" x1="363.70047783888344" y1="282.40205019124807" x2="297.03381117221676" y2="491.6328194220173"/>
<line class="edge" x1="491.55973098951597" y1="206.7991630023003" x2="576.687936117721" y2="183.2094194125567"/>
<line class="edge" x1="490.491551061766" y1="202.94442674128942" x2="575.6197561899711" y2="179.35468315154583"/>
<line class="edge" x1="574.1766084791668" y1="180.98116728807835" x2="545.4586597612182" y2="369.69911600602705"/>
<line class="edge" x1="578.1310838285253" y1="181.5829352760242" x2="549.4131351105767" y2="370.30088399397295"/>
<line class="edge" x1="576.8560930370229" y1="183.15470963718937" x2="650.7022468831768" y2="155.4624019448817"/>
<line class="edge" x1="575.4515992706692" y1="179.40939292691317" x2="649.2977531168232" y2="151.7170852346055"/>
<line class="edge" x1="546.3973766351999" y1="368.2907678488519" x2="465.37173560955875" y2="417.52153707962105"/>
<line class="edge" x1="548.474418236595" y1="371.7092321511481" x2="467.44877721095395" y2="420.9400013819173"/>
<line class="edge" x1="210.767527348685" y1="214.30698347107284" x2="131.79316837432603" y2="181.48647065056002"/>
<line class="edge" x1="209.232472651315" y1="218.00070883661942" x2="130.25811367695601" y2="185.1801960161066"/>
<line class="edge" x1="129.0392078496904" y1="183.5658913636885" x2="153.654592465075" y2="393.82230162009876"/>
<line class="edge" x1="133.01207420159164" y1="183.10077530297812" x2="157.62745881697626" y2="393.3571855593883"/>
<line class="edge" x1="130.4890955560933" y1="181.4066473290483" x2="49.46345453045227" y2="203.97074989315087"/>
<line class="edge" x1="131.56218649518874" y1="185.26001933761833" x2="50.53654546954773" y2="207.8241219017209"/>
<line class="edge" x1="155.94190963499855" y1="395.56698126442274" x2="250.3008839939729" y2="381.2080069054484"/>
<line class="edge" x1="155.34014164705272" y1="391.61250591506433" x2="249.69911600602705" y2="377.25353155609"/>
<line class="edge" x1="423.96514007276414" y1="130.09367434817375" x2="477.29847340609746" y2="51.11931537381479"/>
<line class="edge" x1="420.6502445426204" y1="127.85504360054416" x2="473.9835778759537" y2="48.88068462618521"/>
<line class="edge" x1="474.75055827173156" y1="48.20917117953094" x2="289.109532630706" y2="140.51686348722322"/>
<line class="edge" x1="476.5314930103196" y1="51.79082882046906" x2="290.890467369294" y2="144.09852112816137"/>
<line class="edge" x1="291.63451626776094" y1="141.15514878555317" x2="235.2242598575045" y2="61.15514878555318"/>
<line class="edge" x1="288.36548373223906" y1="143.46023582983142" x2="231.95522732198262" y2="63.46023582983143"/>
<line class="edge" x1="401.94878725005276" y1="473.19655809613624" x2="427.5898128910784" y2="550.1196350192131"/>
<line class="edge" x1="405.74352044225486" y1="471.93164703206884" x2="431.3845460832805" y2="548.8547239551458"/>
<line class="edge" x1="427.7418132528438" y1="548.5106055227297" x2="379.53668504771565" y2="634.6644516765759"/>
<line class="edge" x1="431.23254572151507" y1="550.4637534516291" x2="383.0274175163869" y2="636.6175996054753"/>
<line class="edge" x1="293.17698561601" y1="490.5866166353971" x2="274.7154471544715" y2="572.637898686679"/>
<line class="edge" x1="297.0794246404002" y1="491.4646654158849" x2="278.61788617886174" y2="573.5159474671669"/>
<!-- Node Halos -->
<circle class="background" cx="361.79487179487177" cy="281.79487179487177" r="12.0"/>
<circle class="background" cx="491.025641025641" cy="204.87179487179486" r="12.0"/>
<circle class="background" cx="576.1538461538461" cy="181.28205128205127" r="12.0"/>
<circle class="background" cx="547.4358974358975" cy="370.0" r="12.0"/>
<circle class="background" cx="466.41025641025635" cy="419.23076923076917" r="12.0"/>
<circle class="background" cx="210.0" cy="216.15384615384613" r="12.0"/>
<circle class="background" cx="131.02564102564102" cy="183.33333333333331" r="12.0"/>
<circle class="background" cx="155.64102564102564" cy="393.58974358974353" r="12.0"/>
<circle class="background" cx="249.99999999999997" cy="379.2307692307692" r="12.0"/>
<circle class="background" cx="422.30769230769226" cy="128.97435897435895" r="12.0"/>
<circle class="background" cx="475.6410256410256" cy="50.0" r="12.0"/>
<circle class="background" cx="290.0" cy="142.3076923076923" r="12.0"/>
<circle class="background" cx="233.58974358974356" cy="62.30769230769231" r="12.0"/>
<circle class="background" cx="403.8461538461538" cy="472.56410256410254" r="12.0"/>
<circle class="background" cx="429.48717948717945" cy="549.4871794871794" r="12.0"/>
<circle class="background" cx="381.28205128205127" cy="635.6410256410256" r="12.0"/>
<circle class="background" cx="295.1282051282051" cy="491.025641025641" r="12.0"/>
<circle class="background" cx="276.66666666666663" cy="573.076923076923" r="12.0"/>
<circle class="background" cx="650.0" cy="153.5897435897436" r="12.0"/>
<circle class="background" cx="50.0" cy="205.89743589743588" r="12.0"/>
<!-- Stations -->
<circle class="station-500" cx="361.79487179487177" cy="281.79487179487177" r="10.0"/>
<circle class="station-220" cx="491.025641025641" cy="204.87179487179486" r="10.0"/>
<circle class="station-220" cx="576.1538461538461" cy="181.28205128205127" r="10.0"/>
<circle class="station-220" cx="547.4358974358975" cy="370.0" r="10.0"/>
<circle class="station-220" cx="466.41025641025635" cy="419.23076923076917" r="10.0"/>
<circle class="station-220" cx="210.0" cy="216.15384615384613" r="10.0"/>
<circle class="station-220" cx="131.02564102564102" cy="183.33333333333331" r="10.0"/>
<circle class="station-220" cx="155.64102564102564" cy="393.58974358974353" r="10.0"/>
<circle class="station-220" cx="249.99999999999997" cy="379.2307692307692" r="10.0"/>
<circle class="station-220" cx="422.30769230769226" cy="128.97435897435895" r="10.0"/>
<circle class="station-220" cx="475.6410256410256" cy="50.0" r="10.0"/>
<circle class="station-220" cx="290.0" cy="142.3076923076923" r="10.0"/>
<circle class="station-220" cx="233.58974358974356" cy="62.30769230769231" r="10.0"/>
<circle class="station-220" cx="403.8461538461538" cy="472.56410256410254" r="10.0"/>
<circle class="station-220" cx="429.48717948717945" cy="549.4871794871794" r="10.0"/>
<circle class="station-220" cx="381.28205128205127" cy="635.6410256410256" r="10.0"/>
<circle class="station-220" cx="295.1282051282051" cy="491.025641025641" r="10.0"/>
<circle class="station-220" cx="276.66666666666663" cy="573.076923076923" r="10.0"/>
<circle class="station-220" cx="650.0" cy="153.5897435897436" r="10.0"/>
<circle class="station-220" cx="50.0" cy="205.89743589743588" r="10.0"/>
</svg>
