<?xml version="1.0" encoding="UTF-8"?>
<svg width="700.0" height="545.8951230895688" viewBox="0 0 700.0 545.8951230895688" xmlns="http://www.w3.org/2000/svg">
<defs>
  <style>
    .station-220 { fill: #2563eb; stroke: #1e40af; stroke-width: 2; }
    .station-500 { fill: #ef4444; stroke: #1e40af; stroke-width: 2; }
    .station-default { fill: #2563eb; stroke: #1e40af; stroke-width: 2; }
    .bend { fill: #111827; stroke: #111827; stroke-width: 1; }
    .dummy { fill: #8b4513; stroke: #8b4513; stroke-width: 1; }
    .inter { fill: #6b7280; stroke: #6b7280; stroke-width: 1; }
    .station-label { font-family: Arial, sans-serif; font-size: 8px; fill: white; text-anchor: middle; dominant-baseline: central; }
    .edge { stroke: #6b7280; stroke-width: 2; fill: none; }
    .background { fill: #f8fafc; }
  </style>
</defs>
<rect class="background" width="700.0" height="545.8951230895688"/>
<!-- Edges -->
<line class="edge" x1="175.54129094014542" y1="370.546670564055" x2="51.6946821008508" y2="172.93722906014776"/>
<line class="edge" x1="172.15192673844382" y1="372.67086695521647" x2="48.3053178991492" y2="175.0614254513093"/>
<line class="edge" x1="175.13691777873538" y1="373.1368730887963" x2="556.0160520817146" y2="51.528104329160556"/>
<line class="edge" x1="172.55629989985385" y1="370.08066443047517" x2="553.435434202833" y2="48.471895670839444"/>
<line class="edge" x1="49.029144745477765" y1="175.74788096516" x2="450.8968600288092" y2="398.87822057166954"/>
<line class="edge" x1="50.970855254522235" y1="172.25077354629707" x2="452.8385705378537" y2="395.3811131528066"/>
<line class="edge" x1="49.115358467400526" y1="175.7930411010227" x2="578.3805962849691" y2="436.82130509246804"/>
<line class="edge" x1="50.884641532599474" y1="172.20561341043435" x2="580.1498793501681" y2="433.2338774018797"/>
<line class="edge" x1="451.6623800101473" y1="395.14023542949496" x2="174.80342565873627" y2="423.7156907528523"/>
<line class="edge" x1="452.0730505565156" y1="399.1190982949812" x2="175.21409620510462" y2="427.69455361833855"/>
<line class="edge" x1="452.9899895966709" y1="398.78511253202566" x2="651.1222743133395" y2="264.4655284835123"/>
<line class="edge" x1="450.745440969992" y1="395.4742211924505" x2="648.8777256866605" y2="261.1546371439371"/>
<line class="edge" x1="176.4154441187429" y1="427.1268262377494" x2="556.1324263290962" y2="51.42170405215397"/>
<line class="edge" x1="173.602077745098" y1="424.28341813344144" x2="553.3190599554514" y2="48.57829594784603"/>
<line class="edge" x1="176.94475777404136" y1="425.2032096162192" x2="94.62096686027212" y2="107.66065546469535"/>
<line class="edge" x1="173.07276408979953" y1="426.20703475497163" x2="90.74897317603029" y2="108.66448060344779"/>
<line class="edge" x1="552.7257704028084" y1="49.989557711218886" x2="550.3976558492886" y2="495.88468080078763"/>
<line class="edge" x1="556.7257158817392" y1="50.010442288781114" x2="554.3976013282195" y2="495.9055653783499"/>
<line class="edge" x1="554.4759507103895" y1="48.015660376605524" x2="92.43517758626689" y2="106.1782284106771"/>
<line class="edge" x1="554.9755355741581" y1="51.984339623394476" x2="92.93476245003552" y2="110.14690765746604"/>
<line class="edge" x1="553.915544990681" y1="494.59284439560156" x2="253.76714719337852" y2="144.74439940514415"/>
<line class="edge" x1="550.8797121868271" y1="497.19740178353595" x2="250.7313143895245" y2="147.3489567930786"/>
<line class="edge" x1="251.68588453385047" y1="147.9656989416368" x2="649.4366537423989" y2="264.7291036562501"/>
<line class="edge" x1="252.81257704905255" y1="144.12765725658596" x2="650.5633462576011" y2="260.8910619711993"/>
<line class="edge" x1="250.9248608716546" y1="147.54535895757897" x2="577.9408678977717" y2="436.52627210564145"/>
<line class="edge" x1="253.57360071124842" y1="144.54799724064378" x2="580.5896077373656" y2="433.52891038870627"/>
<line class="edge" x1="650.5347669520377" y1="260.88290241038715" x2="93.21973697018892" y2="106.23538763073401"/>
<line class="edge" x1="649.4652330479623" y1="264.73726321706226" x2="92.15020306611349" y2="110.08974843740913"/>
<!-- Node Halos -->
<circle class="background" cx="173.84660883929462" cy="371.6087687596357" r="12.0"/>
<circle class="background" cx="50.0" cy="173.99932725572853" r="12.0"/>
<circle class="background" cx="451.86771528333145" cy="397.1296668622381" r="12.0"/>
<circle class="background" cx="175.00876093192045" cy="425.7051221855954" r="12.0"/>
<circle class="background" cx="554.7257431422738" cy="50.0" r="12.0"/>
<circle class="background" cx="552.3976285887541" cy="495.89512308956876" r="12.0"/>
<circle class="background" cx="252.2492307914515" cy="146.04667809911138" r="12.0"/>
<circle class="background" cx="650.0" cy="262.8100828137247" r="12.0"/>
<circle class="background" cx="92.6849700181512" cy="108.16256803407157" r="12.0"/>
<circle class="background" cx="579.2652378175686" cy="435.02759124717386" r="12.0"/>
<!-- Stations -->
<circle class="station-220" cx="173.84660883929462" cy="371.6087687596357" r="10.0"/>
<circle class="station-220" cx="50.0" cy="173.99932725572853" r="10.0"/>
<circle class="station-220" cx="451.86771528333145" cy="397.1296668622381" r="10.0"/>
<circle class="station-220" cx="175.00876093192045" cy="425.7051221855954" r="10.0"/>
<circle class="station-220" cx="554.7257431422738" cy="50.0" r="10.0"/>
<circle class="station-220" cx="552.3976285887541" cy="495.89512308956876" r="10.0"/>
<circle class="station-220" cx="252.2492307914515" cy="146.04667809911138" r="10.0"/>
<circle class="station-220" cx="650.0" cy="262.8100828137247" r="10.0"/>
<circle class="station-220" cx="92.6849700181512" cy="108.16256803407157" r="10.0"/>
<circle class="station-220" cx="579.2652378175686" cy="435.02759124717386" r="10.0"/>
</svg>
