<?xml version="1.0" encoding="UTF-8"?>
<svg width="700.0" height="688.2497829896637" viewBox="0 0 700.0 688.2497829896637" xmlns="http://www.w3.org/2000/svg">
<defs>
  <style>
    .station-220 { fill: #2563eb; stroke: #1e40af; stroke-width: 2; }
    .station-500 { fill: #ef4444; stroke: #1e40af; stroke-width: 2; }
    .station-default { fill: #2563eb; stroke: #1e40af; stroke-width: 2; }
    .bend { fill: #111827; stroke: #111827; stroke-width: 1; }
    .dummy { fill: #8b4513; stroke: #8b4513; stroke-width: 1; }
    .inter { fill: #6b7280; stroke: #6b7280; stroke-width: 1; }
    .station-label { font-family: Arial, sans-serif; font-size: 8px; fill: white; text-anchor: middle; dominant-baseline: central; }
    .edge { stroke: #6b7280; stroke-width: 2; fill: none; }
    .background { fill: #f8fafc; }
  </style>
</defs>
<rect class="background" width="700.0" height="688.2497829896637"/>
<!-- Edges -->
<line class="edge" x1="314.10919519260074" y1="297.08540554261907" x2="356.0596586875921" y2="167.97515466721111"/>
<line class="edge" x1="310.3049691274201" y1="295.84933756511924" x2="352.2554326224115" y2="166.73908668971134"/>
<line class="edge" x1="312.20708216001043" y1="298.46737155386916" x2="420.8107234059415" y2="298.46737155386916"/>
<line class="edge" x1="312.20708216001043" y1="294.46737155386916" x2="420.8107234059415" y2="294.46737155386916"/>
<line class="edge" x1="311.5890481712605" y1="298.36948458645946" x2="414.87724887158356" y2="331.92985538245165"/>
<line class="edge" x1="312.82511614876034" y1="294.56525852127885" x2="416.1133168490834" y2="328.12562931727103"/>
<line class="edge" x1="313.38265266459535" y1="294.84933756511924" x2="225.52046124563222" y2="231.01371889549492"/>
<line class="edge" x1="311.0315116554255" y1="298.08540554261907" x2="223.1693202364623" y2="234.2497868729947"/>
<line class="edge" x1="312.82511614876034" y1="294.56525852127885" x2="127.43241243590637" y2="234.32751754710077"/>
<line class="edge" x1="311.5890481712605" y1="298.36948458645946" x2="126.19634445840657" y2="238.13174361228138"/>
<line class="edge" x1="310.5890481712605" y1="295.29180104928423" x2="230.7945248342359" y2="405.11954032297945"/>
<line class="edge" x1="313.82511614876034" y1="297.6429420584541" x2="234.03059281173566" y2="407.4706813321493"/>
<line class="edge" x1="310.3049691274201" y1="297.08540554261907" x2="371.01625023489504" y2="483.93551592791545"/>
<line class="edge" x1="314.10919519260074" y1="295.84933756511924" x2="374.82047630007565" y2="482.6994479504156"/>
<line class="edge" x1="310.5890481712605" y1="297.6429420584541" x2="408.8219645037041" y2="432.8489520935862"/>
<line class="edge" x1="313.82511614876034" y1="295.29180104928423" x2="412.05803248120395" y2="430.49781108441636"/>
<line class="edge" x1="310.20708216001043" y1="296.46737155386916" x2="310.20708216001043" y2="450.9925767543272"/>
<line class="edge" x1="314.20708216001043" y1="296.46737155386916" x2="314.20708216001043" y2="450.9925767543272"/>
<line class="edge" x1="314.20708216001043" y1="296.46737155386916" x2="314.20708216001043" y2="133.56190968497253"/>
<line class="edge" x1="310.20708216001043" y1="296.46737155386916" x2="310.20708216001043" y2="133.56190968497253"/>
<line class="edge" x1="353.5395116662519" y1="169.25923371105154" x2="585.5463473416281" y2="244.64282428265187"/>
<line class="edge" x1="354.7755796437517" y1="165.45500764587092" x2="586.7824153191278" y2="240.83859821747126"/>
<line class="edge" x1="585.5463473416281" y1="240.83859821747126" x2="420.19268941719156" y2="294.56525852127885"/>
<line class="edge" x1="586.7824153191278" y1="244.64282428265187" x2="421.4287573946914" y2="298.36948458645946"/>
<line class="edge" x1="587.7824153191278" y1="243.91628175464652" x2="651.6180339887499" y2="156.05409033568722"/>
<line class="edge" x1="584.5463473416281" y1="241.5651407454766" x2="648.3819660112501" y2="153.7029493265173"/>
<line class="edge" x1="518.7834835606582" y1="294.46737155386916" x2="420.8107234059415" y2="294.46737155386916"/>
<line class="edge" x1="518.7834835606582" y1="298.46737155386916" x2="420.8107234059415" y2="298.46737155386916"/>
<line class="edge" x1="518.1654495719083" y1="294.56525852127885" x2="414.8772488715836" y2="328.12562931727103"/>
<line class="edge" x1="519.401517549408" y1="298.36948458645946" x2="416.11331684908333" y2="331.92985538245165"/>
<line class="edge" x1="226.34489074104727" y1="232.6317528842448" x2="226.34489074104727" y2="144.62811579305315"/>
<line class="edge" x1="222.34489074104727" y1="232.6317528842448" x2="222.34489074104727" y2="144.62811579305315"/>
<line class="edge" x1="75.78831208574432" y1="254.9119290102744" x2="127.43241243590626" y2="238.1317436122814"/>
<line class="edge" x1="74.55224410824475" y1="251.10770294509373" x2="126.19634445840668" y2="234.32751754710074"/>
<line class="edge" x1="77.07239112958484" y1="252.39178198893418" x2="51.90211303259031" y2="174.9256314636913"/>
<line class="edge" x1="73.26816506440423" y1="253.62784996643396" x2="48.09788696740969" y2="176.16169944119108"/>
<line class="edge" x1="76.34584860157949" y1="254.62784996643396" x2="225.52046124563222" y2="146.24614978180304"/>
<line class="edge" x1="73.99470759240958" y1="251.39178198893418" x2="223.1693202364623" y2="143.01008180430327"/>
<line class="edge" x1="168.41802829135895" y1="357.80036283659894" x2="128.7164914797468" y2="235.6115965909412"/>
<line class="edge" x1="164.61380222617834" y1="359.03643081409876" x2="124.91226541456616" y2="236.84766456844096"/>
<line class="edge" x1="165.3403447541837" y1="360.0364308140987" x2="231.23698831840082" y2="407.91314481631423"/>
<line class="edge" x1="167.6914857633536" y1="356.800362836599" x2="233.58812932757073" y2="404.6770768388145"/>
<line class="edge" x1="372.91836326748535" y1="485.31748193916553" x2="427.2201838904509" y2="485.31748193916553"/>
<line class="edge" x1="372.91836326748535" y1="481.31748193916553" x2="427.2201838904509" y2="481.31748193916553"/>
<line class="edge" x1="570.0022299211287" y1="481.4153689065752" x2="411.05803248120395" y2="429.771268556411"/>
<line class="edge" x1="568.766161943629" y1="485.21959497175584" x2="409.8219645037041" y2="433.5754946215916"/>
<line class="edge" x1="569.3841959323788" y1="481.31748193916553" x2="427.2201838904509" y2="481.31748193916553"/>
<line class="edge" x1="569.3841959323788" y1="485.31748193916553" x2="427.2201838904509" y2="485.31748193916553"/>
<line class="edge" x1="478.7363105890288" y1="636.6317490009138" x2="281.46484332978395" y2="493.3056384750562"/>
<line class="edge" x1="476.38516957985894" y1="639.8678169784135" x2="279.1137023206141" y2="496.541706452556"/>
<line class="edge" x1="479.4628531170342" y1="637.6317490009138" x2="429.12229692304123" y2="482.6994479504156"/>
<line class="edge" x1="475.65862705185356" y1="638.8678169784135" x2="425.3180708578606" y2="483.93551592791545"/>
<line class="edge" x1="310.5890481712606" y1="449.81700624974224" x2="278.67123883644916" y2="493.7481019592211"/>
<line class="edge" x1="313.8251161487603" y1="452.1681472589122" x2="281.9073068139489" y2="496.0992429683911"/>
<line class="edge" x1="408.53788545986373" y1="432.2914155777512" x2="425.3180708578606" y2="483.93551592791545"/>
<line class="edge" x1="412.34211152504434" y1="431.05534760025137" x2="429.12229692304123" y2="482.6994479504156"/>
<line class="edge" x1="313.3826526645954" y1="131.94387569622265" x2="269.45155695511653" y2="100.02606636141203"/>
<line class="edge" x1="311.03151165542545" y1="135.17994367372242" x2="267.10041594594657" y2="103.2621343389118"/>
<line class="edge" x1="270.17809948312185" y1="102.26213433891184" x2="286.9582848811187" y2="50.618033988749914"/>
<line class="edge" x1="266.37387341794124" y1="101.026066361412" x2="283.1540588159381" y2="49.381966011250086"/>
<!-- Node Halos -->
<circle class="background" cx="312.20708216001043" cy="296.46737155386916" r="12.0"/>
<circle class="background" cx="354.1575456550018" cy="167.35712067846123" r="12.0"/>
<circle class="background" cx="586.164381330378" cy="242.74071125006157" r="12.0"/>
<circle class="background" cx="518.7834835606582" cy="296.46737155386916" r="12.0"/>
<circle class="background" cx="415.4952828603335" cy="330.02774234986134" r="12.0"/>
<circle class="background" cx="420.8107234059415" cy="296.46737155386916" r="12.0"/>
<circle class="background" cx="224.34489074104727" cy="232.6317528842448" r="12.0"/>
<circle class="background" cx="75.17027809699454" cy="253.00981597768407" r="12.0"/>
<circle class="background" cx="166.51591525876864" cy="358.41839682534885" r="12.0"/>
<circle class="background" cx="232.41255882298577" cy="406.2951108275644" r="12.0"/>
<circle class="background" cx="126.81437844715647" cy="236.22963057969108" r="12.0"/>
<circle class="background" cx="372.91836326748535" cy="483.31748193916553" r="12.0"/>
<circle class="background" cx="569.3841959323788" cy="483.31748193916553" r="12.0"/>
<circle class="background" cx="477.56074008444386" cy="638.2497829896637" r="12.0"/>
<circle class="background" cx="312.20708216001043" cy="450.9925767543272" r="12.0"/>
<circle class="background" cx="410.43999849245404" cy="431.6733815890013" r="12.0"/>
<circle class="background" cx="312.20708216001043" cy="133.56190968497253" r="12.0"/>
<circle class="background" cx="268.27598645053155" cy="101.64410035016192" r="12.0"/>
<circle class="background" cx="285.0561718485284" cy="50.0" r="12.0"/>
<circle class="background" cx="650.0" cy="154.87851983110227" r="12.0"/>
<circle class="background" cx="50.0" cy="175.5436654524412" r="12.0"/>
<circle class="background" cx="224.34489074104727" cy="144.62811579305315" r="5.5"/>
<circle class="background" cx="280.289272825199" cy="494.9236724638061" r="5.5"/>
<circle class="background" cx="427.2201838904509" cy="483.31748193916553" r="5.5"/>
<!-- Stations -->
<circle class="station-500" cx="312.20708216001043" cy="296.46737155386916" r="10.0"/>
<circle class="station-220" cx="354.1575456550018" cy="167.35712067846123" r="10.0"/>
<circle class="station-220" cx="586.164381330378" cy="242.74071125006157" r="10.0"/>
<circle class="station-220" cx="518.7834835606582" cy="296.46737155386916" r="10.0"/>
<circle class="station-220" cx="415.4952828603335" cy="330.02774234986134" r="10.0"/>
<circle class="station-220" cx="420.8107234059415" cy="296.46737155386916" r="10.0"/>
<circle class="station-220" cx="224.34489074104727" cy="232.6317528842448" r="10.0"/>
<circle class="station-220" cx="75.17027809699454" cy="253.00981597768407" r="10.0"/>
<circle class="station-220" cx="166.51591525876864" cy="358.41839682534885" r="10.0"/>
<circle class="station-220" cx="232.41255882298577" cy="406.2951108275644" r="10.0"/>
<circle class="station-220" cx="126.81437844715647" cy="236.22963057969108" r="10.0"/>
<circle class="station-220" cx="372.91836326748535" cy="483.31748193916553" r="10.0"/>
<circle class="station-220" cx="569.3841959323788" cy="483.31748193916553" r="10.0"/>
<circle class="station-220" cx="477.56074008444386" cy="638.2497829896637" r="10.0"/>
<circle class="station-220" cx="312.20708216001043" cy="450.9925767543272" r="10.0"/>
<circle class="station-220" cx="410.43999849245404" cy="431.6733815890013" r="10.0"/>
<circle class="station-220" cx="312.20708216001043" cy="133.56190968497253" r="10.0"/>
<circle class="station-220" cx="268.27598645053155" cy="101.64410035016192" r="10.0"/>
<circle class="station-220" cx="285.0561718485284" cy="50.0" r="10.0"/>
<circle class="station-220" cx="650.0" cy="154.87851983110227" r="10.0"/>
<circle class="station-220" cx="50.0" cy="175.5436654524412" r="10.0"/>
<circle class="bend" cx="224.34489074104727" cy="144.62811579305315" r="3.5"/>
<circle class="bend" cx="280.289272825199" cy="494.9236724638061" r="3.5"/>
<circle class="bend" cx="427.2201838904509" cy="483.31748193916553" r="3.5"/>
</svg>
