<?xml version="1.0" encoding="UTF-8"?>
<svg width="684.91921005386" height="700.0" viewBox="0 0 684.91921005386 700.0" xmlns="http://www.w3.org/2000/svg">
<defs>
  <style>
    .station-220 { fill: #2563eb; stroke: #1e40af; stroke-width: 2; }
    .station-500 { fill: #ef4444; stroke: #1e40af; stroke-width: 2; }
    .station-default { fill: #2563eb; stroke: #1e40af; stroke-width: 2; }
    .bend { fill: #111827; stroke: #111827; stroke-width: 1; }
    .dummy { fill: #8b4513; stroke: #8b4513; stroke-width: 1; }
    .inter { fill: #6b7280; stroke: #6b7280; stroke-width: 1; }
    .station-label { font-family: Arial, sans-serif; font-size: 8px; fill: white; text-anchor: middle; dominant-baseline: central; }
    .edge { stroke: #6b7280; stroke-width: 2; fill: none; }
    .background { fill: #f8fafc; }
  </style>
</defs>
<rect class="background" width="684.91921005386" height="700.0"/>
<!-- Edges -->
<line class="edge" x1="300.6377581458714" y1="351.4005573887835" x2="369.5785121853687" y2="207.05585361858604"/>
<line class="edge" x1="297.02831007674973" y1="349.6766418930836" x2="365.96906411624707" y2="205.33193812288616"/>
<line class="edge" x1="299.03026620381115" y1="352.528850756167" x2="418.5993864910643" y2="340.67965865562843"/>
<line class="edge" x1="298.63580201880995" y1="348.54834852570013" x2="418.2049223060631" y2="336.69915642516156"/>
<line class="edge" x1="298.5706166732544" y1="352.5213091729135" x2="371.82016784022034" y2="362.2161027097178"/>
<line class="edge" x1="299.0954515493667" y1="348.55589010895363" x2="372.34500271633266" y2="358.25068364575793"/>
<line class="edge" x1="300.0384600992299" y1="348.9426835442516" x2="198.78172760371828" y2="272.4615345316843"/>
<line class="edge" x1="297.6276081233912" y1="352.1345157376155" x2="196.37087562787954" y2="275.6533667250482"/>
<line class="edge" x1="299.59116796227954" y1="348.6878611223916" x2="120.77608717233346" y2="275.4383099554257"/>
<line class="edge" x1="298.07490026034156" y1="352.3893381594755" x2="119.25981947039546" y2="279.13978699250964"/>
<line class="edge" x1="297.24778613310133" y1="349.3191781192342" x2="200.2998507650583" y2="475.35149409769025"/>
<line class="edge" x1="300.4182820895198" y1="351.75802116263293" x2="203.4703467214767" y2="477.79033714108897"/>
<line class="edge" x1="296.87412002479726" y1="350.94190548227454" x2="342.1164898632174" y2="570.6905589831722"/>
<line class="edge" x1="300.79194819782384" y1="350.1352937995926" x2="346.034318036244" y2="569.8839473004903"/>
<line class="edge" x1="296.94829202591535" y1="351.20773884284904" x2="361.58024893794413" y2="533.2544174783966"/>
<line class="edge" x1="300.71777619670576" y1="349.8694604390181" x2="365.34973310873454" y2="531.9161390745658"/>
<line class="edge" x1="296.8491744419044" y1="350.7921756889028" x2="315.1615622336459" y2="494.05968017723313"/>
<line class="edge" x1="300.8168937807167" y1="350.28502359296436" x2="319.12928157245824" y2="493.5525280812947"/>
<line class="edge" x1="300.6806944694504" y1="351.30420476170974" x2="381.47064060948634" y2="156.33113474375642"/>
<line class="edge" x1="296.98537375317073" y1="349.7729945201574" x2="377.7753198932067" y2="154.79992450220408"/>
<line class="edge" x1="367.0133223964962" y1="208.04367743527803" x2="560.9091931325823" y2="287.75642429344674"/>
<line class="edge" x1="368.53425390511956" y1="204.34411430619417" x2="562.4301246412057" y2="284.05686116436294"/>
<line class="edge" x1="560.9782481692394" y1="284.0299564952706" x2="417.710743680909" y2="336.81272130676075"/>
<line class="edge" x1="562.3610696045487" y1="287.7833289625391" x2="419.09356511621843" y2="340.56609377402924"/>
<line class="edge" x1="563.406145171143" y1="286.8989206056185" x2="636.6556963381089" y2="158.7122060634282"/>
<line class="edge" x1="559.9331726026451" y1="284.91436485219117" x2="633.182723769611" y2="156.72765031000085"/>
<line class="edge" x1="498.90187216374306" y1="324.86138561128894" x2="418.11192602370716" y2="336.71057771182757"/>
<line class="edge" x1="499.4823289134562" y1="328.8190452684238" x2="418.69238277342026" y2="340.6682373689624"/>
<line class="edge" x1="498.68392088834145" y1="324.9058541904866" x2="371.5744056280183" y2="358.2990319283681"/>
<line class="edge" x1="499.7002801888578" y1="328.77457668922614" x2="372.59076492853467" y2="362.16775442710764"/>
<line class="edge" x1="197.37177209475516" y1="272.06793619639507" x2="82.1114489349706" y2="283.91712829693364"/>
<line class="edge" x1="197.78083113684266" y1="276.04696506033747" x2="82.52050797705813" y2="287.89615716087604"/>
<line class="edge" x1="82.76162805901865" y1="287.8563597420486" x2="120.46360292436874" y2="279.23876548711144"/>
<line class="edge" x1="81.87032885301008" y1="283.9569257157611" x2="119.57230371836017" y2="275.3393314608239"/>
<line class="edge" x1="84.22314378628265" y1="285.30437999303064" x2="51.907165330268285" y2="182.97044821565183"/>
<line class="edge" x1="80.40881312574608" y1="286.50890546477905" x2="48.092834669731715" y2="184.17497368740024"/>
<line class="edge" x1="116.63030650162072" y1="409.8657938667807" x2="122.01630291095645" y2="277.3702821971218"/>
<line class="edge" x1="112.63360732243673" y1="409.7033264204724" x2="118.01960373177246" y2="277.20781475081355"/>
<line class="edge" x1="113.41632905729236" y1="411.372719115137" x2="200.66947088853112" y2="478.15907459090005"/>
<line class="edge" x1="115.8475847667651" y1="408.1964011721161" x2="203.10072659800386" y2="474.98275664787917"/>
<line class="edge" x1="343.9845886278934" y1="572.2851902222518" x2="462.4765096332794" y2="577.6711866315875"/>
<line class="edge" x1="344.16621927156797" y1="568.2893160614107" x2="462.658140276954" y2="573.6753124707463"/>
<line class="edge" x1="463.3647771779456" y1="573.8391094386604" x2="364.26244324616823" y2="530.7511381639747"/>
<line class="edge" x1="461.7698727322878" y1="577.5073896636734" x2="362.66753880051044" y2="534.4194183889877"/>
<line class="edge" x1="397.70926714800146" y1="649.4692758710144" x2="365.3932886919871" y2="532.0545541474955"/>
<line class="edge" x1="393.85267181070594" y1="650.5307241289856" x2="361.5366933546916" y2="533.1160024054668"/>
<line class="edge" x1="397.56735309614743" y1="649.100648248097" x2="318.9318055198458" y2="492.9067523773609"/>
<line class="edge" x1="393.99458586256" y1="650.899351751903" x2="315.35903828625834" y2="494.705455881167"/>
<line class="edge" x1="380.8151802478782" y1="153.95970921948864" x2="309.72002764464656" y2="101.17694440799852"/>
<line class="edge" x1="378.43078025481486" y1="157.17135002647186" x2="307.33562765158325" y2="104.38858521498173"/>
<line class="edge" x1="310.4704222713789" y1="103.25850227024864" x2="323.3968136537846" y2="50.475737458758516"/>
<line class="edge" x1="306.58523302485094" y1="102.30702735273161" x2="319.51162440725665" y2="49.524262541241484"/>
<!-- Node Halos -->
<circle class="background" cx="298.83303411131055" cy="350.53859964093357" r="12.0"/>
<circle class="background" cx="367.7737881508079" cy="206.1938958707361" r="12.0"/>
<circle class="background" cx="561.669658886894" cy="285.90664272890484" r="12.0"/>
<circle class="background" cx="499.1921005385996" cy="326.84021543985637" r="12.0"/>
<circle class="background" cx="372.0825852782765" cy="360.23339317773787" r="12.0"/>
<circle class="background" cx="418.4021543985637" cy="338.689407540395" r="12.0"/>
<circle class="background" cx="197.5763016157989" cy="274.05745062836627" r="12.0"/>
<circle class="background" cx="82.31597845601436" cy="285.90664272890484" r="12.0"/>
<circle class="background" cx="114.63195691202873" cy="409.78456014362655" r="12.0"/>
<circle class="background" cx="201.8850987432675" cy="476.5709156193896" r="12.0"/>
<circle class="background" cx="120.01795332136446" cy="277.2890484739677" r="12.0"/>
<circle class="background" cx="344.0754039497307" cy="570.2872531418312" r="12.0"/>
<circle class="background" cx="462.5673249551167" cy="575.6732495511669" r="12.0"/>
<circle class="background" cx="395.7809694793537" cy="650.0" r="12.0"/>
<circle class="background" cx="317.14542190305207" cy="493.80610412926393" r="12.0"/>
<circle class="background" cx="363.46499102333934" cy="532.5852782764812" r="12.0"/>
<circle class="background" cx="379.6229802513465" cy="155.56552962298025" r="12.0"/>
<circle class="background" cx="308.5278276481149" cy="102.78276481149013" r="12.0"/>
<circle class="background" cx="321.4542190305206" cy="50.0" r="12.0"/>
<circle class="background" cx="634.91921005386" cy="157.71992818671453" r="12.0"/>
<circle class="background" cx="50.0" cy="183.57271095152603" r="12.0"/>
<!-- Stations -->
<circle class="station-500" cx="298.83303411131055" cy="350.53859964093357" r="10.0"/>
<circle class="station-220" cx="367.7737881508079" cy="206.1938958707361" r="10.0"/>
<circle class="station-220" cx="561.669658886894" cy="285.90664272890484" r="10.0"/>
<circle class="station-220" cx="499.1921005385996" cy="326.84021543985637" r="10.0"/>
<circle class="station-220" cx="372.0825852782765" cy="360.23339317773787" r="10.0"/>
<circle class="station-220" cx="418.4021543985637" cy="338.689407540395" r="10.0"/>
<circle class="station-220" cx="197.5763016157989" cy="274.05745062836627" r="10.0"/>
<circle class="station-220" cx="82.31597845601436" cy="285.90664272890484" r="10.0"/>
<circle class="station-220" cx="114.63195691202873" cy="409.78456014362655" r="10.0"/>
<circle class="station-220" cx="201.8850987432675" cy="476.5709156193896" r="10.0"/>
<circle class="station-220" cx="120.01795332136446" cy="277.2890484739677" r="10.0"/>
<circle class="station-220" cx="344.0754039497307" cy="570.2872531418312" r="10.0"/>
<circle class="station-220" cx="462.5673249551167" cy="575.6732495511669" r="10.0"/>
<circle class="station-220" cx="395.7809694793537" cy="650.0" r="10.0"/>
<circle class="station-220" cx="317.14542190305207" cy="493.80610412926393" r="10.0"/>
<circle class="station-220" cx="363.46499102333934" cy="532.5852782764812" r="10.0"/>
<circle class="station-220" cx="379.6229802513465" cy="155.56552962298025" r="10.0"/>
<circle class="station-220" cx="308.5278276481149" cy="102.78276481149013" r="10.0"/>
<circle class="station-220" cx="321.4542190305206" cy="50.0" r="10.0"/>
<circle class="station-220" cx="634.91921005386" cy="157.71992818671453" r="10.0"/>
<circle class="station-220" cx="50.0" cy="183.57271095152603" r="10.0"/>
</svg>
