<?xml version="1.0" encoding="UTF-8"?>
<svg width="671.0" height="711.0" viewBox="0 0 671.0 711.0" xmlns="http://www.w3.org/2000/svg">
<defs>
  <style>
    .station-220 { fill: #2563eb; stroke: #1e40af; stroke-width: 2; }
    .station-500 { fill: #ef4444; stroke: #1e40af; stroke-width: 2; }
    .station-default { fill: #2563eb; stroke: #1e40af; stroke-width: 2; }
    .bend { fill: #111827; stroke: #111827; stroke-width: 1; }
    .dummy { fill: #8b4513; stroke: #8b4513; stroke-width: 1; }
    .inter { fill: #6b7280; stroke: #6b7280; stroke-width: 1; }
    .station-label { font-family: Arial, sans-serif; font-size: 8px; fill: white; text-anchor: middle; dominant-baseline: central; }
    .edge { stroke: #6b7280; stroke-width: 2; fill: none; }
    .background { fill: #f8fafc; }
  </style>
</defs>
<rect class="background" width="671.0" height="711.0"/>
<!-- Edges -->
<line class="edge" x1="363.38173931820444" y1="349.96323077933715" x2="507.38173931820444" y2="321.96323077933715"/>
<line class="edge" x1="362.61826068179556" y1="346.03676922066285" x2="506.61826068179556" y2="318.03676922066285"/>
<line class="edge" x1="361.7335244194855" y1="349.54791459840663" x2="526.7335244194854" y2="484.54791459840663"/>
<line class="edge" x1="364.2664755805145" y1="346.45208540159337" x2="529.2664755805146" y2="481.45208540159337"/>
<line class="edge" x1="364.1909071256929" y1="346.39322054470006" x2="279.1909071256929" y2="283.39322054470006"/>
<line class="edge" x1="361.8090928743071" y1="349.60677945529994" x2="276.8090928743071" y2="286.60677945529994"/>
<line class="edge" x1="361.3231127673987" y1="346.91002329880916" x2="309.3231127673987" y2="426.91002329880916"/>
<line class="edge" x1="364.6768872326013" y1="349.08997670119084" x2="312.6768872326013" y2="429.08997670119084"/>
<line class="edge" x1="364.8112949117498" y1="348.84806293555914" x2="445.8112949117498" y2="175.84806293555917"/>
<line class="edge" x1="361.1887050882502" y1="347.15193706444086" x2="442.1887050882502" y2="174.15193706444083"/>
<line class="edge" x1="364.9082482555242" y1="347.40117732567234" x2="289.9082482555242" y2="108.40117732567234"/>
<line class="edge" x1="361.0917517444758" y1="348.59882267432766" x2="286.0917517444758" y2="109.59882267432766"/>
<line class="edge" x1="361.1493897226787" y1="348.75844683496774" x2="436.1493897226787" y2="531.7584468349678"/>
<line class="edge" x1="364.8506102773213" y1="347.24155316503226" x2="439.8506102773213" y2="530.2415531650322"/>
<line class="edge" x1="361.23224503534857" y1="347.064562997872" x2="284.23588898991716" y2="492.5694878081361"/>
<line class="edge" x1="364.76775496465143" y1="348.935437002128" x2="287.77139891922" y2="494.44036181239215"/>
<line class="edge" x1="506.6077677297236" y1="321.96116135138186" x2="526.6077677297236" y2="325.96116135138186"/>
<line class="edge" x1="507.3922322702764" y1="318.03883864861814" x2="527.3922322702764" y2="322.03883864861814"/>
<line class="edge" x1="525.039603960396" y1="324.3960396039604" x2="545.039603960396" y2="423.3960396039604"/>
<line class="edge" x1="528.960396039604" y1="323.6039603960396" x2="548.960396039604" y2="422.6039603960396"/>
<line class="edge" x1="528.6373149479796" y1="325.14856421723937" x2="622.6373149479796" y2="191.1485642172394"/>
<line class="edge" x1="525.3626850520204" y1="322.85143578276063" x2="619.3626850520204" y2="188.8514357827606"/>
<line class="edge" x1="545.0933155492985" y1="422.3962165906112" x2="526.0933155492985" y2="482.3962165906112"/>
<line class="edge" x1="548.9066844507015" y1="423.6037834093888" x2="529.9066844507015" y2="483.6037834093888"/>
<line class="edge" x1="546.1055728090001" y1="424.78885438199984" x2="600.1055728090001" y2="451.78885438199984"/>
<line class="edge" x1="547.8944271909999" y1="421.21114561800016" x2="601.8944271909999" y2="448.21114561800016"/>
<line class="edge" x1="278.26524182884873" y1="283.01766633176226" x2="136.2652418288487" y2="264.01766633176226"/>
<line class="edge" x1="277.73475817115127" y1="286.98233366823774" x2="135.7347581711513" y2="267.98233366823774"/>
<line class="edge" x1="134.079877158367" y1="266.5595786567045" x2="185.079877158367" y2="441.5595786567045"/>
<line class="edge" x1="137.920122841633" y1="265.4404213432955" x2="188.920122841633" y2="440.4404213432955"/>
<line class="edge" x1="135.36093731378566" y1="264.1048485857092" x2="49.360937313785655" y2="293.1048485857092"/>
<line class="edge" x1="136.63906268621434" y1="267.8951514142908" x2="50.639062686214345" y2="296.8951514142908"/>
<line class="edge" x1="187.2085345334866" y1="442.98909862710315" x2="311.2085345334866" y2="429.98909862710315"/>
<line class="edge" x1="186.7914654665134" y1="439.01090137289685" x2="310.7914654665134" y2="426.01090137289685"/>
<line class="edge" x1="445.02899151085506" y1="173.2850141485749" x2="435.02899151085506" y2="167.2850141485749"/>
<line class="edge" x1="442.97100848914494" y1="176.7149858514251" x2="432.97100848914494" y2="170.7149858514251"/>
<line class="edge" x1="432.1707923693244" y1="168.19129767906972" x2="390.1707923693244" y2="263.1912976790697"/>
<line class="edge" x1="435.8292076306756" y1="169.80870232093028" x2="393.8292076306756" y2="264.8087023209303"/>
<line class="edge" x1="435.4686602045887" y1="167.64241493693484" x2="325.4686602045887" y2="48.642414936934856"/>
<line class="edge" x1="432.5313397954113" y1="170.35758506306516" x2="322.5313397954113" y2="51.357585063065144"/>
<line class="edge" x1="393.66079637429846" y1="262.8856592069223" x2="289.66079637429846" y2="107.88565920692231"/>
<line class="edge" x1="390.33920362570154" y1="265.1143407930777" x2="286.33920362570154" y2="110.11434079307769"/>
<line class="edge" x1="436.6698244791496" y1="532.4935304093758" x2="500.6698244791496" y2="589.4935304093758"/>
<line class="edge" x1="439.3301755208504" y1="529.5064695906242" x2="503.3301755208504" y2="586.5064695906242"/>
<line class="edge" x1="503.0760709058437" y1="586.3141555808448" x2="315.0760709058437" y2="466.31415558084484"/>
<line class="edge" x1="500.9239290941563" y1="589.6858444191552" x2="312.9239290941563" y2="469.68584441915516"/>
<line class="edge" x1="501.08558701873716" y1="586.2212788583654" x2="359.08558701873716" y2="659.2212788583654"/>
<line class="edge" x1="502.91441298126284" y1="589.7787211416346" x2="360.91441298126284" y2="662.7787211416346"/>
<line class="edge" x1="312.0185052091441" y1="468.271437642583" x2="322.0185052091441" y2="541.271437642583"/>
<line class="edge" x1="315.9814947908559" y1="467.728562357417" x2="325.9814947908559" y2="540.728562357417"/>
<line class="edge" x1="325.56173287274135" y1="539.7506039722333" x2="287.56537682730993" y2="492.2555287824975"/>
<line class="edge" x1="322.43826712725865" y1="542.2493960277667" x2="284.44191108182724" y2="494.75432083803076"/>
<!-- Node Halos -->
<circle class="background" cx="363.0" cy="348.0" r="12.0"/>
<circle class="background" cx="507.0" cy="320.0" r="12.0"/>
<circle class="background" cx="527.0" cy="324.0" r="12.0"/>
<circle class="background" cx="547.0" cy="423.0" r="12.0"/>
<circle class="background" cx="528.0" cy="483.0" r="12.0"/>
<circle class="background" cx="278.0" cy="285.0" r="12.0"/>
<circle class="background" cx="136.0" cy="266.0" r="12.0"/>
<circle class="background" cx="187.0" cy="441.0" r="12.0"/>
<circle class="background" cx="311.0" cy="428.0" r="12.0"/>
<circle class="background" cx="444.0" cy="175.0" r="12.0"/>
<circle class="background" cx="434.0" cy="169.0" r="12.0"/>
<circle class="background" cx="392.0" cy="264.0" r="12.0"/>
<circle class="background" cx="288.0" cy="109.0" r="12.0"/>
<circle class="background" cx="438.0" cy="531.0" r="12.0"/>
<circle class="background" cx="502.0" cy="588.0" r="12.0"/>
<circle class="background" cx="314.0" cy="468.0" r="12.0"/>
<circle class="background" cx="324.0" cy="541.0" r="12.0"/>
<circle class="background" cx="621.0" cy="190.0" r="12.0"/>
<circle class="background" cx="50.0" cy="295.0" r="12.0"/>
<circle class="background" cx="324.0" cy="50.0" r="12.0"/>
<circle class="background" cx="360.0" cy="661.0" r="12.0"/>
<circle class="background" cx="601.0" cy="450.0" r="12.0"/>
<circle class="background" cx="286.0036439545686" cy="493.50492481026413" r="5.5"/>
<!-- Stations -->
<circle class="station-500" cx="363.0" cy="348.0" r="10.0"/>
<circle class="station-220" cx="507.0" cy="320.0" r="10.0"/>
<circle class="station-220" cx="527.0" cy="324.0" r="10.0"/>
<circle class="station-220" cx="547.0" cy="423.0" r="10.0"/>
<circle class="station-220" cx="528.0" cy="483.0" r="10.0"/>
<circle class="station-220" cx="278.0" cy="285.0" r="10.0"/>
<circle class="station-220" cx="136.0" cy="266.0" r="10.0"/>
<circle class="station-220" cx="187.0" cy="441.0" r="10.0"/>
<circle class="station-220" cx="311.0" cy="428.0" r="10.0"/>
<circle class="station-220" cx="444.0" cy="175.0" r="10.0"/>
<circle class="station-220" cx="434.0" cy="169.0" r="10.0"/>
<circle class="station-220" cx="392.0" cy="264.0" r="10.0"/>
<circle class="station-220" cx="288.0" cy="109.0" r="10.0"/>
<circle class="station-220" cx="438.0" cy="531.0" r="10.0"/>
<circle class="station-220" cx="502.0" cy="588.0" r="10.0"/>
<circle class="station-220" cx="314.0" cy="468.0" r="10.0"/>
<circle class="station-220" cx="324.0" cy="541.0" r="10.0"/>
<circle class="station-220" cx="621.0" cy="190.0" r="10.0"/>
<circle class="station-220" cx="50.0" cy="295.0" r="10.0"/>
<circle class="station-220" cx="324.0" cy="50.0" r="10.0"/>
<circle class="station-220" cx="360.0" cy="661.0" r="10.0"/>
<circle class="station-220" cx="601.0" cy="450.0" r="10.0"/>
<circle class="bend" cx="286.0036439545686" cy="493.50492481026413" r="3.5"/>
</svg>
