<?xml version="1.0" encoding="UTF-8"?>
<svg width="700.0" height="481.6233815926453" viewBox="0 0 700.0 481.6233815926453" xmlns="http://www.w3.org/2000/svg">
<defs>
  <style>
    .station-220 { fill: #2563eb; stroke: #1e40af; stroke-width: 2; }
    .station-500 { fill: #ef4444; stroke: #1e40af; stroke-width: 2; }
    .station-default { fill: #2563eb; stroke: #1e40af; stroke-width: 2; }
    .bend { fill: #111827; stroke: #111827; stroke-width: 1; }
    .dummy { fill: #8b4513; stroke: #8b4513; stroke-width: 1; }
    .inter { fill: #6b7280; stroke: #6b7280; stroke-width: 1; }
    .station-label { font-family: Arial, sans-serif; font-size: 8px; fill: white; text-anchor: middle; dominant-baseline: central; }
    .edge { stroke: #6b7280; stroke-width: 2; fill: none; }
    .background { fill: #f8fafc; }
  </style>
</defs>
<rect class="background" width="700.0" height="481.6233815926453"/>
<!-- Edges -->
<line class="edge" x1="454.35793871465944" y1="224.32171772570098" x2="402.8860761385151" y2="172.8498551495587"/>
<line class="edge" x1="451.52951158991334" y1="227.15014485044725" x2="400.057649013769" y2="175.67828227430496"/>
<line class="edge" x1="451.5295115899133" y1="224.321717725701" x2="400.0576490137689" y2="275.7935803018443"/>
<line class="edge" x1="454.3579387146595" y1="227.15014485044722" x2="402.88607613851514" y2="278.6220074265905"/>
<line class="edge" x1="454.3579387146595" y1="227.1501448504472" x2="542.2259043586939" y2="139.28217920641222"/>
<line class="edge" x1="451.5295115899133" y1="224.32171772570103" x2="539.3974772339477" y2="136.45375208166607"/>
<line class="edge" x1="452.9437251522864" y1="227.7359312880741" x2="598.5281374238573" y2="227.7359312880741"/>
<line class="edge" x1="452.9437251522864" y1="223.7359312880741" x2="598.5281374238573" y2="223.7359312880741"/>
<line class="edge" x1="450.9437251522864" y1="225.7359312880741" x2="450.9437251522864" y2="298.52813742385956"/>
<line class="edge" x1="454.9437251522864" y1="225.7359312880741" x2="454.9437251522864" y2="298.52813742385956"/>
<line class="edge" x1="454.9437251522864" y1="225.7359312880741" x2="454.9437251522864" y2="152.9437251522887"/>
<line class="edge" x1="450.9437251522864" y1="225.7359312880741" x2="450.9437251522864" y2="152.9437251522887"/>
<line class="edge" x1="451.5295115899133" y1="227.1501448504472" x2="503.00137416605554" y2="278.62200742659155"/>
<line class="edge" x1="454.3579387146595" y1="224.32171772570103" x2="505.82980129080175" y2="275.79358030184545"/>
<line class="edge" x1="452.9437251522864" y1="223.7359312880741" x2="350.0000000000008" y2="223.7359312880741"/>
<line class="edge" x1="452.9437251522864" y1="227.7359312880741" x2="350.0000000000008" y2="227.7359312880741"/>
<line class="edge" x1="402.8860761385152" y1="172.8498551495588" x2="351.41421356237396" y2="121.37799257341241"/>
<line class="edge" x1="400.05764901376887" y1="175.67828227430485" x2="348.58578643762763" y2="124.20641969815846"/>
<line class="edge" x1="352.0000000000008" y1="122.79220613578543" x2="352.0000000000008" y2="50.0"/>
<line class="edge" x1="348.0000000000008" y1="122.79220613578543" x2="348.0000000000008" y2="50.0"/>
<line class="edge" x1="348.0000000000008" y1="122.79220613578543" x2="348.0000000000008" y2="225.7359312880741"/>
<line class="edge" x1="352.0000000000008" y1="122.79220613578543" x2="352.0000000000008" y2="225.7359312880741"/>
<line class="edge" x1="399.47186257614203" y1="277.2077938642174" x2="399.47186257614203" y2="431.6233815926453"/>
<line class="edge" x1="403.47186257614203" y1="277.2077938642174" x2="403.47186257614203" y2="431.6233815926453"/>
<line class="edge" x1="402.88607613851514" y1="275.7935803018444" x2="351.4142135623739" y2="224.32171772570103"/>
<line class="edge" x1="400.0576490137689" y1="278.62200742659047" x2="348.5857864376277" y2="227.1501448504472"/>
<line class="edge" x1="401.47186257614203" y1="429.6233815926453" x2="255.88745030457116" y2="429.6233815926453"/>
<line class="edge" x1="401.47186257614203" y1="433.6233815926453" x2="255.88745030457116" y2="433.6233815926453"/>
<line class="edge" x1="257.30166386694424" y1="430.20916803027217" x2="51.41421356237309" y2="224.321717725701"/>
<line class="edge" x1="254.47323674219805" y1="433.0375951550184" x2="48.58578643762691" y2="227.15014485044722"/>
<line class="edge" x1="50.0" y1="227.7359312880741" x2="350.0000000000008" y2="227.7359312880741"/>
<line class="edge" x1="50.0" y1="223.7359312880741" x2="350.0000000000008" y2="223.7359312880741"/>
<line class="edge" x1="542.8116907963208" y1="137.86796564403915" x2="542.8116907963208" y2="65.0757595082537"/>
<line class="edge" x1="538.8116907963208" y1="137.86796564403915" x2="538.8116907963208" y2="65.0757595082537"/>
<line class="edge" x1="539.3974772339477" y1="66.4899730706268" x2="648.5857864376269" y2="175.6782822743039"/>
<line class="edge" x1="542.2259043586939" y1="63.66154594588059" x2="651.4142135623731" y2="172.8498551495577"/>
<line class="edge" x1="648.5857864376269" y1="172.84985514955773" x2="597.1139238614842" y2="224.32171772570103"/>
<line class="edge" x1="651.4142135623731" y1="175.67828227430388" x2="599.9423509862304" y2="227.1501448504472"/>
<line class="edge" x1="450.9437251522864" y1="298.52813742385956" x2="450.9437251522864" y2="371.320343559645"/>
<line class="edge" x1="454.9437251522864" y1="298.52813742385956" x2="454.9437251522864" y2="371.320343559645"/>
<!-- Node Halos -->
<circle class="background" cx="452.9437251522864" cy="225.7359312880741" r="12.0"/>
<circle class="background" cx="401.47186257614203" cy="174.26406871193183" r="12.0"/>
<circle class="background" cx="350.0000000000008" cy="122.79220613578543" r="12.0"/>
<circle class="background" cx="401.47186257614203" cy="277.2077938642174" r="12.0"/>
<circle class="background" cx="401.47186257614203" cy="431.6233815926453" r="12.0"/>
<circle class="background" cx="255.88745030457116" cy="431.6233815926453" r="12.0"/>
<circle class="background" cx="50.0" cy="225.7359312880741" r="12.0"/>
<circle class="background" cx="540.8116907963208" cy="137.86796564403915" r="12.0"/>
<circle class="background" cx="540.8116907963208" cy="65.0757595082537" r="12.0"/>
<circle class="background" cx="650.0" cy="174.2640687119308" r="12.0"/>
<circle class="background" cx="598.5281374238573" cy="225.7359312880741" r="12.0"/>
<circle class="background" cx="452.9437251522864" cy="298.52813742385956" r="12.0"/>
<circle class="background" cx="452.9437251522864" cy="371.320343559645" r="12.0"/>
<circle class="background" cx="452.9437251522864" cy="152.9437251522887" r="12.0"/>
<circle class="background" cx="504.41558772842865" cy="277.2077938642185" r="12.0"/>
<circle class="background" cx="350.0000000000008" cy="50.0" r="12.0"/>
<circle class="background" cx="350.0000000000008" cy="225.7359312880741" r="5.5"/>
<!-- Stations -->
<circle class="station-500" cx="452.9437251522864" cy="225.7359312880741" r="10.0"/>
<circle class="station-220" cx="401.47186257614203" cy="174.26406871193183" r="10.0"/>
<circle class="station-220" cx="350.0000000000008" cy="122.79220613578543" r="10.0"/>
<circle class="station-220" cx="401.47186257614203" cy="277.2077938642174" r="10.0"/>
<circle class="station-220" cx="401.47186257614203" cy="431.6233815926453" r="10.0"/>
<circle class="station-220" cx="255.88745030457116" cy="431.6233815926453" r="10.0"/>
<circle class="station-220" cx="50.0" cy="225.7359312880741" r="10.0"/>
<circle class="station-220" cx="540.8116907963208" cy="137.86796564403915" r="10.0"/>
<circle class="station-220" cx="540.8116907963208" cy="65.0757595082537" r="10.0"/>
<circle class="station-220" cx="650.0" cy="174.2640687119308" r="10.0"/>
<circle class="station-220" cx="598.5281374238573" cy="225.7359312880741" r="10.0"/>
<circle class="station-220" cx="452.9437251522864" cy="298.52813742385956" r="10.0"/>
<circle class="station-220" cx="452.9437251522864" cy="371.320343559645" r="10.0"/>
<circle class="station-220" cx="452.9437251522864" cy="152.9437251522887" r="10.0"/>
<circle class="station-220" cx="504.41558772842865" cy="277.2077938642185" r="10.0"/>
<circle class="station-220" cx="350.0000000000008" cy="50.0" r="10.0"/>
<circle class="dummy" cx="350.0000000000008" cy="225.7359312880741" r="5.0"/>
<text class="station-label" x="350.0000000000008" y="225.7359312880741">D0</text>
</svg>
