<?xml version="1.0" encoding="UTF-8"?>
<svg width="700.0" height="749.0" viewBox="0 0 700.0 749.0" xmlns="http://www.w3.org/2000/svg">
<defs>
  <style>
    .station-220 { fill: #2563eb; stroke: #1e40af; stroke-width: 2; }
    .station-500 { fill: #ef4444; stroke: #1e40af; stroke-width: 2; }
    .station-default { fill: #2563eb; stroke: #1e40af; stroke-width: 2; }
    .bend { fill: #111827; stroke: #111827; stroke-width: 1; }
    .dummy { fill: #8b4513; stroke: #8b4513; stroke-width: 1; }
    .inter { fill: #6b7280; stroke: #6b7280; stroke-width: 1; }
    .station-label { font-family: Arial, sans-serif; font-size: 8px; fill: white; text-anchor: middle; dominant-baseline: central; }
    .edge { stroke: #6b7280; stroke-width: 2; fill: none; }
    .background { fill: #f8fafc; }
  </style>
</defs>
<rect class="background" width="700.0" height="749.0"/>
<!-- Edges -->
<line class="edge" x1="359.73023660264795" y1="339.9817234190091" x2="550.730236602648" y2="365.9817234190091"/>
<line class="edge" x1="360.26976339735205" y1="336.0182765809909" x2="551.269763397352" y2="362.0182765809909"/>
<line class="edge" x1="358.21980715363367" y1="337.0884554702341" x2="273.21980715363367" y2="503.0884554702341"/>
<line class="edge" x1="361.78019284636633" y1="338.9115445297659" x2="276.78019284636633" y2="504.9115445297659"/>
<line class="edge" x1="359.56342032378376" y1="336.04823203573915" x2="207.56342032378376" y2="370.04823203573915"/>
<line class="edge" x1="360.43657967621624" y1="339.95176796426085" x2="208.43657967621624" y2="373.95176796426085"/>
<line class="edge" x1="361.280368799329" y1="336.46355744080523" x2="301.280368799329" y2="286.46355744080523"/>
<line class="edge" x1="358.719631200671" y1="339.53644255919477" x2="298.719631200671" y2="289.53644255919477"/>
<line class="edge" x1="358.1325077653959" y1="337.2841279767351" x2="312.1325077653959" y2="457.2841279767351"/>
<line class="edge" x1="361.8674922346041" y1="338.7158720232649" x2="315.8674922346041" y2="458.7158720232649"/>
<line class="edge" x1="361.8894429734733" y1="337.34425214450044" x2="302.8894429734733" y2="167.34425214450044"/>
<line class="edge" x1="358.1105570265267" y1="338.65574785549956" x2="299.1105570265267" y2="168.65574785549956"/>
<line class="edge" x1="361.56173761888607" y1="339.2493900951088" x2="477.56173761888607" y2="194.24939009510885"/>
<line class="edge" x1="358.43826238111393" y1="336.7506099048912" x2="474.43826238111393" y2="191.75060990489115"/>
<line class="edge" x1="359.4239832261473" y1="339.91525577306015" x2="492.4239832261473" y2="379.91525577306015"/>
<line class="edge" x1="360.5760167738527" y1="336.08474422693985" x2="493.5760167738527" y2="376.08474422693985"/>
<line class="edge" x1="360.3204798997945" y1="339.9741561827342" x2="514.3204798997945" y2="314.9741561827342"/>
<line class="edge" x1="359.6795201002055" y1="336.0258438172658" x2="513.6795201002055" y2="311.0258438172658"/>
<line class="edge" x1="358.34727060671656" y1="336.87372936086524" x2="183.19993772588356" y2="593.8911238920199"/>
<line class="edge" x1="361.65272939328344" y1="339.12627063913476" x2="186.50539651245043" y2="596.1436651702894"/>
<line class="edge" x1="549.4722287489079" y1="362.70929670166356" x2="402.4722287489079" y2="536.7092967016636"/>
<line class="edge" x1="552.5277712510921" y1="365.29070329833644" x2="405.5277712510921" y2="539.2907032983364"/>
<line class="edge" x1="273.0824037745832" y1="503.43182334061726" x2="217.0824037745832" y2="692.4318233406173"/>
<line class="edge" x1="276.9175962254168" y1="504.56817665938274" x2="220.9175962254168" y2="693.5681766593827"/>
<line class="edge" x1="209.96330425329913" y1="372.38136125783507" x2="236.96330425329913" y2="233.3813612578351"/>
<line class="edge" x1="206.03669574670087" y1="371.61863874216493" x2="233.03669574670087" y2="232.6186387421649"/>
<line class="edge" x1="51.479880146791885" y1="314.3453455879926" x2="91.47988014679188" y2="270.3453455879926"/>
<line class="edge" x1="48.520119853208115" y1="311.6546544120074" x2="88.52011985320812" y2="267.6546544120074"/>
<line class="edge" x1="48.19566876365655" y1="313.8627796877276" x2="183.04833588282355" y2="595.8801742188822"/>
<line class="edge" x1="51.80433123634345" y1="312.1372203122724" x2="186.65699835551044" y2="594.1546148434271"/>
<line class="edge" x1="405.32872767765986" y1="536.5051813626327" x2="315.32872767765986" y2="456.5051813626327"/>
<line class="edge" x1="402.67127232234014" y1="539.4948186373673" x2="312.67127232234014" y2="459.4948186373673"/>
<line class="edge" x1="312.02076336221154" y1="458.28744100548795" x2="347.02076336221154" y2="699.287441005488"/>
<line class="edge" x1="315.97923663778846" y1="457.71255899451205" x2="350.97923663778846" y2="698.712558994512"/>
<line class="edge" x1="349.0922095332168" y1="697.0021267803027" x2="219.0922095332168" y2="691.0021267803027"/>
<line class="edge" x1="348.9077904667832" y1="700.9978732196973" x2="218.9077904667832" y2="694.9978732196973"/>
<line class="edge" x1="234.51807919825447" y1="231.0589301040805" x2="89.51807919825447" y2="267.0589301040805"/>
<line class="edge" x1="235.48192080174553" y1="234.9410698959195" x2="90.48192080174553" y2="270.9410698959195"/>
<line class="edge" x1="447.83307875673927" y1="104.20011108796832" x2="423.83307875673927" y2="49.20011108796832"/>
<line class="edge" x1="444.16692124326073" y1="105.79988891203168" x2="420.16692124326073" y2="50.79988891203168"/>
<line class="edge" x1="444.1069796236429" y1="105.64534785557628" x2="474.1069796236429" y2="193.6453478555763"/>
<line class="edge" x1="447.8930203763571" y1="104.35465214442372" x2="477.8930203763571" y2="192.3546521444237"/>
<line class="edge" x1="420.60364807275937" y1="48.56814760003294" x2="299.60364807275937" y2="166.56814760003294"/>
<line class="edge" x1="423.39635192724063" y1="51.43185239996706" x2="302.39635192724063" y2="169.43185239996706"/>
<line class="edge" x1="513.8612049965735" y1="314.9951781742551" x2="628.8612049965735" y2="322.9951781742551"/>
<line class="edge" x1="514.1387950034265" y1="311.0048218257449" x2="629.1387950034265" y2="319.0048218257449"/>
<line class="edge" x1="627.1273416448619" y1="321.70224688317677" x2="648.1273416448619" y2="377.70224688317677"/>
<line class="edge" x1="630.8726583551381" y1="320.29775311682323" x2="651.8726583551381" y2="376.29775311682323"/>
<line class="edge" x1="649.9872614048941" y1="375.00004056836275" x2="492.987261404894" y2="376.00004056836275"/>
<line class="edge" x1="650.0127385951059" y1="378.99995943163725" x2="493.012738595106" y2="379.99995943163725"/>
<!-- Node Halos -->
<circle class="background" cx="360.0" cy="338.0" r="12.0"/>
<circle class="background" cx="551.0" cy="364.0" r="12.0"/>
<circle class="background" cx="275.0" cy="504.0" r="12.0"/>
<circle class="background" cx="208.0" cy="372.0" r="12.0"/>
<circle class="background" cx="50.0" cy="313.0" r="12.0"/>
<circle class="background" cx="300.0" cy="288.0" r="12.0"/>
<circle class="background" cx="404.0" cy="538.0" r="12.0"/>
<circle class="background" cx="314.0" cy="458.0" r="12.0"/>
<circle class="background" cx="349.0" cy="699.0" r="12.0"/>
<circle class="background" cx="219.0" cy="693.0" r="12.0"/>
<circle class="background" cx="235.0" cy="233.0" r="12.0"/>
<circle class="background" cx="90.0" cy="269.0" r="12.0"/>
<circle class="background" cx="446.0" cy="105.0" r="12.0"/>
<circle class="background" cx="476.0" cy="193.0" r="12.0"/>
<circle class="background" cx="422.0" cy="50.0" r="12.0"/>
<circle class="background" cx="301.0" cy="168.0" r="12.0"/>
<circle class="background" cx="514.0" cy="313.0" r="12.0"/>
<circle class="background" cx="629.0" cy="321.0" r="12.0"/>
<circle class="background" cx="650.0" cy="377.0" r="12.0"/>
<circle class="background" cx="493.0" cy="378.0" r="12.0"/>
<circle class="background" cx="184.852667119167" cy="595.0173945311547" r="5.5"/>
<!-- Stations -->
<circle class="station-500" cx="360.0" cy="338.0" r="10.0"/>
<circle class="station-220" cx="551.0" cy="364.0" r="10.0"/>
<circle class="station-220" cx="275.0" cy="504.0" r="10.0"/>
<circle class="station-220" cx="208.0" cy="372.0" r="10.0"/>
<circle class="station-220" cx="50.0" cy="313.0" r="10.0"/>
<circle class="station-220" cx="300.0" cy="288.0" r="10.0"/>
<circle class="station-220" cx="404.0" cy="538.0" r="10.0"/>
<circle class="station-220" cx="314.0" cy="458.0" r="10.0"/>
<circle class="station-220" cx="349.0" cy="699.0" r="10.0"/>
<circle class="station-220" cx="219.0" cy="693.0" r="10.0"/>
<circle class="station-220" cx="235.0" cy="233.0" r="10.0"/>
<circle class="station-220" cx="90.0" cy="269.0" r="10.0"/>
<circle class="station-220" cx="446.0" cy="105.0" r="10.0"/>
<circle class="station-220" cx="476.0" cy="193.0" r="10.0"/>
<circle class="station-220" cx="422.0" cy="50.0" r="10.0"/>
<circle class="station-220" cx="301.0" cy="168.0" r="10.0"/>
<circle class="station-220" cx="514.0" cy="313.0" r="10.0"/>
<circle class="station-220" cx="629.0" cy="321.0" r="10.0"/>
<circle class="station-220" cx="650.0" cy="377.0" r="10.0"/>
<circle class="station-220" cx="493.0" cy="378.0" r="10.0"/>
<circle class="bend" cx="184.852667119167" cy="595.0173945311547" r="3.5"/>
</svg>
