<?xml version="1.0" encoding="UTF-8"?>
<svg width="611.5952969201617" height="700.0" viewBox="0 0 611.5952969201617 700.0" xmlns="http://www.w3.org/2000/svg">
<defs>
  <style>
    .station-220 { fill: #2563eb; stroke: #1e40af; stroke-width: 2; }
    .station-500 { fill: #ef4444; stroke: #1e40af; stroke-width: 2; }
    .station-default { fill: #2563eb; stroke: #1e40af; stroke-width: 2; }
    .bend { fill: #111827; stroke: #111827; stroke-width: 1; }
    .dummy { fill: #8b4513; stroke: #8b4513; stroke-width: 1; }
    .inter { fill: #6b7280; stroke: #6b7280; stroke-width: 1; }
    .station-label { font-family: Arial, sans-serif; font-size: 8px; fill: white; text-anchor: middle; dominant-baseline: central; }
    .edge { stroke: #6b7280; stroke-width: 2; fill: none; }
    .background { fill: #f8fafc; }
  </style>
</defs>
<rect class="background" width="611.5952969201617" height="700.0"/>
<!-- Edges -->
<line class="edge" x1="360.6269953360305" y1="359.2244328250673" x2="454.42842103169426" y2="265.4230071294036"/>
<line class="edge" x1="357.7985682112843" y1="356.3960057003211" x2="451.59999390694804" y2="262.59458000465736"/>
<line class="edge" x1="359.97814863838755" y1="359.65797832771676" x2="432.52971309144414" y2="329.6061363598756"/>
<line class="edge" x1="358.44741490892727" y1="355.96246019767165" x2="430.99897936198386" y2="325.9106182298305"/>
<line class="edge" x1="357.7985682112843" y1="359.2244328250673" x2="430.3501326643409" y2="431.77599727812384"/>
<line class="edge" x1="360.6269953360305" y1="356.3960057003211" x2="433.1785597890871" y2="428.9475701533776"/>
<line class="edge" x1="357.7985682112843" y1="356.3960057003211" x2="191.21287796116948" y2="522.9816959504365"/>
<line class="edge" x1="360.6269953360305" y1="359.2244328250673" x2="194.0413050859157" y2="525.8101230751827"/>
<line class="edge" x1="357.36502270863485" y1="357.044852397964" x2="248.78393325779493" y2="619.1827911674281"/>
<line class="edge" x1="361.06054083867997" y1="358.5755861274244" x2="252.4794513878401" y2="620.7135248968884"/>
<line class="edge" x1="360.6269953360305" y1="356.3960057003211" x2="210.94874591093898" y2="206.71775627522953"/>
<line class="edge" x1="357.7985682112843" y1="359.2244328250673" x2="208.12031878619277" y2="209.54618339997575"/>
<line class="edge" x1="361.06054083867997" y1="357.044852397964" x2="258.4571344177812" y2="109.33831707095264"/>
<line class="edge" x1="357.36502270863485" y1="358.5755861274244" x2="254.7616162877361" y2="110.869050800413"/>
<line class="edge" x1="357.2127817736574" y1="357.8102192626942" x2="357.2127817736574" y2="436.33946674569296"/>
<line class="edge" x1="361.2127817736574" y1="357.8102192626942" x2="361.2127817736574" y2="436.33946674569296"/>
<line class="edge" x1="454.42842103169426" y1="262.59458000465736" x2="373.0748758534043" y2="181.24103482636795"/>
<line class="edge" x1="451.59999390694804" y1="265.4230071294036" x2="370.2464487286581" y2="184.06946195111416"/>
<line class="edge" x1="369.81290322600864" y1="183.42061525347123" x2="429.91658716169144" y2="328.52374415958326"/>
<line class="edge" x1="373.50842135605376" y1="181.8898815240109" x2="433.61210529173655" y2="326.99301043012287"/>
<line class="edge" x1="481.2182903721403" y1="203.13974276661804" x2="429.91658716169144" y2="326.99301043012287"/>
<line class="edge" x1="484.9138085021854" y1="204.67047649607838" x2="433.61210529173655" y2="328.52374415958326"/>
<line class="edge" x1="481.2182903721403" y1="204.67047649607838" x2="532.5199935825891" y2="328.52374415958326"/>
<line class="edge" x1="484.9138085021854" y1="203.13974276661804" x2="536.2155117126343" y2="326.99301043012287"/>
<line class="edge" x1="483.06604943716286" y1="205.9051096313482" x2="561.5952969201617" y2="205.9051096313482"/>
<line class="edge" x1="483.06604943716286" y1="201.9051096313482" x2="561.5952969201617" y2="201.9051096313482"/>
<line class="edge" x1="532.5199935825891" y1="326.99301043012287" x2="502.46815161474746" y2="399.54457488317945"/>
<line class="edge" x1="536.2155117126343" y1="328.52374415958326" x2="506.16366974479257" y2="401.07530861263984"/>
<line class="edge" x1="534.3677526476117" y1="325.75837729485306" x2="431.764346226714" y2="325.75837729485306"/>
<line class="edge" x1="534.3677526476117" y1="329.75837729485306" x2="431.764346226714" y2="329.75837729485306"/>
<line class="edge" x1="503.5505438150398" y1="398.4621826828871" x2="430.9989793619838" y2="428.5140246507282"/>
<line class="edge" x1="505.0812775445002" y1="402.1577008129322" x2="432.5297130914442" y2="432.2095427807733"/>
<line class="edge" x1="191.21287796116948" y1="522.9816959504365" x2="121.13735089068346" y2="593.0572230209225"/>
<line class="edge" x1="194.0413050859157" y1="525.8101230751827" x2="123.96577801542965" y2="595.8856501456687"/>
<line class="edge" x1="121.13735089068346" y1="595.8856501456687" x2="176.66591430738845" y2="651.4142135623731"/>
<line class="edge" x1="123.96577801542965" y1="593.0572230209225" x2="179.4943414321346" y2="648.5857864376269"/>
<line class="edge" x1="121.78619758832637" y1="592.623677518273" x2="49.234633135269824" y2="622.6755194861147"/>
<line class="edge" x1="123.31693131778674" y1="596.3191956483182" x2="50.765366864730176" y2="626.3710376161599"/>
<line class="edge" x1="178.84549473449172" y1="651.8477590650226" x2="251.3970591875477" y2="621.7959170971809"/>
<line class="edge" x1="177.31476100503133" y1="648.1522409349774" x2="249.86632545808732" y2="618.1003989671357"/>
<line class="edge" x1="210.94874591093895" y1="206.71775627522953" x2="155.42018249423288" y2="151.18919285852402"/>
<line class="edge" x1="208.1203187861928" y1="209.54618339997575" x2="152.59175536948672" y2="154.01761998327024"/>
<line class="edge" x1="155.85372799688236" y1="153.36877328562733" x2="185.9055699647246" y2="80.81720883257132"/>
<line class="edge" x1="152.15820986683724" y1="151.83803955616693" x2="182.2100518346795" y2="79.28647510311093"/>
<line class="edge" x1="183.29244403497188" y1="81.8996010328637" x2="255.8440084880285" y2="111.9514430007054"/>
<line class="edge" x1="184.82317776443222" y1="78.20408290281856" x2="257.37474221748886" y2="108.25592487066025"/>
<line class="edge" x1="184.82317776443222" y1="81.8996010328637" x2="257.3747422174888" y2="51.84775906502258"/>
<line class="edge" x1="183.29244403497188" y1="78.20408290281856" x2="255.8440084880285" y2="48.15224093497742"/>
<line class="edge" x1="357.36502270863485" y1="437.10483361042316" x2="387.41686467647713" y2="509.6563980634792"/>
<line class="edge" x1="361.06054083867997" y1="435.57409988096276" x2="391.11238280652225" y2="508.1256643340188"/>
<line class="edge" x1="387.41686467647713" y1="508.1256643340188" x2="357.3650227086354" y2="580.6772287870743"/>
<line class="edge" x1="391.11238280652225" y1="509.6563980634792" x2="361.06054083868054" y2="582.2079625165346"/>
<!-- Node Halos -->
<circle class="background" cx="359.2127817736574" cy="357.8102192626942" r="12.0"/>
<circle class="background" cx="453.01420746932115" cy="264.00879356703047" r="12.0"/>
<circle class="background" cx="371.6606622910312" cy="182.65524838874106" r="12.0"/>
<circle class="background" cx="483.06604943716286" cy="203.9051096313482" r="12.0"/>
<circle class="background" cx="534.3677526476117" cy="327.75837729485306" r="12.0"/>
<circle class="background" cx="504.31591067977" cy="400.30994174790965" r="12.0"/>
<circle class="background" cx="431.764346226714" cy="430.36178371575073" r="12.0"/>
<circle class="background" cx="431.764346226714" cy="327.75837729485306" r="12.0"/>
<circle class="background" cx="192.6270915235426" cy="524.3959095128096" r="12.0"/>
<circle class="background" cx="122.55156445305656" cy="594.4714365832956" r="12.0"/>
<circle class="background" cx="178.08012786976153" cy="650.0" r="12.0"/>
<circle class="background" cx="250.6316923228175" cy="619.9481580321583" r="12.0"/>
<circle class="background" cx="209.53453234856588" cy="208.13196983760264" r="12.0"/>
<circle class="background" cx="154.0059689318598" cy="152.60340642089713" r="12.0"/>
<circle class="background" cx="184.05781089970205" cy="80.05184196784113" r="12.0"/>
<circle class="background" cx="256.60937535275866" cy="110.10368393568282" r="12.0"/>
<circle class="background" cx="359.2127817736574" cy="436.33946674569296" r="12.0"/>
<circle class="background" cx="389.2646237414997" cy="508.891031198749" r="12.0"/>
<circle class="background" cx="359.212781773658" cy="581.4425956518045" r="12.0"/>
<circle class="background" cx="561.5952969201617" cy="203.9051096313482" r="12.0"/>
<circle class="background" cx="50.0" cy="624.5232785511373" r="12.0"/>
<circle class="background" cx="256.60937535275866" cy="50.0" r="12.0"/>
<!-- Stations -->
<circle class="station-500" cx="359.2127817736574" cy="357.8102192626942" r="10.0"/>
<circle class="station-220" cx="453.01420746932115" cy="264.00879356703047" r="10.0"/>
<circle class="station-220" cx="371.6606622910312" cy="182.65524838874106" r="10.0"/>
<circle class="station-220" cx="483.06604943716286" cy="203.9051096313482" r="10.0"/>
<circle class="station-220" cx="534.3677526476117" cy="327.75837729485306" r="10.0"/>
<circle class="station-220" cx="504.31591067977" cy="400.30994174790965" r="10.0"/>
<circle class="station-220" cx="431.764346226714" cy="430.36178371575073" r="10.0"/>
<circle class="station-220" cx="431.764346226714" cy="327.75837729485306" r="10.0"/>
<circle class="station-220" cx="192.6270915235426" cy="524.3959095128096" r="10.0"/>
<circle class="station-220" cx="122.55156445305656" cy="594.4714365832956" r="10.0"/>
<circle class="station-220" cx="178.08012786976153" cy="650.0" r="10.0"/>
<circle class="station-220" cx="250.6316923228175" cy="619.9481580321583" r="10.0"/>
<circle class="station-220" cx="209.53453234856588" cy="208.13196983760264" r="10.0"/>
<circle class="station-220" cx="154.0059689318598" cy="152.60340642089713" r="10.0"/>
<circle class="station-220" cx="184.05781089970205" cy="80.05184196784113" r="10.0"/>
<circle class="station-220" cx="256.60937535275866" cy="110.10368393568282" r="10.0"/>
<circle class="station-220" cx="359.2127817736574" cy="436.33946674569296" r="10.0"/>
<circle class="station-220" cx="389.2646237414997" cy="508.891031198749" r="10.0"/>
<circle class="station-220" cx="359.212781773658" cy="581.4425956518045" r="10.0"/>
<circle class="station-220" cx="561.5952969201617" cy="203.9051096313482" r="10.0"/>
<circle class="station-220" cx="50.0" cy="624.5232785511373" r="10.0"/>
<circle class="station-220" cx="256.60937535275866" cy="50.0" r="10.0"/>
</svg>
