<?xml version="1.0" encoding="UTF-8"?>
<svg width="406.0" height="742.0" viewBox="0 0 406.0 742.0" xmlns="http://www.w3.org/2000/svg">
<defs>
  <style>
    .station-220 { fill: #2563eb; stroke: #1e40af; stroke-width: 2; }
    .station-500 { fill: #ef4444; stroke: #1e40af; stroke-width: 2; }
    .station-default { fill: #2563eb; stroke: #1e40af; stroke-width: 2; }
    .bend { fill: #111827; stroke: #111827; stroke-width: 1; }
    .dummy { fill: #8b4513; stroke: #8b4513; stroke-width: 1; }
    .inter { fill: #6b7280; stroke: #6b7280; stroke-width: 1; }
    .station-label { font-family: Arial, sans-serif; font-size: 8px; fill: white; text-anchor: middle; dominant-baseline: central; }
    .edge { stroke: #6b7280; stroke-width: 2; fill: none; }
    .background { fill: #f8fafc; }
  </style>
</defs>
<rect class="background" width="406.0" height="742.0"/>
<!-- Edges -->
<line class="edge" x1="189.80797285815976" y1="438.8551222977783" x2="259.80797285815976" y2="290.8551222977783"/>
<line class="edge" x1="186.19202714184024" y1="437.1448777022217" x2="256.19202714184024" y2="289.1448777022217"/>
<line class="edge" x1="189.99973990506425" y1="438.03225386943654" x2="190.99973990506425" y2="376.03225386943654"/>
<line class="edge" x1="186.00026009493575" y1="437.96774613056346" x2="187.00026009493575" y2="375.96774613056346"/>
<line class="edge" x1="186.32545899087515" y1="439.0935778018775" x2="282.3254589908752" y2="586.0935778018775"/>
<line class="edge" x1="189.67454100912485" y1="436.9064221981225" x2="285.6745410091248" y2="583.9064221981225"/>
<line class="edge" x1="186.13307186122117" y1="437.28265815357264" x2="108.13307186122117" y2="640.2826581535727"/>
<line class="edge" x1="189.86692813877883" y1="438.71734184642736" x2="111.86692813877883" y2="641.7173418464273"/>
<line class="edge" x1="256.2549879681006" y1="290.9772067378637" x2="270.2549879681006" y2="315.9772067378637"/>
<line class="edge" x1="259.7450120318994" y1="289.0227932621363" x2="273.7450120318994" y2="314.0227932621363"/>
<line class="edge" x1="273.58721272258384" y1="316.21686308731427" x2="319.58721272258384" y2="256.21686308731427"/>
<line class="edge" x1="270.41278727741616" y1="313.78313691268573" x2="316.41278727741616" y2="253.78313691268573"/>
<line class="edge" x1="319.94265866078587" y1="255.47547589599654" x2="354.94265866078587" y2="112.47547589599654"/>
<line class="edge" x1="316.05734133921413" y1="254.52452410400346" x2="351.05734133921413" y2="111.52452410400346"/>
<line class="edge" x1="354.9973753269532" y1="112.10242950394631" x2="356.9973753269532" y2="73.10242950394631"/>
<line class="edge" x1="351.0026246730468" y1="111.89757049605369" x2="353.0026246730468" y2="72.89757049605369"/>
<line class="edge" x1="354.05999788000634" y1="110.30400339198982" x2="322.05999788000634" y2="90.30400339198982"/>
<line class="edge" x1="351.94000211999366" y1="113.69599660801018" x2="319.94000211999366" y2="93.69599660801018"/>
<line class="edge" x1="353.01223253065274" y1="73.2208630521497" x2="354.01223253065274" y2="82.2208630521497"/>
<line class="edge" x1="356.98776746934726" y1="72.7791369478503" x2="357.98776746934726" y2="81.7791369478503"/>
<line class="edge" x1="356.387572836426" y1="80.03791251559348" x2="194.387572836426" y2="48.037912515593476"/>
<line class="edge" x1="355.612427163574" y1="83.96208748440652" x2="193.612427163574" y2="51.962087484406524"/>
<line class="edge" x1="192.186557776223" y1="49.15653850056883" x2="172.186557776223" y2="92.15653850056883"/>
<line class="edge" x1="195.813442223777" y1="50.84346149943117" x2="175.813442223777" y2="93.84346149943117"/>
<line class="edge" x1="172.62582560522281" y1="91.54685006529309" x2="80.6258256052228" y2="178.54685006529309"/>
<line class="edge" x1="175.37417439477719" y1="94.45314993470691" x2="83.3741743947772" y2="181.45314993470691"/>
<line class="edge" x1="174.4405217428693" y1="91.04911799586459" x2="50.44052174286929" y2="63.049117995864584"/>
<line class="edge" x1="173.5594782571307" y1="94.95088200413541" x2="49.55947825713071" y2="66.95088200413541"/>
<line class="edge" x1="81.49923435606297" y1="181.9362938232232" x2="139.49923435606297" y2="196.9362938232232"/>
<line class="edge" x1="82.50076564393703" y1="178.0637061767768" x2="140.50076564393703" y2="193.0637061767768"/>
<line class="edge" x1="138.0000591689718" y1="195.01538416023868" x2="139.0000591689718" y2="325.0153841602387"/>
<line class="edge" x1="141.9999408310282" y1="194.98461583976132" x2="142.9999408310282" y2="324.9846158397613"/>
<line class="edge" x1="139.54360001461438" y1="326.37072939801" x2="187.54360001461438" y2="377.37072939801"/>
<line class="edge" x1="142.45639998538562" y1="323.62927060199" x2="190.45639998538562" y2="374.62927060199"/>
<line class="edge" x1="284.46324105461207" y1="586.9456124293707" x2="305.46324105461207" y2="581.9456124293707"/>
<line class="edge" x1="283.53675894538793" y1="583.0543875706293" x2="304.53675894538793" y2="578.0543875706293"/>
<line class="edge" x1="305.366731716695" y1="578.0339105188293" x2="112.36673171669504" y2="542.0339105188293"/>
<line class="edge" x1="304.633268283305" y1="581.9660894811707" x2="111.63326828330496" y2="545.9660894811707"/>
<line class="edge" x1="303.1455163257841" y1="580.7489260992025" x2="345.1455163257841" y2="684.7489260992025"/>
<line class="edge" x1="306.8544836742159" y1="579.2510739007975" x2="348.8544836742159" y2="683.2510739007975"/>
<line class="edge" x1="110.00042498938006" y1="543.9587716492656" x2="108.00042498938006" y2="640.9587716492656"/>
<line class="edge" x1="113.99957501061994" y1="544.0412283507344" x2="111.99957501061994" y2="641.0412283507344"/>
<line class="edge" x1="108.5292880081424" y1="639.6446379682881" x2="61.529288008142395" y2="690.6446379682881"/>
<line class="edge" x1="111.4707119918576" y1="642.3553620317119" x2="64.4707119918576" y2="693.3553620317119"/>
<!-- Node Halos -->
<circle class="background" cx="188.0" cy="438.0" r="12.0"/>
<circle class="background" cx="258.0" cy="290.0" r="12.0"/>
<circle class="background" cx="272.0" cy="315.0" r="12.0"/>
<circle class="background" cx="318.0" cy="255.0" r="12.0"/>
<circle class="background" cx="353.0" cy="112.0" r="12.0"/>
<circle class="background" cx="355.0" cy="73.0" r="12.0"/>
<circle class="background" cx="356.0" cy="82.0" r="12.0"/>
<circle class="background" cx="194.0" cy="50.0" r="12.0"/>
<circle class="background" cx="174.0" cy="93.0" r="12.0"/>
<circle class="background" cx="82.0" cy="180.0" r="12.0"/>
<circle class="background" cx="140.0" cy="195.0" r="12.0"/>
<circle class="background" cx="141.0" cy="325.0" r="12.0"/>
<circle class="background" cx="189.0" cy="376.0" r="12.0"/>
<circle class="background" cx="284.0" cy="585.0" r="12.0"/>
<circle class="background" cx="305.0" cy="580.0" r="12.0"/>
<circle class="background" cx="112.0" cy="544.0" r="12.0"/>
<circle class="background" cx="110.0" cy="641.0" r="12.0"/>
<circle class="background" cx="321.0" cy="92.0" r="12.0"/>
<circle class="background" cx="50.0" cy="65.0" r="12.0"/>
<circle class="background" cx="347.0" cy="684.0" r="12.0"/>
<circle class="background" cx="63.0" cy="692.0" r="12.0"/>
<!-- Stations -->
<circle class="station-500" cx="188.0" cy="438.0" r="10.0"/>
<circle class="station-220" cx="258.0" cy="290.0" r="10.0"/>
<circle class="station-220" cx="272.0" cy="315.0" r="10.0"/>
<circle class="station-220" cx="318.0" cy="255.0" r="10.0"/>
<circle class="station-220" cx="353.0" cy="112.0" r="10.0"/>
<circle class="station-220" cx="355.0" cy="73.0" r="10.0"/>
<circle class="station-220" cx="356.0" cy="82.0" r="10.0"/>
<circle class="station-220" cx="194.0" cy="50.0" r="10.0"/>
<circle class="station-220" cx="174.0" cy="93.0" r="10.0"/>
<circle class="station-220" cx="82.0" cy="180.0" r="10.0"/>
<circle class="station-220" cx="140.0" cy="195.0" r="10.0"/>
<circle class="station-220" cx="141.0" cy="325.0" r="10.0"/>
<circle class="station-220" cx="189.0" cy="376.0" r="10.0"/>
<circle class="station-220" cx="284.0" cy="585.0" r="10.0"/>
<circle class="station-220" cx="305.0" cy="580.0" r="10.0"/>
<circle class="station-220" cx="112.0" cy="544.0" r="10.0"/>
<circle class="station-220" cx="110.0" cy="641.0" r="10.0"/>
<circle class="station-220" cx="321.0" cy="92.0" r="10.0"/>
<circle class="station-220" cx="50.0" cy="65.0" r="10.0"/>
<circle class="station-220" cx="347.0" cy="684.0" r="10.0"/>
<circle class="station-220" cx="63.0" cy="692.0" r="10.0"/>
</svg>
