<?xml version="1.0" encoding="UTF-8"?>
<svg width="612.0" height="750.0" viewBox="0 0 612.0 750.0" xmlns="http://www.w3.org/2000/svg">
<defs>
  <style>
    .station-220 { fill: #2563eb; stroke: #1e40af; stroke-width: 2; }
    .station-500 { fill: #ef4444; stroke: #1e40af; stroke-width: 2; }
    .station-default { fill: #2563eb; stroke: #1e40af; stroke-width: 2; }
    .bend { fill: #111827; stroke: #111827; stroke-width: 1; }
    .dummy { fill: #8b4513; stroke: #8b4513; stroke-width: 1; }
    .inter { fill: #6b7280; stroke: #6b7280; stroke-width: 1; }
    .station-label { font-family: Arial, sans-serif; font-size: 8px; fill: white; text-anchor: middle; dominant-baseline: central; }
    .edge { stroke: #6b7280; stroke-width: 2; fill: none; }
    .background { fill: #f8fafc; }
  </style>
</defs>
<rect class="background" width="612.0" height="750.0"/>
<!-- Edges -->
<line class="edge" x1="317.2162782524488" y1="452.5876609249522" x2="488.2162782524488" y2="321.5876609249522"/>
<line class="edge" x1="314.7837217475512" y1="449.4123390750478" x2="485.7837217475512" y2="318.4123390750478"/>
<line class="edge" x1="316.0231198423556" y1="452.9998663637577" x2="489.0231198423556" y2="450.9998663637577"/>
<line class="edge" x1="315.9768801576444" y1="449.0001336362423" x2="488.9768801576444" y2="447.0001336362423"/>
<line class="edge" x1="315.2993204402763" y1="452.873245353547" x2="446.2993204402763" y2="501.873245353547"/>
<line class="edge" x1="316.7006795597237" y1="449.126754646453" x2="447.7006795597237" y2="498.126754646453"/>
<line class="edge" x1="317.9028890371088" y1="450.3843594291707" x2="251.90288903710882" y2="246.38435942917067"/>
<line class="edge" x1="314.0971109628912" y1="451.6156405708293" x2="248.09711096289118" y2="247.61564057082933"/>
<line class="edge" x1="316.28932201023724" y1="449.0210374499773" x2="145.28932201023724" y2="424.0210374499773"/>
<line class="edge" x1="315.71067798976276" y1="452.9789625500227" x2="144.71067798976276" y2="427.9789625500227"/>
<line class="edge" x1="314.42946166874447" y1="449.76169093112543" x2="273.42946166874447" y2="501.76169093112543"/>
<line class="edge" x1="317.57053833125553" y1="452.23830906887457" x2="276.57053833125553" y2="504.23830906887457"/>
<line class="edge" x1="314.04460738869534" y1="451.42004730168765" x2="343.04460738869534" y2="586.4200473016876"/>
<line class="edge" x1="317.95539261130466" y1="450.57995269831235" x2="346.95539261130466" y2="585.5799526983124"/>
<line class="edge" x1="314.10263340389895" y1="450.3675444679663" x2="286.10263340389895" y2="534.3675444679664"/>
<line class="edge" x1="317.89736659610105" y1="451.6324555320337" x2="289.89736659610105" y2="535.6324555320336"/>
<line class="edge" x1="317.99669939377935" y1="451.1148543899077" x2="330.99669939377935" y2="225.11485438990766"/>
<line class="edge" x1="314.00330060622065" y1="450.8851456100923" x2="327.00330060622065" y2="224.88514561009234"/>
<line class="edge" x1="317.9857710131018" y1="450.7618540709465" x2="304.8518004569547" y2="341.2447268162717"/>
<line class="edge" x1="314.0142289868982" y1="451.2381459290535" x2="300.88025843075116" y2="341.7210186743786"/>
<line class="edge" x1="485.8905996075495" y1="321.6641005886757" x2="548.8905996075496" y2="363.6641005886757"/>
<line class="edge" x1="488.1094003924505" y1="318.3358994113243" x2="551.1094003924504" y2="360.3358994113243"/>
<line class="edge" x1="548.3624209361274" y1="360.8518123805031" x2="487.36242093612736" y2="447.8518123805031"/>
<line class="edge" x1="551.6375790638726" y1="363.1481876194969" x2="490.63757906387264" y2="450.1481876194969"/>
<line class="edge" x1="562.8029537788531" y1="479.1682616919916" x2="489.802953778853" y2="447.1682616919916"/>
<line class="edge" x1="561.1970462211469" y1="482.8317383080084" x2="488.197046221147" y2="450.8317383080084"/>
<line class="edge" x1="560.3825278313936" y1="479.8236566046499" x2="528.3825278313936" y2="523.82365660465"/>
<line class="edge" x1="563.6174721686064" y1="482.1763433953501" x2="531.6174721686064" y2="526.17634339535"/>
<line class="edge" x1="531.7601979724564" y1="524.0504195148591" x2="490.76019797245635" y2="448.0504195148591"/>
<line class="edge" x1="528.2398020275436" y1="525.9495804851409" x2="487.23980202754365" y2="449.9495804851409"/>
<line class="edge" x1="530.5768121621711" y1="523.0849836215918" x2="447.5768121621711" y2="498.08498362159185"/>
<line class="edge" x1="529.4231878378289" y1="526.9150163784082" x2="446.4231878378289" y2="501.91501637840815"/>
<line class="edge" x1="248.40206421442622" y1="245.79725263451434" x2="178.40206421442622" y2="338.79725263451434"/>
<line class="edge" x1="251.59793578557378" y1="248.20274736548566" x2="181.59793578557378" y2="341.20274736548566"/>
<line class="edge" x1="178.14753665038592" y1="339.24609049725007" x2="143.14753665038592" y2="425.24609049725007"/>
<line class="edge" x1="181.85246334961408" y1="340.75390950274993" x2="146.85246334961408" y2="426.75390950274993"/>
<line class="edge" x1="50.311925146946024" y1="442.97552593065814" x2="145.311925146946" y2="427.97552593065814"/>
<line class="edge" x1="49.688074853053976" y1="439.02447406934186" x2="144.688074853054" y2="424.02447406934186"/>
<line class="edge" x1="48.11368790767117" y1="441.6647004515825" x2="85.11368790767116" y2="546.6647004515826"/>
<line class="edge" x1="51.88631209232883" y1="440.3352995484175" x2="88.88631209232884" y2="545.3352995484174"/>
<line class="edge" x1="88.80069790568389" y1="546.8703373210806" x2="146.80069790568388" y2="426.87033732108057"/>
<line class="edge" x1="85.19930209431611" y1="545.1296626789194" x2="143.19930209431612" y2="425.12966267891943"/>
<line class="edge" x1="87.44593118659921" y1="547.9496526297826" x2="275.44593118659924" y2="504.9496526297826"/>
<line class="edge" x1="86.55406881340079" y1="544.0503473702174" x2="274.55406881340076" y2="501.0503473702174"/>
<line class="edge" x1="343.30400339198985" y1="587.0599978800063" x2="363.30400339198985" y2="619.0599978800063"/>
<line class="edge" x1="346.69599660801015" y1="584.9400021199937" x2="366.69599660801015" y2="616.9400021199937"/>
<line class="edge" x1="363.5684361032456" y1="616.6033522958494" x2="283.5684361032456" y2="698.6033522958494"/>
<line class="edge" x1="366.4315638967544" y1="619.3966477041506" x2="286.4315638967544" y2="701.3966477041506"/>
<line class="edge" x1="286.51137816557963" y1="698.6901389231643" x2="260.51137816557963" y2="668.6901389231643"/>
<line class="edge" x1="283.48862183442037" y1="701.3098610768357" x2="257.48862183442037" y2="671.3098610768357"/>
<line class="edge" x1="260.95539261130466" y1="670.4200473016876" x2="289.95539261130466" y2="535.4200473016876"/>
<line class="edge" x1="257.04460738869534" y1="669.5799526983124" x2="286.04460738869534" y2="534.5799526983124"/>
<line class="edge" x1="330.3047401985583" y1="226.515801113031" x2="409.3047401985583" y2="158.515801113031"/>
<line class="edge" x1="327.6952598014417" y1="223.484198886969" x2="406.6952598014417" y2="155.484198886969"/>
<line class="edge" x1="409.77198710287814" y1="156.07260488073666" x2="353.77198710287814" y2="49.07260488073666"/>
<line class="edge" x1="406.22801289712186" y1="157.92739511926334" x2="350.22801289712186" y2="50.92739511926334"/>
<line class="edge" x1="350.5544871583233" y1="48.61779429007556" x2="219.5544871583233" y2="185.61779429007555"/>
<line class="edge" x1="353.4455128416767" y1="51.38220570992444" x2="222.4455128416767" y2="188.38220570992445"/>
<line class="edge" x1="222.28036879932895" y1="188.53644255919474" x2="228.28036879932895" y2="183.53644255919474"/>
<line class="edge" x1="219.71963120067105" y1="185.46355744080526" x2="225.71963120067105" y2="180.46355744080526"/>
<line class="edge" x1="225.19393537144762" y1="182.85914524819262" x2="301.0599648153006" y2="342.3420179935178"/>
<line class="edge" x1="228.80606462855238" y1="181.14085475180738" x2="304.6720940724053" y2="340.6237274971325"/>
<!-- Node Halos -->
<circle class="background" cx="316.0" cy="451.0" r="12.0"/>
<circle class="background" cx="487.0" cy="320.0" r="12.0"/>
<circle class="background" cx="550.0" cy="362.0" r="12.0"/>
<circle class="background" cx="562.0" cy="481.0" r="12.0"/>
<circle class="background" cx="530.0" cy="525.0" r="12.0"/>
<circle class="background" cx="447.0" cy="500.0" r="12.0"/>
<circle class="background" cx="489.0" cy="449.0" r="12.0"/>
<circle class="background" cx="250.0" cy="247.0" r="12.0"/>
<circle class="background" cx="180.0" cy="340.0" r="12.0"/>
<circle class="background" cx="50.0" cy="441.0" r="12.0"/>
<circle class="background" cx="87.0" cy="546.0" r="12.0"/>
<circle class="background" cx="275.0" cy="503.0" r="12.0"/>
<circle class="background" cx="145.0" cy="426.0" r="12.0"/>
<circle class="background" cx="345.0" cy="586.0" r="12.0"/>
<circle class="background" cx="365.0" cy="618.0" r="12.0"/>
<circle class="background" cx="285.0" cy="700.0" r="12.0"/>
<circle class="background" cx="259.0" cy="670.0" r="12.0"/>
<circle class="background" cx="288.0" cy="535.0" r="12.0"/>
<circle class="background" cx="329.0" cy="225.0" r="12.0"/>
<circle class="background" cx="408.0" cy="157.0" r="12.0"/>
<circle class="background" cx="352.0" cy="50.0" r="12.0"/>
<circle class="background" cx="221.0" cy="187.0" r="12.0"/>
<circle class="background" cx="227.0" cy="182.0" r="12.0"/>
<circle class="background" cx="302.86602944385294" cy="341.48287274532515" r="5.5"/>
<!-- Stations -->
<circle class="station-500" cx="316.0" cy="451.0" r="10.0"/>
<circle class="station-220" cx="487.0" cy="320.0" r="10.0"/>
<circle class="station-220" cx="550.0" cy="362.0" r="10.0"/>
<circle class="station-220" cx="562.0" cy="481.0" r="10.0"/>
<circle class="station-220" cx="530.0" cy="525.0" r="10.0"/>
<circle class="station-220" cx="447.0" cy="500.0" r="10.0"/>
<circle class="station-220" cx="489.0" cy="449.0" r="10.0"/>
<circle class="station-220" cx="250.0" cy="247.0" r="10.0"/>
<circle class="station-220" cx="180.0" cy="340.0" r="10.0"/>
<circle class="station-220" cx="50.0" cy="441.0" r="10.0"/>
<circle class="station-220" cx="87.0" cy="546.0" r="10.0"/>
<circle class="station-220" cx="275.0" cy="503.0" r="10.0"/>
<circle class="station-220" cx="145.0" cy="426.0" r="10.0"/>
<circle class="station-220" cx="345.0" cy="586.0" r="10.0"/>
<circle class="station-220" cx="365.0" cy="618.0" r="10.0"/>
<circle class="station-220" cx="285.0" cy="700.0" r="10.0"/>
<circle class="station-220" cx="259.0" cy="670.0" r="10.0"/>
<circle class="station-220" cx="288.0" cy="535.0" r="10.0"/>
<circle class="station-220" cx="329.0" cy="225.0" r="10.0"/>
<circle class="station-220" cx="408.0" cy="157.0" r="10.0"/>
<circle class="station-220" cx="352.0" cy="50.0" r="10.0"/>
<circle class="station-220" cx="221.0" cy="187.0" r="10.0"/>
<circle class="station-220" cx="227.0" cy="182.0" r="10.0"/>
<circle class="bend" cx="302.86602944385294" cy="341.48287274532515" r="3.5"/>
</svg>
