<?xml version="1.0" encoding="UTF-8"?>
<svg width="624.2371681314701" height="700.0" viewBox="0 0 624.2371681314701 700.0" xmlns="http://www.w3.org/2000/svg">
<defs>
  <style>
    .station-220 { fill: #2563eb; stroke: #1e40af; stroke-width: 2; }
    .station-500 { fill: #ef4444; stroke: #1e40af; stroke-width: 2; }
    .station-default { fill: #2563eb; stroke: #1e40af; stroke-width: 2; }
    .bend { fill: #111827; stroke: #111827; stroke-width: 1; }
    .dummy { fill: #8b4513; stroke: #8b4513; stroke-width: 1; }
    .inter { fill: #6b7280; stroke: #6b7280; stroke-width: 1; }
    .station-label { font-family: Arial, sans-serif; font-size: 8px; fill: white; text-anchor: middle; dominant-baseline: central; }
    .edge { stroke: #6b7280; stroke-width: 2; fill: none; }
    .background { fill: #f8fafc; }
  </style>
</defs>
<rect class="background" width="624.2371681314701" height="700.0"/>
<!-- Edges -->
<line class="edge" x1="352.614589503223" y1="418.27672800534447" x2="501.5413826556655" y2="310.07507922064065"/>
<line class="edge" x1="350.26344849405314" y1="415.04066002784464" x2="499.1902416464956" y2="306.8390112431408"/>
<line class="edge" x1="351.43901899863806" y1="418.65869401659455" x2="499.97111842052607" y2="418.65869401659455"/>
<line class="edge" x1="351.43901899863806" y1="414.65869401659455" x2="499.97111842052607" y2="414.65869401659455"/>
<line class="edge" x1="350.82098500988815" y1="418.56080704918486" x2="459.97831035451867" y2="454.0281720417592"/>
<line class="edge" x1="352.057052987388" y1="414.75658098400424" x2="461.2143783320185" y2="450.2239459765786"/>
<line class="edge" x1="352.614589503223" y1="415.04066002784464" x2="205.1393712601577" y2="307.8936421473857"/>
<line class="edge" x1="350.26344849405314" y1="418.27672800534447" x2="202.7882302509878" y2="311.12971012488555"/>
<line class="edge" x1="350.82098500988815" y1="414.75658098400424" x2="147.01524589628045" y2="480.9770798273218"/>
<line class="edge" x1="352.057052987388" y1="418.56080704918486" x2="148.25131387378028" y2="484.7813058925024"/>
<line class="edge" x1="349.8209850098882" y1="415.48312351200957" x2="282.35804782588997" y2="508.3378905539428"/>
<line class="edge" x1="353.0570529873879" y1="417.83426452117953" x2="285.5941158033897" y2="510.6890315631128"/>
<line class="edge" x1="349.53690596604775" y1="417.27672800534447" x2="385.0042709586229" y2="526.4340533499757"/>
<line class="edge" x1="353.34113203122837" y1="416.04066002784464" x2="388.8084970238035" y2="525.197985372476"/>
<line class="edge" x1="349.43901899863806" y1="416.6586940165945" x2="349.439018998635" y2="490.92474372753543"/>
<line class="edge" x1="353.43901899863806" y1="416.6586940165946" x2="353.439018998635" y2="490.92474372753554"/>
<line class="edge" x1="353.34113203122837" y1="417.27672800534447" x2="411.75796848956776" y2="237.4881921436529"/>
<line class="edge" x1="349.53690596604775" y1="416.04066002784464" x2="407.95374242438714" y2="236.25212416615312"/>
<line class="edge" x1="353.43901899863806" y1="416.65869401659455" x2="353.43901899863806" y2="322.1382671117045"/>
<line class="edge" x1="349.43901899863806" y1="416.65869401659455" x2="349.43901899863806" y2="322.1382671117045"/>
<line class="edge" x1="499.1902416464956" y1="310.07507922064065" x2="550.3848528213472" y2="347.27014144386845"/>
<line class="edge" x1="501.5413826556655" y1="306.8390112431408" x2="552.735993830517" y2="344.0340734663686"/>
<line class="edge" x1="549.9423893371822" y1="344.4765369505336" x2="498.35308443177615" y2="415.4831235120096"/>
<line class="edge" x1="553.178457314682" y1="346.82767795970346" x2="501.589152409276" y2="417.8342645211795"/>
<line class="edge" x1="574.8552021202199" y1="438.8870832965018" x2="500.589152409276" y2="414.75658098400424"/>
<line class="edge" x1="573.6191341427202" y1="442.69130936168244" x2="499.35308443177615" y2="418.56080704918486"/>
<line class="edge" x1="572.6191341427202" y1="439.6136258245072" x2="544.2520273633293" y2="478.65759873173636"/>
<line class="edge" x1="575.8552021202199" y1="441.96476683367706" x2="547.488095340829" y2="481.0087397409062"/>
<line class="edge" x1="547.488095340829" y1="478.6575987317363" x2="501.5891524092759" y2="415.48312351200957"/>
<line class="edge" x1="544.2520273633293" y1="481.00873974090626" x2="498.3530844317762" y2="417.83426452117953"/>
<line class="edge" x1="546.488095340829" y1="477.931056203731" x2="461.21437833201844" y2="450.2239459765786"/>
<line class="edge" x1="545.2520273633293" y1="481.7352822689116" x2="459.9783103545187" y2="454.0281720417592"/>
<line class="edge" x1="202.06168772298244" y1="308.8936421473857" x2="168.68063831821428" y2="411.6299483540689"/>
<line class="edge" x1="205.86591378816306" y1="310.12971012488555" x2="172.4848643833949" y2="412.86601633156874"/>
<line class="edge" x1="168.68063831821425" y1="411.629948354069" x2="145.73116685244003" y2="482.26115887116225"/>
<line class="edge" x1="172.48486438339492" y1="412.8660163315687" x2="149.5353929176207" y2="483.49722684866197"/>
<line class="edge" x1="50.0" y1="484.8791928599121" x2="147.63327988503036" y2="484.8791928599121"/>
<line class="edge" x1="50.0" y1="480.8791928599121" x2="147.63327988503036" y2="480.8791928599121"/>
<line class="edge" x1="48.09788696740968" y1="483.49722684866197" x2="78.26822966844794" y2="576.3519938905914"/>
<line class="edge" x1="51.90211303259032" y1="482.26115887116225" x2="82.07245573362859" y2="575.1159259130917"/>
<line class="edge" x1="81.78837668978817" y1="576.9095304064265" x2="149.25131387378025" y2="484.05476336449703"/>
<line class="edge" x1="78.55230871228837" y1="574.5583893972566" x2="146.01524589628048" y2="481.7036223553272"/>
<line class="edge" x1="80.78837668978815" y1="577.6360729344319" x2="284.59411580338974" y2="511.4155740911181"/>
<line class="edge" x1="79.55230871228838" y1="573.8318468692512" x2="283.3580478258899" y2="507.6113480259375"/>
<line class="edge" x1="385.2883500024633" y1="526.9915898658107" x2="413.06720648998936" y2="565.225905706605"/>
<line class="edge" x1="388.5244179799631" y1="524.6404488566409" x2="416.3032744674892" y2="562.8747646974351"/>
<line class="edge" x1="413.06720648998936" y1="562.8747646974351" x2="350.62111974645154" y2="648.8244294954151"/>
<line class="edge" x1="416.3032744674892" y1="565.225905706605" x2="353.85718772395137" y2="651.1755705045849"/>
<line class="edge" x1="353.85718772395137" y1="648.8244294954151" x2="317.5896879948244" y2="598.9064985675518"/>
<line class="edge" x1="350.62111974645154" y1="651.1755705045849" x2="314.35362001732454" y2="601.2576395767217"/>
<line class="edge" x1="317.87376703866477" y1="600.7001030608866" x2="353.3411320312253" y2="491.54277771628534"/>
<line class="edge" x1="314.06954097348415" y1="599.4640350833869" x2="349.5369059660447" y2="490.3067097387856"/>
<line class="edge" x1="411.0314259615624" y1="238.4881921436529" x2="482.0380125230376" y2="186.8988872382469"/>
<line class="edge" x1="408.6802849523925" y1="235.25212416615312" x2="479.68687151386774" y2="183.66281926074714"/>
<line class="edge" x1="482.4804760072026" y1="184.10528274491207" x2="384.1931828965894" y2="48.824429495415046"/>
<line class="edge" x1="479.24440802970275" y1="186.45642375408198" x2="380.9571149190896" y2="51.175570504584954"/>
<line class="edge" x1="380.9571149190896" y1="48.82442949541505" x2="265.68772623754165" y2="207.47913206046138"/>
<line class="edge" x1="384.1931828965894" y1="51.17557050458495" x2="268.9237942150415" y2="209.8302730696313"/>
<line class="edge" x1="268.48133073087655" y1="210.27273655379622" x2="306.71564657167085" y2="182.49388006626938"/>
<line class="edge" x1="266.1301897217066" y1="207.03666857629645" x2="304.3645055625009" y2="179.2578120887696"/>
<line class="edge" x1="303.63796303449556" y1="181.49388006626938" x2="349.53690596604775" y2="322.75630110045444"/>
<line class="edge" x1="307.44218909967617" y1="180.2578120887696" x2="353.34113203122837" y2="321.5202331229546"/>
<!-- Node Halos -->
<circle class="background" cx="351.43901899863806" cy="416.65869401659455" r="12.0"/>
<circle class="background" cx="500.36581215108055" cy="308.45704523189073" r="12.0"/>
<circle class="background" cx="551.5604233259321" cy="345.65210745511854" r="12.0"/>
<circle class="background" cx="574.2371681314701" cy="440.78919632909214" r="12.0"/>
<circle class="background" cx="545.8700613520791" cy="479.8331692363213" r="12.0"/>
<circle class="background" cx="460.5963443432686" cy="452.1260590091689" r="12.0"/>
<circle class="background" cx="499.97111842052607" cy="416.65869401659455" r="12.0"/>
<circle class="background" cx="203.96380075557275" cy="309.51167613613563" r="12.0"/>
<circle class="background" cx="170.58275135080459" cy="412.24798234281883" r="12.0"/>
<circle class="background" cx="50.0" cy="482.8791928599121" r="12.0"/>
<circle class="background" cx="80.17034270103827" cy="575.7339599018416" r="12.0"/>
<circle class="background" cx="283.9760818146398" cy="509.5134610585278" r="12.0"/>
<circle class="background" cx="147.63327988503036" cy="482.8791928599121" r="12.0"/>
<circle class="background" cx="386.9063839912132" cy="525.8160193612258" r="12.0"/>
<circle class="background" cx="414.6852404787393" cy="564.05033520202" r="12.0"/>
<circle class="background" cx="352.23915373520146" cy="650.0" r="12.0"/>
<circle class="background" cx="315.97165400607446" cy="600.0820690721367" r="12.0"/>
<circle class="background" cx="351.439018998635" cy="490.9247437275355" r="12.0"/>
<circle class="background" cx="409.85585545697745" cy="236.870158154903" r="12.0"/>
<circle class="background" cx="480.86244201845267" cy="185.28085324949703" r="12.0"/>
<circle class="background" cx="382.5751489078395" cy="50.0" r="12.0"/>
<circle class="background" cx="267.30576022629157" cy="208.65470256504634" r="12.0"/>
<circle class="background" cx="305.54007606708586" cy="180.8758460775195" r="12.0"/>
<circle class="background" cx="351.43901899863806" cy="322.1382671117045" r="5.5"/>
<!-- Stations -->
<circle class="station-500" cx="351.43901899863806" cy="416.65869401659455" r="10.0"/>
<circle class="station-220" cx="500.36581215108055" cy="308.45704523189073" r="10.0"/>
<circle class="station-220" cx="551.5604233259321" cy="345.65210745511854" r="10.0"/>
<circle class="station-220" cx="574.2371681314701" cy="440.78919632909214" r="10.0"/>
<circle class="station-220" cx="545.8700613520791" cy="479.8331692363213" r="10.0"/>
<circle class="station-220" cx="460.5963443432686" cy="452.1260590091689" r="10.0"/>
<circle class="station-220" cx="499.97111842052607" cy="416.65869401659455" r="10.0"/>
<circle class="station-220" cx="203.96380075557275" cy="309.51167613613563" r="10.0"/>
<circle class="station-220" cx="170.58275135080459" cy="412.24798234281883" r="10.0"/>
<circle class="station-220" cx="50.0" cy="482.8791928599121" r="10.0"/>
<circle class="station-220" cx="80.17034270103827" cy="575.7339599018416" r="10.0"/>
<circle class="station-220" cx="283.9760818146398" cy="509.5134610585278" r="10.0"/>
<circle class="station-220" cx="147.63327988503036" cy="482.8791928599121" r="10.0"/>
<circle class="station-220" cx="386.9063839912132" cy="525.8160193612258" r="10.0"/>
<circle class="station-220" cx="414.6852404787393" cy="564.05033520202" r="10.0"/>
<circle class="station-220" cx="352.23915373520146" cy="650.0" r="10.0"/>
<circle class="station-220" cx="315.97165400607446" cy="600.0820690721367" r="10.0"/>
<circle class="station-220" cx="351.439018998635" cy="490.9247437275355" r="10.0"/>
<circle class="station-220" cx="409.85585545697745" cy="236.870158154903" r="10.0"/>
<circle class="station-220" cx="480.86244201845267" cy="185.28085324949703" r="10.0"/>
<circle class="station-220" cx="382.5751489078395" cy="50.0" r="10.0"/>
<circle class="station-220" cx="267.30576022629157" cy="208.65470256504634" r="10.0"/>
<circle class="station-220" cx="305.54007606708586" cy="180.8758460775195" r="10.0"/>
<circle class="bend" cx="351.43901899863806" cy="322.1382671117045" r="3.5"/>
</svg>
