<?xml version="1.0" encoding="UTF-8"?>
<svg width="715.0" height="616.0" viewBox="0 0 715.0 616.0" xmlns="http://www.w3.org/2000/svg">
<defs>
  <style>
    .station-220 { fill: #2563eb; stroke: #1e40af; stroke-width: 2; }
    .station-500 { fill: #ef4444; stroke: #1e40af; stroke-width: 2; }
    .station-default { fill: #2563eb; stroke: #1e40af; stroke-width: 2; }
    .bend { fill: #111827; stroke: #111827; stroke-width: 1; }
    .dummy { fill: #8b4513; stroke: #8b4513; stroke-width: 1; }
    .inter { fill: #6b7280; stroke: #6b7280; stroke-width: 1; }
    .station-label { font-family: Arial, sans-serif; font-size: 8px; fill: white; text-anchor: middle; dominant-baseline: central; }
    .edge { stroke: #6b7280; stroke-width: 2; fill: none; }
    .background { fill: #f8fafc; }
  </style>
</defs>
<rect class="background" width="715.0" height="616.0"/>
<!-- Edges -->
<line class="edge" x1="340.56173761888607" y1="284.2493900951088" x2="392.56173761888607" y2="219.24939009510885"/>
<line class="edge" x1="337.43826238111393" y1="281.7506099048912" x2="389.43826238111393" y2="216.75060990489115"/>
<line class="edge" x1="339.3628108637852" y1="284.9668167878883" x2="442.3628108637852" y2="265.9668167878883"/>
<line class="edge" x1="338.6371891362148" y1="281.0331832121117" x2="441.6371891362148" y2="262.0331832121117"/>
<line class="edge" x1="337.76169093112543" y1="284.57053833125553" x2="441.76169093112543" y2="366.57053833125553"/>
<line class="edge" x1="340.23830906887457" y1="281.42946166874447" x2="444.23830906887457" y2="363.42946166874447"/>
<line class="edge" x1="337.2695963587299" y1="284.00284756482694" x2="388.2695963587299" y2="372.00284756482694"/>
<line class="edge" x1="340.7304036412701" y1="281.99715243517306" x2="391.7304036412701" y2="369.99715243517306"/>
<line class="edge" x1="337.00035590355293" y1="283.03772913389525" x2="340.00035590355293" y2="442.03772913389525"/>
<line class="edge" x1="340.99964409644707" y1="282.96227086610475" x2="343.99964409644707" y2="441.96227086610475"/>
<line class="edge" x1="337.0262148761663" y1="282.677242684153" x2="311.0262148761663" y2="441.677242684153"/>
<line class="edge" x1="340.9737851238337" y1="283.322757315847" x2="314.9737851238337" y2="442.322757315847"/>
<line class="edge" x1="337.7903447068444" y1="281.40728719734517" x2="258.7903447068444" y2="341.40728719734517"/>
<line class="edge" x1="340.2096552931556" y1="284.59271280265483" x2="261.2096552931556" y2="344.59271280265483"/>
<line class="edge" x1="339.9938749596209" y1="281.26442730931876" x2="222.99387495962088" y2="214.26442730931873"/>
<line class="edge" x1="338.0061250403791" y1="284.73557269068124" x2="221.00612504037912" y2="217.73557269068127"/>
<line class="edge" x1="392.9942357907359" y1="217.8482646680962" x2="385.9942357907359" y2="125.84826466809618"/>
<line class="edge" x1="389.0057642092641" y1="218.1517353319038" x2="382.0057642092641" y2="126.15173533190382"/>
<line class="edge" x1="385.84748422714324" y1="125.23396995459913" x2="368.84748422714324" y2="84.23396995459913"/>
<line class="edge" x1="382.15251577285676" y1="126.76603004540087" x2="365.15251577285676" y2="85.76603004540087"/>
<line class="edge" x1="443.1416707096595" y1="265.64212910293486" x2="548.1416707096595" y2="192.64212910293486"/>
<line class="edge" x1="440.8583292903405" y1="262.35787089706514" x2="545.8583292903405" y2="189.35787089706514"/>
<line class="edge" x1="548.042900018908" y1="192.70656366730393" x2="638.042900018908" y2="137.70656366730393"/>
<line class="edge" x1="545.957099981092" y1="189.29343633269607" x2="635.957099981092" y2="134.29343633269607"/>
<line class="edge" x1="443.8144353987778" y1="366.8266622515445" x2="600.8144353987778" y2="296.8266622515445"/>
<line class="edge" x1="442.1855646012222" y1="363.1733377484555" x2="599.1855646012222" y2="293.1733377484555"/>
<line class="edge" x1="599.0730049466" y1="296.77219642561766" x2="664.0730049466" y2="330.77219642561766"/>
<line class="edge" x1="600.9269950534" y1="293.22780357438234" x2="665.9269950534" y2="327.22780357438234"/>
<line class="edge" x1="388.6533406623065" y1="372.4786847629576" x2="500.6533406623065" y2="474.4786847629576"/>
<line class="edge" x1="391.3466593376935" y1="369.5213152370424" x2="503.3466593376935" y2="471.5213152370424"/>
<line class="edge" x1="340.18598206450315" y1="442.84222261290927" x2="353.18598206450315" y2="470.84222261290927"/>
<line class="edge" x1="343.81401793549685" y1="441.15777738709073" x2="356.81401793549685" y2="469.15777738709073"/>
<line class="edge" x1="353.00389484303423" y1="470.1247565723104" x2="359.00389484303423" y2="566.1247565723104"/>
<line class="edge" x1="356.99610515696577" y1="469.8752434276896" x2="362.99610515696577" y2="565.8752434276896"/>
<line class="edge" x1="311.627974262622" y1="440.5448211876294" x2="241.627974262622" y2="506.5448211876294"/>
<line class="edge" x1="314.372025737378" y1="443.4551788123706" x2="244.372025737378" y2="509.4551788123706"/>
<line class="edge" x1="261.1054725523322" y1="341.3332875364838" x2="163.10547255233217" y2="276.3332875364838"/>
<line class="edge" x1="258.8945274476678" y1="344.6667124635162" x2="160.89452744766783" y2="279.6667124635162"/>
<line class="edge" x1="160.69065289826392" y1="276.48817654232533" x2="48.69065289826392" y2="373.48817654232533"/>
<line class="edge" x1="163.30934710173608" y1="279.51182345767467" x2="51.30934710173608" y2="376.51182345767467"/>
<line class="edge" x1="223.9360986932423" y1="216.5015195410206" x2="266.9360986932423" y2="50.50151954102059"/>
<line class="edge" x1="220.0639013067577" y1="215.4984804589794" x2="263.0639013067577" y2="49.49848045897941"/>
<!-- Node Halos -->
<circle class="background" cx="339.0" cy="283.0" r="12.0"/>
<circle class="background" cx="391.0" cy="218.0" r="12.0"/>
<circle class="background" cx="384.0" cy="126.0" r="12.0"/>
<circle class="background" cx="367.0" cy="85.0" r="12.0"/>
<circle class="background" cx="442.0" cy="264.0" r="12.0"/>
<circle class="background" cx="547.0" cy="191.0" r="12.0"/>
<circle class="background" cx="637.0" cy="136.0" r="12.0"/>
<circle class="background" cx="443.0" cy="365.0" r="12.0"/>
<circle class="background" cx="600.0" cy="295.0" r="12.0"/>
<circle class="background" cx="665.0" cy="329.0" r="12.0"/>
<circle class="background" cx="390.0" cy="371.0" r="12.0"/>
<circle class="background" cx="502.0" cy="473.0" r="12.0"/>
<circle class="background" cx="342.0" cy="442.0" r="12.0"/>
<circle class="background" cx="355.0" cy="470.0" r="12.0"/>
<circle class="background" cx="361.0" cy="566.0" r="12.0"/>
<circle class="background" cx="313.0" cy="442.0" r="12.0"/>
<circle class="background" cx="243.0" cy="508.0" r="12.0"/>
<circle class="background" cx="260.0" cy="343.0" r="12.0"/>
<circle class="background" cx="162.0" cy="278.0" r="12.0"/>
<circle class="background" cx="50.0" cy="375.0" r="12.0"/>
<circle class="background" cx="222.0" cy="216.0" r="12.0"/>
<circle class="background" cx="265.0" cy="50.0" r="12.0"/>
<!-- Stations -->
<circle class="station-500" cx="339.0" cy="283.0" r="10.0"/>
<circle class="station-220" cx="391.0" cy="218.0" r="10.0"/>
<circle class="station-220" cx="384.0" cy="126.0" r="10.0"/>
<circle class="station-220" cx="367.0" cy="85.0" r="10.0"/>
<circle class="station-220" cx="442.0" cy="264.0" r="10.0"/>
<circle class="station-220" cx="547.0" cy="191.0" r="10.0"/>
<circle class="station-220" cx="637.0" cy="136.0" r="10.0"/>
<circle class="station-220" cx="443.0" cy="365.0" r="10.0"/>
<circle class="station-220" cx="600.0" cy="295.0" r="10.0"/>
<circle class="station-220" cx="665.0" cy="329.0" r="10.0"/>
<circle class="station-220" cx="390.0" cy="371.0" r="10.0"/>
<circle class="station-220" cx="502.0" cy="473.0" r="10.0"/>
<circle class="station-220" cx="342.0" cy="442.0" r="10.0"/>
<circle class="station-220" cx="355.0" cy="470.0" r="10.0"/>
<circle class="station-220" cx="361.0" cy="566.0" r="10.0"/>
<circle class="station-220" cx="313.0" cy="442.0" r="10.0"/>
<circle class="station-220" cx="243.0" cy="508.0" r="10.0"/>
<circle class="station-220" cx="260.0" cy="343.0" r="10.0"/>
<circle class="station-220" cx="162.0" cy="278.0" r="10.0"/>
<circle class="station-220" cx="50.0" cy="375.0" r="10.0"/>
<circle class="station-220" cx="222.0" cy="216.0" r="10.0"/>
<circle class="station-220" cx="265.0" cy="50.0" r="10.0"/>
</svg>
