<?xml version="1.0" encoding="UTF-8"?>
<svg width="700.0" height="657.7145801304207" viewBox="0 0 700.0 657.7145801304207" xmlns="http://www.w3.org/2000/svg">
<defs>
  <style>
    .station-220 { fill: #2563eb; stroke: #1e40af; stroke-width: 2; }
    .station-500 { fill: #ef4444; stroke: #1e40af; stroke-width: 2; }
    .station-default { fill: #2563eb; stroke: #1e40af; stroke-width: 2; }
    .bend { fill: #111827; stroke: #111827; stroke-width: 1; }
    .dummy { fill: #8b4513; stroke: #8b4513; stroke-width: 1; }
    .inter { fill: #6b7280; stroke: #6b7280; stroke-width: 1; }
    .station-label { font-family: Arial, sans-serif; font-size: 8px; fill: white; text-anchor: middle; dominant-baseline: central; }
    .edge { stroke: #6b7280; stroke-width: 2; fill: none; }
    .background { fill: #f8fafc; }
  </style>
</defs>
<rect class="background" width="700.0" height="657.7145801304207"/>
<!-- Edges -->
<line class="edge" x1="369.4594126535482" y1="290.86829340662945" x2="484.11691051164934" y2="243.3756027660398"/>
<line class="edge" x1="367.9286789240878" y1="287.17277527658433" x2="482.58617678218894" y2="239.68008463599463"/>
<line class="edge" x1="367.2798322264449" y1="290.43474790398" x2="489.2387635432237" y2="412.39367922076"/>
<line class="edge" x1="370.1082593511911" y1="287.6063207792338" x2="492.0671906679699" y2="409.5652520960138"/>
<line class="edge" x1="369.4594126535482" y1="287.17277527658433" x2="210.112389759134" y2="221.1690772699411"/>
<line class="edge" x1="367.9286789240878" y1="290.86829340662945" x2="208.5816560296736" y2="224.86459539998623"/>
<line class="edge" x1="367.2798322264449" y1="287.6063207792338" x2="293.80940451569" y2="361.07674848998937"/>
<line class="edge" x1="370.1082593511911" y1="290.43474790398" x2="296.6378316404362" y2="363.9051756147356"/>
<line class="edge" x1="370.5418048538406" y1="289.7859012063371" x2="439.5698556238312" y2="123.13744485324773"/>
<line class="edge" x1="366.84628672379546" y1="288.2551674768767" x2="435.8743374937861" y2="121.60671112378736"/>
<line class="edge" x1="370.5418048538406" y1="288.2551674768767" x2="271.5362578438821" y2="49.23463313526982"/>
<line class="edge" x1="366.84628672379546" y1="289.7859012063371" x2="267.84073971383697" y2="50.76536686473018"/>
<line class="edge" x1="366.84628672379546" y1="289.7859012063371" x2="432.84998473043566" y2="449.13292410074644"/>
<line class="edge" x1="370.5418048538406" y1="288.2551674768767" x2="436.5455028604808" y2="447.60219037128604"/>
<line class="edge" x1="366.84628672379546" y1="288.25516747687664" x2="300.842588717154" y2="447.6021903712762"/>
<line class="edge" x1="370.5418048538406" y1="289.78590120633714" x2="304.5381068471991" y2="449.1329241007367"/>
<line class="edge" x1="484.11691051164934" y1="243.3756027660398" x2="571.0918554175288" y2="207.34940099937174"/>
<line class="edge" x1="482.58617678218894" y1="239.68008463599463" x2="569.5611216880685" y2="203.65388286932657"/>
<line class="edge" x1="568.3264885527987" y1="205.50164193434915" x2="568.3264885527987" y2="377.97761665506806"/>
<line class="edge" x1="572.3264885527987" y1="205.50164193434915" x2="572.3264885527987" y2="377.97761665506806"/>
<line class="edge" x1="571.0918554175288" y1="207.34940099937174" x2="650.7653668647301" y2="174.34755199605348"/>
<line class="edge" x1="569.5611216880685" y1="203.65388286932657" x2="649.2346331352699" y2="170.6520338660083"/>
<line class="edge" x1="569.5611216880685" y1="376.1298575900455" x2="489.8876102408666" y2="409.13170659336436"/>
<line class="edge" x1="571.0918554175288" y1="379.8253757200906" x2="491.418343970327" y2="412.8272247234095"/>
<line class="edge" x1="210.11238975913398" y1="221.16907726994108" x2="130.43887831193268" y2="188.1672282666222"/>
<line class="edge" x1="208.58165602967364" y1="224.86459539998626" x2="128.90814458247235" y2="191.86274639666738"/>
<line class="edge" x1="127.67351144720251" y1="190.0149873316448" x2="127.67351144720251" y2="362.4909620523625"/>
<line class="edge" x1="131.67351144720251" y1="190.0149873316448" x2="131.67351144720251" y2="362.4909620523625"/>
<line class="edge" x1="128.90814458247232" y1="188.16722826662223" x2="49.2346331352698" y2="221.16907726994233"/>
<line class="edge" x1="130.4388783119327" y1="191.86274639666735" x2="50.7653668647302" y2="224.86459539998745"/>
<line class="edge" x1="129.67351144720251" y1="364.4909620523625" x2="295.2236180780631" y2="364.4909620523625"/>
<line class="edge" x1="129.67351144720251" y1="360.4909620523625" x2="295.2236180780631" y2="360.4909620523625"/>
<line class="edge" x1="439.13631012118174" y1="123.78629155089064" x2="503.9809106759886" y2="58.94169099608317"/>
<line class="edge" x1="436.3078829964355" y1="120.95786442614445" x2="501.15248355124237" y2="56.113263871337"/>
<line class="edge" x1="501.8013302488853" y1="55.67971836868751" x2="342.4543073544778" y2="121.6834163753271"/>
<line class="edge" x1="503.3320639783457" y1="59.375236498732654" x2="343.9850410839382" y2="125.37893450537224"/>
<line class="edge" x1="344.6338877815811" y1="122.11696187797659" x2="271.10271234123263" y2="48.585786437626915"/>
<line class="edge" x1="341.8054606568349" y1="124.94538900272275" x2="268.2742852164864" y2="51.414213562373085"/>
<line class="edge" x1="432.84998473043566" y1="449.13292410074644" x2="465.85183373375514" y2="528.8064355479482"/>
<line class="edge" x1="436.5455028604808" y1="447.60219037128604" x2="469.54735186380026" y2="527.275701818488"/>
<line class="edge" x1="465.85183373375514" y1="527.275701818488" x2="432.84998473043566" y2="606.9492132656906"/>
<line class="edge" x1="469.54735186380026" y1="528.8064355479482" x2="436.5455028604808" y2="608.4799469951508"/>
<line class="edge" x1="300.84258871715394" y1="447.6021903712764" x2="267.84073971383816" y2="527.2757018184807"/>
<line class="edge" x1="304.5381068471992" y1="449.13292410073655" x2="271.5362578438834" y2="528.806435547941"/>
<!-- Node Halos -->
<circle class="background" cx="368.694045788818" cy="289.0205343416069" r="12.0"/>
<circle class="background" cx="483.35154364691914" cy="241.52784370101722" r="12.0"/>
<circle class="background" cx="570.3264885527987" cy="205.50164193434915" r="12.0"/>
<circle class="background" cx="570.3264885527987" cy="377.97761665506806" r="12.0"/>
<circle class="background" cx="490.6529771055968" cy="410.9794656583869" r="12.0"/>
<circle class="background" cx="209.3470228944038" cy="223.01683633496367" r="12.0"/>
<circle class="background" cx="129.67351144720251" cy="190.0149873316448" r="12.0"/>
<circle class="background" cx="129.67351144720251" cy="362.4909620523625" r="12.0"/>
<circle class="background" cx="295.2236180780631" cy="362.4909620523625" r="12.0"/>
<circle class="background" cx="437.72209655880863" cy="122.37207798851755" r="12.0"/>
<circle class="background" cx="502.5666971136155" cy="57.52747743371008" r="12.0"/>
<circle class="background" cx="343.219674219208" cy="123.53117544034967" r="12.0"/>
<circle class="background" cx="269.6884987788595" cy="50.0" r="12.0"/>
<circle class="background" cx="434.6977437954582" cy="448.36755723601624" r="12.0"/>
<circle class="background" cx="467.6995927987777" cy="528.0410686832181" r="12.0"/>
<circle class="background" cx="434.6977437954582" cy="607.7145801304207" r="12.0"/>
<circle class="background" cx="302.69034778217656" cy="448.36755723600646" r="12.0"/>
<circle class="background" cx="269.6884987788608" cy="528.0410686832108" r="12.0"/>
<circle class="background" cx="650.0" cy="172.4997929310309" r="12.0"/>
<circle class="background" cx="50.0" cy="223.0168363349649" r="12.0"/>
<!-- Stations -->
<circle class="station-500" cx="368.694045788818" cy="289.0205343416069" r="10.0"/>
<circle class="station-220" cx="483.35154364691914" cy="241.52784370101722" r="10.0"/>
<circle class="station-220" cx="570.3264885527987" cy="205.50164193434915" r="10.0"/>
<circle class="station-220" cx="570.3264885527987" cy="377.97761665506806" r="10.0"/>
<circle class="station-220" cx="490.6529771055968" cy="410.9794656583869" r="10.0"/>
<circle class="station-220" cx="209.3470228944038" cy="223.01683633496367" r="10.0"/>
<circle class="station-220" cx="129.67351144720251" cy="190.0149873316448" r="10.0"/>
<circle class="station-220" cx="129.67351144720251" cy="362.4909620523625" r="10.0"/>
<circle class="station-220" cx="295.2236180780631" cy="362.4909620523625" r="10.0"/>
<circle class="station-220" cx="437.72209655880863" cy="122.37207798851755" r="10.0"/>
<circle class="station-220" cx="502.5666971136155" cy="57.52747743371008" r="10.0"/>
<circle class="station-220" cx="343.219674219208" cy="123.53117544034967" r="10.0"/>
<circle class="station-220" cx="269.6884987788595" cy="50.0" r="10.0"/>
<circle class="station-220" cx="434.6977437954582" cy="448.36755723601624" r="10.0"/>
<circle class="station-220" cx="467.6995927987777" cy="528.0410686832181" r="10.0"/>
<circle class="station-220" cx="434.6977437954582" cy="607.7145801304207" r="10.0"/>
<circle class="station-220" cx="302.69034778217656" cy="448.36755723600646" r="10.0"/>
<circle class="station-220" cx="269.6884987788608" cy="528.0410686832108" r="10.0"/>
<circle class="station-220" cx="650.0" cy="172.4997929310309" r="10.0"/>
<circle class="station-220" cx="50.0" cy="223.0168363349649" r="10.0"/>
</svg>
