<?xml version="1.0" encoding="UTF-8"?>
<svg width="700.0" height="577.7815851587361" viewBox="0 0 700.0 577.7815851587361" xmlns="http://www.w3.org/2000/svg">
<defs>
  <style>
    .station-220 { fill: #2563eb; stroke: #1e40af; stroke-width: 2; }
    .station-500 { fill: #ef4444; stroke: #1e40af; stroke-width: 2; }
    .station-default { fill: #2563eb; stroke: #1e40af; stroke-width: 2; }
    .bend { fill: #111827; stroke: #111827; stroke-width: 1; }
    .dummy { fill: #8b4513; stroke: #8b4513; stroke-width: 1; }
    .inter { fill: #6b7280; stroke: #6b7280; stroke-width: 1; }
    .station-label { font-family: Arial, sans-serif; font-size: 8px; fill: white; text-anchor: middle; dominant-baseline: central; }
    .edge { stroke: #6b7280; stroke-width: 2; fill: none; }
    .background { fill: #f8fafc; }
  </style>
</defs>
<rect class="background" width="700.0" height="577.7815851587361"/>
<!-- Edges -->
<line class="edge" x1="161.613705578958" y1="345.8847516237703" x2="98.64256728377299" y2="282.9136133285068"/>
<line class="edge" x1="158.78527845421002" y1="348.7131787485147" x2="95.81414015902504" y2="285.7420404532512"/>
<line class="edge" x1="162.199492016584" y1="347.2989651861414" x2="162.19949201654984" y2="284.3278268909172"/>
<line class="edge" x1="158.199492016584" y1="347.29896518614356" x2="158.19949201654984" y2="284.32782689091937"/>
<line class="edge" x1="95.81414015902416" y1="282.91361332850767" x2="48.58578643762704" y2="330.1419670500225"/>
<line class="edge" x1="98.64256728377387" y1="285.74204045325035" x2="51.41421356237675" y2="332.9703941747652"/>
<line class="edge" x1="97.22835372139777" y1="286.327826890879" x2="160.1994920165486" y2="286.3278268909183"/>
<line class="edge" x1="97.22835372140027" y1="282.327826890879" x2="160.1994920165511" y2="282.3278268909183"/>
<line class="edge" x1="288.8428034207752" y1="410.97113829506856" x2="131.4149576827561" y2="410.9711382950869"/>
<line class="edge" x1="288.8428034207757" y1="414.97113829506856" x2="131.41495768275655" y2="414.9711382950869"/>
<line class="edge" x1="290.84280342077545" y1="412.9711382950683" x2="290.8428034207501" y2="228.3409877850924"/>
<line class="edge" x1="286.84280342077545" y1="412.97113829506884" x2="286.8428034207501" y2="228.34098778509298"/>
<line class="edge" x1="290.2570169831472" y1="411.5569247326941" x2="211.54309411396108" y2="332.84300186365925"/>
<line class="edge" x1="287.4285898584037" y1="414.385351857443" x2="208.7146669892176" y2="335.6714289884082"/>
<line class="edge" x1="132.8291712451289" y1="411.5569247327133" x2="51.41421356237446" y2="330.14196705002024"/>
<line class="edge" x1="130.00074412038376" y1="414.38535185746053" x2="48.58578643762934" y2="332.9703941747675"/>
<line class="edge" x1="132.8291712451314" y1="414.38535185745803" x2="211.5430941139644" y2="335.67142898840484"/>
<line class="edge" x1="130.00074412038126" y1="411.5569247327158" x2="208.71466698921427" y2="332.8430018636626"/>
<line class="edge" x1="317.459321755368" y1="182.39945531456507" x2="183.64565287821614" y2="48.585786437625785"/>
<line class="edge" x1="314.6308946306241" y1="185.2278824393135" x2="180.8172257534722" y2="51.414213562374215"/>
<line class="edge" x1="316.0451081929956" y1="181.8136688769393" x2="160.19949201658483" y2="181.81366887697473"/>
<line class="edge" x1="316.0451081929965" y1="185.8136688769393" x2="160.19949201658574" y2="185.81366887697473"/>
<line class="edge" x1="314.6308946306234" y1="182.39945531456578" x2="208.71466698912047" y2="288.315682956006"/>
<line class="edge" x1="317.4593217553687" y1="185.2278824393128" x2="211.54309411386583" y2="291.144110080753"/>
<line class="edge" x1="316.0451081929959" y1="185.8136688769393" x2="516.4180432771386" y2="185.813668876957"/>
<line class="edge" x1="316.0451081929962" y1="181.8136688769393" x2="516.4180432771391" y2="181.813668876957"/>
<line class="edge" x1="441.0282540035127" y1="529.1957987211092" x2="651.4142135623731" y2="318.80983916224443"/>
<line class="edge" x1="438.1998268787665" y1="526.367371596363" x2="648.5857864376269" y2="315.9814120374982"/>
<line class="edge" x1="439.6140404411396" y1="525.7815851587361" x2="395.0867215335791" y2="525.7815851587361"/>
<line class="edge" x1="439.6140404411396" y1="529.7815851587361" x2="395.0867215335791" y2="529.7815851587361"/>
<line class="edge" x1="396.50093509603585" y1="351.0865230907913" x2="517.8322568392227" y2="229.7552013474777"/>
<line class="edge" x1="393.67250797128816" y1="348.25809596604654" x2="515.0038297144752" y2="226.92677422273297"/>
<line class="edge" x1="395.086721533662" y1="351.6723095284189" x2="573.1959971638964" y2="351.6723095284189"/>
<line class="edge" x1="395.086721533662" y1="347.6723095284189" x2="573.1959971638964" y2="347.6723095284189"/>
<line class="edge" x1="393.086721533662" y1="349.672309528418" x2="393.0867215335791" y2="527.7815851587352"/>
<line class="edge" x1="397.086721533662" y1="349.6723095284198" x2="397.0867215335791" y2="527.781585158737"/>
<line class="edge" x1="516.4180432768491" y1="226.34098778510534" x2="288.8428034207502" y2="226.3409877850927"/>
<line class="edge" x1="516.4180432768488" y1="230.34098778510534" x2="288.84280342075" y2="230.3409877850927"/>
<line class="edge" x1="518.418043276849" y1="228.34098778511836" x2="518.4180432771388" y2="183.81366887697"/>
<line class="edge" x1="514.418043276849" y1="228.34098778509232" x2="514.4180432771388" y2="183.81366887694398"/>
<line class="edge" x1="182.23143931584417" y1="52.0" x2="382.60437439983065" y2="52.0"/>
<line class="edge" x1="182.23143931584417" y1="48.0" x2="382.60437439983065" y2="48.0"/>
<line class="edge" x1="180.81722575347175" y1="48.585786437626226" x2="48.585786437659856" y2="180.81722575331156"/>
<line class="edge" x1="183.6456528782166" y1="51.414213562373774" x2="51.41421356240469" y2="183.64565287805908"/>
<line class="edge" x1="571.7817836015233" y1="348.2580959660458" x2="393.672507971206" y2="526.367371596363"/>
<line class="edge" x1="574.6102107262695" y1="351.086523090792" x2="396.50093509595223" y2="529.1957987211092"/>
<line class="edge" x1="52.0" y1="527.7815851587361" x2="52.0000000000019" y2="331.55618061239386"/>
<line class="edge" x1="48.0" y1="527.7815851587361" x2="48.0000000000019" y2="331.55618061239386"/>
<line class="edge" x1="50.0" y1="529.7815851587361" x2="395.0867215335791" y2="529.7815851587361"/>
<line class="edge" x1="50.0" y1="525.7815851587361" x2="395.0867215335791" y2="525.7815851587361"/>
<line class="edge" x1="381.1901608374594" y1="51.414213562374954" x2="515.0038297147676" y2="185.22788243933195"/>
<line class="edge" x1="384.0185879622019" y1="48.585786437625046" x2="517.8322568395101" y2="182.39945531458204"/>
<line class="edge" x1="158.19949201658528" y1="183.81366887697402" x2="158.19949201654984" y2="284.3278268909176"/>
<line class="edge" x1="162.19949201658528" y1="183.81366887697544" x2="162.19949201654984" y2="284.32782689091897"/>
<line class="edge" x1="208.12888055149315" y1="289.72989651838384" x2="208.12888055158933" y2="334.25721542603804"/>
<line class="edge" x1="212.12888055149315" y1="289.7298965183752" x2="212.12888055158933" y2="334.2572154260294"/>
<line class="edge" x1="48.00000000003227" y1="182.23143931568492" x2="48.0000000000019" y2="331.55618061239346"/>
<line class="edge" x1="52.00000000003227" y1="182.23143931568572" x2="52.0000000000019" y2="331.55618061239426"/>
<line class="edge" x1="651.4142135623733" y1="315.9814120374985" x2="517.8322568395122" y2="182.39945531458417"/>
<line class="edge" x1="648.5857864376267" y1="318.80983916224415" x2="515.0038297147655" y2="185.22788243932982"/>
<line class="edge" x1="158.78527845417568" y1="285.7420404532903" x2="208.71466698921517" y2="335.67142898840575"/>
<line class="edge" x1="161.613705578924" y1="282.91361332854626" x2="211.5430941139635" y2="332.8430018636617"/>
<!-- Node Halos -->
<circle class="background" cx="160.199492016584" cy="347.2989651861425" r="12.0"/>
<circle class="background" cx="97.22835372139902" cy="284.327826890879" r="12.0"/>
<circle class="background" cx="288.84280342077545" cy="412.97113829506856" r="12.0"/>
<circle class="background" cx="131.41495768275632" cy="412.9711382950869" r="12.0"/>
<circle class="background" cx="316.04510819299605" cy="183.8136688769393" r="12.0"/>
<circle class="background" cx="439.6140404411396" cy="527.7815851587361" r="12.0"/>
<circle class="background" cx="395.086721533662" cy="349.6723095284189" r="12.0"/>
<circle class="background" cx="516.418043276849" cy="228.34098778510534" r="12.0"/>
<circle class="background" cx="182.23143931584417" cy="50.0" r="12.0"/>
<circle class="background" cx="573.1959971638964" cy="349.6723095284189" r="12.0"/>
<circle class="background" cx="50.0" cy="527.7815851587361" r="5.5"/>
<circle class="background" cx="382.60437439983065" cy="50.0" r="5.5"/>
<circle class="background" cx="160.19949201658528" cy="183.81366887697473" r="5.5"/>
<circle class="background" cx="210.12888055149315" cy="289.7298965183795" r="5.5"/>
<circle class="background" cx="288.8428034207501" cy="228.3409877850927" r="5.5"/>
<circle class="background" cx="50.00000000003227" cy="182.23143931568532" r="5.5"/>
<circle class="background" cx="650.0" cy="317.3956255998713" r="5.5"/>
<circle class="background" cx="50.0000000000019" cy="331.55618061239386" r="5.5"/>
<circle class="background" cx="160.19949201654984" cy="284.3278268909183" r="5.5"/>
<circle class="background" cx="210.12888055158933" cy="334.2572154260337" r="5.5"/>
<circle class="background" cx="395.0867215335791" cy="527.7815851587361" r="5.5"/>
<circle class="background" cx="516.4180432771388" cy="183.813668876957" r="5.5"/>
<!-- Stations -->
<circle class="station-220" cx="160.199492016584" cy="347.2989651861425" r="10.0"/>
<circle class="station-220" cx="97.22835372139902" cy="284.327826890879" r="10.0"/>
<circle class="station-220" cx="288.84280342077545" cy="412.97113829506856" r="10.0"/>
<circle class="station-220" cx="131.41495768275632" cy="412.9711382950869" r="10.0"/>
<circle class="station-220" cx="316.04510819299605" cy="183.8136688769393" r="10.0"/>
<circle class="station-220" cx="439.6140404411396" cy="527.7815851587361" r="10.0"/>
<circle class="station-220" cx="395.086721533662" cy="349.6723095284189" r="10.0"/>
<circle class="station-220" cx="516.418043276849" cy="228.34098778510534" r="10.0"/>
<circle class="station-220" cx="182.23143931584417" cy="50.0" r="10.0"/>
<circle class="station-220" cx="573.1959971638964" cy="349.6723095284189" r="10.0"/>
<circle class="inter" cx="50.0" cy="527.7815851587361" r="5.0"/>
<text class="station-label" x="50.0" y="527.7815851587361">I0</text>
<circle class="inter" cx="382.60437439983065" cy="50.0" r="5.0"/>
<text class="station-label" x="382.60437439983065" y="50.0">I1</text>
<circle class="inter" cx="160.19949201658528" cy="183.81366887697473" r="5.0"/>
<text class="station-label" x="160.19949201658528" y="183.81366887697473">I2</text>
<circle class="inter" cx="210.12888055149315" cy="289.7298965183795" r="5.0"/>
<text class="station-label" x="210.12888055149315" y="289.7298965183795">I3</text>
<circle class="inter" cx="288.8428034207501" cy="228.3409877850927" r="5.0"/>
<text class="station-label" x="288.8428034207501" y="228.3409877850927">I4</text>
<circle class="inter" cx="50.00000000003227" cy="182.23143931568532" r="5.0"/>
<text class="station-label" x="50.00000000003227" y="182.23143931568532">I5</text>
<circle class="inter" cx="650.0" cy="317.3956255998713" r="5.0"/>
<text class="station-label" x="650.0" y="317.3956255998713">I6</text>
<circle class="dummy" cx="50.0000000000019" cy="331.55618061239386" r="5.0"/>
<text class="station-label" x="50.0000000000019" y="331.55618061239386">D0</text>
<circle class="dummy" cx="160.19949201654984" cy="284.3278268909183" r="5.0"/>
<text class="station-label" x="160.19949201654984" y="284.3278268909183">D1</text>
<circle class="dummy" cx="210.12888055158933" cy="334.2572154260337" r="5.0"/>
<text class="station-label" x="210.12888055158933" y="334.2572154260337">D2</text>
<circle class="dummy" cx="395.0867215335791" cy="527.7815851587361" r="5.0"/>
<text class="station-label" x="395.0867215335791" y="527.7815851587361">D3</text>
<circle class="dummy" cx="516.4180432771388" cy="183.813668876957" r="5.0"/>
<text class="station-label" x="516.4180432771388" y="183.813668876957">D4</text>
</svg>
