<?xml version="1.0" encoding="UTF-8"?>
<svg width="700.0" height="547.4272817127243" viewBox="0 0 700.0 547.4272817127243" xmlns="http://www.w3.org/2000/svg">
<defs>
  <style>
    .station-220 { fill: #2563eb; stroke: #1e40af; stroke-width: 2; }
    .station-500 { fill: #ef4444; stroke: #1e40af; stroke-width: 2; }
    .station-default { fill: #2563eb; stroke: #1e40af; stroke-width: 2; }
    .bend { fill: #111827; stroke: #111827; stroke-width: 1; }
    .dummy { fill: #8b4513; stroke: #8b4513; stroke-width: 1; }
    .inter { fill: #6b7280; stroke: #6b7280; stroke-width: 1; }
    .station-label { font-family: Arial, sans-serif; font-size: 8px; fill: white; text-anchor: middle; dominant-baseline: central; }
    .edge { stroke: #6b7280; stroke-width: 2; fill: none; }
    .background { fill: #f8fafc; }
  </style>
</defs>
<rect class="background" width="700.0" height="547.4272817127243"/>
<!-- Edges -->
<line class="edge" x1="164.7930319499907" y1="415.2477596503918" x2="93.82619842494212" y2="344.2809261253405"/>
<line class="edge" x1="161.96460482524444" y1="418.0761867751379" x2="90.99777130019588" y2="347.1093532500866"/>
<line class="edge" x1="165.37881838761757" y1="416.66197321276485" x2="165.37881838761757" y2="345.69513968771355"/>
<line class="edge" x1="161.37881838761757" y1="416.66197321276485" x2="161.37881838761757" y2="345.69513968771355"/>
<line class="edge" x1="90.411984862569" y1="345.69513968771355" x2="90.411984862569" y2="393.00636203774775"/>
<line class="edge" x1="94.411984862569" y1="345.69513968771355" x2="94.411984862569" y2="393.00636203774775"/>
<line class="edge" x1="92.411984862569" y1="347.69513968771355" x2="163.37881838761757" y2="347.69513968771355"/>
<line class="edge" x1="92.411984862569" y1="343.69513968771355" x2="163.37881838761757" y2="343.69513968771355"/>
<line class="edge" x1="313.69674685026587" y1="377.7350122752677" x2="195.41869097518315" y2="496.01306815035116"/>
<line class="edge" x1="316.5251739750121" y1="380.5634394000139" x2="198.24711809992937" y2="498.8414952750974"/>
<line class="edge" x1="317.110960412639" y1="379.1492258376408" x2="317.110960412639" y2="164.56757273793474"/>
<line class="edge" x1="313.110960412639" y1="379.1492258376408" x2="313.110960412639" y2="164.56757273793474"/>
<line class="edge" x1="315.110960412639" y1="377.1492258376408" x2="196.83290453755626" y2="377.1492258376408"/>
<line class="edge" x1="315.110960412639" y1="381.1492258376408" x2="196.83290453755626" y2="381.1492258376408"/>
<line class="edge" x1="198.24711809992928" y1="496.0130681503511" x2="93.82619842494202" y2="391.5921484753746"/>
<line class="edge" x1="195.41869097518324" y1="498.84149527509743" x2="90.99777130019598" y2="394.4205756001209"/>
<line class="edge" x1="198.83290453755626" y1="497.42728171272427" x2="198.83290453755626" y2="379.1492258376408"/>
<line class="edge" x1="194.83290453755626" y1="497.42728171272427" x2="194.83290453755626" y2="379.1492258376408"/>
<line class="edge" x1="352.59437717516664" y1="251.07269498764524" x2="352.59437717516664" y2="50.0"/>
<line class="edge" x1="348.59437717516664" y1="251.07269498764524" x2="348.59437717516664" y2="50.0"/>
<line class="edge" x1="352.00859073753975" y1="249.65848142527213" x2="164.79303194999068" y2="62.442922637723065"/>
<line class="edge" x1="349.18016361279354" y1="252.48690855001834" x2="161.96460482524446" y2="65.27134976246926"/>
<line class="edge" x1="350.59437717516664" y1="249.07269498764524" x2="196.83290453755626" y2="249.07269498764524"/>
<line class="edge" x1="350.59437717516664" y1="253.07269498764524" x2="196.83290453755626" y2="253.07269498764524"/>
<line class="edge" x1="350.59437717516664" y1="253.07269498764524" x2="448.92730501235474" y2="253.07269498764524"/>
<line class="edge" x1="350.59437717516664" y1="249.07269498764524" x2="448.92730501235474" y2="249.07269498764524"/>
<line class="edge" x1="281.04175721248714" y1="498.8414952750953" x2="488.86893125616047" y2="291.0143212314214"/>
<line class="edge" x1="278.2133300877409" y1="496.0130681503491" x2="486.04050413141425" y2="288.18589410667516"/>
<line class="edge" x1="281.0417572124869" y1="496.0130681503489" x2="247.58767106255294" y2="462.55898200042566"/>
<line class="edge" x1="278.21333008774116" y1="498.84149527509555" x2="244.75924393780718" y2="465.3874091251723"/>
<line class="edge" x1="246.17345750017938" y1="300.3839173376794" x2="448.92730501235474" y2="300.3839173376794"/>
<line class="edge" x1="246.17345750017938" y1="296.3839173376794" x2="448.92730501235474" y2="296.3839173376794"/>
<line class="edge" x1="244.75924393780627" y1="299.7981309000525" x2="410.34852216292455" y2="465.3874091251721"/>
<line class="edge" x1="247.5876710625525" y1="296.9697037753063" x2="413.17694928767077" y2="462.5589820004259"/>
<line class="edge" x1="244.17345750017938" y1="298.3839173376794" x2="244.17345750018006" y2="463.973195562799"/>
<line class="edge" x1="248.17345750017938" y1="298.3839173376794" x2="248.17345750018006" y2="463.973195562799"/>
<line class="edge" x1="450.34151857472796" y1="296.96970377530647" x2="316.5251739750122" y2="163.1533591755618"/>
<line class="edge" x1="447.5130914499815" y1="299.79813090005234" x2="313.69674685026575" y2="165.98178630030768"/>
<line class="edge" x1="450.92730501235474" y1="298.3839173376794" x2="450.92730501235474" y2="251.07269498764524"/>
<line class="edge" x1="446.92730501235474" y1="298.3839173376794" x2="446.92730501235474" y2="251.07269498764524"/>
<line class="edge" x1="350.59437717516664" y1="52.0" x2="650.0" y2="52.0"/>
<line class="edge" x1="350.59437717516664" y1="48.0" x2="650.0" y2="48.0"/>
<line class="edge" x1="349.18016361279354" y1="48.58578643762691" x2="48.5857864376269" y2="349.1801636127942"/>
<line class="edge" x1="352.00859073753975" y1="51.41421356237309" x2="51.4142135623731" y2="352.00859073754043"/>
<line class="edge" x1="411.76273572529766" y1="461.973195562799" x2="246.17345750018006" y2="461.973195562799"/>
<line class="edge" x1="411.76273572529766" y1="465.973195562799" x2="246.17345750018006" y2="465.973195562799"/>
<line class="edge" x1="94.411984862569" y1="463.973195562799" x2="94.411984862569" y2="393.00636203774775"/>
<line class="edge" x1="90.411984862569" y1="463.973195562799" x2="90.411984862569" y2="393.00636203774775"/>
<line class="edge" x1="92.411984862569" y1="465.973195562799" x2="246.17345750018006" y2="465.973195562799"/>
<line class="edge" x1="92.411984862569" y1="461.973195562799" x2="246.17345750018006" y2="461.973195562799"/>
<line class="edge" x1="648.5857864376269" y1="48.58578643762691" x2="447.51309144998163" y2="249.65848142527213"/>
<line class="edge" x1="651.4142135623731" y1="51.41421356237309" x2="450.34151857472784" y2="252.48690855001834"/>
<line class="edge" x1="161.37881838761757" y1="63.85713620009616" x2="161.37881838761757" y2="345.69513968771355"/>
<line class="edge" x1="165.37881838761757" y1="63.85713620009616" x2="165.37881838761757" y2="345.69513968771355"/>
<line class="edge" x1="194.83290453755626" y1="251.07269498764524" x2="194.83290453755626" y2="379.1492258376408"/>
<line class="edge" x1="198.83290453755626" y1="251.07269498764524" x2="198.83290453755626" y2="379.1492258376408"/>
<line class="edge" x1="48.585786437626716" y1="352.0085907375402" x2="90.99777130019571" y2="394.4205756001206"/>
<line class="edge" x1="51.414213562373284" y1="349.18016361279444" x2="93.82619842494229" y2="391.59214847537487"/>
<line class="edge" x1="488.8689312561599" y1="288.18589410667465" x2="450.3415185747273" y2="249.6584814252716"/>
<line class="edge" x1="486.0405041314148" y1="291.0143212314219" x2="447.5130914499822" y2="252.48690855001888"/>
<line class="edge" x1="161.96460482524472" y1="347.1093532500869" x2="195.4186909751834" y2="380.56343940001415"/>
<line class="edge" x1="164.79303194999042" y1="344.2809261253402" x2="198.2471180999291" y2="377.7350122752675"/>
<!-- Node Halos -->
<circle class="background" cx="163.37881838761757" cy="416.66197321276485" r="12.0"/>
<circle class="background" cx="92.411984862569" cy="345.69513968771355" r="12.0"/>
<circle class="background" cx="315.110960412639" cy="379.1492258376408" r="12.0"/>
<circle class="background" cx="196.83290453755626" cy="497.42728171272427" r="12.0"/>
<circle class="background" cx="350.59437717516664" cy="251.07269498764524" r="12.0"/>
<circle class="background" cx="279.62754365011403" cy="497.4272817127222" r="12.0"/>
<circle class="background" cx="246.17345750017938" cy="298.3839173376794" r="12.0"/>
<circle class="background" cx="448.92730501235474" cy="298.3839173376794" r="12.0"/>
<circle class="background" cx="350.59437717516664" cy="50.0" r="12.0"/>
<circle class="background" cx="411.76273572529766" cy="463.973195562799" r="12.0"/>
<circle class="background" cx="92.411984862569" cy="463.973195562799" r="5.5"/>
<circle class="background" cx="650.0" cy="50.0" r="5.5"/>
<circle class="background" cx="163.37881838761757" cy="63.85713620009616" r="5.5"/>
<circle class="background" cx="196.83290453755626" cy="251.07269498764524" r="5.5"/>
<circle class="background" cx="315.110960412639" cy="164.56757273793474" r="5.5"/>
<circle class="background" cx="50.0" cy="350.5943771751673" r="5.5"/>
<circle class="background" cx="487.45471769378736" cy="289.60010766904827" r="5.5"/>
<circle class="background" cx="92.411984862569" cy="393.00636203774775" r="5.5"/>
<circle class="background" cx="163.37881838761757" cy="345.69513968771355" r="5.5"/>
<circle class="background" cx="196.83290453755626" cy="379.1492258376408" r="5.5"/>
<circle class="background" cx="246.17345750018006" cy="463.973195562799" r="5.5"/>
<circle class="background" cx="448.92730501235474" cy="251.07269498764524" r="5.5"/>
<!-- Stations -->
<circle class="station-220" cx="163.37881838761757" cy="416.66197321276485" r="10.0"/>
<circle class="station-220" cx="92.411984862569" cy="345.69513968771355" r="10.0"/>
<circle class="station-220" cx="315.110960412639" cy="379.1492258376408" r="10.0"/>
<circle class="station-220" cx="196.83290453755626" cy="497.42728171272427" r="10.0"/>
<circle class="station-220" cx="350.59437717516664" cy="251.07269498764524" r="10.0"/>
<circle class="station-220" cx="279.62754365011403" cy="497.4272817127222" r="10.0"/>
<circle class="station-220" cx="246.17345750017938" cy="298.3839173376794" r="10.0"/>
<circle class="station-220" cx="448.92730501235474" cy="298.3839173376794" r="10.0"/>
<circle class="station-220" cx="350.59437717516664" cy="50.0" r="10.0"/>
<circle class="station-220" cx="411.76273572529766" cy="463.973195562799" r="10.0"/>
<circle class="inter" cx="92.411984862569" cy="463.973195562799" r="5.0"/>
<text class="station-label" x="92.411984862569" y="463.973195562799">I0</text>
<circle class="inter" cx="650.0" cy="50.0" r="5.0"/>
<text class="station-label" x="650.0" y="50.0">I1</text>
<circle class="inter" cx="163.37881838761757" cy="63.85713620009616" r="5.0"/>
<text class="station-label" x="163.37881838761757" y="63.85713620009616">I2</text>
<circle class="inter" cx="196.83290453755626" cy="251.07269498764524" r="5.0"/>
<text class="station-label" x="196.83290453755626" y="251.07269498764524">I3</text>
<circle class="inter" cx="315.110960412639" cy="164.56757273793474" r="5.0"/>
<text class="station-label" x="315.110960412639" y="164.56757273793474">I4</text>
<circle class="inter" cx="50.0" cy="350.5943771751673" r="5.0"/>
<text class="station-label" x="50.0" y="350.5943771751673">I5</text>
<circle class="inter" cx="487.45471769378736" cy="289.60010766904827" r="5.0"/>
<text class="station-label" x="487.45471769378736" y="289.60010766904827">I6</text>
<circle class="dummy" cx="92.411984862569" cy="393.00636203774775" r="5.0"/>
<text class="station-label" x="92.411984862569" y="393.00636203774775">D0</text>
<circle class="dummy" cx="163.37881838761757" cy="345.69513968771355" r="5.0"/>
<text class="station-label" x="163.37881838761757" y="345.69513968771355">D1</text>
<circle class="dummy" cx="196.83290453755626" cy="379.1492258376408" r="5.0"/>
<text class="station-label" x="196.83290453755626" y="379.1492258376408">D2</text>
<circle class="dummy" cx="246.17345750018006" cy="463.973195562799" r="5.0"/>
<text class="station-label" x="246.17345750018006" y="463.973195562799">D3</text>
<circle class="dummy" cx="448.92730501235474" cy="251.07269498764524" r="5.0"/>
<text class="station-label" x="448.92730501235474" y="251.07269498764524">D4</text>
</svg>
