<?xml version="1.0" encoding="UTF-8"?>
<svg width="700.0" height="548.7950976772039" viewBox="0 0 700.0 548.7950976772039" xmlns="http://www.w3.org/2000/svg">
<defs>
  <style>
    .station-220 { fill: #2563eb; stroke: #1e40af; stroke-width: 2; }
    .station-500 { fill: #ef4444; stroke: #1e40af; stroke-width: 2; }
    .station-default { fill: #2563eb; stroke: #1e40af; stroke-width: 2; }
    .bend { fill: #111827; stroke: #111827; stroke-width: 1; }
    .dummy { fill: #8b4513; stroke: #8b4513; stroke-width: 1; }
    .inter { fill: #6b7280; stroke: #6b7280; stroke-width: 1; }
    .station-label { font-family: Arial, sans-serif; font-size: 8px; fill: white; text-anchor: middle; dominant-baseline: central; }
    .edge { stroke: #6b7280; stroke-width: 2; fill: none; }
    .background { fill: #f8fafc; }
  </style>
</defs>
<rect class="background" width="700.0" height="548.7950976772039"/>
<!-- Edges -->
<line class="edge" x1="383.9331618974544" y1="287.4507296117957" x2="526.0974826294549" y2="241.25874170439639"/>
<line class="edge" x1="382.69709391995457" y1="283.64650354661507" x2="524.8614146519552" y2="237.45451563921577"/>
<line class="edge" x1="383.3151279087045" y1="287.5486165792054" x2="532.7955407928957" y2="287.5486165792054"/>
<line class="edge" x1="383.3151279087045" y1="283.5486165792054" x2="532.7955407928957" y2="283.5486165792054"/>
<line class="edge" x1="384.49069841328946" y1="283.9305825904555" x2="324.0246012385426" y2="239.9993914904955"/>
<line class="edge" x1="382.1395574041195" y1="287.16665056795523" x2="321.6734602293726" y2="243.23545946799527"/>
<line class="edge" x1="383.9331618974544" y1="283.64650354661507" x2="217.27559794310324" y2="229.49617849165045"/>
<line class="edge" x1="382.69709391995457" y1="287.4507296117957" x2="216.0395299656034" y2="233.30040455683107"/>
<line class="edge" x1="383.3151279087045" y1="283.5486165792054" x2="50.0" y2="283.5486165792054"/>
<line class="edge" x1="383.3151279087045" y1="287.5486165792054" x2="50.0" y2="287.5486165792054"/>
<line class="edge" x1="381.4130148761142" y1="286.1666505679553" x2="427.6050027835146" y2="428.33097129995485"/>
<line class="edge" x1="385.2172409412948" y1="284.93058259045546" x2="431.4092288486952" y2="427.094903322455"/>
<line class="edge" x1="385.2172409412948" y1="284.93058259045546" x2="315.9292590801974" y2="71.68410149245543"/>
<line class="edge" x1="381.4130148761142" y1="286.1666505679553" x2="312.1250330150168" y2="72.9201694699552"/>
<line class="edge" x1="385.2172409412948" y1="286.16665056795523" x2="431.4092288486925" y2="144.0023298359563"/>
<line class="edge" x1="381.4130148761142" y1="284.9305825904555" x2="427.6050027835119" y2="142.76626185845652"/>
<line class="edge" x1="381.69709391995457" y1="286.7241870837903" x2="469.559476119872" y2="407.6563814332852"/>
<line class="edge" x1="384.9331618974544" y1="284.37304607462045" x2="472.7955440973718" y2="405.30524042411537"/>
<line class="edge" x1="527.3815616732954" y1="239.97466266055594" x2="564.039730832673" y2="127.15241893574596"/>
<line class="edge" x1="523.5773356081147" y1="238.73859468305622" x2="560.2355047674922" y2="125.91635095824624"/>
<line class="edge" x1="560.5195838113327" y1="127.70995545158104" x2="648.3819660112501" y2="248.64214980107596"/>
<line class="edge" x1="563.7556517888324" y1="125.35881444241116" x2="651.6180339887499" y2="246.29100879190605"/>
<line class="edge" x1="649.3819660112501" y1="245.5644662639007" x2="532.1775068041459" y2="283.64650354661507"/>
<line class="edge" x1="650.6180339887499" y1="249.3686923290813" x2="533.4135747816456" y2="287.4507296117957"/>
<line class="edge" x1="531.6199702883108" y1="287.1666505679553" x2="627.5923031129125" y2="356.8946318769135"/>
<line class="edge" x1="533.9711112974807" y1="283.93058259045546" x2="629.9434441220824" y2="353.65856389941365"/>
<line class="edge" x1="530.8934277603055" y1="284.9305825904554" x2="507.7974338066036" y2="356.01274295645493"/>
<line class="edge" x1="534.697653825486" y1="286.16665056795534" x2="511.6016598717842" y2="357.24881093395487"/>
<line class="edge" x1="628.1498396287476" y1="353.37448485557326" x2="470.559476119872" y2="404.57869789611"/>
<line class="edge" x1="629.3859076062473" y1="357.1787109207539" x2="471.7955440973718" y2="408.3829239612906"/>
<line class="edge" x1="324.7511437665479" y1="240.9993914904955" x2="262.4908680868994" y2="49.3819660112501"/>
<line class="edge" x1="320.9469177013673" y1="242.23545946799527" x2="258.6866420217188" y2="50.6180339887499"/>
<line class="edge" x1="258.9707210655592" y1="48.824429495415075" x2="171.10833886564444" y2="169.75662384490892"/>
<line class="edge" x1="262.206789043059" y1="51.175570504584925" x2="174.34440684314427" y2="172.10776485407877"/>
<line class="edge" x1="171.10833886564447" y1="172.1077648540788" x2="215.03952996560344" y2="232.57386202882572"/>
<line class="edge" x1="174.34440684314424" y1="169.7566238449089" x2="218.2755979431032" y2="230.2227210196558"/>
<line class="edge" x1="216.03952996560344" y1="229.49617849165045" x2="49.38196601125011" y2="283.64650354661507"/>
<line class="edge" x1="217.2755979431032" y1="233.30040455683107" x2="50.61803398874989" y2="287.4507296117957"/>
<line class="edge" x1="427.6050027835146" y1="428.33097129995485" x2="450.70099673721427" y2="499.4131316659538"/>
<line class="edge" x1="431.4092288486952" y1="427.094903322455" x2="454.5052228023949" y2="498.177063688454"/>
<!-- Node Halos -->
<circle class="background" cx="383.3151279087045" cy="285.5486165792054" r="12.0"/>
<circle class="background" cx="525.4794486407051" cy="239.35662867180608" r="12.0"/>
<circle class="background" cx="562.1376178000826" cy="126.5343849469961" r="12.0"/>
<circle class="background" cx="650.0" cy="247.466579296491" r="12.0"/>
<circle class="background" cx="532.7955407928957" cy="285.5486165792054" r="12.0"/>
<circle class="background" cx="628.7678736174975" cy="355.27659788816356" r="12.0"/>
<circle class="background" cx="322.8490307339576" cy="241.61742547924538" r="12.0"/>
<circle class="background" cx="260.5887550543091" cy="50.0" r="12.0"/>
<circle class="background" cx="172.72637285439436" cy="170.93219434949384" r="12.0"/>
<circle class="background" cx="216.65756395435332" cy="231.39829152424076" r="12.0"/>
<circle class="background" cx="50.0" cy="285.5486165792054" r="12.0"/>
<circle class="background" cx="429.5071158161049" cy="427.71293731120494" r="12.0"/>
<circle class="background" cx="452.6031097698046" cy="498.7950976772039" r="12.0"/>
<circle class="background" cx="314.0271460476071" cy="72.30213548120531" r="12.0"/>
<circle class="background" cx="429.5071158161022" cy="143.3842958472064" r="12.0"/>
<circle class="background" cx="509.6995468391939" cy="356.6307769452049" r="12.0"/>
<circle class="background" cx="471.1775101086219" cy="406.4808109287003" r="5.5"/>
<!-- Stations -->
<circle class="station-500" cx="383.3151279087045" cy="285.5486165792054" r="10.0"/>
<circle class="station-220" cx="525.4794486407051" cy="239.35662867180608" r="10.0"/>
<circle class="station-220" cx="562.1376178000826" cy="126.5343849469961" r="10.0"/>
<circle class="station-220" cx="650.0" cy="247.466579296491" r="10.0"/>
<circle class="station-220" cx="532.7955407928957" cy="285.5486165792054" r="10.0"/>
<circle class="station-220" cx="628.7678736174975" cy="355.27659788816356" r="10.0"/>
<circle class="station-220" cx="322.8490307339576" cy="241.61742547924538" r="10.0"/>
<circle class="station-220" cx="260.5887550543091" cy="50.0" r="10.0"/>
<circle class="station-220" cx="172.72637285439436" cy="170.93219434949384" r="10.0"/>
<circle class="station-220" cx="216.65756395435332" cy="231.39829152424076" r="10.0"/>
<circle class="station-220" cx="50.0" cy="285.5486165792054" r="10.0"/>
<circle class="station-220" cx="429.5071158161049" cy="427.71293731120494" r="10.0"/>
<circle class="station-220" cx="452.6031097698046" cy="498.7950976772039" r="10.0"/>
<circle class="station-220" cx="314.0271460476071" cy="72.30213548120531" r="10.0"/>
<circle class="station-220" cx="429.5071158161022" cy="143.3842958472064" r="10.0"/>
<circle class="station-220" cx="509.6995468391939" cy="356.6307769452049" r="10.0"/>
<circle class="inter" cx="471.1775101086219" cy="406.4808109287003" r="5.0"/>
<text class="station-label" x="471.1775101086219" y="406.4808109287003">I0</text>
</svg>
