<?xml version="1.0" encoding="UTF-8"?>
<svg width="700.0" height="660.0" viewBox="0 0 700.0 660.0" xmlns="http://www.w3.org/2000/svg">
<defs>
  <style>
    .station-220 { fill: #2563eb; stroke: #1e40af; stroke-width: 2; }
    .station-500 { fill: #ef4444; stroke: #1e40af; stroke-width: 2; }
    .station-default { fill: #2563eb; stroke: #1e40af; stroke-width: 2; }
    .bend { fill: #111827; stroke: #111827; stroke-width: 1; }
    .dummy { fill: #8b4513; stroke: #8b4513; stroke-width: 1; }
    .inter { fill: #6b7280; stroke: #6b7280; stroke-width: 1; }
    .station-label { font-family: Arial, sans-serif; font-size: 8px; fill: white; text-anchor: middle; dominant-baseline: central; }
    .edge { stroke: #6b7280; stroke-width: 2; fill: none; }
    .background { fill: #f8fafc; }
  </style>
</defs>
<rect class="background" width="700.0" height="660.0"/>
<!-- Edges -->
<line class="edge" x1="168.0" y1="50.0" x2="168.0" y2="170.0"/>
<line class="edge" x1="172.0" y1="50.0" x2="172.0" y2="170.0"/>
<line class="edge" x1="170.0" y1="612.0" x2="650.0" y2="612.0"/>
<line class="edge" x1="170.0" y1="608.0" x2="650.0" y2="608.0"/>
<line class="edge" x1="172.0" y1="610.0" x2="172.0" y2="170.0"/>
<line class="edge" x1="168.0" y1="610.0" x2="168.0" y2="170.0"/>
<line class="edge" x1="652.0" y1="610.0" x2="652.0" y2="170.0"/>
<line class="edge" x1="648.0" y1="610.0" x2="648.0" y2="170.0"/>
<line class="edge" x1="650.0" y1="168.0" x2="170.0" y2="168.0"/>
<line class="edge" x1="650.0" y1="172.0" x2="170.0" y2="172.0"/>
<line class="edge" x1="50.0" y1="172.0" x2="170.0" y2="172.0"/>
<line class="edge" x1="50.0" y1="168.0" x2="170.0" y2="168.0"/>
<!-- Node Halos -->
<circle class="background" cx="170.0" cy="50.0" r="12.0"/>
<circle class="background" cx="170.0" cy="610.0" r="12.0"/>
<circle class="background" cx="650.0" cy="610.0" r="12.0"/>
<circle class="background" cx="650.0" cy="170.0" r="12.0"/>
<circle class="background" cx="50.0" cy="170.0" r="12.0"/>
<circle class="background" cx="170.0" cy="170.0" r="5.5"/>
<!-- Stations -->
<circle class="station-220" cx="170.0" cy="50.0" r="10.0"/>
<circle class="station-220" cx="170.0" cy="610.0" r="10.0"/>
<circle class="station-220" cx="650.0" cy="610.0" r="10.0"/>
<circle class="station-220" cx="650.0" cy="170.0" r="10.0"/>
<circle class="station-220" cx="50.0" cy="170.0" r="10.0"/>
<circle class="dummy" cx="170.0" cy="170.0" r="5.0"/>
<text class="station-label" x="170.0" y="170.0">D0</text>
</svg>
