<?xml version="1.0" encoding="UTF-8"?>
<svg width="720.0" height="451.0" viewBox="0 0 720.0 451.0" xmlns="http://www.w3.org/2000/svg">
<defs>
  <style>
    .station-220 { fill: #2563eb; stroke: #1e40af; stroke-width: 2; }
    .station-500 { fill: #ef4444; stroke: #1e40af; stroke-width: 2; }
    .station-default { fill: #2563eb; stroke: #1e40af; stroke-width: 2; }
    .bend { fill: #111827; stroke: #111827; stroke-width: 1; }
    .dummy { fill: #8b4513; stroke: #8b4513; stroke-width: 1; }
    .inter { fill: #6b7280; stroke: #6b7280; stroke-width: 1; }
    .station-label { font-family: Arial, sans-serif; font-size: 8px; fill: white; text-anchor: middle; dominant-baseline: central; }
    .edge { stroke: #6b7280; stroke-width: 2; fill: none; }
    .background { fill: #f8fafc; }
  </style>
</defs>
<rect class="background" width="720.0" height="451.0"/>
<!-- Edges -->
<line class="edge" x1="376.32240196932406" y1="255.50041761904075" x2="494.32240196932406" y2="151.50041761904075"/>
<line class="edge" x1="373.67759803067594" y1="252.49958238095925" x2="491.67759803067594" y2="148.49958238095925"/>
<line class="edge" x1="376.8338378584408" y1="254.79814704719703" x2="460.8338378584408" y2="61.79814704719703"/>
<line class="edge" x1="373.1661621415592" y1="253.20185295280297" x2="457.1661621415592" y2="60.20185295280297"/>
<line class="edge" x1="375.5178830547506" y1="255.93178599787922" x2="610.5178830547505" y2="192.93178599787922"/>
<line class="edge" x1="374.4821169452494" y1="252.06821400212078" x2="609.4821169452495" y2="189.06821400212078"/>
<line class="edge" x1="376.56809164892354" y1="252.75859411126888" x2="281.56809164892354" y2="132.75859411126888"/>
<line class="edge" x1="373.43190835107646" y1="255.24140588873112" x2="278.43190835107646" y2="135.24140588873112"/>
<line class="edge" x1="376.4777995585873" y1="252.65236931444886" x2="200.47779955858735" y2="59.65236931444885"/>
<line class="edge" x1="373.5222004414127" y1="255.34763068555114" x2="197.52220044141265" y2="62.34763068555115"/>
<line class="edge" x1="375.20338458429035" y1="252.01036819715983" x2="150.20338458429032" y2="229.01036819715983"/>
<line class="edge" x1="374.79661541570965" y1="255.98963180284017" x2="149.79661541570968" y2="232.98963180284017"/>
<line class="edge" x1="373.3934666087581" y1="255.1912390452066" x2="482.3934666087581" y2="402.1912390452066"/>
<line class="edge" x1="376.6065333912419" y1="252.8087609547934" x2="485.6065333912419" y2="399.8087609547934"/>
<line class="edge" x1="373.8905996075495" y1="255.6641005886757" x2="568.8905996075496" y2="385.6641005886757"/>
<line class="edge" x1="376.1094003924505" y1="252.3358994113243" x2="571.1094003924504" y2="382.3358994113243"/>
<line class="edge" x1="494.86830955366077" y1="149.28626376601724" x2="460.86830955366077" y2="60.286263766017235"/>
<line class="edge" x1="491.13169044633923" y1="150.71373623398276" x2="457.13169044633923" y2="61.713736233982765"/>
<line class="edge" x1="458.6380756589092" y1="62.96698011462394" x2="583.6380756589092" y2="85.96698011462394"/>
<line class="edge" x1="459.3619243410908" y1="59.03301988537606" x2="584.3619243410908" y2="82.03301988537606"/>
<line class="edge" x1="582.0565521126817" y1="84.47223967355396" x2="608.0565521126817" y2="191.47223967355396"/>
<line class="edge" x1="585.9434478873183" y1="83.52776032644604" x2="611.9434478873183" y2="190.52776032644604"/>
<line class="edge" x1="584.7353177787422" y1="85.85992144034786" x2="670.7353177787422" y2="51.85992144034786"/>
<line class="edge" x1="583.2646822212578" y1="82.14007855965214" x2="669.2646822212578" y2="48.14007855965214"/>
<line class="edge" x1="281.3389425047845" y1="132.51432407003364" x2="200.3389425047845" y2="59.51432407003364"/>
<line class="edge" x1="278.6610574952155" y1="135.48567592996636" x2="197.6610574952155" y2="62.48567592996636"/>
<line class="edge" x1="197.684341226748" y1="59.49366604221872" x2="118.68434122674799" y2="128.4936660422187"/>
<line class="edge" x1="200.315658773252" y1="62.50633395778128" x2="121.31565877325201" y2="131.5063339577813"/>
<line class="edge" x1="118.08278720757157" y1="130.56946914626587" x2="148.08278720757156" y2="231.56946914626587"/>
<line class="edge" x1="121.91721279242843" y1="129.43053085373413" x2="151.91721279242844" y2="230.43053085373413"/>
<line class="edge" x1="119.1901476834559" y1="128.17130122070688" x2="49.190147683455905" y2="159.17130122070688"/>
<line class="edge" x1="120.8098523165441" y1="131.82869877929312" x2="50.809852316544095" y2="162.82869877929312"/>
<line class="edge" x1="484.3878439141674" y1="402.96203391872905" x2="570.3878439141673" y2="385.96203391872905"/>
<line class="edge" x1="483.6121560858326" y1="399.03796608127095" x2="569.6121560858327" y2="382.03796608127095"/>
<!-- Node Halos -->
<circle class="background" cx="375.0" cy="254.0" r="12.0"/>
<circle class="background" cx="493.0" cy="150.0" r="12.0"/>
<circle class="background" cx="459.0" cy="61.0" r="12.0"/>
<circle class="background" cx="584.0" cy="84.0" r="12.0"/>
<circle class="background" cx="610.0" cy="191.0" r="12.0"/>
<circle class="background" cx="280.0" cy="134.0" r="12.0"/>
<circle class="background" cx="199.0" cy="61.0" r="12.0"/>
<circle class="background" cx="120.0" cy="130.0" r="12.0"/>
<circle class="background" cx="150.0" cy="231.0" r="12.0"/>
<circle class="background" cx="484.0" cy="401.0" r="12.0"/>
<circle class="background" cx="570.0" cy="384.0" r="12.0"/>
<circle class="background" cx="670.0" cy="50.0" r="12.0"/>
<circle class="background" cx="50.0" cy="161.0" r="12.0"/>
<!-- Stations -->
<circle class="station-500" cx="375.0" cy="254.0" r="10.0"/>
<circle class="station-220" cx="493.0" cy="150.0" r="10.0"/>
<circle class="station-220" cx="459.0" cy="61.0" r="10.0"/>
<circle class="station-220" cx="584.0" cy="84.0" r="10.0"/>
<circle class="station-220" cx="610.0" cy="191.0" r="10.0"/>
<circle class="station-220" cx="280.0" cy="134.0" r="10.0"/>
<circle class="station-220" cx="199.0" cy="61.0" r="10.0"/>
<circle class="station-220" cx="120.0" cy="130.0" r="10.0"/>
<circle class="station-220" cx="150.0" cy="231.0" r="10.0"/>
<circle class="station-220" cx="484.0" cy="401.0" r="10.0"/>
<circle class="station-220" cx="570.0" cy="384.0" r="10.0"/>
<circle class="station-220" cx="670.0" cy="50.0" r="10.0"/>
<circle class="station-220" cx="50.0" cy="161.0" r="10.0"/>
</svg>
