<?xml version="1.0" encoding="UTF-8"?>
<svg width="700.0" height="486.5270209382675" viewBox="0 0 700.0 486.5270209382675" xmlns="http://www.w3.org/2000/svg">
<defs>
  <style>
    .station-220 { fill: #2563eb; stroke: #1e40af; stroke-width: 2; }
    .station-500 { fill: #ef4444; stroke: #1e40af; stroke-width: 2; }
    .station-default { fill: #2563eb; stroke: #1e40af; stroke-width: 2; }
    .bend { fill: #111827; stroke: #111827; stroke-width: 1; }
    .dummy { fill: #8b4513; stroke: #8b4513; stroke-width: 1; }
    .inter { fill: #6b7280; stroke: #6b7280; stroke-width: 1; }
    .station-label { font-family: Arial, sans-serif; font-size: 8px; fill: white; text-anchor: middle; dominant-baseline: central; }
    .edge { stroke: #6b7280; stroke-width: 2; fill: none; }
    .background { fill: #f8fafc; }
  </style>
</defs>
<rect class="background" width="700.0" height="486.5270209382675"/>
<!-- Edges -->
<line class="edge" x1="348.10361781070924" y1="212.1047342962995" x2="499.0518089053546" y2="212.1047342962995"/>
<line class="edge" x1="348.10361781070924" y1="208.1047342962995" x2="499.0518089053546" y2="208.1047342962995"/>
<line class="edge" x1="349.51783137308234" y1="211.5189478586726" x2="500.4660224677277" y2="60.57075676402187"/>
<line class="edge" x1="346.68940424833613" y1="208.69052073392643" x2="497.6375953429815" y2="57.74232963927573"/>
<line class="edge" x1="346.68940424833625" y1="211.5189478586727" x2="573.1116908903043" y2="437.94123450061335"/>
<line class="edge" x1="349.51783137308223" y1="208.69052073392632" x2="575.9401180150503" y2="435.112807375867"/>
<line class="edge" x1="350.10361781070924" y1="210.1047342962995" x2="350.10361781070924" y2="50.0"/>
<line class="edge" x1="346.10361781070924" y1="210.1047342962995" x2="346.10361781070924" y2="50.0"/>
<line class="edge" x1="349.51783137308234" y1="208.6905207339264" x2="189.41309707678337" y2="48.58578643762691"/>
<line class="edge" x1="346.68940424833613" y1="211.51894785867262" x2="186.58466995203716" y2="51.41421356237309"/>
<line class="edge" x1="348.10361781070924" y1="208.1047342962995" x2="103.36824476543316" y2="208.1047342962995"/>
<line class="edge" x1="348.10361781070924" y1="212.1047342962995" x2="103.36824476543316" y2="212.1047342962995"/>
<line class="edge" x1="346.68940424833613" y1="208.6905207339264" x2="120.26711760636813" y2="435.1128073758944"/>
<line class="edge" x1="349.51783137308234" y1="211.51894785867262" x2="123.09554473111432" y2="437.94123450064063"/>
<line class="edge" x1="346.10361781070924" y1="210.1047342962995" x2="346.10361781070924" y2="436.5270209382675"/>
<line class="edge" x1="350.10361781070924" y1="210.1047342962995" x2="350.10361781070924" y2="436.5270209382675"/>
<line class="edge" x1="501.0518089053546" y1="210.1047342962995" x2="501.0518089053546" y2="59.1565432016488"/>
<line class="edge" x1="497.0518089053546" y1="210.1047342962995" x2="497.0518089053546" y2="59.1565432016488"/>
<line class="edge" x1="499.0518089053546" y1="61.1565432016488" x2="574.5259044526773" y2="61.1565432016488"/>
<line class="edge" x1="499.0518089053546" y1="57.1565432016488" x2="574.5259044526773" y2="57.1565432016488"/>
<line class="edge" x1="572.5259044526773" y1="59.1565432016488" x2="572.5259044526773" y2="436.5270209382402"/>
<line class="edge" x1="576.5259044526773" y1="59.1565432016488" x2="576.5259044526773" y2="436.5270209382402"/>
<line class="edge" x1="574.5259044526773" y1="61.1565432016488" x2="650.0" y2="61.1565432016488"/>
<line class="edge" x1="574.5259044526773" y1="57.1565432016488" x2="650.0" y2="57.1565432016488"/>
<line class="edge" x1="348.10361781070924" y1="48.0" x2="187.99888351441027" y2="48.0"/>
<line class="edge" x1="348.10361781070924" y1="52.0" x2="187.99888351441027" y2="52.0"/>
<line class="edge" x1="186.58466995203716" y1="48.5857864376269" x2="101.95403120306007" y2="133.21642518660371"/>
<line class="edge" x1="189.41309707678337" y1="51.4142135623731" x2="104.78245832780625" y2="136.04485231134993"/>
<line class="edge" x1="101.36824476543316" y1="134.63063874897682" x2="101.36824476543316" y2="210.1047342962995"/>
<line class="edge" x1="105.36824476543316" y1="134.63063874897682" x2="105.36824476543316" y2="210.1047342962995"/>
<line class="edge" x1="101.95403120306005" y1="133.21642518660374" x2="48.5857864376269" y2="186.58466995203747"/>
<line class="edge" x1="104.78245832780627" y1="136.0448523113499" x2="51.4142135623731" y2="189.41309707678363"/>
<line class="edge" x1="121.68133116874122" y1="438.5270209382675" x2="348.10361781070924" y2="438.5270209382675"/>
<line class="edge" x1="121.68133116874122" y1="434.5270209382675" x2="348.10361781070924" y2="434.5270209382675"/>
<!-- Node Halos -->
<circle class="background" cx="348.10361781070924" cy="210.1047342962995" r="12.0"/>
<circle class="background" cx="499.0518089053546" cy="210.1047342962995" r="12.0"/>
<circle class="background" cx="499.0518089053546" cy="59.1565432016488" r="12.0"/>
<circle class="background" cx="574.5259044526773" cy="59.1565432016488" r="12.0"/>
<circle class="background" cx="574.5259044526773" cy="436.5270209382402" r="12.0"/>
<circle class="background" cx="348.10361781070924" cy="50.0" r="12.0"/>
<circle class="background" cx="187.99888351441027" cy="50.0" r="12.0"/>
<circle class="background" cx="103.36824476543316" cy="134.63063874897682" r="12.0"/>
<circle class="background" cx="103.36824476543316" cy="210.1047342962995" r="12.0"/>
<circle class="background" cx="121.68133116874122" cy="436.5270209382675" r="12.0"/>
<circle class="background" cx="348.10361781070924" cy="436.5270209382675" r="12.0"/>
<circle class="background" cx="650.0" cy="59.1565432016488" r="12.0"/>
<circle class="background" cx="50.0" cy="187.99888351441055" r="12.0"/>
<!-- Stations -->
<circle class="station-500" cx="348.10361781070924" cy="210.1047342962995" r="10.0"/>
<circle class="station-220" cx="499.0518089053546" cy="210.1047342962995" r="10.0"/>
<circle class="station-220" cx="499.0518089053546" cy="59.1565432016488" r="10.0"/>
<circle class="station-220" cx="574.5259044526773" cy="59.1565432016488" r="10.0"/>
<circle class="station-220" cx="574.5259044526773" cy="436.5270209382402" r="10.0"/>
<circle class="station-220" cx="348.10361781070924" cy="50.0" r="10.0"/>
<circle class="station-220" cx="187.99888351441027" cy="50.0" r="10.0"/>
<circle class="station-220" cx="103.36824476543316" cy="134.63063874897682" r="10.0"/>
<circle class="station-220" cx="103.36824476543316" cy="210.1047342962995" r="10.0"/>
<circle class="station-220" cx="121.68133116874122" cy="436.5270209382675" r="10.0"/>
<circle class="station-220" cx="348.10361781070924" cy="436.5270209382675" r="10.0"/>
<circle class="station-220" cx="650.0" cy="59.1565432016488" r="10.0"/>
<circle class="station-220" cx="50.0" cy="187.99888351441055" r="10.0"/>
</svg>
