<?xml version="1.0" encoding="UTF-8"?>
<svg width="651.0" height="807.0" viewBox="0 0 651.0 807.0" xmlns="http://www.w3.org/2000/svg">
<defs>
  <style>
    .station-220 { fill: #2563eb; stroke: #1e40af; stroke-width: 2; }
    .station-500 { fill: #ef4444; stroke: #1e40af; stroke-width: 2; }
    .station-default { fill: #2563eb; stroke: #1e40af; stroke-width: 2; }
    .bend { fill: #111827; stroke: #111827; stroke-width: 1; }
    .dummy { fill: #8b4513; stroke: #8b4513; stroke-width: 1; }
    .inter { fill: #6b7280; stroke: #6b7280; stroke-width: 1; }
    .station-label { font-family: Arial, sans-serif; font-size: 8px; fill: white; text-anchor: middle; dominant-baseline: central; }
    .edge { stroke: #6b7280; stroke-width: 2; fill: none; }
    .background { fill: #f8fafc; }
  </style>
</defs>
<rect class="background" width="651.0" height="807.0"/>
<!-- Edges -->
<line class="edge" x1="309.29746835202775" y1="383.5220301821864" x2="431.29746835202775" y2="279.5220301821864"/>
<line class="edge" x1="306.70253164797225" y1="380.4779698178136" x2="428.70253164797225" y2="276.4779698178136"/>
<line class="edge" x1="306.59585163443035" y1="383.42420762793495" x2="377.59585163443035" y2="453.42420762793495"/>
<line class="edge" x1="309.40414836556965" y1="380.57579237206505" x2="380.40414836556965" y2="450.57579237206505"/>
<line class="edge" x1="308.77815989387074" y1="380.1575920159826" x2="147.7781598938707" y2="312.1575920159826"/>
<line class="edge" x1="307.22184010612926" y1="383.8424079840174" x2="146.2218401061293" y2="315.8424079840174"/>
<line class="edge" x1="307.0652595998344" y1="380.2318765924579" x2="150.06525959983443" y2="463.2318765924579"/>
<line class="edge" x1="308.9347404001656" y1="383.7681234075421" x2="151.93474040016557" y2="466.7681234075421"/>
<line class="edge" x1="309.9776289271067" y1="382.2983015700105" x2="336.9776289271067" y2="203.29830157001052"/>
<line class="edge" x1="306.0223710728933" y1="381.7016984299895" x2="333.0223710728933" y2="202.70169842998948"/>
<line class="edge" x1="309.93588350928746" y1="381.49765048176715" x2="268.93588350928746" y2="223.49765048176718"/>
<line class="edge" x1="306.06411649071254" y1="382.50234951823285" x2="265.06411649071254" y2="224.50234951823282"/>
<line class="edge" x1="306.05212094239175" y1="382.4536156709499" x2="340.05212094239175" y2="528.4536156709498"/>
<line class="edge" x1="309.94787905760825" y1="381.5463843290501" x2="343.94787905760825" y2="527.5463843290502"/>
<line class="edge" x1="428.84593663827" y1="279.6334435273717" x2="520.84593663827" y2="344.6334435273717"/>
<line class="edge" x1="431.15406336173" y1="276.3665564726283" x2="523.15406336173" y2="341.3665564726283"/>
<line class="edge" x1="520.1211555662791" y1="342.3144756795883" x2="466.12115556627907" y2="490.3144756795883"/>
<line class="edge" x1="523.8788444337209" y1="343.6855243204117" x2="469.87884443372093" y2="491.6855243204117"/>
<line class="edge" x1="523.0385208006976" y1="344.7092321511481" x2="602.0385208006976" y2="296.7092321511481"/>
<line class="edge" x1="520.9614791993024" y1="341.2907678488519" x2="599.9614791993024" y2="293.2907678488519"/>
<line class="edge" x1="468.8027172662475" y1="489.1681580334352" x2="379.8027172662475" y2="450.1681580334352"/>
<line class="edge" x1="467.1972827337525" y1="492.8318419665648" x2="378.1972827337525" y2="453.8318419665648"/>
<line class="edge" x1="148.4142135623731" y1="312.5857864376269" x2="94.41421356237309" y2="258.5857864376269"/>
<line class="edge" x1="145.5857864376269" y1="315.4142135623731" x2="91.58578643762691" y2="261.4142135623731"/>
<line class="edge" x1="91.00204227047787" y1="259.90964010268493" x2="82.00204227047787" y2="458.90964010268493"/>
<line class="edge" x1="94.99795772952213" y1="260.09035989731507" x2="85.99795772952213" y2="459.09035989731507"/>
<line class="edge" x1="92.22772382374774" y1="258.1551180233974" x2="49.22772382374774" y2="276.1551180233974"/>
<line class="edge" x1="93.77227617625226" y1="261.8448819766026" x2="50.77227617625226" y2="279.8448819766026"/>
<line class="edge" x1="83.82160940490068" y1="460.9920283119424" x2="150.82160940490067" y2="466.9920283119424"/>
<line class="edge" x1="84.17839059509932" y1="457.0079716880576" x2="151.17839059509933" y2="463.0079716880576"/>
<line class="edge" x1="336.98529175510106" y1="202.75789124937793" x2="331.98529175510106" y2="161.75789124937793"/>
<line class="edge" x1="333.01470824489894" y1="203.24210875062207" x2="328.01470824489894" y2="162.24210875062207"/>
<line class="edge" x1="330.731304744846" y1="163.86150298688068" x2="414.731304744846" y2="130.86150298688068"/>
<line class="edge" x1="329.268695255154" y1="160.13849701311932" x2="413.268695255154" y2="127.1384970131193"/>
<line class="edge" x1="268.6034917275611" y1="222.8046698030908" x2="186.60349172756113" y2="112.80466980309079"/>
<line class="edge" x1="265.3965082724389" y1="225.1953301969092" x2="183.39650827243887" y2="115.19533019690921"/>
<line class="edge" x1="186.6" y1="112.8" x2="138.6" y2="48.8"/>
<line class="edge" x1="183.4" y1="115.2" x2="135.4" y2="51.2"/>
<line class="edge" x1="340.00379953988806" y1="528.1232222506242" x2="350.00379953988806" y2="690.1232222506242"/>
<line class="edge" x1="343.99620046011194" y1="527.8767777493758" x2="353.99620046011194" y2="689.8767777493758"/>
<line class="edge" x1="350.4428076305014" y1="691.2550505664616" x2="404.4428076305014" y2="758.2550505664616"/>
<line class="edge" x1="353.5571923694986" y1="688.7449494335384" x2="407.5571923694986" y2="755.7449494335384"/>
<!-- Node Halos -->
<circle class="background" cx="308.0" cy="382.0" r="12.0"/>
<circle class="background" cx="430.0" cy="278.0" r="12.0"/>
<circle class="background" cx="522.0" cy="343.0" r="12.0"/>
<circle class="background" cx="468.0" cy="491.0" r="12.0"/>
<circle class="background" cx="379.0" cy="452.0" r="12.0"/>
<circle class="background" cx="147.0" cy="314.0" r="12.0"/>
<circle class="background" cx="93.0" cy="260.0" r="12.0"/>
<circle class="background" cx="84.0" cy="459.0" r="12.0"/>
<circle class="background" cx="151.0" cy="465.0" r="12.0"/>
<circle class="background" cx="335.0" cy="203.0" r="12.0"/>
<circle class="background" cx="330.0" cy="162.0" r="12.0"/>
<circle class="background" cx="414.0" cy="129.0" r="12.0"/>
<circle class="background" cx="267.0" cy="224.0" r="12.0"/>
<circle class="background" cx="185.0" cy="114.0" r="12.0"/>
<circle class="background" cx="137.0" cy="50.0" r="12.0"/>
<circle class="background" cx="342.0" cy="528.0" r="12.0"/>
<circle class="background" cx="352.0" cy="690.0" r="12.0"/>
<circle class="background" cx="406.0" cy="757.0" r="12.0"/>
<circle class="background" cx="601.0" cy="295.0" r="12.0"/>
<circle class="background" cx="50.0" cy="278.0" r="12.0"/>
<!-- Stations -->
<circle class="station-500" cx="308.0" cy="382.0" r="10.0"/>
<circle class="station-220" cx="430.0" cy="278.0" r="10.0"/>
<circle class="station-220" cx="522.0" cy="343.0" r="10.0"/>
<circle class="station-220" cx="468.0" cy="491.0" r="10.0"/>
<circle class="station-220" cx="379.0" cy="452.0" r="10.0"/>
<circle class="station-220" cx="147.0" cy="314.0" r="10.0"/>
<circle class="station-220" cx="93.0" cy="260.0" r="10.0"/>
<circle class="station-220" cx="84.0" cy="459.0" r="10.0"/>
<circle class="station-220" cx="151.0" cy="465.0" r="10.0"/>
<circle class="station-220" cx="335.0" cy="203.0" r="10.0"/>
<circle class="station-220" cx="330.0" cy="162.0" r="10.0"/>
<circle class="station-220" cx="414.0" cy="129.0" r="10.0"/>
<circle class="station-220" cx="267.0" cy="224.0" r="10.0"/>
<circle class="station-220" cx="185.0" cy="114.0" r="10.0"/>
<circle class="station-220" cx="137.0" cy="50.0" r="10.0"/>
<circle class="station-220" cx="342.0" cy="528.0" r="10.0"/>
<circle class="station-220" cx="352.0" cy="690.0" r="10.0"/>
<circle class="station-220" cx="406.0" cy="757.0" r="10.0"/>
<circle class="station-220" cx="601.0" cy="295.0" r="10.0"/>
<circle class="station-220" cx="50.0" cy="278.0" r="10.0"/>
</svg>
