<?xml version="1.0" encoding="UTF-8"?>
<svg width="700.0" height="472.5806451612903" viewBox="0 0 700.0 472.5806451612903" xmlns="http://www.w3.org/2000/svg">
<defs>
  <style>
    .station-220 { fill: #2563eb; stroke: #1e40af; stroke-width: 2; }
    .station-500 { fill: #ef4444; stroke: #1e40af; stroke-width: 2; }
    .station-default { fill: #2563eb; stroke: #1e40af; stroke-width: 2; }
    .bend { fill: #111827; stroke: #111827; stroke-width: 1; }
    .dummy { fill: #8b4513; stroke: #8b4513; stroke-width: 1; }
    .inter { fill: #6b7280; stroke: #6b7280; stroke-width: 1; }
    .station-label { font-family: Arial, sans-serif; font-size: 8px; fill: white; text-anchor: middle; dominant-baseline: central; }
    .edge { stroke: #6b7280; stroke-width: 2; fill: none; }
    .background { fill: #f8fafc; }
  </style>
</defs>
<rect class="background" width="700.0" height="472.5806451612903"/>
<!-- Edges -->
<line class="edge" x1="229.02607885799264" y1="312.8876929358577" x2="317.33253047089585" y2="246.35543487134154"/>
<line class="edge" x1="226.61908243232998" y1="309.6929522254327" x2="314.9255340452332" y2="243.1606941609165"/>
<line class="edge" x1="228.88381710004901" y1="309.5951007111492" x2="80.09349451940383" y2="216.44993942082664"/>
<line class="edge" x1="226.7613441902736" y1="312.98554445014116" x2="77.97102160962842" y2="219.84038315981854"/>
<line class="edge" x1="229.71427621734597" y1="311.939543546247" x2="299.8755665399266" y2="107.50405967527925"/>
<line class="edge" x1="225.93088507297665" y1="310.64110161504334" x2="296.0921753955573" y2="106.2056177440756"/>
<line class="edge" x1="229.08047445358463" y1="312.8452190938351" x2="444.40305509874594" y2="138.65167070673834"/>
<line class="edge" x1="226.564686836738" y1="309.73542606745525" x2="441.8872674818993" y2="135.54187768035843"/>
<line class="edge" x1="227.94332772428706" y1="313.28667428885757" x2="527.943327724287" y2="295.14151299853495"/>
<line class="edge" x1="227.70183356603556" y1="309.2939708724328" x2="527.7018335660355" y2="291.1488095821102"/>
<line class="edge" x1="228.3204542420941" y1="313.22736204371176" x2="529.5301316614489" y2="235.80800720500207"/>
<line class="edge" x1="227.32470704822853" y1="309.3532831175786" x2="528.5343844675833" y2="231.9339282788689"/>
<line class="edge" x1="226.08958261323602" y1="312.2886801425152" x2="290.2024858390424" y2="423.57900272316033"/>
<line class="edge" x1="229.5555786770866" y1="310.29196501877516" x2="293.66848190289306" y2="421.5822875994203"/>
<line class="edge" x1="228.6755056256347" y1="309.48131208380323" x2="70.59601914392108" y2="234.94888501605672"/>
<line class="edge" x1="226.9696556646879" y1="313.09933307748713" x2="68.89016918297428" y2="238.56690600974068"/>
<line class="edge" x1="50.86658886973576" y1="125.59282742969555" x2="113.76981467618737" y2="95.35089194582457"/>
<line class="edge" x1="49.13341113026424" y1="121.98781773159479" x2="112.03663693671587" y2="91.74588224772381"/>
<line class="edge" x1="48.029861437905424" y1="124.13463936232728" x2="67.7729556013531" y2="237.1022122945808"/>
<line class="edge" x1="51.970138562094576" y1="123.44600579896306" x2="71.71323272554226" y2="236.4135787312166"/>
<line class="edge" x1="110.97326641221366" y1="93.02373794105903" x2="77.10229867027817" y2="217.62051213460742"/>
<line class="edge" x1="114.83318520068957" y1="94.07303625248936" x2="80.96221745875408" y2="218.66981044603776"/>
<line class="edge" x1="79.68567761861807" y1="220.0354107146889" x2="177.66954858635998" y2="186.16444297275342"/>
<line class="edge" x1="78.37883851041418" y1="216.25491186595627" x2="176.36270947815612" y2="182.3839441240208"/>
<line class="edge" x1="176.21867680942916" y1="186.10833366089358" x2="315.3315800352356" y2="246.5922046286355"/>
<line class="edge" x1="177.81358125508694" y1="182.44005343588063" x2="316.9264844808934" y2="242.92392440362255"/>
<line class="edge" x1="299.23002498079694" y1="108.41915970478901" x2="370.6009927227324" y2="51.56432099511159"/>
<line class="edge" x1="296.73771695468696" y1="105.29051771456584" x2="368.10868469662245" y2="48.43567900488841"/>
<line class="edge" x1="367.35509061471026" y1="50.031742033253444" x2="368.5647680340651" y2="126.2414194526083"/>
<line class="edge" x1="371.3545868046446" y1="49.968257966746556" x2="372.56426422399943" y2="126.1779353861014"/>
<line class="edge" x1="370.26783522317174" y1="128.18755012509143" x2="442.8484803844621" y2="139.07464689928497"/>
<line class="edge" x1="370.86119703489277" y1="124.23180471361825" x2="443.44184219618313" y2="135.1189014878118"/>
<line class="edge" x1="526.5712297855507" y1="294.7053282769468" x2="570.7709090568195" y2="330.1562172681871"/>
<line class="edge" x1="529.0739315047717" y1="291.58499430369835" x2="573.2736107760405" y2="327.0358832949387"/>
<line class="edge" x1="648.3977927722425" y1="193.96423894552046" x2="569.768760514178" y2="299.2061744293914"/>
<line class="edge" x1="651.6022072277575" y1="196.35834169964082" x2="572.973174969693" y2="301.60027718351176"/>
<line class="edge" x1="648.2732357432528" y1="194.15218913755493" x2="570.2954956596828" y2="327.5869490965372"/>
<line class="edge" x1="651.7267642567472" y1="196.17039150760635" x2="573.7490241731772" y2="329.6051514665886"/>
<line class="edge" x1="573.0582907173997" y1="299.32947482206527" x2="530.7195810399803" y2="232.79721675754917"/>
<line class="edge" x1="569.6836447664713" y1="301.4769767908379" x2="527.3449350890519" y2="234.9447187263218"/>
<line class="edge" x1="530.8118929901416" y1="232.95833444674295" x2="506.6183446030449" y2="185.78091509190423"/>
<line class="edge" x1="527.2526231388906" y1="234.78360103712802" x2="503.0590747517939" y2="187.6061816822893"/>
<!-- Node Halos -->
<circle class="background" cx="227.8225806451613" cy="311.2903225806452" r="12.0"/>
<circle class="background" cx="50.0" cy="123.79032258064517" r="12.0"/>
<circle class="background" cx="112.90322580645162" cy="93.54838709677419" r="12.0"/>
<circle class="background" cx="79.03225806451613" cy="218.1451612903226" r="12.0"/>
<circle class="background" cx="177.01612903225805" cy="184.2741935483871" r="12.0"/>
<circle class="background" cx="316.1290322580645" cy="244.75806451612902" r="12.0"/>
<circle class="background" cx="297.98387096774195" cy="106.85483870967742" r="12.0"/>
<circle class="background" cx="369.35483870967744" cy="50.0" r="12.0"/>
<circle class="background" cx="370.56451612903226" cy="126.20967741935485" r="12.0"/>
<circle class="background" cx="443.1451612903226" cy="137.09677419354838" r="12.0"/>
<circle class="background" cx="527.8225806451612" cy="293.14516129032256" r="12.0"/>
<circle class="background" cx="650.0" cy="195.16129032258064" r="12.0"/>
<circle class="background" cx="571.3709677419355" cy="300.4032258064516" r="12.0"/>
<circle class="background" cx="529.0322580645161" cy="233.8709677419355" r="12.0"/>
<circle class="background" cx="504.8387096774194" cy="186.69354838709677" r="12.0"/>
<circle class="background" cx="291.93548387096774" cy="422.5806451612903" r="12.0"/>
<circle class="background" cx="69.74309416344768" cy="236.7578955128987" r="5.5"/>
<circle class="background" cx="572.02225991643" cy="328.5960502815629" r="5.5"/>
<!-- Stations -->
<circle class="station-500" cx="227.8225806451613" cy="311.2903225806452" r="10.0"/>
<circle class="station-220" cx="50.0" cy="123.79032258064517" r="10.0"/>
<circle class="station-220" cx="112.90322580645162" cy="93.54838709677419" r="10.0"/>
<circle class="station-220" cx="79.03225806451613" cy="218.1451612903226" r="10.0"/>
<circle class="station-220" cx="177.01612903225805" cy="184.2741935483871" r="10.0"/>
<circle class="station-220" cx="316.1290322580645" cy="244.75806451612902" r="10.0"/>
<circle class="station-220" cx="297.98387096774195" cy="106.85483870967742" r="10.0"/>
<circle class="station-220" cx="369.35483870967744" cy="50.0" r="10.0"/>
<circle class="station-220" cx="370.56451612903226" cy="126.20967741935485" r="10.0"/>
<circle class="station-220" cx="443.1451612903226" cy="137.09677419354838" r="10.0"/>
<circle class="station-220" cx="527.8225806451612" cy="293.14516129032256" r="10.0"/>
<circle class="station-220" cx="650.0" cy="195.16129032258064" r="10.0"/>
<circle class="station-220" cx="571.3709677419355" cy="300.4032258064516" r="10.0"/>
<circle class="station-220" cx="529.0322580645161" cy="233.8709677419355" r="10.0"/>
<circle class="station-220" cx="504.8387096774194" cy="186.69354838709677" r="10.0"/>
<circle class="station-220" cx="291.93548387096774" cy="422.5806451612903" r="10.0"/>
<circle class="bend" cx="69.74309416344768" cy="236.7578955128987" r="3.5"/>
<circle class="bend" cx="572.02225991643" cy="328.5960502815629" r="3.5"/>
</svg>
