<?xml version="1.0" encoding="UTF-8"?>
<svg width="700.0" height="534.2396852924248" viewBox="0 0 700.0 534.2396852924248" xmlns="http://www.w3.org/2000/svg">
<defs>
  <style>
    .station-220 { fill: #2563eb; stroke: #1e40af; stroke-width: 2; }
    .station-500 { fill: #ef4444; stroke: #1e40af; stroke-width: 2; }
    .station-default { fill: #2563eb; stroke: #1e40af; stroke-width: 2; }
    .bend { fill: #111827; stroke: #111827; stroke-width: 1; }
    .dummy { fill: #8b4513; stroke: #8b4513; stroke-width: 1; }
    .inter { fill: #6b7280; stroke: #6b7280; stroke-width: 1; }
    .station-label { font-family: Arial, sans-serif; font-size: 8px; fill: white; text-anchor: middle; dominant-baseline: central; }
    .edge { stroke: #6b7280; stroke-width: 2; fill: none; }
    .background { fill: #f8fafc; }
  </style>
</defs>
<rect class="background" width="700.0" height="534.2396852924248"/>
<!-- Edges -->
<line class="edge" x1="248.30006637165903" y1="374.15149522703535" x2="340.6581526466591" y2="281.7934089520353"/>
<line class="edge" x1="245.47163924691282" y1="371.32306810228914" x2="337.8297255219129" y2="278.9649818272891"/>
<line class="edge" x1="248.300066371659" y1="371.32306810228914" x2="112.93278108113863" y2="235.9557828117697"/>
<line class="edge" x1="245.47163924691284" y1="374.15149522703535" x2="110.10435395639244" y2="238.7842099365159"/>
<line class="edge" x1="246.88585280928592" y1="374.73728166466225" x2="534.0432289485104" y2="374.73728166466225"/>
<line class="edge" x1="246.88585280928592" y1="370.73728166466225" x2="534.0432289485104" y2="370.73728166466225"/>
<line class="edge" x1="247.6512196740161" y1="374.5850407296848" x2="532.1745944483048" y2="256.7316000860119"/>
<line class="edge" x1="246.12048594455575" y1="370.8895225996397" x2="530.6438607188445" y2="253.03608195596675"/>
<line class="edge" x1="245.03809374426334" y1="373.50264852939245" x2="291.22390156408125" y2="485.00505215715503"/>
<line class="edge" x1="248.7336118743085" y1="371.97191479993205" x2="294.91941969412636" y2="483.47431842769464"/>
<line class="edge" x1="247.65121967401612" y1="370.8895225996397" x2="50.76536686473018" y2="289.3367321266399"/>
<line class="edge" x1="246.12048594455572" y1="374.5850407296848" x2="49.23463313526982" y2="293.032250256685"/>
<line class="edge" x1="248.88585280928592" y1="372.73728166466225" x2="248.88585280928592" y2="219.71339394494518"/>
<line class="edge" x1="244.88585280928592" y1="372.73728166466225" x2="244.88585280928592" y2="219.71339394494518"/>
<line class="edge" x1="248.7336118743085" y1="373.50264852939245" x2="302.83572621937884" y2="242.8885903244626"/>
<line class="edge" x1="245.03809374426334" y1="371.97191479993205" x2="299.1402080893337" y2="241.35785659500226"/>
<line class="edge" x1="50.76536686473017" y1="139.8485473391918" x2="112.2839343834957" y2="114.36672233515472"/>
<line class="edge" x1="49.23463313526983" y1="136.15302920914664" x2="110.75320065403537" y2="110.67120420510955"/>
<line class="edge" x1="48.0" y1="138.00078827416922" x2="48.0" y2="291.18449119166246"/>
<line class="edge" x1="52.0" y1="138.00078827416922" x2="52.0" y2="291.18449119166246"/>
<line class="edge" x1="109.51856751876554" y1="112.51896327013213" x2="109.51856751876554" y2="237.3699963741428"/>
<line class="edge" x1="113.51856751876554" y1="112.51896327013213" x2="113.51856751876554" y2="237.3699963741428"/>
<line class="edge" x1="112.93278108113863" y1="238.7842099365159" x2="189.44472494099716" y2="162.2722660766574"/>
<line class="edge" x1="110.10435395639244" y1="235.9557828117697" x2="186.61629781625095" y2="159.44383895191118"/>
<line class="edge" x1="186.61629781625098" y1="162.2722660766574" x2="245.47163924691284" y2="221.1276075073183"/>
<line class="edge" x1="189.44472494099713" y1="159.44383895191118" x2="248.300066371659" y2="218.29918038257208"/>
<line class="edge" x1="340.6581526466591" y1="278.9649818272891" x2="302.4021807167294" y2="240.70900989735932"/>
<line class="edge" x1="337.8297255219129" y1="281.7934089520353" x2="299.5737535919832" y2="243.53743702210554"/>
<line class="edge" x1="304.09547992959943" y1="85.29265438282428" x2="384.83859979798063" y2="51.84775906502256"/>
<line class="edge" x1="302.56474620013904" y1="81.59713625277917" x2="383.30786606852024" y2="48.15224093497744"/>
<line class="edge" x1="301.4823539998467" y1="82.67952845307153" x2="245.03809374426336" y2="218.94802708021498"/>
<line class="edge" x1="305.1778721298918" y1="84.21026218253192" x2="248.73361187430848" y2="220.47876080967538"/>
<line class="edge" x1="382.2254738682279" y1="49.23463313526982" x2="355.1510348014371" y2="114.59811112395944"/>
<line class="edge" x1="385.920991998273" y1="50.76536686473018" x2="358.8465529314822" y2="116.1288448534198"/>
<line class="edge" x1="356.99879386645966" y1="117.36347798868962" x2="427.74771262539906" y2="117.36347798868962"/>
<line class="edge" x1="356.99879386645966" y1="113.36347798868962" x2="427.74771262539906" y2="113.36347798868962"/>
<line class="edge" x1="426.33349906302595" y1="113.94926442631653" x2="299.5737535919832" y2="240.70900989735932"/>
<line class="edge" x1="429.16192618777217" y1="116.77769155106272" x2="302.4021807167294" y2="243.53743702210554"/>
<line class="edge" x1="533.2778620837803" y1="374.5850407296848" x2="583.2616981927764" y2="395.28902354546466"/>
<line class="edge" x1="534.8085958132406" y1="370.8895225996397" x2="584.7924319222367" y2="391.59350541541954"/>
<line class="edge" x1="648.5857864376269" y1="232.7542966303444" x2="558.6620671507442" y2="322.67801591722707"/>
<line class="edge" x1="651.4142135623731" y1="235.58272375509063" x2="561.4904942754904" y2="325.5064430419733"/>
<line class="edge" x1="648.1522409349774" y1="233.40314332798732" x2="582.1793059924839" y2="392.6758976157119"/>
<line class="edge" x1="651.8477590650226" y1="234.93387705744772" x2="585.8748241225292" y2="394.2066313451723"/>
<line class="edge" x1="561.9240397781399" y1="323.32686261487" x2="533.2569866485973" y2="254.11847415625914"/>
<line class="edge" x1="558.2285216480947" y1="324.8575963443304" x2="529.561468518552" y2="255.64920788571953"/>
<line class="edge" x1="533.2569866485973" y1="254.11847415625917" x2="512.5530038328166" y2="204.13463804726211"/>
<line class="edge" x1="529.561468518552" y1="255.6492078857195" x2="508.8574857027714" y2="205.66537177672245"/>
<line class="edge" x1="246.12048594455578" y1="221.56115300996777" x2="300.22260028962614" y2="243.97098252475502"/>
<line class="edge" x1="247.65121967401606" y1="217.8656348799226" x2="301.7533340190864" y2="240.27546439470984"/>
<!-- Node Halos -->
<circle class="background" cx="246.88585280928592" cy="372.73728166466225" r="12.0"/>
<circle class="background" cx="50.0" cy="138.00078827416922" r="12.0"/>
<circle class="background" cx="111.51856751876554" cy="112.51896327013213" r="12.0"/>
<circle class="background" cx="111.51856751876554" cy="237.3699963741428" r="12.0"/>
<circle class="background" cx="188.03051137862406" cy="160.85805251428428" r="12.0"/>
<circle class="background" cx="339.243939084286" cy="280.3791953896622" r="12.0"/>
<circle class="background" cx="303.33011306486924" cy="83.44489531780172" r="12.0"/>
<circle class="background" cx="384.07323293325044" cy="50.0" r="12.0"/>
<circle class="background" cx="356.99879386645966" cy="115.36347798868962" r="12.0"/>
<circle class="background" cx="427.74771262539906" cy="115.36347798868962" r="12.0"/>
<circle class="background" cx="534.0432289485104" cy="372.73728166466225" r="12.0"/>
<circle class="background" cx="650.0" cy="234.16851019271752" r="12.0"/>
<circle class="background" cx="560.0762807131173" cy="324.0922294796002" r="12.0"/>
<circle class="background" cx="531.4092275835746" cy="254.88384102098934" r="12.0"/>
<circle class="background" cx="510.70524476779394" cy="204.90000491199228" r="12.0"/>
<circle class="background" cx="293.0716606291038" cy="484.23968529242484" r="12.0"/>
<circle class="background" cx="50.0" cy="291.18449119166246" r="5.5"/>
<circle class="background" cx="584.0270650575065" cy="393.4412644804421" r="5.5"/>
<circle class="background" cx="246.88585280928592" cy="219.71339394494518" r="5.5"/>
<circle class="background" cx="300.9879671543563" cy="242.12322345973243" r="5.5"/>
<!-- Stations -->
<circle class="station-500" cx="246.88585280928592" cy="372.73728166466225" r="10.0"/>
<circle class="station-220" cx="50.0" cy="138.00078827416922" r="10.0"/>
<circle class="station-220" cx="111.51856751876554" cy="112.51896327013213" r="10.0"/>
<circle class="station-220" cx="111.51856751876554" cy="237.3699963741428" r="10.0"/>
<circle class="station-220" cx="188.03051137862406" cy="160.85805251428428" r="10.0"/>
<circle class="station-220" cx="339.243939084286" cy="280.3791953896622" r="10.0"/>
<circle class="station-220" cx="303.33011306486924" cy="83.44489531780172" r="10.0"/>
<circle class="station-220" cx="384.07323293325044" cy="50.0" r="10.0"/>
<circle class="station-220" cx="356.99879386645966" cy="115.36347798868962" r="10.0"/>
<circle class="station-220" cx="427.74771262539906" cy="115.36347798868962" r="10.0"/>
<circle class="station-220" cx="534.0432289485104" cy="372.73728166466225" r="10.0"/>
<circle class="station-220" cx="650.0" cy="234.16851019271752" r="10.0"/>
<circle class="station-220" cx="560.0762807131173" cy="324.0922294796002" r="10.0"/>
<circle class="station-220" cx="531.4092275835746" cy="254.88384102098934" r="10.0"/>
<circle class="station-220" cx="510.70524476779394" cy="204.90000491199228" r="10.0"/>
<circle class="station-220" cx="293.0716606291038" cy="484.23968529242484" r="10.0"/>
<circle class="bend" cx="50.0" cy="291.18449119166246" r="3.5"/>
<circle class="bend" cx="584.0270650575065" cy="393.4412644804421" r="3.5"/>
<circle class="bend" cx="246.88585280928592" cy="219.71339394494518" r="3.5"/>
<circle class="bend" cx="300.9879671543563" cy="242.12322345973243" r="3.5"/>
</svg>
