<?xml version="1.0" encoding="UTF-8"?>
<svg width="610.0" height="770.0" viewBox="0 0 610.0 770.0" xmlns="http://www.w3.org/2000/svg">
<defs>
  <style>
    .station-220 { fill: #2563eb; stroke: #1e40af; stroke-width: 2; }
    .station-500 { fill: #ef4444; stroke: #1e40af; stroke-width: 2; }
    .station-default { fill: #2563eb; stroke: #1e40af; stroke-width: 2; }
    .bend { fill: #111827; stroke: #111827; stroke-width: 1; }
    .dummy { fill: #8b4513; stroke: #8b4513; stroke-width: 1; }
    .inter { fill: #6b7280; stroke: #6b7280; stroke-width: 1; }
    .station-label { font-family: Arial, sans-serif; font-size: 8px; fill: white; text-anchor: middle; dominant-baseline: central; }
    .edge { stroke: #6b7280; stroke-width: 2; fill: none; }
    .background { fill: #f8fafc; }
  </style>
</defs>
<rect class="background" width="610.0" height="770.0"/>
<!-- Edges -->
<line class="edge" x1="302.5134446359476" y1="440.30747288075946" x2="448.5134446359476" y2="271.30747288075946"/>
<line class="edge" x1="299.4865553640524" y1="437.69252711924054" x2="445.4865553640524" y2="268.69252711924054"/>
<line class="edge" x1="301.43967825949306" y1="440.95107227650055" x2="443.43967825949306" y2="408.95107227650055"/>
<line class="edge" x1="300.56032174050694" y1="437.04892772349945" x2="442.56032174050694" y2="405.04892772349945"/>
<line class="edge" x1="299.79311465962894" y1="440.59481277120466" x2="410.79311465962894" y2="524.5948127712046"/>
<line class="edge" x1="302.20688534037106" y1="437.40518722879534" x2="413.20688534037106" y2="521.4051872287954"/>
<line class="edge" x1="302.8754975214474" y1="438.30537128835283" x2="232.87549752144741" y2="249.3053712883528"/>
<line class="edge" x1="299.1245024785526" y1="439.69462871164717" x2="229.12450247855259" y2="250.6946287116472"/>
<line class="edge" x1="299.45807649674583" y1="437.72623710600743" x2="185.45807649674583" y2="575.7262371060074"/>
<line class="edge" x1="302.54192350325417" y1="440.27376289399257" x2="188.54192350325417" y2="578.2737628939926"/>
<line class="edge" x1="299.28913553139483" y1="440.0358295082031" x2="388.28913553139483" y2="587.0358295082032"/>
<line class="edge" x1="302.71086446860517" y1="437.9641704917969" x2="391.71086446860517" y2="584.9641704917968"/>
<line class="edge" x1="299.1580654978629" y1="438.22072001832663" x2="200.15806549786288" y2="672.2207200183266"/>
<line class="edge" x1="302.8419345021371" y1="439.77927998167337" x2="203.84193450213712" y2="673.7792799816734"/>
<line class="edge" x1="302.6524546856151" y1="440.126673649283" x2="407.6524546856151" y2="286.126673649283"/>
<line class="edge" x1="299.3475453143849" y1="437.873326350717" x2="404.3475453143849" y2="283.873326350717"/>
<line class="edge" x1="445.07930754649277" y1="270.5576203897279" x2="454.07930754649277" y2="301.5576203897279"/>
<line class="edge" x1="448.92069245350723" y1="269.4423796102721" x2="457.92069245350723" y2="300.4423796102721"/>
<line class="edge" x1="454.01487336651127" y1="300.75654107325136" x2="441.01487336651127" y2="406.75654107325136"/>
<line class="edge" x1="457.98512663348873" y1="301.24345892674864" x2="444.98512663348873" y2="407.24345892674864"/>
<line class="edge" x1="457.01186467697505" y1="302.7251463345149" x2="561.011864676975" y2="241.72514633451487"/>
<line class="edge" x1="454.98813532302495" y1="299.2748536654851" x2="558.988135323025" y2="238.27485366548513"/>
<line class="edge" x1="425.9568685684071" y1="497.41311669777485" x2="444.9568685684071" y2="407.41311669777485"/>
<line class="edge" x1="422.0431314315929" y1="496.58688330222515" x2="441.0431314315929" y2="406.58688330222515"/>
<line class="edge" x1="422.1840812309991" y1="496.1618836450765" x2="410.1840812309991" y2="522.1618836450765"/>
<line class="edge" x1="425.8159187690009" y1="497.8381163549235" x2="413.8159187690009" y2="523.8381163549235"/>
<line class="edge" x1="230.17239411139764" y1="248.1792670450748" x2="98.17239411139764" y2="308.17926704507477"/>
<line class="edge" x1="231.82760588860236" y1="251.8207329549252" x2="99.82760588860236" y2="311.82073295492523"/>
<line class="edge" x1="97.03883864861815" y1="310.3922322702764" x2="138.03883864861817" y2="515.3922322702764"/>
<line class="edge" x1="100.96116135138185" y1="309.6077677297236" x2="141.96116135138183" y2="514.6077677297236"/>
<line class="edge" x1="100.09357780187746" y1="308.3254589908752" x2="51.09357780187745" y2="276.3254589908752"/>
<line class="edge" x1="97.90642219812254" y1="311.6745410091248" x2="48.90642219812255" y2="279.6745410091248"/>
<line class="edge" x1="138.40619073094595" y1="516.2082102523474" x2="185.40619073094595" y2="578.2082102523474"/>
<line class="edge" x1="141.59380926905405" y1="513.7917897476526" x2="188.59380926905405" y2="575.7917897476526"/>
<line class="edge" x1="388.8299899754006" y1="587.6220593522855" x2="449.8299899754006" y2="631.6220593522855"/>
<line class="edge" x1="391.1700100245994" y1="584.3779406477145" x2="452.1700100245994" y2="628.3779406477145"/>
<line class="edge" x1="450.8543205889043" y1="628.0053126788434" x2="272.8543205889043" y2="641.0053126788434"/>
<line class="edge" x1="451.1456794110957" y1="631.9946873211566" x2="273.1456794110957" y2="644.9946873211566"/>
<line class="edge" x1="450.00534267908415" y1="628.2648755624024" x2="293.00534267908415" y2="718.2648755624024"/>
<line class="edge" x1="451.99465732091585" y1="631.7351244375976" x2="294.99465732091585" y2="721.7351244375976"/>
<line class="edge" x1="272.22156657777975" y1="641.1577075674121" x2="201.22156657777978" y2="671.1577075674121"/>
<line class="edge" x1="273.77843342222025" y1="644.8422924325879" x2="202.77843342222022" y2="674.8422924325879"/>
<line class="edge" x1="407.9981393421649" y1="285.08625061908623" x2="413.9981393421649" y2="146.08625061908626"/>
<line class="edge" x1="404.0018606578351" y1="284.91374938091377" x2="410.0018606578351" y2="145.91374938091374"/>
<line class="edge" x1="413.2882714915656" y1="144.4701776037659" x2="299.2882714915656" y2="48.4701776037659"/>
<line class="edge" x1="410.7117285084344" y1="147.5298223962341" x2="296.7117285084344" y2="51.5298223962341"/>
<!-- Node Halos -->
<circle class="background" cx="301.0" cy="439.0" r="12.0"/>
<circle class="background" cx="447.0" cy="270.0" r="12.0"/>
<circle class="background" cx="456.0" cy="301.0" r="12.0"/>
<circle class="background" cx="424.0" cy="497.0" r="12.0"/>
<circle class="background" cx="412.0" cy="523.0" r="12.0"/>
<circle class="background" cx="443.0" cy="407.0" r="12.0"/>
<circle class="background" cx="231.0" cy="250.0" r="12.0"/>
<circle class="background" cx="99.0" cy="310.0" r="12.0"/>
<circle class="background" cx="140.0" cy="515.0" r="12.0"/>
<circle class="background" cx="187.0" cy="577.0" r="12.0"/>
<circle class="background" cx="390.0" cy="586.0" r="12.0"/>
<circle class="background" cx="451.0" cy="630.0" r="12.0"/>
<circle class="background" cx="273.0" cy="643.0" r="12.0"/>
<circle class="background" cx="202.0" cy="673.0" r="12.0"/>
<circle class="background" cx="406.0" cy="285.0" r="12.0"/>
<circle class="background" cx="412.0" cy="146.0" r="12.0"/>
<circle class="background" cx="298.0" cy="50.0" r="12.0"/>
<circle class="background" cx="560.0" cy="240.0" r="12.0"/>
<circle class="background" cx="50.0" cy="278.0" r="12.0"/>
<circle class="background" cx="294.0" cy="720.0" r="12.0"/>
<!-- Stations -->
<circle class="station-500" cx="301.0" cy="439.0" r="10.0"/>
<circle class="station-220" cx="447.0" cy="270.0" r="10.0"/>
<circle class="station-220" cx="456.0" cy="301.0" r="10.0"/>
<circle class="station-220" cx="424.0" cy="497.0" r="10.0"/>
<circle class="station-220" cx="412.0" cy="523.0" r="10.0"/>
<circle class="station-220" cx="443.0" cy="407.0" r="10.0"/>
<circle class="station-220" cx="231.0" cy="250.0" r="10.0"/>
<circle class="station-220" cx="99.0" cy="310.0" r="10.0"/>
<circle class="station-220" cx="140.0" cy="515.0" r="10.0"/>
<circle class="station-220" cx="187.0" cy="577.0" r="10.0"/>
<circle class="station-220" cx="390.0" cy="586.0" r="10.0"/>
<circle class="station-220" cx="451.0" cy="630.0" r="10.0"/>
<circle class="station-220" cx="273.0" cy="643.0" r="10.0"/>
<circle class="station-220" cx="202.0" cy="673.0" r="10.0"/>
<circle class="station-220" cx="406.0" cy="285.0" r="10.0"/>
<circle class="station-220" cx="412.0" cy="146.0" r="10.0"/>
<circle class="station-220" cx="298.0" cy="50.0" r="10.0"/>
<circle class="station-220" cx="560.0" cy="240.0" r="10.0"/>
<circle class="station-220" cx="50.0" cy="278.0" r="10.0"/>
<circle class="station-220" cx="294.0" cy="720.0" r="10.0"/>
</svg>
