<?xml version="1.0" encoding="UTF-8"?>
<svg width="700.0" height="638.9525920694582" viewBox="0 0 700.0 638.9525920694582" xmlns="http://www.w3.org/2000/svg">
<defs>
  <style>
    .station-220 { fill: #2563eb; stroke: #1e40af; stroke-width: 2; }
    .station-500 { fill: #ef4444; stroke: #1e40af; stroke-width: 2; }
    .station-default { fill: #2563eb; stroke: #1e40af; stroke-width: 2; }
    .bend { fill: #111827; stroke: #111827; stroke-width: 1; }
    .dummy { fill: #8b4513; stroke: #8b4513; stroke-width: 1; }
    .inter { fill: #6b7280; stroke: #6b7280; stroke-width: 1; }
    .station-label { font-family: Arial, sans-serif; font-size: 8px; fill: white; text-anchor: middle; dominant-baseline: central; }
    .edge { stroke: #6b7280; stroke-width: 2; fill: none; }
    .background { fill: #f8fafc; }
  </style>
</defs>
<rect class="background" width="700.0" height="638.9525920694582"/>
<!-- Edges -->
<line class="edge" x1="381.937917527644" y1="285.1297659791134" x2="504.03273338873174" y2="163.03495011802562"/>
<line class="edge" x1="379.1094904028978" y1="282.3013388543672" x2="501.20430626398553" y2="160.2065229932794"/>
<line class="edge" x1="380.5237039652709" y1="285.7155524167403" x2="563.6659277569022" y2="285.7155524167403"/>
<line class="edge" x1="380.5237039652709" y1="281.7155524167403" x2="563.6659277569022" y2="281.7155524167403"/>
<line class="edge" x1="379.1094904028978" y1="285.1297659791134" x2="440.15689833344135" y2="346.17717390965703"/>
<line class="edge" x1="381.937917527644" y1="282.3013388543672" x2="442.98532545818756" y2="343.3487467849108"/>
<line class="edge" x1="381.937917527644" y1="282.30133885436726" x2="259.8431016665562" y2="160.20652299327637"/>
<line class="edge" x1="379.1094904028978" y1="285.12976597911336" x2="257.01467454181" y2="163.03495011802252"/>
<line class="edge" x1="380.5237039652709" y1="281.7155524167403" x2="294.1896317221731" y2="281.7155524167403"/>
<line class="edge" x1="380.5237039652709" y1="285.7155524167403" x2="294.1896317221731" y2="285.7155524167403"/>
<line class="edge" x1="379.1094904028978" y1="282.3013388543672" x2="257.01467454181056" y2="404.3961547154544"/>
<line class="edge" x1="381.937917527644" y1="285.1297659791134" x2="259.8431016665568" y2="407.2245818402006"/>
<line class="edge" x1="378.5237039652709" y1="283.7155524167403" x2="378.5237039652709" y2="456.3836969029358"/>
<line class="edge" x1="382.5237039652709" y1="283.7155524167403" x2="382.5237039652709" y2="456.3836969029358"/>
<line class="edge" x1="382.5237039652709" y1="283.7155524167403" x2="382.5237039652709" y2="111.04740793054481"/>
<line class="edge" x1="378.5237039652709" y1="283.7155524167403" x2="378.5237039652709" y2="111.04740793054481"/>
<line class="edge" x1="504.03273338873174" y1="163.03495011802562" x2="565.0801413192753" y2="101.98754218748266"/>
<line class="edge" x1="501.20430626398553" y1="160.2065229932794" x2="562.2517141945291" y2="99.15911506273645"/>
<line class="edge" x1="561.6659277569022" y1="100.57332862510955" x2="561.6659277569022" y2="283.7155524167403"/>
<line class="edge" x1="565.6659277569022" y1="100.57332862510955" x2="565.6659277569022" y2="283.7155524167403"/>
<line class="edge" x1="563.6659277569022" y1="102.57332862510955" x2="650.0" y2="102.57332862510955"/>
<line class="edge" x1="563.6659277569022" y1="98.57332862510955" x2="650.0" y2="98.57332862510955"/>
<line class="edge" x1="650.0" y1="281.7155524167403" x2="563.6659277569022" y2="281.7155524167403"/>
<line class="edge" x1="650.0" y1="285.7155524167403" x2="563.6659277569022" y2="285.7155524167403"/>
<line class="edge" x1="648.5857864376269" y1="282.3013388543672" x2="587.5383785070833" y2="343.3487467849108"/>
<line class="edge" x1="651.4142135623731" y1="285.1297659791134" x2="590.3668056318295" y2="346.17717390965703"/>
<line class="edge" x1="588.9525920694564" y1="342.7629603472839" x2="441.57111189581445" y2="342.7629603472839"/>
<line class="edge" x1="588.9525920694564" y1="346.7629603472839" x2="441.57111189581445" y2="346.7629603472839"/>
<line class="edge" x1="259.8431016665562" y1="160.20652299327634" x2="173.50902942346212" y2="73.8724507501823"/>
<line class="edge" x1="257.01467454181" y1="163.03495011802255" x2="170.6806022987159" y2="76.70087787492848"/>
<line class="edge" x1="170.68060229871594" y1="73.87245075018227" x2="109.63319436817115" y2="134.91985868072462"/>
<line class="edge" x1="173.5090294234621" y1="76.70087787492851" x2="112.46162149291727" y2="137.74828580547089"/>
<line class="edge" x1="109.04740793054421" y1="136.33407224309775" x2="109.04740793054421" y2="222.6681444861955"/>
<line class="edge" x1="113.04740793054421" y1="136.33407224309775" x2="113.04740793054421" y2="222.6681444861955"/>
<line class="edge" x1="109.6331943681711" y1="134.91985868072467" x2="48.5857864376269" y2="195.96726661126948"/>
<line class="edge" x1="112.46162149291732" y1="137.74828580547083" x2="51.4142135623731" y2="198.79569373601564"/>
<line class="edge" x1="109.6331943681711" y1="224.08235804856858" x2="170.6806022987147" y2="285.1297659791134"/>
<line class="edge" x1="112.46162149291732" y1="221.25393092382242" x2="173.5090294234609" y2="282.3013388543672"/>
<line class="edge" x1="172.0948158610878" y1="285.7155524167403" x2="294.1896317221731" y2="285.7155524167403"/>
<line class="edge" x1="172.0948158610878" y1="281.7155524167403" x2="294.1896317221731" y2="281.7155524167403"/>
<line class="edge" x1="257.01467454181056" y1="404.3961547154544" x2="195.967266611267" y2="465.443562645998"/>
<line class="edge" x1="259.8431016665568" y1="407.2245818402006" x2="198.79569373601322" y2="468.2719897707442"/>
<line class="edge" x1="195.967266611267" y1="468.2719897707442" x2="257.01467454181" y2="529.3193977012884"/>
<line class="edge" x1="198.79569373601322" y1="465.443562645998" x2="259.8431016665562" y2="526.4909705765422"/>
<line class="edge" x1="257.01467454181005" y1="529.3193977012884" x2="318.06208247235486" y2="590.3668056318313"/>
<line class="edge" x1="259.84310166655615" y1="526.4909705765422" x2="320.89050959710096" y2="587.5383785070851"/>
<line class="edge" x1="379.1094904028978" y1="457.7979104653089" x2="440.1568983334407" y2="518.8453183958525"/>
<line class="edge" x1="381.937917527644" y1="454.9694833405627" x2="442.98532545818694" y2="516.0168912711063"/>
<line class="edge" x1="440.1568983334407" y1="518.8453183958525" x2="501.20430626398434" y2="579.8927263263967"/>
<line class="edge" x1="442.98532545818694" y1="516.0168912711063" x2="504.03273338873055" y2="577.0642992016504"/>
<line class="edge" x1="381.937917527644" y1="109.63319436817173" x2="320.890509597101" y2="48.58578643762693"/>
<line class="edge" x1="379.1094904028978" y1="112.46162149291789" x2="318.0620824723548" y2="51.41421356237307"/>
<!-- Node Halos -->
<circle class="background" cx="380.5237039652709" cy="283.7155524167403" r="12.0"/>
<circle class="background" cx="502.61851982635864" cy="161.6207365556525" r="12.0"/>
<circle class="background" cx="563.6659277569022" cy="100.57332862510955" r="12.0"/>
<circle class="background" cx="650.0" cy="283.7155524167403" r="12.0"/>
<circle class="background" cx="588.9525920694564" cy="344.7629603472839" r="12.0"/>
<circle class="background" cx="441.57111189581445" cy="344.7629603472839" r="12.0"/>
<circle class="background" cx="563.6659277569022" cy="283.7155524167403" r="12.0"/>
<circle class="background" cx="258.4288881041831" cy="161.62073655564944" r="12.0"/>
<circle class="background" cx="172.09481586108902" cy="75.28666431255539" r="12.0"/>
<circle class="background" cx="111.04740793054421" cy="136.33407224309775" r="12.0"/>
<circle class="background" cx="111.04740793054421" cy="222.6681444861955" r="12.0"/>
<circle class="background" cx="172.0948158610878" cy="283.7155524167403" r="12.0"/>
<circle class="background" cx="294.1896317221731" cy="283.7155524167403" r="12.0"/>
<circle class="background" cx="258.42888810418367" cy="405.8103682778275" r="12.0"/>
<circle class="background" cx="197.3814801736401" cy="466.8577762083711" r="12.0"/>
<circle class="background" cx="258.4288881041831" cy="527.9051841389153" r="12.0"/>
<circle class="background" cx="380.5237039652709" cy="456.3836969029358" r="12.0"/>
<circle class="background" cx="441.57111189581383" cy="517.4311048334794" r="12.0"/>
<circle class="background" cx="380.5237039652709" cy="111.04740793054481" r="12.0"/>
<circle class="background" cx="319.4762960347279" cy="50.0" r="12.0"/>
<circle class="background" cx="650.0" cy="100.57332862510955" r="12.0"/>
<circle class="background" cx="50.0" cy="197.38148017364256" r="12.0"/>
<circle class="background" cx="319.4762960347279" cy="588.9525920694582" r="12.0"/>
<circle class="background" cx="502.61851982635744" cy="578.4785127640235" r="12.0"/>
<!-- Stations -->
<circle class="station-500" cx="380.5237039652709" cy="283.7155524167403" r="10.0"/>
<circle class="station-220" cx="502.61851982635864" cy="161.6207365556525" r="10.0"/>
<circle class="station-220" cx="563.6659277569022" cy="100.57332862510955" r="10.0"/>
<circle class="station-220" cx="650.0" cy="283.7155524167403" r="10.0"/>
<circle class="station-220" cx="588.9525920694564" cy="344.7629603472839" r="10.0"/>
<circle class="station-220" cx="441.57111189581445" cy="344.7629603472839" r="10.0"/>
<circle class="station-220" cx="563.6659277569022" cy="283.7155524167403" r="10.0"/>
<circle class="station-220" cx="258.4288881041831" cy="161.62073655564944" r="10.0"/>
<circle class="station-220" cx="172.09481586108902" cy="75.28666431255539" r="10.0"/>
<circle class="station-220" cx="111.04740793054421" cy="136.33407224309775" r="10.0"/>
<circle class="station-220" cx="111.04740793054421" cy="222.6681444861955" r="10.0"/>
<circle class="station-220" cx="172.0948158610878" cy="283.7155524167403" r="10.0"/>
<circle class="station-220" cx="294.1896317221731" cy="283.7155524167403" r="10.0"/>
<circle class="station-220" cx="258.42888810418367" cy="405.8103682778275" r="10.0"/>
<circle class="station-220" cx="197.3814801736401" cy="466.8577762083711" r="10.0"/>
<circle class="station-220" cx="258.4288881041831" cy="527.9051841389153" r="10.0"/>
<circle class="station-220" cx="380.5237039652709" cy="456.3836969029358" r="10.0"/>
<circle class="station-220" cx="441.57111189581383" cy="517.4311048334794" r="10.0"/>
<circle class="station-220" cx="380.5237039652709" cy="111.04740793054481" r="10.0"/>
<circle class="station-220" cx="319.4762960347279" cy="50.0" r="10.0"/>
<circle class="station-220" cx="650.0" cy="100.57332862510955" r="10.0"/>
<circle class="station-220" cx="50.0" cy="197.38148017364256" r="10.0"/>
<circle class="station-220" cx="319.4762960347279" cy="588.9525920694582" r="10.0"/>
<circle class="station-220" cx="502.61851982635744" cy="578.4785127640235" r="10.0"/>
</svg>
