<?xml version="1.0" encoding="UTF-8"?>
<svg width="633.3660735166154" height="700.0" viewBox="0 0 633.3660735166154 700.0" xmlns="http://www.w3.org/2000/svg">
<defs>
  <style>
    .station-220 { fill: #2563eb; stroke: #1e40af; stroke-width: 2; }
    .station-500 { fill: #ef4444; stroke: #1e40af; stroke-width: 2; }
    .station-default { fill: #2563eb; stroke: #1e40af; stroke-width: 2; }
    .bend { fill: #111827; stroke: #111827; stroke-width: 1; }
    .dummy { fill: #8b4513; stroke: #8b4513; stroke-width: 1; }
    .inter { fill: #6b7280; stroke: #6b7280; stroke-width: 1; }
    .station-label { font-family: Arial, sans-serif; font-size: 8px; fill: white; text-anchor: middle; dominant-baseline: central; }
    .edge { stroke: #6b7280; stroke-width: 2; fill: none; }
    .background { fill: #f8fafc; }
  </style>
</defs>
<rect class="background" width="633.3660735166154" height="700.0"/>
<!-- Edges -->
<line class="edge" x1="327.2483654002881" y1="293.0726951832195" x2="448.07760621071066" y2="172.24345437279626"/>
<line class="edge" x1="324.4199382755419" y1="290.24426805847327" x2="445.24917908596444" y2="169.4150272480501"/>
<line class="edge" x1="324.4199382755419" y1="293.0726951832195" x2="416.93712687176446" y2="385.58988377944206"/>
<line class="edge" x1="327.2483654002881" y1="290.24426805847327" x2="419.7655539965107" y2="382.76145665469585"/>
<line class="edge" x1="325.834151837915" y1="289.6584816208464" x2="132.5073665412379" y2="289.6584816208464"/>
<line class="edge" x1="325.834151837915" y1="293.6584816208464" x2="132.5073665412379" y2="293.6584816208464"/>
<line class="edge" x1="324.4199382755419" y1="290.24426805847327" x2="131.0931529788648" y2="483.5710533551504"/>
<line class="edge" x1="327.2483654002881" y1="293.0726951832195" x2="133.921580103611" y2="486.3994804798966"/>
<line class="edge" x1="327.834151837915" y1="291.6584816208464" x2="327.834151837915" y2="98.33169632416929"/>
<line class="edge" x1="323.834151837915" y1="291.6584816208464" x2="323.834151837915" y2="98.33169632416929"/>
<line class="edge" x1="327.2483654002881" y1="290.24426805847327" x2="224.7213547490809" y2="187.71725740726606"/>
<line class="edge" x1="324.4199382755419" y1="293.0726951832195" x2="221.89292762433467" y2="190.54568453201227"/>
<line class="edge" x1="323.834151837915" y1="291.6584816208464" x2="323.834151837915" y2="436.65357059335423"/>
<line class="edge" x1="327.834151837915" y1="291.6584816208464" x2="327.834151837915" y2="436.65357059335423"/>
<line class="edge" x1="445.24917908596444" y1="172.2434543727963" x2="513.6005195201037" y2="240.59479480693423"/>
<line class="edge" x1="448.07760621071066" y1="169.41502724805008" x2="516.4289466448499" y2="237.76636768218802"/>
<line class="edge" x1="513.0147330824768" y1="239.18058124456113" x2="513.0147330824768" y2="384.17567021706896"/>
<line class="edge" x1="517.0147330824768" y1="239.18058124456113" x2="517.0147330824768" y2="384.17567021706896"/>
<line class="edge" x1="516.4289466448499" y1="240.59479480693423" x2="584.7802870789885" y2="172.24345437279698"/>
<line class="edge" x1="513.6005195201037" y1="237.76636768218802" x2="581.9518599542423" y2="169.41502724805076"/>
<line class="edge" x1="515.0147330824768" y1="382.17567021706896" x2="418.35134043413757" y2="382.17567021706896"/>
<line class="edge" x1="515.0147330824768" y1="386.17567021706896" x2="418.35134043413757" y2="386.17567021706896"/>
<line class="edge" x1="132.5073665412379" y1="289.6584816208464" x2="84.17567021706861" y2="289.6584816208464"/>
<line class="edge" x1="132.5073665412379" y1="293.6584816208464" x2="84.17567021706861" y2="293.6584816208464"/>
<line class="edge" x1="82.17567021706861" y1="291.6584816208464" x2="82.17567021706861" y2="484.9852669175235"/>
<line class="edge" x1="86.17567021706861" y1="291.6584816208464" x2="86.17567021706861" y2="484.9852669175235"/>
<line class="edge" x1="82.76145665469552" y1="290.24426805847327" x2="48.58578643762691" y2="324.4199382755419"/>
<line class="edge" x1="85.5898837794417" y1="293.0726951832195" x2="51.41421356237309" y2="327.2483654002881"/>
<line class="edge" x1="84.17567021706861" y1="486.9852669175235" x2="132.5073665412379" y2="486.9852669175235"/>
<line class="edge" x1="84.17567021706861" y1="482.9852669175235" x2="132.5073665412379" y2="482.9852669175235"/>
<line class="edge" x1="327.834151837915" y1="98.33169632416929" x2="327.834151837915" y2="50.0"/>
<line class="edge" x1="323.834151837915" y1="98.33169632416929" x2="323.834151837915" y2="50.0"/>
<line class="edge" x1="325.834151837915" y1="52.0" x2="422.49754448625356" y2="52.0"/>
<line class="edge" x1="325.834151837915" y1="48.0" x2="422.49754448625356" y2="48.0"/>
<line class="edge" x1="224.72135474908086" y1="187.71725740726606" x2="122.19434409787226" y2="85.19024675606019"/>
<line class="edge" x1="221.8929276243347" y1="190.54568453201227" x2="119.3659169731261" y2="88.01867388080643"/>
<line class="edge" x1="122.19434409787227" y1="85.19024675606022" x2="88.01867388080296" y2="51.01457653899091"/>
<line class="edge" x1="119.36591697312609" y1="88.0186738808064" x2="85.19024675605678" y2="53.84300366373709"/>
<line class="edge" x1="323.834151837915" y1="436.65357059335423" x2="323.834151837915" y2="581.6486595658628"/>
<line class="edge" x1="327.834151837915" y1="436.65357059335423" x2="327.834151837915" y2="581.6486595658628"/>
<line class="edge" x1="324.4199382755419" y1="583.0628731282359" x2="392.77127870967985" y2="651.4142135623731"/>
<line class="edge" x1="327.2483654002881" y1="580.2344460034897" x2="395.59970583442606" y2="648.5857864376269"/>
<!-- Node Halos -->
<circle class="background" cx="325.834151837915" cy="291.6584816208464" r="12.0"/>
<circle class="background" cx="446.66339264833755" cy="170.8292408104232" r="12.0"/>
<circle class="background" cx="515.0147330824768" cy="239.18058124456113" r="12.0"/>
<circle class="background" cx="515.0147330824768" cy="384.17567021706896" r="12.0"/>
<circle class="background" cx="418.35134043413757" cy="384.17567021706896" r="12.0"/>
<circle class="background" cx="132.5073665412379" cy="291.6584816208464" r="12.0"/>
<circle class="background" cx="84.17567021706861" cy="291.6584816208464" r="12.0"/>
<circle class="background" cx="84.17567021706861" cy="484.9852669175235" r="12.0"/>
<circle class="background" cx="132.5073665412379" cy="484.9852669175235" r="12.0"/>
<circle class="background" cx="325.834151837915" cy="98.33169632416929" r="12.0"/>
<circle class="background" cx="325.834151837915" cy="50.0" r="12.0"/>
<circle class="background" cx="422.49754448625356" cy="50.0" r="12.0"/>
<circle class="background" cx="223.30714118670778" cy="189.13147096963917" r="12.0"/>
<circle class="background" cx="120.78013053549918" cy="86.60446031843331" r="12.0"/>
<circle class="background" cx="86.60446031842987" cy="52.428790101364" r="12.0"/>
<circle class="background" cx="325.834151837915" cy="436.65357059335423" r="12.0"/>
<circle class="background" cx="325.834151837915" cy="581.6486595658628" r="12.0"/>
<circle class="background" cx="394.18549227205295" cy="650.0" r="12.0"/>
<circle class="background" cx="583.3660735166154" cy="170.82924081042387" r="12.0"/>
<circle class="background" cx="50.0" cy="325.834151837915" r="12.0"/>
<!-- Stations -->
<circle class="station-500" cx="325.834151837915" cy="291.6584816208464" r="10.0"/>
<circle class="station-220" cx="446.66339264833755" cy="170.8292408104232" r="10.0"/>
<circle class="station-220" cx="515.0147330824768" cy="239.18058124456113" r="10.0"/>
<circle class="station-220" cx="515.0147330824768" cy="384.17567021706896" r="10.0"/>
<circle class="station-220" cx="418.35134043413757" cy="384.17567021706896" r="10.0"/>
<circle class="station-220" cx="132.5073665412379" cy="291.6584816208464" r="10.0"/>
<circle class="station-220" cx="84.17567021706861" cy="291.6584816208464" r="10.0"/>
<circle class="station-220" cx="84.17567021706861" cy="484.9852669175235" r="10.0"/>
<circle class="station-220" cx="132.5073665412379" cy="484.9852669175235" r="10.0"/>
<circle class="station-220" cx="325.834151837915" cy="98.33169632416929" r="10.0"/>
<circle class="station-220" cx="325.834151837915" cy="50.0" r="10.0"/>
<circle class="station-220" cx="422.49754448625356" cy="50.0" r="10.0"/>
<circle class="station-220" cx="223.30714118670778" cy="189.13147096963917" r="10.0"/>
<circle class="station-220" cx="120.78013053549918" cy="86.60446031843331" r="10.0"/>
<circle class="station-220" cx="86.60446031842987" cy="52.428790101364" r="10.0"/>
<circle class="station-220" cx="325.834151837915" cy="436.65357059335423" r="10.0"/>
<circle class="station-220" cx="325.834151837915" cy="581.6486595658628" r="10.0"/>
<circle class="station-220" cx="394.18549227205295" cy="650.0" r="10.0"/>
<circle class="station-220" cx="583.3660735166154" cy="170.82924081042387" r="10.0"/>
<circle class="station-220" cx="50.0" cy="325.834151837915" r="10.0"/>
</svg>
