<?xml version="1.0" encoding="UTF-8"?>
<svg width="700.0" height="580.6070826306914" viewBox="0 0 700.0 580.6070826306914" xmlns="http://www.w3.org/2000/svg">
<defs>
  <style>
    .station-220 { fill: #2563eb; stroke: #1e40af; stroke-width: 2; }
    .station-500 { fill: #ef4444; stroke: #1e40af; stroke-width: 2; }
    .station-default { fill: #2563eb; stroke: #1e40af; stroke-width: 2; }
    .bend { fill: #111827; stroke: #111827; stroke-width: 1; }
    .dummy { fill: #8b4513; stroke: #8b4513; stroke-width: 1; }
    .inter { fill: #6b7280; stroke: #6b7280; stroke-width: 1; }
    .station-label { font-family: Arial, sans-serif; font-size: 8px; fill: white; text-anchor: middle; dominant-baseline: central; }
    .edge { stroke: #6b7280; stroke-width: 2; fill: none; }
    .background { fill: #f8fafc; }
  </style>
</defs>
<rect class="background" width="700.0" height="580.6070826306914"/>
<!-- Edges -->
<line class="edge" x1="354.0589978905263" y1="275.5406087117822" x2="508.8650687168332" y2="234.0566289478699"/>
<line class="edge" x1="353.0236328008734" y1="271.6769292308822" x2="507.82970362718027" y2="230.19294946696988"/>
<line class="edge" x1="352.86043317849015" y1="275.48930067124473" x2="528.914396078996" y2="339.2329768938417"/>
<line class="edge" x1="354.22219751290953" y1="271.7282372714197" x2="530.2761604134154" y2="335.47191349401663"/>
<line class="edge" x1="352.6095462134535" y1="275.37845998509505" x2="619.7259037176693" y2="416.0192694286026"/>
<line class="edge" x1="354.4730844779462" y1="271.8390779575694" x2="621.589441982162" y2="412.47988740107695"/>
<line class="edge" x1="354.5782172083871" y1="271.8985542107961" x2="226.0790603787075" y2="193.9896166053998"/>
<line class="edge" x1="352.50441348301257" y1="275.31898373186834" x2="224.00525665333296" y2="197.41004612647205"/>
<line class="edge" x1="352.94921972581324" y1="271.6984227260376" x2="179.93066997876429" y2="325.32405510377794"/>
<line class="edge" x1="354.13341096558645" y1="275.5191152166268" x2="181.11486121853756" y2="329.1447475943671"/>
<line class="edge" x1="352.8862289147408" y1="271.71909657433497" x2="49.344913569040955" y2="376.94675256084423"/>
<line class="edge" x1="354.1964017766589" y1="275.49844136832945" x2="50.655086430959045" y2="380.7260973548387"/>
<line class="edge" x1="351.7066253235077" y1="274.40495520737784" x2="421.52112785301864" y2="435.28185234059873"/>
<line class="edge" x1="355.376005367892" y1="272.8125827352866" x2="425.19050789740294" y2="433.6894798685075"/>
<line class="edge" x1="355.3603532095285" y1="272.77744397474083" x2="253.16811037647622" y2="49.16867500340862"/>
<line class="edge" x1="351.7222774818712" y1="274.4400939679236" x2="249.53003464881888" y2="50.83132499659138"/>
<line class="edge" x1="355.37960540573596" y1="274.39660756849054" x2="440.3711737025319" y2="76.0829482093"/>
<line class="edge" x1="351.7030252856637" y1="272.8209303741739" x2="436.6945935824597" y2="74.50727101498332"/>
<line class="edge" x1="510.27043406728836" y1="232.67423146321465" x2="546.6953919087724" y2="105.18687901802073"/>
<line class="edge" x1="506.4243382767251" y1="231.57534695162514" x2="542.849296118209" y2="104.08799450643122"/>
<line class="edge" x1="543.0635610878968" y1="105.67669655323046" x2="648.2912170744061" y2="278.69524630027934"/>
<line class="edge" x1="546.4811269390847" y1="103.59817697122149" x2="651.7087829255939" y2="276.61672671827034"/>
<line class="edge" x1="649.1116009234752" y1="275.86413074475865" x2="528.7068791696809" y2="335.56058942941297"/>
<line class="edge" x1="650.8883990765248" y1="279.447842273791" x2="530.4836773227305" y2="339.14430095844534"/>
<line class="edge" x1="528.3049166105532" y1="338.88050502562294" x2="619.3673112142632" y2="415.77763824653357"/>
<line class="edge" x1="530.8856398818582" y1="335.8243853622354" x2="621.9480344855682" y2="412.721518583146"/>
<line class="edge" x1="527.7962619290537" y1="336.4786372684553" x2="493.3949128565411" y2="407.30494418245195"/>
<line class="edge" x1="531.3942945633577" y1="338.226253119403" x2="496.9929454908451" y2="409.05256003339963"/>
<line class="edge" x1="226.99624565761212" y1="195.27375221476174" x2="197.6539185075278" y2="60.70376907816816"/>
<line class="edge" x1="223.08807137442835" y1="196.1259105171101" x2="193.74574422434404" y2="61.5559273805165"/>
<line class="edge" x1="194.14605136017448" y1="59.870575544934376" x2="68.68230768395189" y2="214.67664637124128"/>
<line class="edge" x1="197.25361137169736" y1="62.38912091375028" x2="71.78986769547474" y2="217.1951917400572"/>
<line class="edge" x1="68.81543134162499" y1="217.34366034602766" x2="179.1021092505626" y2="328.642142639451"/>
<line class="edge" x1="71.65674403780164" y1="214.5281777652708" x2="181.94342194673925" y2="325.8266600586941"/>
<line class="edge" x1="179.78744781990875" y1="325.37447990872465" x2="49.26468222125782" y2="376.9765035174936"/>
<line class="edge" x1="181.2580833773931" y1="329.0943227894204" x2="50.73531777874218" y2="380.69634639818935"/>
<line class="edge" x1="421.5483421974237" y1="435.3418387940312" x2="467.0795394992787" y2="531.4632553201694"/>
<line class="edge" x1="425.16329355299786" y1="433.629493415075" x2="470.69449085485286" y2="529.7509099412133"/>
<!-- Node Halos -->
<circle class="background" cx="353.54131534569984" cy="273.6087689713322" r="12.0"/>
<circle class="background" cx="508.34738617200674" cy="232.1247892074199" r="12.0"/>
<circle class="background" cx="544.7723440134907" cy="104.63743676222597" r="12.0"/>
<circle class="background" cx="650.0" cy="277.65598650927484" r="12.0"/>
<circle class="background" cx="529.5952782462057" cy="337.35244519392916" r="12.0"/>
<circle class="background" cx="620.6576728499157" cy="414.2495784148398" r="12.0"/>
<circle class="background" cx="225.04215851602024" cy="195.69983136593592" r="12.0"/>
<circle class="background" cx="195.69983136593592" cy="61.12984822934233" r="12.0"/>
<circle class="background" cx="70.23608768971332" cy="215.93591905564924" r="12.0"/>
<circle class="background" cx="180.52276559865092" cy="327.2344013490725" r="12.0"/>
<circle class="background" cx="50.0" cy="378.8364249578415" r="12.0"/>
<circle class="background" cx="423.3558178752108" cy="434.4856661045531" r="12.0"/>
<circle class="background" cx="468.8870151770658" cy="530.6070826306914" r="12.0"/>
<circle class="background" cx="251.34907251264755" cy="50.0" r="12.0"/>
<circle class="background" cx="438.5328836424958" cy="75.29510961214166" r="12.0"/>
<circle class="background" cx="495.1939291736931" cy="408.1787521079258" r="12.0"/>
<!-- Stations -->
<circle class="station-500" cx="353.54131534569984" cy="273.6087689713322" r="10.0"/>
<circle class="station-220" cx="508.34738617200674" cy="232.1247892074199" r="10.0"/>
<circle class="station-220" cx="544.7723440134907" cy="104.63743676222597" r="10.0"/>
<circle class="station-220" cx="650.0" cy="277.65598650927484" r="10.0"/>
<circle class="station-220" cx="529.5952782462057" cy="337.35244519392916" r="10.0"/>
<circle class="station-220" cx="620.6576728499157" cy="414.2495784148398" r="10.0"/>
<circle class="station-220" cx="225.04215851602024" cy="195.69983136593592" r="10.0"/>
<circle class="station-220" cx="195.69983136593592" cy="61.12984822934233" r="10.0"/>
<circle class="station-220" cx="70.23608768971332" cy="215.93591905564924" r="10.0"/>
<circle class="station-220" cx="180.52276559865092" cy="327.2344013490725" r="10.0"/>
<circle class="station-220" cx="50.0" cy="378.8364249578415" r="10.0"/>
<circle class="station-220" cx="423.3558178752108" cy="434.4856661045531" r="10.0"/>
<circle class="station-220" cx="468.8870151770658" cy="530.6070826306914" r="10.0"/>
<circle class="station-220" cx="251.34907251264755" cy="50.0" r="10.0"/>
<circle class="station-220" cx="438.5328836424958" cy="75.29510961214166" r="10.0"/>
<circle class="station-220" cx="495.1939291736931" cy="408.1787521079258" r="10.0"/>
</svg>
