<?xml version="1.0" encoding="UTF-8"?>
<svg width="634.502458750391" height="700.0" viewBox="0 0 634.502458750391 700.0" xmlns="http://www.w3.org/2000/svg">
<defs>
  <style>
    .station-220 { fill: #2563eb; stroke: #1e40af; stroke-width: 2; }
    .station-500 { fill: #ef4444; stroke: #1e40af; stroke-width: 2; }
    .station-default { fill: #2563eb; stroke: #1e40af; stroke-width: 2; }
    .bend { fill: #111827; stroke: #111827; stroke-width: 1; }
    .dummy { fill: #8b4513; stroke: #8b4513; stroke-width: 1; }
    .inter { fill: #6b7280; stroke: #6b7280; stroke-width: 1; }
    .station-label { font-family: Arial, sans-serif; font-size: 8px; fill: white; text-anchor: middle; dominant-baseline: central; }
    .edge { stroke: #6b7280; stroke-width: 2; fill: none; }
    .background { fill: #f8fafc; }
  </style>
</defs>
<rect class="background" width="634.502458750391" height="700.0"/>
<!-- Edges -->
<line class="edge" x1="285.728788613137" y1="402.88607613851644" x2="349.13385572557956" y2="339.4810090260739"/>
<line class="edge" x1="282.9003614883908" y1="400.05764901377023" x2="346.30542860083335" y2="336.65258190132766"/>
<line class="edge" x1="285.0799419154941" y1="403.3196216411659" x2="450.76536686473145" y2="334.6904715396425"/>
<line class="edge" x1="283.5492081860337" y1="399.6241035111208" x2="449.23463313527105" y2="330.9949534095974"/>
<line class="edge" x1="282.9003614883908" y1="402.88607613851644" x2="394.8335660246913" y2="514.8192806748175"/>
<line class="edge" x1="285.728788613137" y1="400.05764901377023" x2="397.66199314943754" y2="511.9908535500713"/>
<line class="edge" x1="282.9003614883908" y1="400.05764901377023" x2="219.49529437594762" y2="463.4627161262134"/>
<line class="edge" x1="285.728788613137" y1="402.88607613851644" x2="222.32372150069384" y2="466.29114325095964"/>
<line class="edge" x1="282.3145750507639" y1="401.47186257614334" x2="282.3145750507639" y2="600.1141676423421"/>
<line class="edge" x1="286.3145750507639" y1="401.47186257614334" x2="286.3145750507639" y2="600.1141676423421"/>
<line class="edge" x1="285.728788613137" y1="400.05764901377023" x2="158.91865438825192" y2="273.24751478888516"/>
<line class="edge" x1="282.9003614883908" y1="402.88607613851644" x2="156.0902272635057" y2="276.07594191363137"/>
<line class="edge" x1="286.16233411578645" y1="400.70649571141314" x2="169.0050465904045" y2="117.86378323679384"/>
<line class="edge" x1="282.46681598574133" y1="402.23722944087353" x2="165.3095284603594" y2="119.3945169662542"/>
<line class="edge" x1="282.46681598574133" y1="402.2372294408735" x2="316.7813910365027" y2="485.0799419154928"/>
<line class="edge" x1="286.16233411578645" y1="400.7064957114132" x2="320.47690916654784" y2="483.5492081860325"/>
<line class="edge" x1="349.71964216320646" y1="338.06679546370077" x2="349.71964216320646" y2="85.91608542065777"/>
<line class="edge" x1="345.71964216320646" y1="338.06679546370077" x2="345.71964216320646" y2="85.91608542065777"/>
<line class="edge" x1="345.8718830981839" y1="86.68145228538795" x2="448.1522409349787" y2="333.6080793393501"/>
<line class="edge" x1="349.567401228229" y1="85.15071855592758" x2="451.8477590650238" y2="332.07734560988973"/>
<line class="edge" x1="492.9863938517757" y1="223.8381255806502" x2="448.1522409349787" y2="332.07734560988973"/>
<line class="edge" x1="496.6819119818208" y1="225.3688593101106" x2="451.8477590650238" y2="333.6080793393501"/>
<line class="edge" x1="492.9863938517757" y1="225.36885931011057" x2="537.8205467685714" y2="333.6080793393495"/>
<line class="edge" x1="496.6819119818208" y1="223.83812558065023" x2="541.5160648986166" y2="332.0773456098891"/>
<line class="edge" x1="494.83415291679825" y1="226.6034924453804" x2="584.502458750391" y2="226.6034924453804"/>
<line class="edge" x1="494.83415291679825" y1="222.6034924453804" x2="584.502458750391" y2="222.6034924453804"/>
<line class="edge" x1="537.8205467685714" y1="332.07734560988916" x2="477.24273299665987" y2="478.3251251969523"/>
<line class="edge" x1="541.5160648986166" y1="333.60807933934944" x2="480.938251126705" y2="479.85585892641257"/>
<line class="edge" x1="539.668305833594" y1="330.8427124746193" x2="450.00000000000125" y2="330.84271247461993"/>
<line class="edge" x1="539.668305833594" y1="334.8427124746193" x2="450.00000000000125" y2="334.84271247461993"/>
<line class="edge" x1="478.32512519695223" y1="477.24273299665987" x2="395.48241272233423" y2="511.5573080474218"/>
<line class="edge" x1="479.8558589264126" y1="480.938251126705" x2="397.0131464517946" y2="515.252826177467"/>
<line class="edge" x1="219.49529437594762" y1="463.4627161262134" x2="156.09022726350508" y2="526.8677832386559"/>
<line class="edge" x1="222.32372150069384" y1="466.29114325095964" x2="158.9186543882513" y2="529.6962103634021"/>
<line class="edge" x1="155.6566817608556" y1="529.0473636657591" x2="199.62410351112203" y2="635.1941095578336"/>
<line class="edge" x1="159.35219989090078" y1="527.5166299362988" x2="203.3196216411672" y2="633.6633758283733"/>
<line class="edge" x1="156.73907396114802" y1="526.4342377360064" x2="73.8963614865287" y2="560.7488127867679"/>
<line class="edge" x1="158.26980769060836" y1="530.1297558660516" x2="75.42709521598904" y2="564.4443309168131"/>
<line class="edge" x1="202.23722944087478" y1="636.2765017581261" x2="285.07994191549403" y2="601.9619267073647"/>
<line class="edge" x1="200.70649571141445" y1="632.5809836280808" x2="283.54920818603375" y2="598.2664085773195"/>
<line class="edge" x1="158.9186543882519" y1="273.24751478888516" x2="51.41421356237309" y2="165.74307396300694"/>
<line class="edge" x1="156.09022726350574" y1="276.07594191363137" x2="48.58578643762691" y2="168.57150108775315"/>
<line class="edge" x1="51.84775906502256" y1="167.92265439011027" x2="86.16233411578648" y2="85.07994191549224"/>
<line class="edge" x1="48.15224093497744" y1="166.39192066064982" x2="82.46681598574136" y2="83.54920818603179"/>
<line class="edge" x1="83.54920818603374" y1="86.16233411578459" x2="166.39192066065175" y2="120.47690916654659"/>
<line class="edge" x1="85.0799419154941" y1="82.46681598573944" x2="167.92265439011214" y2="116.78139103650145"/>
<line class="edge" x1="85.07994191549413" y1="86.16233411578457" x2="167.9226543901096" y2="51.847759065022565"/>
<line class="edge" x1="83.54920818603371" y1="82.46681598573946" x2="166.39192066064922" y2="48.152240934977435"/>
<line class="edge" x1="316.7813910365027" y1="485.07994191549284" x2="351.0959660872641" y2="567.9226543901115"/>
<line class="edge" x1="320.47690916654784" y1="483.54920818603244" x2="354.79148421730923" y2="566.3919206606512"/>
<line class="edge" x1="351.0959660872641" y1="566.3919206606512" x2="316.7813910365021" y2="649.2346331352699"/>
<line class="edge" x1="354.79148421730923" y1="567.9226543901115" x2="320.4769091665472" y2="650.7653668647301"/>
<!-- Node Halos -->
<circle class="background" cx="284.3145750507639" cy="401.47186257614334" r="12.0"/>
<circle class="background" cx="347.71964216320646" cy="338.06679546370077" r="12.0"/>
<circle class="background" cx="347.71964216320646" cy="85.91608542065777" r="12.0"/>
<circle class="background" cx="494.83415291679825" cy="224.6034924453804" r="12.0"/>
<circle class="background" cx="539.668305833594" cy="332.8427124746193" r="12.0"/>
<circle class="background" cx="479.0904920616824" cy="479.0904920616824" r="12.0"/>
<circle class="background" cx="396.24777958706443" cy="513.4050671124444" r="12.0"/>
<circle class="background" cx="450.00000000000125" cy="332.84271247461993" r="12.0"/>
<circle class="background" cx="220.90950793832073" cy="464.87692968858653" r="12.0"/>
<circle class="background" cx="157.5044408258782" cy="528.281996801029" r="12.0"/>
<circle class="background" cx="201.47186257614462" cy="634.4287426931035" r="12.0"/>
<circle class="background" cx="284.3145750507639" cy="600.1141676423421" r="12.0"/>
<circle class="background" cx="157.50444082587882" cy="274.66172835125826" r="12.0"/>
<circle class="background" cx="50.0" cy="167.15728752538004" r="12.0"/>
<circle class="background" cx="84.31457505076392" cy="84.31457505076202" r="12.0"/>
<circle class="background" cx="167.15728752538195" cy="118.62915010152402" r="12.0"/>
<circle class="background" cx="318.6291501015253" cy="484.31457505076264" r="12.0"/>
<circle class="background" cx="352.9437251522867" cy="567.1572875253813" r="12.0"/>
<circle class="background" cx="318.62915010152466" cy="650.0" r="12.0"/>
<circle class="background" cx="584.502458750391" cy="224.6034924453804" r="12.0"/>
<circle class="background" cx="74.66172835125887" cy="562.5965718517905" r="12.0"/>
<circle class="background" cx="167.15728752537942" cy="50.0" r="12.0"/>
<!-- Stations -->
<circle class="station-500" cx="284.3145750507639" cy="401.47186257614334" r="10.0"/>
<circle class="station-220" cx="347.71964216320646" cy="338.06679546370077" r="10.0"/>
<circle class="station-220" cx="347.71964216320646" cy="85.91608542065777" r="10.0"/>
<circle class="station-220" cx="494.83415291679825" cy="224.6034924453804" r="10.0"/>
<circle class="station-220" cx="539.668305833594" cy="332.8427124746193" r="10.0"/>
<circle class="station-220" cx="479.0904920616824" cy="479.0904920616824" r="10.0"/>
<circle class="station-220" cx="396.24777958706443" cy="513.4050671124444" r="10.0"/>
<circle class="station-220" cx="450.00000000000125" cy="332.84271247461993" r="10.0"/>
<circle class="station-220" cx="220.90950793832073" cy="464.87692968858653" r="10.0"/>
<circle class="station-220" cx="157.5044408258782" cy="528.281996801029" r="10.0"/>
<circle class="station-220" cx="201.47186257614462" cy="634.4287426931035" r="10.0"/>
<circle class="station-220" cx="284.3145750507639" cy="600.1141676423421" r="10.0"/>
<circle class="station-220" cx="157.50444082587882" cy="274.66172835125826" r="10.0"/>
<circle class="station-220" cx="50.0" cy="167.15728752538004" r="10.0"/>
<circle class="station-220" cx="84.31457505076392" cy="84.31457505076202" r="10.0"/>
<circle class="station-220" cx="167.15728752538195" cy="118.62915010152402" r="10.0"/>
<circle class="station-220" cx="318.6291501015253" cy="484.31457505076264" r="10.0"/>
<circle class="station-220" cx="352.9437251522867" cy="567.1572875253813" r="10.0"/>
<circle class="station-220" cx="318.62915010152466" cy="650.0" r="10.0"/>
<circle class="station-220" cx="584.502458750391" cy="224.6034924453804" r="10.0"/>
<circle class="station-220" cx="74.66172835125887" cy="562.5965718517905" r="10.0"/>
<circle class="station-220" cx="167.15728752537942" cy="50.0" r="10.0"/>
</svg>
