<?xml version="1.0" encoding="UTF-8"?>
<svg width="689.0" height="763.0" viewBox="0 0 689.0 763.0" xmlns="http://www.w3.org/2000/svg">
<defs>
  <style>
    .station-220 { fill: #2563eb; stroke: #1e40af; stroke-width: 2; }
    .station-500 { fill: #ef4444; stroke: #1e40af; stroke-width: 2; }
    .station-default { fill: #2563eb; stroke: #1e40af; stroke-width: 2; }
    .bend { fill: #111827; stroke: #111827; stroke-width: 1; }
    .dummy { fill: #8b4513; stroke: #8b4513; stroke-width: 1; }
    .inter { fill: #6b7280; stroke: #6b7280; stroke-width: 1; }
    .station-label { font-family: Arial, sans-serif; font-size: 8px; fill: white; text-anchor: middle; dominant-baseline: central; }
    .edge { stroke: #6b7280; stroke-width: 2; fill: none; }
    .background { fill: #f8fafc; }
  </style>
</defs>
<rect class="background" width="689.0" height="763.0"/>
<!-- Edges -->
<line class="edge" x1="334.4461246911481" y1="366.38156555315044" x2="441.4461246911481" y2="254.3815655531504"/>
<line class="edge" x1="331.5538753088519" y1="363.61843444684956" x2="438.5538753088519" y2="251.6184344468496"/>
<line class="edge" x1="333.8411632920607" y1="366.81450938715943" x2="484.8411632920607" y2="296.81450938715943"/>
<line class="edge" x1="332.1588367079393" y1="363.18549061284057" x2="483.1588367079393" y2="293.18549061284057"/>
<line class="edge" x1="331.681893284132" y1="366.50419236987284" x2="428.681893284132" y2="451.50419236987284"/>
<line class="edge" x1="334.318106715868" y1="363.49580763012716" x2="431.318106715868" y2="448.49580763012716"/>
<line class="edge" x1="331.56351955442165" y1="363.60840956834596" x2="207.56351955442165" y2="491.60840956834596"/>
<line class="edge" x1="334.43648044557835" y1="366.39159043165404" x2="210.43648044557835" y2="494.39159043165404"/>
<line class="edge" x1="331.0278428171913" y1="364.6674401613303" x2="288.0278428171913" y2="619.6674401613303"/>
<line class="edge" x1="334.9721571828087" y1="365.3325598386697" x2="291.9721571828087" y2="620.3325598386697"/>
<line class="edge" x1="334.1572575523037" y1="363.36881792627673" x2="186.15725755230366" y2="258.36881792627673"/>
<line class="edge" x1="331.8427424476963" y1="366.63118207372327" x2="183.84274244769634" y2="261.63118207372327"/>
<line class="edge" x1="334.798921026998" y1="364.1259959161283" x2="231.79892102699802" y2="152.12599591612832"/>
<line class="edge" x1="331.201078973002" y1="365.8740040838717" x2="228.20107897300198" y2="153.87400408387168"/>
<line class="edge" x1="331.0262508342045" y1="365.3229771362211" x2="358.0262508342045" y2="530.3229771362211"/>
<line class="edge" x1="334.9737491657955" y1="364.6770228637789" x2="361.9737491657955" y2="529.6770228637789"/>
<line class="edge" x1="441.85239678965075" y1="252.24592697058466" x2="395.85239678965075" y2="139.24592697058466"/>
<line class="edge" x1="438.14760321034925" y1="253.75407302941534" x2="392.14760321034925" y2="140.75407302941534"/>
<line class="edge" x1="392.27042210677985" y1="141.004271034773" x2="482.27042210677985" y2="296.004271034773"/>
<line class="edge" x1="395.72957789322015" y1="138.995728965227" x2="485.72957789322015" y2="293.995728965227"/>
<line class="edge" x1="533.159338163083" y1="174.21771871931028" x2="482.1593381630831" y2="294.2177187193103"/>
<line class="edge" x1="536.840661836917" y1="175.78228128068972" x2="485.8406618369169" y2="295.7822812806897"/>
<line class="edge" x1="533.1199708749735" y1="175.68226863408216" x2="578.1199708749735" y2="299.68226863408216"/>
<line class="edge" x1="536.8800291250265" y1="174.31773136591784" x2="581.8800291250265" y2="298.31773136591784"/>
<line class="edge" x1="535.2855071900736" y1="176.97951651784376" x2="639.2855071900736" y2="161.97951651784376"/>
<line class="edge" x1="534.7144928099264" y1="173.02048348215624" x2="638.7144928099264" y2="158.02048348215624"/>
<line class="edge" x1="578.2048913471252" y1="298.1181922406931" x2="522.2048913471252" y2="412.1181922406931"/>
<line class="edge" x1="581.7951086528748" y1="299.8818077593069" x2="525.7951086528748" y2="413.8818077593069"/>
<line class="edge" x1="580.0832610894244" y1="297.0017338538153" x2="484.08326108942435" y2="293.0017338538153"/>
<line class="edge" x1="579.9167389105756" y1="300.9982661461847" x2="483.91673891057565" y2="296.9982661461847"/>
<line class="edge" x1="523.2674703377838" y1="411.1389786959915" x2="429.2674703377839" y2="448.1389786959915"/>
<line class="edge" x1="524.7325296622162" y1="414.8610213040085" x2="430.7325296622161" y2="451.8610213040085"/>
<line class="edge" x1="207.41879467704052" y1="491.77534097535494" x2="128.41879467704052" y2="593.7753409753549"/>
<line class="edge" x1="210.58120532295948" y1="494.22465902464506" x2="131.58120532295948" y2="596.2246590246451"/>
<line class="edge" x1="128.40225846172078" y1="596.2030053935279" x2="192.40225846172078" y2="681.2030053935279"/>
<line class="edge" x1="131.59774153827922" y1="593.7969946064721" x2="195.59774153827922" y2="678.7969946064721"/>
<line class="edge" x1="129.10557280900008" y1="593.2111456180002" x2="49.10557280900009" y2="633.2111456180002"/>
<line class="edge" x1="130.89442719099992" y1="596.7888543819998" x2="50.89442719099991" y2="636.7888543819998"/>
<line class="edge" x1="195.05999788000636" y1="681.6959966080102" x2="291.05999788000634" y2="621.6959966080102"/>
<line class="edge" x1="192.94000211999364" y1="678.3040033919898" x2="288.94000211999366" y2="618.3040033919898"/>
<line class="edge" x1="186.16581575090345" y1="258.37492349874066" x2="94.16581575090346" y2="192.37492349874063"/>
<line class="edge" x1="183.83418424909655" y1="261.62507650125934" x2="91.83418424909654" y2="195.62507650125937"/>
<line class="edge" x1="94.87630458544" y1="194.69244573986475" x2="125.87630458544" y2="110.69244573986477"/>
<line class="edge" x1="91.12369541456" y1="193.30755426013525" x2="122.12369541456" y2="109.30755426013523"/>
<line class="edge" x1="123.24818395895537" y1="111.85331396164491" x2="229.24818395895537" y2="154.85331396164491"/>
<line class="edge" x1="124.75181604104463" y1="108.14668603835509" x2="230.75181604104463" y2="151.14668603835509"/>
<line class="edge" x1="124.73853495860394" y1="111.85864631248656" x2="275.7385349586039" y2="51.85864631248656"/>
<line class="edge" x1="123.26146504139606" y1="108.14135368751344" x2="274.2614650413961" y2="48.14135368751344"/>
<line class="edge" x1="358.15268540635907" y1="530.7664390335319" x2="397.15268540635907" y2="624.7664390335319"/>
<line class="edge" x1="361.84731459364093" y1="529.2335609664681" x2="400.84731459364093" y2="623.2335609664681"/>
<line class="edge" x1="397.3072167716054" y1="622.9348779686505" x2="341.3072167716054" y2="711.9348779686505"/>
<line class="edge" x1="400.6927832283946" y1="625.0651220313495" x2="344.6927832283946" y2="714.0651220313495"/>
<!-- Node Halos -->
<circle class="background" cx="333.0" cy="365.0" r="12.0"/>
<circle class="background" cx="440.0" cy="253.0" r="12.0"/>
<circle class="background" cx="394.0" cy="140.0" r="12.0"/>
<circle class="background" cx="535.0" cy="175.0" r="12.0"/>
<circle class="background" cx="580.0" cy="299.0" r="12.0"/>
<circle class="background" cx="524.0" cy="413.0" r="12.0"/>
<circle class="background" cx="430.0" cy="450.0" r="12.0"/>
<circle class="background" cx="484.0" cy="295.0" r="12.0"/>
<circle class="background" cx="209.0" cy="493.0" r="12.0"/>
<circle class="background" cx="130.0" cy="595.0" r="12.0"/>
<circle class="background" cx="194.0" cy="680.0" r="12.0"/>
<circle class="background" cx="290.0" cy="620.0" r="12.0"/>
<circle class="background" cx="185.0" cy="260.0" r="12.0"/>
<circle class="background" cx="93.0" cy="194.0" r="12.0"/>
<circle class="background" cx="124.0" cy="110.0" r="12.0"/>
<circle class="background" cx="230.0" cy="153.0" r="12.0"/>
<circle class="background" cx="360.0" cy="530.0" r="12.0"/>
<circle class="background" cx="399.0" cy="624.0" r="12.0"/>
<circle class="background" cx="343.0" cy="713.0" r="12.0"/>
<circle class="background" cx="639.0" cy="160.0" r="12.0"/>
<circle class="background" cx="50.0" cy="635.0" r="12.0"/>
<circle class="background" cx="275.0" cy="50.0" r="12.0"/>
<!-- Stations -->
<circle class="station-500" cx="333.0" cy="365.0" r="10.0"/>
<circle class="station-220" cx="440.0" cy="253.0" r="10.0"/>
<circle class="station-220" cx="394.0" cy="140.0" r="10.0"/>
<circle class="station-220" cx="535.0" cy="175.0" r="10.0"/>
<circle class="station-220" cx="580.0" cy="299.0" r="10.0"/>
<circle class="station-220" cx="524.0" cy="413.0" r="10.0"/>
<circle class="station-220" cx="430.0" cy="450.0" r="10.0"/>
<circle class="station-220" cx="484.0" cy="295.0" r="10.0"/>
<circle class="station-220" cx="209.0" cy="493.0" r="10.0"/>
<circle class="station-220" cx="130.0" cy="595.0" r="10.0"/>
<circle class="station-220" cx="194.0" cy="680.0" r="10.0"/>
<circle class="station-220" cx="290.0" cy="620.0" r="10.0"/>
<circle class="station-220" cx="185.0" cy="260.0" r="10.0"/>
<circle class="station-220" cx="93.0" cy="194.0" r="10.0"/>
<circle class="station-220" cx="124.0" cy="110.0" r="10.0"/>
<circle class="station-220" cx="230.0" cy="153.0" r="10.0"/>
<circle class="station-220" cx="360.0" cy="530.0" r="10.0"/>
<circle class="station-220" cx="399.0" cy="624.0" r="10.0"/>
<circle class="station-220" cx="343.0" cy="713.0" r="10.0"/>
<circle class="station-220" cx="639.0" cy="160.0" r="10.0"/>
<circle class="station-220" cx="50.0" cy="635.0" r="10.0"/>
<circle class="station-220" cx="275.0" cy="50.0" r="10.0"/>
</svg>
