<?xml version="1.0" encoding="UTF-8"?>
<svg width="406.5633597880501" height="700.0" viewBox="0 0 406.5633597880501 700.0" xmlns="http://www.w3.org/2000/svg">
<defs>
  <style>
    .station-220 { fill: #2563eb; stroke: #1e40af; stroke-width: 2; }
    .station-500 { fill: #ef4444; stroke: #1e40af; stroke-width: 2; }
    .station-default { fill: #2563eb; stroke: #1e40af; stroke-width: 2; }
    .bend { fill: #111827; stroke: #111827; stroke-width: 1; }
    .dummy { fill: #8b4513; stroke: #8b4513; stroke-width: 1; }
    .inter { fill: #6b7280; stroke: #6b7280; stroke-width: 1; }
    .station-label { font-family: Arial, sans-serif; font-size: 8px; fill: white; text-anchor: middle; dominant-baseline: central; }
    .edge { stroke: #6b7280; stroke-width: 2; fill: none; }
    .background { fill: #f8fafc; }
  </style>
</defs>
<rect class="background" width="406.5633597880501" height="700.0"/>
<!-- Edges -->
<line class="edge" x1="167.83334676988164" y1="360.5407247831591" x2="262.90546006015154" y2="265.4686114928892"/>
<line class="edge" x1="165.00491964513543" y1="357.71229765841287" x2="260.0770329354053" y2="262.64018436814297"/>
<line class="edge" x1="168.41913320750854" y1="359.12651122078597" x2="168.41913320750854" y2="314.3090872145964"/>
<line class="edge" x1="164.41913320750854" y1="359.12651122078597" x2="164.41913320750854" y2="314.3090872145964"/>
<line class="edge" x1="165.00491964513543" y1="360.5407247831591" x2="265.35881700708705" y2="460.8946221451107"/>
<line class="edge" x1="167.83334676988164" y1="357.71229765841287" x2="268.18724413183327" y2="458.0661950203645"/>
<line class="edge" x1="164.41913320750854" y1="359.12651122078597" x2="164.41913320750854" y2="568.3655686982459"/>
<line class="edge" x1="168.41913320750854" y1="359.12651122078597" x2="168.41913320750854" y2="568.3655686982459"/>
<line class="edge" x1="260.0770329354054" y1="265.4686114928892" x2="286.4859532938148" y2="291.8775318512977"/>
<line class="edge" x1="262.9054600601515" y1="262.64018436814297" x2="289.3143804185609" y2="289.0491047265515"/>
<line class="edge" x1="289.314380418561" y1="291.8775318512977" x2="331.56865299201377" y2="249.62325927784488"/>
<line class="edge" x1="286.48595329381476" y1="289.0491047265515" x2="328.74022586726755" y2="246.79483215309867"/>
<line class="edge" x1="332.15443942964066" y1="248.2090457154718" x2="332.15443942964237" y2="128.69591503229654"/>
<line class="edge" x1="328.15443942964066" y1="248.20904571547175" x2="328.15443942964237" y2="128.69591503229648"/>
<line class="edge" x1="331.5686529920154" y1="127.28170146992339" x2="305.1597326336069" y2="100.87278111151569"/>
<line class="edge" x1="328.7402258672693" y1="130.11012859466962" x2="302.3313055088608" y2="103.70120823626193"/>
<line class="edge" x1="331.5686529920155" y1="130.11012859466962" x2="357.9775733504232" y2="103.7012082362619"/>
<line class="edge" x1="328.74022586726926" y1="127.28170146992342" x2="355.149146225677" y2="100.87278111151572"/>
<line class="edge" x1="355.14914622567704" y1="48.58578643762688" x2="328.7402258672676" y2="74.99470679603543"/>
<line class="edge" x1="357.97757335042314" y1="51.41421356237312" x2="331.5686529920137" y2="77.82313392078167"/>
<line class="edge" x1="354.5633597880501" y1="50.0" x2="354.5633597880501" y2="102.28699467388881"/>
<line class="edge" x1="358.5633597880501" y1="50.0" x2="358.5633597880501" y2="102.28699467388881"/>
<line class="edge" x1="330.15443942964066" y1="74.40892035840855" x2="180.9829097061853" y2="74.40892035840855"/>
<line class="edge" x1="330.15443942964066" y1="78.40892035840855" x2="180.9829097061853" y2="78.40892035840855"/>
<line class="edge" x1="179.5686961438122" y1="74.99470679603546" x2="153.15977578540452" y2="101.40362715444316"/>
<line class="edge" x1="182.3971232685584" y1="77.82313392078164" x2="155.98820291015073" y2="104.23205427918934"/>
<line class="edge" x1="153.15977578540452" y1="101.40362715444316" x2="83.21500713717309" y2="171.3483958026746"/>
<line class="edge" x1="155.98820291015073" y1="104.23205427918934" x2="86.04343426191927" y2="174.1768229274208"/>
<line class="edge" x1="154.57398934777763" y1="100.81784071681625" x2="50.0" y2="100.81784071681625"/>
<line class="edge" x1="154.57398934777763" y1="104.81784071681625" x2="50.0" y2="104.81784071681625"/>
<line class="edge" x1="84.62922069954618" y1="174.7626093650477" x2="129.44664470573656" y2="174.7626093650477"/>
<line class="edge" x1="84.62922069954618" y1="170.7626093650477" x2="129.44664470573656" y2="170.7626093650477"/>
<line class="edge" x1="127.44664470573656" y1="172.7626093650477" x2="127.44664470573656" y2="277.3365987128253"/>
<line class="edge" x1="131.44664470573656" y1="172.7626093650477" x2="131.44664470573656" y2="277.3365987128253"/>
<line class="edge" x1="128.03243114336348" y1="278.7508122751984" x2="165.00491964513546" y2="315.7233007769695"/>
<line class="edge" x1="130.86085826810964" y1="275.9223851504522" x2="167.83334676988162" y2="312.8948736522233"/>
<line class="edge" x1="266.77303056946016" y1="461.4804085827376" x2="304.12088390795304" y2="461.4804085827376"/>
<line class="edge" x1="266.77303056946016" y1="457.4804085827376" x2="304.12088390795304" y2="457.4804085827376"/>
<line class="edge" x1="302.12088390795304" y1="459.4804085827376" x2="302.12088390795304" y2="549.1152565951184"/>
<line class="edge" x1="306.12088390795304" y1="459.4804085827376" x2="306.12088390795304" y2="549.1152565951184"/>
<line class="edge" x1="302.70667034557994" y1="458.0661950203645" x2="112.18707892831836" y2="648.5857864376269"/>
<line class="edge" x1="305.53509747032615" y1="460.8946221451107" x2="115.01550605306454" y2="651.4142135623731"/>
<line class="edge" x1="112.18707892831836" y1="516.9619415438019" x2="165.00491964513543" y2="569.779782260619"/>
<line class="edge" x1="115.01550605306454" y1="514.1335144190557" x2="167.83334676988164" y2="566.9513551358727"/>
<line class="edge" x1="111.60129249069145" y1="515.5477279814288" x2="111.60129249069145" y2="650.0"/>
<line class="edge" x1="115.60129249069145" y1="515.5477279814288" x2="115.60129249069145" y2="650.0"/>
<line class="edge" x1="165.00491964513543" y1="566.9513551358727" x2="128.03243114336345" y2="603.9238436376447"/>
<line class="edge" x1="167.83334676988164" y1="569.779782260619" x2="130.86085826810967" y2="606.7522707623909"/>
<!-- Node Halos -->
<circle class="background" cx="166.41913320750854" cy="359.12651122078597" r="12.0"/>
<circle class="background" cx="261.49124649777843" cy="264.0543979305161" r="12.0"/>
<circle class="background" cx="287.90016685618787" cy="290.4633182889246" r="12.0"/>
<circle class="background" cx="330.15443942964066" cy="248.20904571547177" r="12.0"/>
<circle class="background" cx="330.15443942964237" cy="128.6959150322965" r="12.0"/>
<circle class="background" cx="356.5633597880501" cy="50.0" r="12.0"/>
<circle class="background" cx="330.15443942964066" cy="76.40892035840855" r="12.0"/>
<circle class="background" cx="180.9829097061853" cy="76.40892035840855" r="12.0"/>
<circle class="background" cx="154.57398934777763" cy="102.81784071681625" r="12.0"/>
<circle class="background" cx="84.62922069954618" cy="172.7626093650477" r="12.0"/>
<circle class="background" cx="129.44664470573656" cy="172.7626093650477" r="12.0"/>
<circle class="background" cx="129.44664470573656" cy="277.3365987128253" r="12.0"/>
<circle class="background" cx="166.41913320750854" cy="314.3090872145964" r="12.0"/>
<circle class="background" cx="266.77303056946016" cy="459.4804085827376" r="12.0"/>
<circle class="background" cx="304.12088390795304" cy="459.4804085827376" r="12.0"/>
<circle class="background" cx="113.60129249069145" cy="515.5477279814288" r="12.0"/>
<circle class="background" cx="166.41913320750854" cy="568.3655686982459" r="12.0"/>
<circle class="background" cx="303.74551907123384" cy="102.28699467388881" r="12.0"/>
<circle class="background" cx="50.0" cy="102.81784071681625" r="12.0"/>
<circle class="background" cx="304.12088390795304" cy="549.1152565951184" r="12.0"/>
<circle class="background" cx="129.44664470573656" cy="605.3380572000178" r="12.0"/>
<circle class="background" cx="113.60129249069145" cy="650.0" r="5.5"/>
<circle class="background" cx="356.5633597880501" cy="102.28699467388881" r="5.5"/>
<!-- Stations -->
<circle class="station-500" cx="166.41913320750854" cy="359.12651122078597" r="10.0"/>
<circle class="station-220" cx="261.49124649777843" cy="264.0543979305161" r="10.0"/>
<circle class="station-220" cx="287.90016685618787" cy="290.4633182889246" r="10.0"/>
<circle class="station-220" cx="330.15443942964066" cy="248.20904571547177" r="10.0"/>
<circle class="station-220" cx="330.15443942964237" cy="128.6959150322965" r="10.0"/>
<circle class="station-220" cx="356.5633597880501" cy="50.0" r="10.0"/>
<circle class="station-220" cx="330.15443942964066" cy="76.40892035840855" r="10.0"/>
<circle class="station-220" cx="180.9829097061853" cy="76.40892035840855" r="10.0"/>
<circle class="station-220" cx="154.57398934777763" cy="102.81784071681625" r="10.0"/>
<circle class="station-220" cx="84.62922069954618" cy="172.7626093650477" r="10.0"/>
<circle class="station-220" cx="129.44664470573656" cy="172.7626093650477" r="10.0"/>
<circle class="station-220" cx="129.44664470573656" cy="277.3365987128253" r="10.0"/>
<circle class="station-220" cx="166.41913320750854" cy="314.3090872145964" r="10.0"/>
<circle class="station-220" cx="266.77303056946016" cy="459.4804085827376" r="10.0"/>
<circle class="station-220" cx="304.12088390795304" cy="459.4804085827376" r="10.0"/>
<circle class="station-220" cx="113.60129249069145" cy="515.5477279814288" r="10.0"/>
<circle class="station-220" cx="166.41913320750854" cy="568.3655686982459" r="10.0"/>
<circle class="station-220" cx="303.74551907123384" cy="102.28699467388881" r="10.0"/>
<circle class="station-220" cx="50.0" cy="102.81784071681625" r="10.0"/>
<circle class="station-220" cx="304.12088390795304" cy="549.1152565951184" r="10.0"/>
<circle class="station-220" cx="129.44664470573656" cy="605.3380572000178" r="10.0"/>
<circle class="inter" cx="113.60129249069145" cy="650.0" r="5.0"/>
<text class="station-label" x="113.60129249069145" y="650.0">I0</text>
<circle class="inter" cx="356.5633597880501" cy="102.28699467388881" r="5.0"/>
<text class="station-label" x="356.5633597880501" y="102.28699467388881">I1</text>
</svg>
