<?xml version="1.0" encoding="UTF-8"?>
<svg width="529.8197752233496" height="700.0" viewBox="0 0 529.8197752233496 700.0" xmlns="http://www.w3.org/2000/svg">
<defs>
  <style>
    .station-220 { fill: #2563eb; stroke: #1e40af; stroke-width: 2; }
    .station-500 { fill: #ef4444; stroke: #1e40af; stroke-width: 2; }
    .station-default { fill: #2563eb; stroke: #1e40af; stroke-width: 2; }
    .bend { fill: #111827; stroke: #111827; stroke-width: 1; }
    .dummy { fill: #8b4513; stroke: #8b4513; stroke-width: 1; }
    .inter { fill: #6b7280; stroke: #6b7280; stroke-width: 1; }
    .station-label { font-family: Arial, sans-serif; font-size: 8px; fill: white; text-anchor: middle; dominant-baseline: central; }
    .edge { stroke: #6b7280; stroke-width: 2; fill: none; }
    .background { fill: #f8fafc; }
  </style>
</defs>
<rect class="background" width="529.8197752233496" height="700.0"/>
<!-- Edges -->
<line class="edge" x1="282.6464490192736" y1="368.0868213608462" x2="377.08891308644894" y2="273.64435729367176"/>
<line class="edge" x1="279.81802189452736" y1="365.2583942361" x2="374.2604859617027" y2="270.81593016892555"/>
<line class="edge" x1="283.23223545690047" y1="366.6726077984731" x2="283.23223545690047" y2="322.1520032825616"/>
<line class="edge" x1="279.23223545690047" y1="366.6726077984731" x2="279.23223545690047" y2="322.1520032825616"/>
<line class="edge" x1="279.81802189452736" y1="368.08682136084616" x2="379.5072895209877" y2="467.77608898731154"/>
<line class="edge" x1="282.6464490192736" y1="365.25839423610006" x2="382.3357166457339" y2="464.94766186256544"/>
<line class="edge" x1="279.81802189452736" y1="365.2583942361" x2="85.3134113526387" y2="559.7630047779887"/>
<line class="edge" x1="282.6464490192736" y1="368.0868213608462" x2="88.14183847738488" y2="562.5914319027349"/>
<line class="edge" x1="374.26048596170267" y1="273.6443572936717" x2="400.4945037581326" y2="299.87837509010336"/>
<line class="edge" x1="377.088913086449" y1="270.8159301689256" x2="403.32293088287895" y2="297.04994796535726"/>
<line class="edge" x1="403.32293088287867" y1="299.87837509010365" x2="445.29735935719066" y2="257.90394661580433"/>
<line class="edge" x1="400.4945037581329" y1="297.049947965357" x2="442.4689322324449" y2="255.0755194910577"/>
<line class="edge" x1="445.8831457948178" y1="256.489733053431" x2="445.8831457948178" y2="137.76812101100256"/>
<line class="edge" x1="441.8831457948178" y1="256.489733053431" x2="441.8831457948178" y2="137.76812101100256"/>
<line class="edge" x1="445.2973593571908" y1="136.35390744862946" x2="419.0633415607532" y2="110.1198896521927"/>
<line class="edge" x1="442.46893223244473" y1="139.18233457337567" x2="416.2349144360071" y2="112.94831677693894"/>
<line class="edge" x1="445.297359357191" y1="139.18233457337553" x2="481.2339887857227" y2="103.24570514483709"/>
<line class="edge" x1="442.46893223244456" y1="136.3539074486296" x2="478.4055616609763" y2="100.41727802009116"/>
<line class="edge" x1="425.9882836408845" y1="49.99999999999977" x2="425.9882836408803" y2="87.10050376325866"/>
<line class="edge" x1="429.9882836408845" y1="50.00000000000023" x2="429.9882836408803" y2="87.10050376325911"/>
<line class="edge" x1="426.5740700785114" y1="51.41421356237311" x2="478.4055616609764" y2="103.24570514483723"/>
<line class="edge" x1="429.4024972032576" y1="48.58578643762689" x2="481.2339887857226" y2="100.41727802009102"/>
<line class="edge" x1="427.9882836408803" y1="85.10050376325889" x2="294.4264700931483" y2="85.10050376325889"/>
<line class="edge" x1="427.9882836408803" y1="89.10050376325889" x2="294.4264700931483" y2="89.10050376325889"/>
<line class="edge" x1="293.01225653077546" y1="85.68629020088554" x2="266.7782387343387" y2="111.920307997313"/>
<line class="edge" x1="295.8406836555211" y1="88.51471732563223" x2="269.60666585908433" y2="114.7487351220597"/>
<line class="edge" x1="266.7782387343384" y1="111.92030799731326" x2="198.56979246360154" y2="180.12875426805016"/>
<line class="edge" x1="269.6066658590846" y1="114.74873512205944" x2="201.39821958834776" y2="182.95718139279637"/>
<line class="edge" x1="268.1924522967115" y1="111.33452155968635" x2="164.31104175958666" y2="111.33452155968635"/>
<line class="edge" x1="268.1924522967115" y1="115.33452155968635" x2="164.31104175958666" y2="115.33452155968635"/>
<line class="edge" x1="199.98400602597462" y1="183.54296783042327" x2="244.50461054188528" y2="183.54296783042412"/>
<line class="edge" x1="199.98400602597468" y1="179.54296783042327" x2="244.50461054188534" y2="179.54296783042412"/>
<line class="edge" x1="242.5046105418853" y1="181.54296783042412" x2="242.5046105418853" y2="285.424378367549"/>
<line class="edge" x1="246.5046105418853" y1="181.54296783042412" x2="246.5046105418853" y2="285.424378367549"/>
<line class="edge" x1="243.09039697951226" y1="286.8385919299222" x2="279.8180218945274" y2="323.5662168449348"/>
<line class="edge" x1="245.91882410425836" y1="284.01016480517586" x2="282.6464490192735" y2="320.73778972018846"/>
<line class="edge" x1="379.50728952098757" y1="467.7760889873115" x2="405.7413073174193" y2="494.0101067837474"/>
<line class="edge" x1="382.335716645734" y1="464.9476618625655" x2="408.5697344421657" y2="491.1816796590014"/>
<line class="edge" x1="405.1555208797925" y1="492.5958932213744" x2="405.1555208797925" y2="581.6371022531957"/>
<line class="edge" x1="409.1555208797925" y1="492.5958932213744" x2="409.1555208797925" y2="581.6371022531957"/>
<line class="edge" x1="405.7413073174194" y1="491.1816796590013" x2="248.3372005387913" y2="648.5857864376269"/>
<line class="edge" x1="408.5697344421656" y1="494.0101067837475" x2="251.16562766353746" y2="651.4142135623731"/>
<line class="edge" x1="84.72762491501516" y1="486.9762108138439" x2="84.72762491501179" y2="561.1772183403617"/>
<line class="edge" x1="88.72762491501516" y1="486.97621081384415" x2="88.72762491501179" y2="561.177218340362"/>
<line class="edge" x1="85.31341135264204" y1="488.3904243762171" x2="248.33720053879125" y2="651.4142135623731"/>
<line class="edge" x1="88.14183847738828" y1="485.561997251471" x2="251.16562766353752" y2="648.5857864376269"/>
<line class="edge" x1="85.31341135263868" y1="559.7630047779887" x2="48.585786437626886" y2="596.4906296930013"/>
<line class="edge" x1="88.1418384773849" y1="562.5914319027349" x2="51.414213562373114" y2="599.3190568177475"/>
<!-- Node Halos -->
<circle class="background" cx="281.23223545690047" cy="366.6726077984731" r="12.0"/>
<circle class="background" cx="375.67469952407583" cy="272.23014373129865" r="12.0"/>
<circle class="background" cx="401.9087173205058" cy="298.4641615277303" r="12.0"/>
<circle class="background" cx="443.8831457948178" cy="256.489733053431" r="12.0"/>
<circle class="background" cx="443.8831457948178" cy="137.76812101100256" r="12.0"/>
<circle class="background" cx="427.9882836408845" cy="50.0" r="12.0"/>
<circle class="background" cx="427.9882836408803" cy="87.10050376325889" r="12.0"/>
<circle class="background" cx="294.4264700931483" cy="87.10050376325889" r="12.0"/>
<circle class="background" cx="268.1924522967115" cy="113.33452155968635" r="12.0"/>
<circle class="background" cx="199.98400602597465" cy="181.54296783042327" r="12.0"/>
<circle class="background" cx="244.5046105418853" cy="181.54296783042412" r="12.0"/>
<circle class="background" cx="244.5046105418853" cy="285.424378367549" r="12.0"/>
<circle class="background" cx="281.23223545690047" cy="322.1520032825616" r="12.0"/>
<circle class="background" cx="380.9215030833608" cy="466.3618754249385" r="12.0"/>
<circle class="background" cx="407.1555208797925" cy="492.5958932213744" r="12.0"/>
<circle class="background" cx="86.72762491501516" cy="486.97621081384403" r="12.0"/>
<circle class="background" cx="86.72762491501179" cy="561.1772183403618" r="12.0"/>
<circle class="background" cx="417.64912799838015" cy="111.53410321456582" r="12.0"/>
<circle class="background" cx="164.31104175958666" cy="113.33452155968635" r="12.0"/>
<circle class="background" cx="407.1555208797925" cy="581.6371022531957" r="12.0"/>
<circle class="background" cx="50.0" cy="597.9048432553744" r="12.0"/>
<circle class="background" cx="249.75141410116439" cy="650.0" r="5.5"/>
<circle class="background" cx="479.8197752233495" cy="101.83149158246412" r="5.5"/>
<!-- Stations -->
<circle class="station-500" cx="281.23223545690047" cy="366.6726077984731" r="10.0"/>
<circle class="station-220" cx="375.67469952407583" cy="272.23014373129865" r="10.0"/>
<circle class="station-220" cx="401.9087173205058" cy="298.4641615277303" r="10.0"/>
<circle class="station-220" cx="443.8831457948178" cy="256.489733053431" r="10.0"/>
<circle class="station-220" cx="443.8831457948178" cy="137.76812101100256" r="10.0"/>
<circle class="station-220" cx="427.9882836408845" cy="50.0" r="10.0"/>
<circle class="station-220" cx="427.9882836408803" cy="87.10050376325889" r="10.0"/>
<circle class="station-220" cx="294.4264700931483" cy="87.10050376325889" r="10.0"/>
<circle class="station-220" cx="268.1924522967115" cy="113.33452155968635" r="10.0"/>
<circle class="station-220" cx="199.98400602597465" cy="181.54296783042327" r="10.0"/>
<circle class="station-220" cx="244.5046105418853" cy="181.54296783042412" r="10.0"/>
<circle class="station-220" cx="244.5046105418853" cy="285.424378367549" r="10.0"/>
<circle class="station-220" cx="281.23223545690047" cy="322.1520032825616" r="10.0"/>
<circle class="station-220" cx="380.9215030833608" cy="466.3618754249385" r="10.0"/>
<circle class="station-220" cx="407.1555208797925" cy="492.5958932213744" r="10.0"/>
<circle class="station-220" cx="86.72762491501516" cy="486.97621081384403" r="10.0"/>
<circle class="station-220" cx="86.72762491501179" cy="561.1772183403618" r="10.0"/>
<circle class="station-220" cx="417.64912799838015" cy="111.53410321456582" r="10.0"/>
<circle class="station-220" cx="164.31104175958666" cy="113.33452155968635" r="10.0"/>
<circle class="station-220" cx="407.1555208797925" cy="581.6371022531957" r="10.0"/>
<circle class="station-220" cx="50.0" cy="597.9048432553744" r="10.0"/>
<circle class="inter" cx="249.75141410116439" cy="650.0" r="5.0"/>
<text class="station-label" x="249.75141410116439" y="650.0">I0</text>
<circle class="inter" cx="479.8197752233495" cy="101.83149158246412" r="5.0"/>
<text class="station-label" x="479.8197752233495" y="101.83149158246412">I1</text>
</svg>
