<?xml version="1.0" encoding="UTF-8"?>
<svg width="409.08134437759446" height="700.0" viewBox="0 0 409.08134437759446 700.0" xmlns="http://www.w3.org/2000/svg">
<defs>
  <style>
    .station-220 { fill: #2563eb; stroke: #1e40af; stroke-width: 2; }
    .station-500 { fill: #ef4444; stroke: #1e40af; stroke-width: 2; }
    .station-default { fill: #2563eb; stroke: #1e40af; stroke-width: 2; }
    .bend { fill: #111827; stroke: #111827; stroke-width: 1; }
    .dummy { fill: #8b4513; stroke: #8b4513; stroke-width: 1; }
    .inter { fill: #6b7280; stroke: #6b7280; stroke-width: 1; }
    .station-label { font-family: Arial, sans-serif; font-size: 8px; fill: white; text-anchor: middle; dominant-baseline: central; }
    .edge { stroke: #6b7280; stroke-width: 2; fill: none; }
    .background { fill: #f8fafc; }
  </style>
</defs>
<rect class="background" width="409.08134437759446" height="700.0"/>
<!-- Edges -->
<line class="edge" x1="245.11742070942066" y1="298.65487532965386" x2="165.4579880718064" y2="218.99544269203892"/>
<line class="edge" x1="242.28899358467444" y1="301.4833024544001" x2="162.62956094706018" y2="221.82386981678508"/>
<line class="edge" x1="243.70320714704755" y1="298.06908889202697" x2="206.1513904780275" y2="298.06908889202697"/>
<line class="edge" x1="243.70320714704755" y1="302.06908889202697" x2="206.1513904780275" y2="302.06908889202697"/>
<line class="edge" x1="242.2889935846744" y1="301.4833024544" x2="326.37395025770456" y2="385.56825912743665"/>
<line class="edge" x1="245.1174207094207" y1="298.6548753296539" x2="329.2023773824509" y2="382.73983200269055"/>
<line class="edge" x1="242.28899358467447" y1="298.65487532965386" x2="136.07641673452187" y2="404.86745217980575"/>
<line class="edge" x1="245.11742070942063" y1="301.4833024544001" x2="138.90484385926803" y2="407.69587930455197"/>
<line class="edge" x1="162.0437745094333" y1="220.409656254412" x2="162.0437745094333" y2="251.7028368119287"/>
<line class="edge" x1="166.0437745094333" y1="220.409656254412" x2="166.0437745094333" y2="251.7028368119287"/>
<line class="edge" x1="165.45798807180637" y1="253.1170503743018" x2="200.86218035519082" y2="217.7128580909181"/>
<line class="edge" x1="162.6295609470602" y1="250.2886232495556" x2="198.03375323044466" y2="214.8844309661719"/>
<line class="edge" x1="200.86218035519084" y1="217.71285809091808" x2="271.67056492195826" y2="146.90447352414992"/>
<line class="edge" x1="198.03375323044463" y1="214.88443096617192" x2="268.84213779721205" y2="144.07604639940377"/>
<line class="edge" x1="271.67056492195826" y1="144.07604639940377" x2="249.5429447448437" y2="121.94842622228849"/>
<line class="edge" x1="268.84213779721205" y1="146.90447352414992" x2="246.7145176200975" y2="124.77685334703465"/>
<line class="edge" x1="271.67056492195826" y1="146.90447352414995" x2="293.7981850990735" y2="124.77685334703466"/>
<line class="edge" x1="268.84213779721205" y1="144.07604639940374" x2="290.9697579743273" y2="121.94842622228848"/>
<line class="edge" x1="265.3875838321371" y1="98.36625208009755" x2="265.3875838321371" y2="129.65943263761426"/>
<line class="edge" x1="269.3875838321371" y1="98.36625208009755" x2="269.3875838321371" y2="129.65943263761426"/>
<line class="edge" x1="265.973370269764" y1="99.78046564247063" x2="290.9697579743273" y2="124.77685334703465"/>
<line class="edge" x1="268.80179739451023" y1="96.95203851772447" x2="293.7981850990735" y2="121.94842622228849"/>
<line class="edge" x1="268.80179739451023" y1="128.24521907524115" x2="189.14236475689597" y2="48.58578643762691"/>
<line class="edge" x1="265.973370269764" y1="131.07364619998737" x2="186.31393763214976" y2="51.41421356237309"/>
<line class="edge" x1="186.3139376321498" y1="48.58578643762689" x2="136.2066919986737" y2="98.69303207110227"/>
<line class="edge" x1="189.14236475689594" y1="51.41421356237311" x2="139.03511912341986" y2="101.52145919584848"/>
<line class="edge" x1="135.62090556104678" y1="100.10724563347537" x2="135.62090556104678" y2="181.46951508301882"/>
<line class="edge" x1="139.62090556104678" y1="100.10724563347537" x2="139.62090556104678" y2="181.46951508301882"/>
<line class="edge" x1="137.62090556104678" y1="98.10724563347537" x2="50.0" y2="98.10724563347537"/>
<line class="edge" x1="137.62090556104678" y1="102.10724563347537" x2="50.0" y2="102.10724563347537"/>
<line class="edge" x1="137.62090556104678" y1="183.46951508301882" x2="175.17272223006682" y2="183.46951508301882"/>
<line class="edge" x1="137.62090556104678" y1="179.46951508301882" x2="175.17272223006682" y2="179.46951508301882"/>
<line class="edge" x1="173.17272223006682" y1="181.46951508301882" x2="173.17272223006682" y2="269.0904206440656"/>
<line class="edge" x1="177.17272223006682" y1="181.46951508301882" x2="177.17272223006682" y2="269.0904206440656"/>
<line class="edge" x1="173.75850866769372" y1="270.5046342064387" x2="204.7371769156544" y2="301.4833024544001"/>
<line class="edge" x1="176.58693579243993" y1="267.6762070816925" x2="207.56560404040061" y2="298.65487532965386"/>
<line class="edge" x1="327.7881638200777" y1="386.1540455650636" x2="359.08134437759446" y2="386.1540455650636"/>
<line class="edge" x1="327.7881638200777" y1="382.1540455650636" x2="359.08134437759446" y2="382.1540455650636"/>
<line class="edge" x1="357.08134437759446" y1="384.1540455650636" x2="357.08134437759446" y2="459.2576789031037"/>
<line class="edge" x1="361.08134437759446" y1="384.1540455650636" x2="361.08134437759446" y2="459.2576789031037"/>
<line class="edge" x1="357.66713081522136" y1="382.73983200269055" x2="91.82117638029202" y2="648.5857864376269"/>
<line class="edge" x1="360.49555793996757" y1="385.56825912743665" x2="94.64960350503826" y2="651.4142135623731"/>
<line class="edge" x1="91.82117638029203" y1="363.4406389503214" x2="136.07641673452184" y2="407.69587930455197"/>
<line class="edge" x1="94.64960350503824" y1="360.6122118255752" x2="138.90484385926806" y2="404.86745217980575"/>
<line class="edge" x1="91.23538994266514" y1="362.0264253879483" x2="91.23538994266514" y2="650.0"/>
<line class="edge" x1="95.23538994266514" y1="362.0264253879483" x2="95.23538994266514" y2="650.0"/>
<line class="edge" x1="136.07641673452184" y1="404.86745217980575" x2="105.09774848656049" y2="435.8461204277671"/>
<line class="edge" x1="138.90484385926806" y1="407.69587930455197" x2="107.92617561130668" y2="438.67454755251333"/>
<!-- Node Halos -->
<circle class="background" cx="243.70320714704755" cy="300.06908889202697" r="12.0"/>
<circle class="background" cx="164.0437745094333" cy="220.409656254412" r="12.0"/>
<circle class="background" cx="164.0437745094333" cy="251.7028368119287" r="12.0"/>
<circle class="background" cx="199.44796679281774" cy="216.298644528545" r="12.0"/>
<circle class="background" cx="270.25635135958515" cy="145.49025996177684" r="12.0"/>
<circle class="background" cx="267.3875838321371" cy="98.36625208009755" r="12.0"/>
<circle class="background" cx="267.3875838321371" cy="129.65943263761426" r="12.0"/>
<circle class="background" cx="187.72815119452287" cy="50.0" r="12.0"/>
<circle class="background" cx="137.62090556104678" cy="100.10724563347537" r="12.0"/>
<circle class="background" cx="137.62090556104678" cy="181.46951508301882" r="12.0"/>
<circle class="background" cx="175.17272223006682" cy="181.46951508301882" r="12.0"/>
<circle class="background" cx="175.17272223006682" cy="269.0904206440656" r="12.0"/>
<circle class="background" cx="206.1513904780275" cy="300.06908889202697" r="12.0"/>
<circle class="background" cx="327.7881638200777" cy="384.1540455650636" r="12.0"/>
<circle class="background" cx="359.08134437759446" cy="384.1540455650636" r="12.0"/>
<circle class="background" cx="93.23538994266514" cy="362.0264253879483" r="12.0"/>
<circle class="background" cx="137.49063029689495" cy="406.28166574217886" r="12.0"/>
<circle class="background" cx="248.1287311824706" cy="123.36263978466157" r="12.0"/>
<circle class="background" cx="50.0" cy="100.10724563347537" r="12.0"/>
<circle class="background" cx="359.08134437759446" cy="459.2576789031037" r="12.0"/>
<circle class="background" cx="106.51196204893358" cy="437.2603339901402" r="12.0"/>
<circle class="background" cx="93.23538994266514" cy="650.0" r="5.5"/>
<circle class="background" cx="292.3839715367004" cy="123.36263978466157" r="5.5"/>
<!-- Stations -->
<circle class="station-500" cx="243.70320714704755" cy="300.06908889202697" r="10.0"/>
<circle class="station-220" cx="164.0437745094333" cy="220.409656254412" r="10.0"/>
<circle class="station-220" cx="164.0437745094333" cy="251.7028368119287" r="10.0"/>
<circle class="station-220" cx="199.44796679281774" cy="216.298644528545" r="10.0"/>
<circle class="station-220" cx="270.25635135958515" cy="145.49025996177684" r="10.0"/>
<circle class="station-220" cx="267.3875838321371" cy="98.36625208009755" r="10.0"/>
<circle class="station-220" cx="267.3875838321371" cy="129.65943263761426" r="10.0"/>
<circle class="station-220" cx="187.72815119452287" cy="50.0" r="10.0"/>
<circle class="station-220" cx="137.62090556104678" cy="100.10724563347537" r="10.0"/>
<circle class="station-220" cx="137.62090556104678" cy="181.46951508301882" r="10.0"/>
<circle class="station-220" cx="175.17272223006682" cy="181.46951508301882" r="10.0"/>
<circle class="station-220" cx="175.17272223006682" cy="269.0904206440656" r="10.0"/>
<circle class="station-220" cx="206.1513904780275" cy="300.06908889202697" r="10.0"/>
<circle class="station-220" cx="327.7881638200777" cy="384.1540455650636" r="10.0"/>
<circle class="station-220" cx="359.08134437759446" cy="384.1540455650636" r="10.0"/>
<circle class="station-220" cx="93.23538994266514" cy="362.0264253879483" r="10.0"/>
<circle class="station-220" cx="137.49063029689495" cy="406.28166574217886" r="10.0"/>
<circle class="station-220" cx="248.1287311824706" cy="123.36263978466157" r="10.0"/>
<circle class="station-220" cx="50.0" cy="100.10724563347537" r="10.0"/>
<circle class="station-220" cx="359.08134437759446" cy="459.2576789031037" r="10.0"/>
<circle class="station-220" cx="106.51196204893358" cy="437.2603339901402" r="10.0"/>
<circle class="inter" cx="93.23538994266514" cy="650.0" r="5.0"/>
<text class="station-label" x="93.23538994266514" y="650.0">I0</text>
<circle class="inter" cx="292.3839715367004" cy="123.36263978466157" r="5.0"/>
<text class="station-label" x="292.3839715367004" y="123.36263978466157">I1</text>
</svg>
