<?xml version="1.0" encoding="UTF-8"?>
<svg width="418.640397290115" height="700.0" viewBox="0 0 418.640397290115 700.0" xmlns="http://www.w3.org/2000/svg">
<defs>
  <style>
    .station-220 { fill: #2563eb; stroke: #1e40af; stroke-width: 2; }
    .station-500 { fill: #ef4444; stroke: #1e40af; stroke-width: 2; }
    .station-default { fill: #2563eb; stroke: #1e40af; stroke-width: 2; }
    .bend { fill: #111827; stroke: #111827; stroke-width: 1; }
    .dummy { fill: #8b4513; stroke: #8b4513; stroke-width: 1; }
    .inter { fill: #6b7280; stroke: #6b7280; stroke-width: 1; }
    .station-label { font-family: Arial, sans-serif; font-size: 8px; fill: white; text-anchor: middle; dominant-baseline: central; }
    .edge { stroke: #6b7280; stroke-width: 2; fill: none; }
    .background { fill: #f8fafc; }
  </style>
</defs>
<rect class="background" width="418.640397290115" height="700.0"/>
<!-- Edges -->
<line class="edge" x1="164.3937432875623" y1="383.86880338138803" x2="264.4449761569862" y2="283.81757051196416"/>
<line class="edge" x1="161.5653161628161" y1="381.0403762566418" x2="261.61654903223996" y2="280.98914338721795"/>
<line class="edge" x1="164.9795297251892" y1="382.4545898190149" x2="164.9795297251892" y2="335.2899863336535"/>
<line class="edge" x1="160.9795297251892" y1="382.4545898190149" x2="160.9795297251892" y2="335.2899863336535"/>
<line class="edge" x1="162.9795297251892" y1="384.4545898190149" x2="312.33410742883734" y2="384.4545898190149"/>
<line class="edge" x1="162.9795297251892" y1="380.4545898190149" x2="312.33410742883734" y2="380.4545898190149"/>
<line class="edge" x1="160.9795297251892" y1="382.4545898190149" x2="160.9795297251892" y2="571.1130037604607"/>
<line class="edge" x1="164.9795297251892" y1="382.4545898190149" x2="164.9795297251892" y2="571.1130037604607"/>
<line class="edge" x1="261.61654903223996" y1="283.81757051196416" x2="289.4085581626349" y2="311.6095796423592"/>
<line class="edge" x1="264.4449761569862" y1="280.98914338721795" x2="292.2369852873811" y2="308.781152517613"/>
<line class="edge" x1="292.23698528738095" y1="311.60957964235934" x2="342.26260172210186" y2="261.58396320764916"/>
<line class="edge" x1="289.4085581626351" y1="308.7811525176129" x2="339.434174597356" y2="258.7555360829027"/>
<line class="edge" x1="342.8483881597289" y1="260.16974964527594" x2="342.8483881597289" y2="134.3974736843121"/>
<line class="edge" x1="338.8483881597289" y1="260.16974964527594" x2="338.8483881597289" y2="134.3974736843121"/>
<line class="edge" x1="342.2626017221018" y1="132.9832601219388" x2="314.47059259169873" y2="105.19125099154377"/>
<line class="edge" x1="339.43417459735605" y1="135.8116872466854" x2="311.642165466953" y2="108.01967811629038"/>
<line class="edge" x1="342.2626017221022" y1="135.81168724668498" x2="370.0546108524883" y2="108.01967811629088"/>
<line class="edge" x1="339.43417459735565" y1="132.98326012193922" x2="367.2261837277417" y2="105.19125099154509"/>
<line class="edge" x1="367.22618372774167" y1="48.585786437627135" x2="339.4341745973556" y2="76.37779556802215"/>
<line class="edge" x1="370.05461085248834" y1="51.414213562372865" x2="342.26260172210226" y2="79.20622269276788"/>
<line class="edge" x1="366.640397290115" y1="50.0" x2="366.640397290115" y2="106.60546455391798"/>
<line class="edge" x1="370.640397290115" y1="50.0" x2="370.640397290115" y2="106.60546455391798"/>
<line class="edge" x1="340.8483881597289" y1="75.79200913039502" x2="199.35457770364457" y2="75.79200913039502"/>
<line class="edge" x1="340.8483881597289" y1="79.79200913039502" x2="199.35457770364457" y2="79.79200913039502"/>
<line class="edge" x1="199.3545777036445" y1="75.79200913039502" x2="160.05074146584332" y2="75.79200913039591"/>
<line class="edge" x1="199.35457770364462" y1="79.79200913039502" x2="160.05074146584343" y2="79.79200913039591"/>
<line class="edge" x1="158.63652790347035" y1="76.37779556802273" x2="86.37730416443527" y2="148.63701930704886"/>
<line class="edge" x1="161.4649550282164" y1="79.20622269276909" x2="89.20573128918129" y2="151.46544643179524"/>
<line class="edge" x1="160.05074146584337" y1="75.79200913039591" x2="50.0" y2="75.79200913039591"/>
<line class="edge" x1="160.05074146584337" y1="79.79200913039591" x2="50.0" y2="79.79200913039591"/>
<line class="edge" x1="86.37730416443515" y1="151.4654464317951" x2="119.72771512090917" y2="184.81585738827093"/>
<line class="edge" x1="89.20573128918141" y1="148.637019307049" x2="122.55614224565544" y2="181.98743026352483"/>
<line class="edge" x1="119.1419286832823" y1="183.40164382589788" x2="119.1419286832823" y2="293.4523852917413"/>
<line class="edge" x1="123.1419286832823" y1="183.40164382589788" x2="123.1419286832823" y2="293.4523852917413"/>
<line class="edge" x1="119.72771512090912" y1="294.8665988541143" x2="161.565316162816" y2="336.70419989602647"/>
<line class="edge" x1="122.55614224565548" y1="292.0381717293683" x2="164.3937432875624" y2="333.8757727712805"/>
<line class="edge" x1="310.91989386646424" y1="383.86880338138803" x2="338.71190299685924" y2="411.66081251178304"/>
<line class="edge" x1="313.74832099121045" y1="381.0403762566418" x2="341.54033012160545" y2="408.8323853870368"/>
<line class="edge" x1="338.12611655923234" y1="410.24659894940993" x2="338.12611655923234" y2="504.57580592013284"/>
<line class="edge" x1="342.12611655923234" y1="410.24659894940993" x2="342.12611655923234" y2="504.57580592013284"/>
<line class="edge" x1="338.71190299685924" y1="408.8323853870368" x2="98.958501946271" y2="648.5857864376269"/>
<line class="edge" x1="341.54033012160545" y1="411.66081251178304" x2="101.78692907101721" y2="651.4142135623731"/>
<line class="edge" x1="98.95850194627101" y1="509.92040310628875" x2="161.5653161628161" y2="572.5272173228338"/>
<line class="edge" x1="101.7869290710172" y1="507.09197598154253" x2="164.3937432875623" y2="569.6987901980876"/>
<line class="edge" x1="98.3727155086441" y1="508.50618954391564" x2="98.3727155086441" y2="650.0"/>
<line class="edge" x1="102.3727155086441" y1="508.50618954391564" x2="102.3727155086441" y2="650.0"/>
<line class="edge" x1="160.9795297251892" y1="571.1130037604607" x2="160.9795297251892" y2="626.1383744933823"/>
<line class="edge" x1="164.9795297251892" y1="571.1130037604607" x2="164.9795297251892" y2="626.1383744933823"/>
<!-- Node Halos -->
<circle class="background" cx="162.9795297251892" cy="382.4545898190149" r="12.0"/>
<circle class="background" cx="263.03076259461307" cy="282.40335694959106" r="12.0"/>
<circle class="background" cx="290.822771725008" cy="310.1953660799861" r="12.0"/>
<circle class="background" cx="340.8483881597289" cy="260.16974964527594" r="12.0"/>
<circle class="background" cx="340.8483881597289" cy="134.3974736843121" r="12.0"/>
<circle class="background" cx="368.640397290115" cy="50.0" r="12.0"/>
<circle class="background" cx="340.8483881597289" cy="77.79200913039502" r="12.0"/>
<circle class="background" cx="199.35457770364457" cy="77.79200913039502" r="12.0"/>
<circle class="background" cx="160.05074146584337" cy="77.79200913039591" r="12.0"/>
<circle class="background" cx="87.79151772680828" cy="150.05123286942205" r="12.0"/>
<circle class="background" cx="121.1419286832823" cy="183.40164382589788" r="12.0"/>
<circle class="background" cx="121.1419286832823" cy="293.4523852917413" r="12.0"/>
<circle class="background" cx="162.9795297251892" cy="335.2899863336535" r="12.0"/>
<circle class="background" cx="312.33410742883734" cy="382.4545898190149" r="12.0"/>
<circle class="background" cx="340.12611655923234" cy="410.24659894940993" r="12.0"/>
<circle class="background" cx="100.3727155086441" cy="508.50618954391564" r="12.0"/>
<circle class="background" cx="162.9795297251892" cy="571.1130037604607" r="12.0"/>
<circle class="background" cx="313.05637902932585" cy="106.60546455391707" r="12.0"/>
<circle class="background" cx="50.0" cy="77.79200913039591" r="12.0"/>
<circle class="background" cx="340.12611655923234" cy="504.57580592013284" r="12.0"/>
<circle class="background" cx="162.9795297251892" cy="626.1383744933823" r="12.0"/>
<circle class="background" cx="100.3727155086441" cy="650.0" r="5.5"/>
<circle class="background" cx="368.640397290115" cy="106.60546455391798" r="5.5"/>
<!-- Stations -->
<circle class="station-500" cx="162.9795297251892" cy="382.4545898190149" r="10.0"/>
<circle class="station-220" cx="263.03076259461307" cy="282.40335694959106" r="10.0"/>
<circle class="station-220" cx="290.822771725008" cy="310.1953660799861" r="10.0"/>
<circle class="station-220" cx="340.8483881597289" cy="260.16974964527594" r="10.0"/>
<circle class="station-220" cx="340.8483881597289" cy="134.3974736843121" r="10.0"/>
<circle class="station-220" cx="368.640397290115" cy="50.0" r="10.0"/>
<circle class="station-220" cx="340.8483881597289" cy="77.79200913039502" r="10.0"/>
<circle class="station-220" cx="199.35457770364457" cy="77.79200913039502" r="10.0"/>
<circle class="station-220" cx="160.05074146584337" cy="77.79200913039591" r="10.0"/>
<circle class="station-220" cx="87.79151772680828" cy="150.05123286942205" r="10.0"/>
<circle class="station-220" cx="121.1419286832823" cy="183.40164382589788" r="10.0"/>
<circle class="station-220" cx="121.1419286832823" cy="293.4523852917413" r="10.0"/>
<circle class="station-220" cx="162.9795297251892" cy="335.2899863336535" r="10.0"/>
<circle class="station-220" cx="312.33410742883734" cy="382.4545898190149" r="10.0"/>
<circle class="station-220" cx="340.12611655923234" cy="410.24659894940993" r="10.0"/>
<circle class="station-220" cx="100.3727155086441" cy="508.50618954391564" r="10.0"/>
<circle class="station-220" cx="162.9795297251892" cy="571.1130037604607" r="10.0"/>
<circle class="station-220" cx="313.05637902932585" cy="106.60546455391707" r="10.0"/>
<circle class="station-220" cx="50.0" cy="77.79200913039591" r="10.0"/>
<circle class="station-220" cx="340.12611655923234" cy="504.57580592013284" r="10.0"/>
<circle class="station-220" cx="162.9795297251892" cy="626.1383744933823" r="10.0"/>
<circle class="inter" cx="100.3727155086441" cy="650.0" r="5.0"/>
<text class="station-label" x="100.3727155086441" y="650.0">I0</text>
<circle class="inter" cx="368.640397290115" cy="106.60546455391798" r="5.0"/>
<text class="station-label" x="368.640397290115" y="106.60546455391798">I1</text>
</svg>
