<?xml version="1.0" encoding="UTF-8"?>
<svg width="450.55158362123035" height="700.0" viewBox="0 0 450.55158362123035 700.0" xmlns="http://www.w3.org/2000/svg">
<defs>
  <style>
    .station-220 { fill: #2563eb; stroke: #1e40af; stroke-width: 2; }
    .station-500 { fill: #ef4444; stroke: #1e40af; stroke-width: 2; }
    .station-default { fill: #2563eb; stroke: #1e40af; stroke-width: 2; }
    .bend { fill: #111827; stroke: #111827; stroke-width: 1; }
    .dummy { fill: #8b4513; stroke: #8b4513; stroke-width: 1; }
    .inter { fill: #6b7280; stroke: #6b7280; stroke-width: 1; }
    .station-label { font-family: Arial, sans-serif; font-size: 8px; fill: white; text-anchor: middle; dominant-baseline: central; }
    .edge { stroke: #6b7280; stroke-width: 2; fill: none; }
    .background { fill: #f8fafc; }
  </style>
</defs>
<rect class="background" width="450.55158362123035" height="700.0"/>
<!-- Edges -->
<line class="edge" x1="221.68212560697495" y1="368.8375523230454" x2="311.82396139529806" y2="278.6957165347231"/>
<line class="edge" x1="218.8536984822288" y1="366.00912519829916" x2="308.99553427055184" y2="275.8672894099769"/>
<line class="edge" x1="222.26791204460187" y1="367.42333876067227" x2="222.26791204460187" y2="324.9300698576401"/>
<line class="edge" x1="218.26791204460187" y1="367.42333876067227" x2="218.26791204460187" y2="324.9300698576401"/>
<line class="edge" x1="218.26791204460187" y1="367.4233387606722" x2="218.26791204459863" y2="522.8150297234677"/>
<line class="edge" x1="222.26791204460187" y1="367.4233387606723" x2="222.26791204459863" y2="522.8150297234677"/>
<line class="edge" x1="218.85369848222876" y1="366.00912519829916" x2="98.66458409780417" y2="486.1982395827238"/>
<line class="edge" x1="221.68212560697498" y1="368.8375523230454" x2="101.49301122255035" y2="489.02666670747"/>
<line class="edge" x1="308.9955342705512" y1="278.69571653472246" x2="334.03493310062777" y2="303.7351153648215"/>
<line class="edge" x1="311.8239613952987" y1="275.8672894099775" x2="336.86336022537523" y2="300.90668824007656"/>
<line class="edge" x1="336.8633602253746" y1="303.73511536482215" x2="376.9263983535164" y2="263.67207723668116"/>
<line class="edge" x1="334.0349331006284" y1="300.90668824007594" x2="374.0979712287702" y2="260.84365011193495"/>
<line class="edge" x1="377.5121847911433" y1="262.25786367430806" x2="377.5121847911433" y2="100.07879766017403"/>
<line class="edge" x1="373.5121847911433" y1="262.25786367430806" x2="373.5121847911433" y2="100.07879766017403"/>
<line class="edge" x1="376.92639835351633" y1="98.66458409780091" x2="351.88699952342694" y2="73.62518526771228"/>
<line class="edge" x1="374.09797122877023" y1="101.49301122254715" x2="349.05857239868084" y2="76.45361239245852"/>
<line class="edge" x1="376.92639835351645" y1="101.49301122254705" x2="401.9657971836035" y2="76.45361239245761"/>
<line class="edge" x1="374.0979712287701" y1="98.66458409780101" x2="399.1373700588572" y2="73.62518526771157"/>
<line class="edge" x1="373.5121847911465" y1="49.999999999999815" x2="373.5121847911433" y2="85.41105741917987"/>
<line class="edge" x1="377.5121847911465" y1="50.000000000000185" x2="377.5121847911433" y2="85.41105741918024"/>
<line class="edge" x1="374.0979712287734" y1="51.41421356237307" x2="399.13737005885724" y2="76.45361239245767"/>
<line class="edge" x1="376.92639835351963" y1="48.58578643762693" x2="401.96579718360346" y2="73.62518526771152"/>
<line class="edge" x1="375.5121847911433" y1="83.41105741918005" x2="248.03237808209508" y2="83.41105741918005"/>
<line class="edge" x1="375.5121847911433" y1="87.41105741918005" x2="248.03237808209508" y2="87.41105741918005"/>
<line class="edge" x1="246.618164519722" y1="83.99684385680693" x2="206.40770817531987" y2="124.20730020120746"/>
<line class="edge" x1="249.44659164446816" y1="86.82527098155317" x2="209.23613530006602" y2="127.0357273259537"/>
<line class="edge" x1="206.40770817531987" y1="124.20730020120747" x2="141.30527121708943" y2="189.3097371594371"/>
<line class="edge" x1="209.23613530006602" y1="127.03572732595369" x2="144.13369834183558" y2="192.13816428418332"/>
<line class="edge" x1="207.82192173769295" y1="123.62151376358058" x2="108.67096096398878" y2="123.62151376358058"/>
<line class="edge" x1="207.82192173769295" y1="127.62151376358058" x2="108.67096096398878" y2="127.62151376358058"/>
<line class="edge" x1="142.7194847794625" y1="192.7239507218102" x2="185.2127536824786" y2="192.7239507218102"/>
<line class="edge" x1="142.7194847794625" y1="188.7239507218102" x2="185.2127536824786" y2="188.7239507218102"/>
<line class="edge" x1="183.2127536824786" y1="190.7239507218102" x2="183.2127536824786" y2="289.8749114955144"/>
<line class="edge" x1="187.2127536824786" y1="190.7239507218102" x2="187.2127536824786" y2="289.8749114955144"/>
<line class="edge" x1="183.79854012010546" y1="291.2891250578875" x2="218.85369848222874" y2="326.34428342001314"/>
<line class="edge" x1="186.62696724485173" y1="288.4606979331414" x2="221.682125606975" y2="323.51585629526704"/>
<line class="edge" x1="218.8536984822255" y1="524.2292432858408" x2="261.05213095272336" y2="566.4276757563409"/>
<line class="edge" x1="221.68212560697177" y1="521.4008161610946" x2="263.8805580774696" y2="563.5992486315947"/>
<line class="edge" x1="260.46634451509647" y1="565.0134621939678" x2="260.46634451509647" y2="650.0"/>
<line class="edge" x1="264.46634451509647" y1="565.0134621939678" x2="264.46634451509647" y2="650.0"/>
<line class="edge" x1="262.46634451509647" y1="563.0134621939678" x2="50.0" y2="563.0134621939678"/>
<line class="edge" x1="262.46634451509647" y1="567.0134621939678" x2="50.0" y2="567.0134621939678"/>
<line class="edge" x1="48.58578643762691" y1="438.9478690472927" x2="98.66458409780417" y2="489.02666670747"/>
<line class="edge" x1="51.41421356237309" y1="436.1194419225465" x2="101.49301122255035" y2="486.1982395827238"/>
<line class="edge" x1="48.0" y1="437.5336554849196" x2="48.0" y2="565.0134621939678"/>
<line class="edge" x1="52.0" y1="437.5336554849196" x2="52.0" y2="565.0134621939678"/>
<line class="edge" x1="98.6645840978042" y1="486.1982395827238" x2="63.6094257356777" y2="521.2533979448486"/>
<line class="edge" x1="101.49301122255032" y1="489.02666670747" x2="66.43785286042383" y2="524.0818250695949"/>
<!-- Node Halos -->
<circle class="background" cx="220.26791204460187" cy="367.42333876067227" r="12.0"/>
<circle class="background" cx="310.40974783292495" cy="277.28150297235" r="12.0"/>
<circle class="background" cx="335.4491466630015" cy="302.32090180244904" r="12.0"/>
<circle class="background" cx="375.5121847911433" cy="262.25786367430806" r="12.0"/>
<circle class="background" cx="375.5121847911433" cy="100.07879766017403" r="12.0"/>
<circle class="background" cx="375.5121847911465" cy="50.0" r="12.0"/>
<circle class="background" cx="375.5121847911433" cy="85.41105741918005" r="12.0"/>
<circle class="background" cx="248.03237808209508" cy="85.41105741918005" r="12.0"/>
<circle class="background" cx="207.82192173769295" cy="125.62151376358058" r="12.0"/>
<circle class="background" cx="142.7194847794625" cy="190.7239507218102" r="12.0"/>
<circle class="background" cx="185.2127536824786" cy="190.7239507218102" r="12.0"/>
<circle class="background" cx="185.2127536824786" cy="289.8749114955144" r="12.0"/>
<circle class="background" cx="220.26791204460187" cy="324.9300698576401" r="12.0"/>
<circle class="background" cx="220.26791204459863" cy="522.8150297234677" r="12.0"/>
<circle class="background" cx="262.46634451509647" cy="565.0134621939678" r="12.0"/>
<circle class="background" cx="50.0" cy="437.5336554849196" r="12.0"/>
<circle class="background" cx="100.07879766017726" cy="487.6124531450969" r="12.0"/>
<circle class="background" cx="350.4727859610539" cy="75.0393988300854" r="12.0"/>
<circle class="background" cx="108.67096096398878" cy="125.62151376358058" r="12.0"/>
<circle class="background" cx="262.46634451509647" cy="650.0" r="12.0"/>
<circle class="background" cx="65.02363929805077" cy="522.6676115072217" r="12.0"/>
<circle class="background" cx="50.0" cy="565.0134621939678" r="5.5"/>
<circle class="background" cx="400.55158362123035" cy="75.0393988300846" r="5.5"/>
<!-- Stations -->
<circle class="station-500" cx="220.26791204460187" cy="367.42333876067227" r="10.0"/>
<circle class="station-220" cx="310.40974783292495" cy="277.28150297235" r="10.0"/>
<circle class="station-220" cx="335.4491466630015" cy="302.32090180244904" r="10.0"/>
<circle class="station-220" cx="375.5121847911433" cy="262.25786367430806" r="10.0"/>
<circle class="station-220" cx="375.5121847911433" cy="100.07879766017403" r="10.0"/>
<circle class="station-220" cx="375.5121847911465" cy="50.0" r="10.0"/>
<circle class="station-220" cx="375.5121847911433" cy="85.41105741918005" r="10.0"/>
<circle class="station-220" cx="248.03237808209508" cy="85.41105741918005" r="10.0"/>
<circle class="station-220" cx="207.82192173769295" cy="125.62151376358058" r="10.0"/>
<circle class="station-220" cx="142.7194847794625" cy="190.7239507218102" r="10.0"/>
<circle class="station-220" cx="185.2127536824786" cy="190.7239507218102" r="10.0"/>
<circle class="station-220" cx="185.2127536824786" cy="289.8749114955144" r="10.0"/>
<circle class="station-220" cx="220.26791204460187" cy="324.9300698576401" r="10.0"/>
<circle class="station-220" cx="220.26791204459863" cy="522.8150297234677" r="10.0"/>
<circle class="station-220" cx="262.46634451509647" cy="565.0134621939678" r="10.0"/>
<circle class="station-220" cx="50.0" cy="437.5336554849196" r="10.0"/>
<circle class="station-220" cx="100.07879766017726" cy="487.6124531450969" r="10.0"/>
<circle class="station-220" cx="350.4727859610539" cy="75.0393988300854" r="10.0"/>
<circle class="station-220" cx="108.67096096398878" cy="125.62151376358058" r="10.0"/>
<circle class="station-220" cx="262.46634451509647" cy="650.0" r="10.0"/>
<circle class="station-220" cx="65.02363929805077" cy="522.6676115072217" r="10.0"/>
<circle class="inter" cx="50.0" cy="565.0134621939678" r="5.0"/>
<text class="station-label" x="50.0" y="565.0134621939678">I0</text>
<circle class="inter" cx="400.55158362123035" cy="75.0393988300846" r="5.0"/>
<text class="station-label" x="400.55158362123035" y="75.0393988300846">I1</text>
</svg>
