<?xml version="1.0" encoding="UTF-8"?>
<svg width="700.0" height="676.141443161914" viewBox="0 0 700.0 676.141443161914" xmlns="http://www.w3.org/2000/svg">
<defs>
  <style>
    .station-220 { fill: #2563eb; stroke: #1e40af; stroke-width: 2; }
    .station-500 { fill: #ef4444; stroke: #1e40af; stroke-width: 2; }
    .station-default { fill: #2563eb; stroke: #1e40af; stroke-width: 2; }
    .bend { fill: #111827; stroke: #111827; stroke-width: 1; }
    .dummy { fill: #8b4513; stroke: #8b4513; stroke-width: 1; }
    .inter { fill: #6b7280; stroke: #6b7280; stroke-width: 1; }
    .station-label { font-family: Arial, sans-serif; font-size: 8px; fill: white; text-anchor: middle; dominant-baseline: central; }
    .edge { stroke: #6b7280; stroke-width: 2; fill: none; }
    .background { fill: #f8fafc; }
  </style>
</defs>
<rect class="background" width="700.0" height="676.141443161914"/>
<!-- Edges -->
<line class="edge" x1="305.2497506635214" y1="303.2524960385678" x2="442.246776577427" y2="303.2524960385678"/>
<line class="edge" x1="305.2497506635214" y1="299.2524960385678" x2="442.246776577427" y2="299.2524960385678"/>
<line class="edge" x1="304.4843837987912" y1="303.10025510359037" x2="569.3065072643392" y2="412.7931702594626"/>
<line class="edge" x1="306.0151175282516" y1="299.40473697354525" x2="570.8372409937995" y2="409.0976521294175"/>
<line class="edge" x1="305.24975066352147" y1="299.2524960385678" x2="218.66303658428885" y2="299.2524960385657"/>
<line class="edge" x1="305.24975066352135" y1="303.2524960385678" x2="218.66303658428873" y2="303.2524960385657"/>
<line class="edge" x1="303.40199159849885" y1="300.4871291738376" x2="250.9754994979556" y2="427.0558774306145"/>
<line class="edge" x1="307.09750972854397" y1="302.017862903298" x2="254.67101762800078" y2="428.5866111600749"/>
<line class="edge" x1="307.09750972854397" y1="302.01786290329795" x2="363.0191013024566" y2="167.011198096066"/>
<line class="edge" x1="303.40199159849885" y1="300.4871291738377" x2="359.3235831724115" y2="165.48046436660567"/>
<line class="edge" x1="307.09750972854397" y1="300.4871291738376" x2="227.39896486589743" y2="108.07782126503506"/>
<line class="edge" x1="303.40199159849885" y1="302.017862903298" x2="223.70344673585225" y2="109.60855499449542"/>
<line class="edge" x1="303.40199159849885" y1="302.017862903298" x2="359.323583172413" y2="437.02452771053106"/>
<line class="edge" x1="307.09750972854397" y1="300.4871291738376" x2="363.0191013024581" y2="435.49379398107067"/>
<line class="edge" x1="303.2497506635214" y1="301.2524960385678" x2="303.2497506635214" y2="583.9518604096539"/>
<line class="edge" x1="307.2497506635214" y1="301.2524960385678" x2="307.2497506635214" y2="583.9518604096539"/>
<line class="edge" x1="442.246776577427" y1="303.2524960385678" x2="559.5865757089607" y2="303.2524960385678"/>
<line class="edge" x1="442.246776577427" y1="299.2524960385678" x2="559.5865757089607" y2="299.2524960385678"/>
<line class="edge" x1="557.7388166439381" y1="302.017862903298" x2="585.6996124308941" y2="369.5211953069117"/>
<line class="edge" x1="561.4343347739833" y1="300.4871291738376" x2="589.3951305609394" y2="367.9904615774513"/>
<line class="edge" x1="561.0007892713338" y1="302.6667096009409" x2="651.4142135623731" y2="212.25328530990166"/>
<line class="edge" x1="558.1723621465876" y1="299.8382824761947" x2="648.5857864376269" y2="209.42485818515544"/>
<line class="edge" x1="585.6996124308941" y1="367.9904615774513" x2="568.2241150640467" y2="410.18004432970986"/>
<line class="edge" x1="589.3951305609394" y1="369.5211953069117" x2="571.919633194092" y2="411.71077805917025"/>
<line class="edge" x1="586.7820046311866" y1="370.6035875072041" x2="628.9715873834457" y2="388.079084874051"/>
<line class="edge" x1="588.3127383606469" y1="366.9080693771589" x2="630.502321112906" y2="384.38356674400575"/>
<line class="edge" x1="218.6630365842888" y1="299.2524960385657" x2="109.06541585316266" y2="299.2524960385657"/>
<line class="edge" x1="218.6630365842888" y1="303.2524960385657" x2="109.06541585316266" y2="303.2524960385657"/>
<line class="edge" x1="107.21765678814009" y1="302.0178629032959" x2="159.64414888868382" y2="428.5866111600749"/>
<line class="edge" x1="110.91317491818523" y1="300.4871291738355" x2="163.339667018729" y2="427.0558774306145"/>
<line class="edge" x1="108.30004898843247" y1="299.40473697354315" x2="49.23463313526981" y2="323.87043328713037"/>
<line class="edge" x1="109.83078271789286" y1="303.10025510358827" x2="50.76536686473019" y2="327.5659514171755"/>
<line class="edge" x1="161.4919079537064" y1="429.8212442953447" x2="252.8232585629782" y2="429.8212442953447"/>
<line class="edge" x1="161.4919079537064" y1="425.8212442953447" x2="252.8232585629782" y2="425.8212442953447"/>
<line class="edge" x1="362.58555579980714" y1="164.83161766896274" x2="330.2950471244363" y2="132.5411089935919"/>
<line class="edge" x1="359.7571286750609" y1="167.66004479370895" x2="327.46661999969007" y2="135.36953611833812"/>
<line class="edge" x1="326.8808335620632" y1="133.955322555965" x2="326.8808335620632" y2="212.1728158909515"/>
<line class="edge" x1="330.8808335620632" y1="133.955322555965" x2="330.8808335620632" y2="212.1728158909515"/>
<line class="edge" x1="330.2950471244363" y1="132.5411089935919" x2="246.3397245684713" y2="48.58578643762691"/>
<line class="edge" x1="327.46661999969007" y1="135.36953611833812" x2="243.51129744372508" y2="51.41421356237309"/>
<line class="edge" x1="330.2950471244363" y1="210.7586023285784" x2="226.96541936324792" y2="107.42897456739213"/>
<line class="edge" x1="327.46661999969007" y1="213.58702945332462" x2="224.13699223850176" y2="110.25740169213834"/>
<line class="edge" x1="359.75712867506246" y1="437.67337440817397" x2="494.8406006256126" y2="572.756846358724"/>
<line class="edge" x1="362.5855557998087" y1="434.84494728342776" x2="497.6690277503588" y2="569.9284192339778"/>
<line class="edge" x1="496.2548141879857" y1="569.3426327963509" x2="322.72524803036936" y2="569.3426327963509"/>
<line class="edge" x1="496.2548141879857" y1="573.3426327963509" x2="322.72524803036936" y2="573.3426327963509"/>
<line class="edge" x1="495.48944732325555" y1="569.4948737313283" x2="385.79653216738177" y2="614.9311668851292"/>
<line class="edge" x1="497.0201810527158" y1="573.1903918613735" x2="387.32726589684205" y2="618.6266850151744"/>
<line class="edge" x1="320.72524803036936" y1="571.3426327963509" x2="320.72524803036936" y2="626.141443161914"/>
<line class="edge" x1="324.72524803036936" y1="571.3426327963509" x2="324.72524803036936" y2="626.141443161914"/>
<line class="edge" x1="324.5730070953919" y1="625.3760762971839" x2="307.09750972854397" y2="583.1864935449238"/>
<line class="edge" x1="320.8774889653468" y1="626.9068100266442" x2="303.40199159849885" y2="584.7172272743841"/>
<!-- Node Halos -->
<circle class="background" cx="305.2497506635214" cy="301.2524960385678" r="12.0"/>
<circle class="background" cx="442.246776577427" cy="301.2524960385678" r="12.0"/>
<circle class="background" cx="559.5865757089607" cy="301.2524960385678" r="12.0"/>
<circle class="background" cx="587.5473714959168" cy="368.7558284421815" r="12.0"/>
<circle class="background" cx="570.0718741290693" cy="410.94541119444006" r="12.0"/>
<circle class="background" cx="218.6630365842888" cy="301.2524960385657" r="12.0"/>
<circle class="background" cx="109.06541585316266" cy="301.2524960385657" r="12.0"/>
<circle class="background" cx="161.4919079537064" cy="427.8212442953447" r="12.0"/>
<circle class="background" cx="252.8232585629782" cy="427.8212442953447" r="12.0"/>
<circle class="background" cx="361.17134223743403" cy="166.24583123133584" r="12.0"/>
<circle class="background" cx="328.8808335620632" cy="133.955322555965" r="12.0"/>
<circle class="background" cx="328.8808335620632" cy="212.1728158909515" r="12.0"/>
<circle class="background" cx="225.55120580087484" cy="108.84318812976524" r="12.0"/>
<circle class="background" cx="361.17134223743557" cy="436.25916084580086" r="12.0"/>
<circle class="background" cx="496.2548141879857" cy="571.3426327963509" r="12.0"/>
<circle class="background" cx="322.72524803036936" cy="571.3426327963509" r="12.0"/>
<circle class="background" cx="322.72524803036936" cy="626.141443161914" r="12.0"/>
<circle class="background" cx="650.0" cy="210.83907174752855" r="12.0"/>
<circle class="background" cx="50.0" cy="325.7181923521529" r="12.0"/>
<circle class="background" cx="244.9255110060982" cy="50.0" r="12.0"/>
<circle class="background" cx="386.5618990321119" cy="616.7789259501518" r="12.0"/>
<circle class="background" cx="629.7369542481758" cy="386.23132580902836" r="12.0"/>
<circle class="background" cx="305.2497506635214" cy="583.9518604096539" r="5.5"/>
<!-- Stations -->
<circle class="station-500" cx="305.2497506635214" cy="301.2524960385678" r="10.0"/>
<circle class="station-220" cx="442.246776577427" cy="301.2524960385678" r="10.0"/>
<circle class="station-220" cx="559.5865757089607" cy="301.2524960385678" r="10.0"/>
<circle class="station-220" cx="587.5473714959168" cy="368.7558284421815" r="10.0"/>
<circle class="station-220" cx="570.0718741290693" cy="410.94541119444006" r="10.0"/>
<circle class="station-220" cx="218.6630365842888" cy="301.2524960385657" r="10.0"/>
<circle class="station-220" cx="109.06541585316266" cy="301.2524960385657" r="10.0"/>
<circle class="station-220" cx="161.4919079537064" cy="427.8212442953447" r="10.0"/>
<circle class="station-220" cx="252.8232585629782" cy="427.8212442953447" r="10.0"/>
<circle class="station-220" cx="361.17134223743403" cy="166.24583123133584" r="10.0"/>
<circle class="station-220" cx="328.8808335620632" cy="133.955322555965" r="10.0"/>
<circle class="station-220" cx="328.8808335620632" cy="212.1728158909515" r="10.0"/>
<circle class="station-220" cx="225.55120580087484" cy="108.84318812976524" r="10.0"/>
<circle class="station-220" cx="361.17134223743557" cy="436.25916084580086" r="10.0"/>
<circle class="station-220" cx="496.2548141879857" cy="571.3426327963509" r="10.0"/>
<circle class="station-220" cx="322.72524803036936" cy="571.3426327963509" r="10.0"/>
<circle class="station-220" cx="322.72524803036936" cy="626.141443161914" r="10.0"/>
<circle class="station-220" cx="650.0" cy="210.83907174752855" r="10.0"/>
<circle class="station-220" cx="50.0" cy="325.7181923521529" r="10.0"/>
<circle class="station-220" cx="244.9255110060982" cy="50.0" r="10.0"/>
<circle class="station-220" cx="386.5618990321119" cy="616.7789259501518" r="10.0"/>
<circle class="station-220" cx="629.7369542481758" cy="386.23132580902836" r="10.0"/>
<circle class="inter" cx="305.2497506635214" cy="583.9518604096539" r="5.0"/>
<text class="station-label" x="305.2497506635214" y="583.9518604096539">I0</text>
</svg>
