<?xml version="1.0" encoding="UTF-8"?>
<svg width="799.0" height="769.0" viewBox="0 0 799.0 769.0" xmlns="http://www.w3.org/2000/svg">
<defs>
  <style>
    .station-220 { fill: #2563eb; stroke: #1e40af; stroke-width: 2; }
    .station-500 { fill: #ef4444; stroke: #1e40af; stroke-width: 2; }
    .station-default { fill: #2563eb; stroke: #1e40af; stroke-width: 2; }
    .bend { fill: #111827; stroke: #111827; stroke-width: 1; }
    .dummy { fill: #8b4513; stroke: #8b4513; stroke-width: 1; }
    .inter { fill: #6b7280; stroke: #6b7280; stroke-width: 1; }
    .station-label { font-family: Arial, sans-serif; font-size: 8px; fill: white; text-anchor: middle; dominant-baseline: central; }
    .edge { stroke: #6b7280; stroke-width: 2; fill: none; }
    .background { fill: #f8fafc; }
  </style>
</defs>
<rect class="background" width="799.0" height="769.0"/>
<!-- Edges -->
<line class="edge" x1="420.50301918665156" y1="311.31944432415975" x2="535.5030191866515" y2="180.31944432415975"/>
<line class="edge" x1="417.49698081334844" y1="308.68055567584025" x2="532.4969808133485" y2="177.68055567584025"/>
<line class="edge" x1="419.58542854418823" y1="311.91239991101486" x2="615.5854285441882" y2="251.91239991101486"/>
<line class="edge" x1="418.41457145581177" y1="308.08760008898514" x2="614.4145714558118" y2="248.08760008898514"/>
<line class="edge" x1="418.12887814379144" y1="311.80031850283103" x2="542.1288781437914" y2="371.80031850283103"/>
<line class="edge" x1="419.87112185620856" y1="308.19968149716897" x2="543.8711218562086" y2="368.19968149716897"/>
<line class="edge" x1="420.3919465704777" y1="308.56386464950714" x2="290.3919465704777" y2="182.5638646495071"/>
<line class="edge" x1="417.6080534295223" y1="311.43613535049286" x2="287.6080534295223" y2="185.4361353504929"/>
<line class="edge" x1="417.7506099048912" y1="308.43826238111393" x2="312.7506099048912" y2="392.43826238111393"/>
<line class="edge" x1="420.2493900951088" y1="311.56173761888607" x2="315.2493900951088" y2="395.56173761888607"/>
<line class="edge" x1="417.0910400439299" y1="309.4034500137281" x2="367.0910400439299" y2="469.4034500137281"/>
<line class="edge" x1="420.9089599560701" y1="310.5965499862719" x2="370.9089599560701" y2="470.5965499862719"/>
<line class="edge" x1="417.1603817560675" y1="310.7847322579013" x2="478.1603817560675" y2="453.7847322579013"/>
<line class="edge" x1="420.8396182439325" y1="309.2152677420987" x2="481.8396182439325" y2="452.2152677420987"/>
<line class="edge" x1="420.96601200711467" y1="310.36714682060574" x2="451.96601200711467" y2="144.36714682060574"/>
<line class="edge" x1="417.03398799288533" y1="309.63285317939426" x2="448.03398799288533" y2="143.63285317939426"/>
<line class="edge" x1="534.9901010513402" y1="180.73772837582146" x2="620.9901010513402" y2="131.73772837582146"/>
<line class="edge" x1="533.0098989486598" y1="177.26227162417854" x2="619.0098989486598" y2="128.26227162417854"/>
<line class="edge" x1="618.0017338538153" y1="129.91673891057565" x2="613.0017338538153" y2="249.91673891057565"/>
<line class="edge" x1="621.9982661461847" y1="130.08326108942435" x2="616.9982661461847" y2="250.08326108942435"/>
<line class="edge" x1="619.6489470037536" y1="131.9689494137297" x2="748.6489470037536" y2="154.9689494137297"/>
<line class="edge" x1="620.3510529962464" y1="128.0310505862703" x2="749.3510529962464" y2="151.0310505862703"/>
<line class="edge" x1="684.2802558635475" y1="221.13399668327136" x2="614.2802558635475" y2="248.13399668327136"/>
<line class="edge" x1="685.7197441364525" y1="224.86600331672864" x2="615.7197441364525" y2="251.86600331672864"/>
<line class="edge" x1="683.1888862234854" y1="222.15155030289407" x2="631.1888862234854" y2="333.15155030289407"/>
<line class="edge" x1="686.8111137765146" y1="223.84844969710593" x2="634.8111137765146" y2="334.84844969710593"/>
<line class="edge" x1="632.2572186472918" y1="332.1430466182295" x2="542.2572186472918" y2="368.1430466182295"/>
<line class="edge" x1="633.7427813527082" y1="335.8569533817705" x2="543.7427813527082" y2="371.8569533817705"/>
<line class="edge" x1="290.23711921266255" y1="182.42852424337462" x2="196.23711921266252" y2="108.42852424337464"/>
<line class="edge" x1="287.76288078733745" y1="185.57147575662538" x2="193.76288078733748" y2="111.57147575662536"/>
<line class="edge" x1="193.71361582715346" y1="108.46859027042078" x2="118.71361582715345" y2="171.46859027042078"/>
<line class="edge" x1="196.28638417284654" y1="111.53140972957922" x2="121.28638417284655" y2="174.53140972957922"/>
<line class="edge" x1="118.06495071321467" y1="173.50555341726823" x2="147.06495071321467" y2="284.50555341726823"/>
<line class="edge" x1="121.93504928678533" y1="172.49444658273177" x2="150.93504928678533" y2="283.49444658273177"/>
<line class="edge" x1="119.06538534883107" y1="171.23181011941014" x2="49.06538534883107" y2="208.23181011941014"/>
<line class="edge" x1="120.93461465116893" y1="174.76818988058986" x2="50.93461465116893" y2="211.76818988058986"/>
<line class="edge" x1="147.53852909750017" y1="285.3653215010196" x2="218.53852909750017" y2="361.3653215010196"/>
<line class="edge" x1="150.46147090249983" y1="282.6346784989804" x2="221.46147090249983" y2="358.6346784989804"/>
<line class="edge" x1="219.31972783669113" y1="361.880752451501" x2="313.31972783669113" y2="395.880752451501"/>
<line class="edge" x1="220.68027216330887" y1="358.119247548499" x2="314.68027216330887" y2="392.119247548499"/>
<line class="edge" x1="367.27042210677985" y1="468.995728965227" x2="313.27042210677985" y2="561.995728965227"/>
<line class="edge" x1="370.72957789322015" y1="471.004271034773" x2="316.72957789322015" y2="564.004271034773"/>
<line class="edge" x1="313.52342373113447" y1="564.3489709122969" x2="387.52342373113447" y2="645.3489709122969"/>
<line class="edge" x1="316.47657626886553" y1="561.6510290877031" x2="390.47657626886553" y2="642.6510290877031"/>
<line class="edge" x1="387.3461469958609" y1="645.1246200428145" x2="438.3461469958609" y2="720.1246200428145"/>
<line class="edge" x1="390.6538530041391" y1="642.8753799571855" x2="441.6538530041391" y2="717.8753799571855"/>
<line class="edge" x1="478.3702657043608" y1="454.15929552988763" x2="547.3702657043608" y2="551.1592955298877"/>
<line class="edge" x1="481.6297342956392" y1="451.84070447011237" x2="550.6297342956392" y2="548.8407044701123"/>
<line class="edge" x1="547.7403960831575" y1="551.553511497439" x2="621.7403960831575" y2="611.553511497439"/>
<line class="edge" x1="550.2596039168425" y1="548.446488502561" x2="624.2596039168425" y2="608.446488502561"/>
<line class="edge" x1="451.7579308542559" y1="143.04622900460583" x2="400.7579308542559" y2="49.04622900460585"/>
<line class="edge" x1="448.2420691457441" y1="144.95377099539417" x2="397.2420691457441" y2="50.95377099539415"/>
<!-- Node Halos -->
<circle class="background" cx="419.0" cy="310.0" r="12.0"/>
<circle class="background" cx="534.0" cy="179.0" r="12.0"/>
<circle class="background" cx="620.0" cy="130.0" r="12.0"/>
<circle class="background" cx="685.0" cy="223.0" r="12.0"/>
<circle class="background" cx="633.0" cy="334.0" r="12.0"/>
<circle class="background" cx="543.0" cy="370.0" r="12.0"/>
<circle class="background" cx="615.0" cy="250.0" r="12.0"/>
<circle class="background" cx="289.0" cy="184.0" r="12.0"/>
<circle class="background" cx="195.0" cy="110.0" r="12.0"/>
<circle class="background" cx="120.0" cy="173.0" r="12.0"/>
<circle class="background" cx="149.0" cy="284.0" r="12.0"/>
<circle class="background" cx="220.0" cy="360.0" r="12.0"/>
<circle class="background" cx="314.0" cy="394.0" r="12.0"/>
<circle class="background" cx="369.0" cy="470.0" r="12.0"/>
<circle class="background" cx="315.0" cy="563.0" r="12.0"/>
<circle class="background" cx="389.0" cy="644.0" r="12.0"/>
<circle class="background" cx="480.0" cy="453.0" r="12.0"/>
<circle class="background" cx="549.0" cy="550.0" r="12.0"/>
<circle class="background" cx="450.0" cy="144.0" r="12.0"/>
<circle class="background" cx="399.0" cy="50.0" r="12.0"/>
<circle class="background" cx="749.0" cy="153.0" r="12.0"/>
<circle class="background" cx="50.0" cy="210.0" r="12.0"/>
<circle class="background" cx="440.0" cy="719.0" r="12.0"/>
<circle class="background" cx="623.0" cy="610.0" r="12.0"/>
<!-- Stations -->
<circle class="station-500" cx="419.0" cy="310.0" r="10.0"/>
<circle class="station-220" cx="534.0" cy="179.0" r="10.0"/>
<circle class="station-220" cx="620.0" cy="130.0" r="10.0"/>
<circle class="station-220" cx="685.0" cy="223.0" r="10.0"/>
<circle class="station-220" cx="633.0" cy="334.0" r="10.0"/>
<circle class="station-220" cx="543.0" cy="370.0" r="10.0"/>
<circle class="station-220" cx="615.0" cy="250.0" r="10.0"/>
<circle class="station-220" cx="289.0" cy="184.0" r="10.0"/>
<circle class="station-220" cx="195.0" cy="110.0" r="10.0"/>
<circle class="station-220" cx="120.0" cy="173.0" r="10.0"/>
<circle class="station-220" cx="149.0" cy="284.0" r="10.0"/>
<circle class="station-220" cx="220.0" cy="360.0" r="10.0"/>
<circle class="station-220" cx="314.0" cy="394.0" r="10.0"/>
<circle class="station-220" cx="369.0" cy="470.0" r="10.0"/>
<circle class="station-220" cx="315.0" cy="563.0" r="10.0"/>
<circle class="station-220" cx="389.0" cy="644.0" r="10.0"/>
<circle class="station-220" cx="480.0" cy="453.0" r="10.0"/>
<circle class="station-220" cx="549.0" cy="550.0" r="10.0"/>
<circle class="station-220" cx="450.0" cy="144.0" r="10.0"/>
<circle class="station-220" cx="399.0" cy="50.0" r="10.0"/>
<circle class="station-220" cx="749.0" cy="153.0" r="10.0"/>
<circle class="station-220" cx="50.0" cy="210.0" r="10.0"/>
<circle class="station-220" cx="440.0" cy="719.0" r="10.0"/>
<circle class="station-220" cx="623.0" cy="610.0" r="10.0"/>
</svg>
