<?xml version="1.0" encoding="UTF-8"?>
<svg width="558.7139781285456" height="700.0" viewBox="0 0 558.7139781285456 700.0" xmlns="http://www.w3.org/2000/svg">
<defs>
  <style>
    .station-220 { fill: #2563eb; stroke: #1e40af; stroke-width: 2; }
    .station-500 { fill: #ef4444; stroke: #1e40af; stroke-width: 2; }
    .station-default { fill: #2563eb; stroke: #1e40af; stroke-width: 2; }
    .bend { fill: #111827; stroke: #111827; stroke-width: 1; }
    .dummy { fill: #8b4513; stroke: #8b4513; stroke-width: 1; }
    .inter { fill: #6b7280; stroke: #6b7280; stroke-width: 1; }
    .station-label { font-family: Arial, sans-serif; font-size: 8px; fill: white; text-anchor: middle; dominant-baseline: central; }
    .edge { stroke: #6b7280; stroke-width: 2; fill: none; }
    .background { fill: #f8fafc; }
  </style>
</defs>
<rect class="background" width="558.7139781285456" height="700.0"/>
<!-- Edges -->
<line class="edge" x1="294.3084731384538" y1="297.72622646769724" x2="431.90852248625544" y2="397.69851417451025"/>
<line class="edge" x1="296.65961414762364" y1="294.4901584901974" x2="434.2596634954253" y2="394.4624461970104"/>
<line class="edge" x1="294.30847313845385" y1="294.4901584901974" x2="172.53590171973863" y2="382.96311037045837"/>
<line class="edge" x1="296.6596141476236" y1="297.72622646769724" x2="174.88704272890843" y2="386.1991783479582"/>
<line class="edge" x1="296.65961414762364" y1="294.4901584901974" x2="210.6486563942085" y2="231.99953980787004"/>
<line class="edge" x1="294.3084731384538" y1="297.72622646769724" x2="208.29751538503865" y2="235.23560778536987"/>
<line class="edge" x1="297.386156675629" y1="295.4901584901974" x2="280.9595254471928" y2="244.93418598718972"/>
<line class="edge" x1="293.5819306104484" y1="296.72622646769724" x2="277.1552993820122" y2="246.1702539646895"/>
<line class="edge" x1="293.5819306104484" y1="295.49015849019736" x2="231.98206350380565" y2="485.0750553764745"/>
<line class="edge" x1="297.386156675629" y1="296.7262264676973" x2="235.7862895689862" y2="486.31112335397444"/>
<line class="edge" x1="297.386156675629" y1="296.72622646769713" x2="347.0363474643921" y2="143.9186516594911"/>
<line class="edge" x1="293.5819306104484" y1="295.49015849019753" x2="343.2321213992115" y2="142.68258368199145"/>
<line class="edge" x1="296.65961414762364" y1="297.72622646769724" x2="447.1787902160804" y2="188.36764377363693"/>
<line class="edge" x1="294.3084731384538" y1="294.4901584901974" x2="444.82764920691056" y2="185.13157579613716"/>
<line class="edge" x1="293.5819306104484" y1="296.72622646769724" x2="342.4915271922919" y2="447.25448667751874"/>
<line class="edge" x1="297.386156675629" y1="295.4901584901974" x2="346.29575325747254" y2="446.0184187000189"/>
<line class="edge" x1="295.4840436430387" y1="298.10819247894733" x2="401.79943423612104" y2="298.10819247894733"/>
<line class="edge" x1="295.4840436430387" y1="294.10819247894733" x2="401.79943423612104" y2="294.10819247894733"/>
<line class="edge" x1="295.4840436430387" y1="294.10819247894733" x2="50.0" y2="294.10819247894733"/>
<line class="edge" x1="295.4840436430387" y1="298.10819247894733" x2="50.0" y2="298.10819247894733"/>
<line class="edge" x1="431.18197995825005" y1="395.4624461970104" x2="414.75534872981314" y2="446.0184187000189"/>
<line class="edge" x1="434.98620602343067" y1="396.69851417451025" x2="418.55957479499375" y2="447.25448667751874"/>
<line class="edge" x1="171.80935919173322" y1="383.96311037045837" x2="85.56954524244107" y2="649.3819660112501"/>
<line class="edge" x1="175.61358525691384" y1="385.1991783479582" x2="89.37377130762168" y2="650.6180339887499"/>
<line class="edge" x1="211.37519892221388" y1="234.23560778536984" x2="271.0361652232347" y2="50.61803398874989"/>
<line class="edge" x1="207.57097285703327" y1="232.99953980787006" x2="267.2319391580541" y2="49.38196601125011"/>
<line class="edge" x1="120.98875322543937" y1="82.86334332991397" x2="163.99423210214692" y2="51.6180339887499"/>
<line class="edge" x1="118.63761221626949" y1="79.62727535241417" x2="161.64309109297702" y2="48.3819660112501"/>
<line class="edge" x1="117.91106968826412" y1="80.62727535241419" x2="48.09788696740969" y2="295.4901584901974"/>
<line class="edge" x1="121.71529575344474" y1="81.86334332991396" x2="51.90211303259031" y2="296.72622646769724"/>
<line class="edge" x1="299.56796535604144" y1="530.9430193882204" x2="235.05974704098088" y2="484.07505537647455"/>
<line class="edge" x1="297.2168243468716" y1="534.1790873657201" x2="232.70860603181097" y2="487.3111233539744"/>
<line class="edge" x1="299.56796535604144" y1="534.1790873657201" x2="417.83303226698837" y2="448.25448667751874"/>
<line class="edge" x1="297.2168243468716" y1="530.9430193882204" x2="415.4818912578185" y2="445.0184187000189"/>
<line class="edge" x1="231.98206350380562" y1="485.0750553764746" x2="178.59551201138817" y2="649.3819660112501"/>
<line class="edge" x1="235.78628956898623" y1="486.3111233539743" x2="182.39973807656878" y2="650.6180339887499"/>
<line class="edge" x1="180.49762504397847" y1="648.0" x2="87.47165827503137" y2="648.0"/>
<line class="edge" x1="180.49762504397847" y1="652.0" x2="87.47165827503137" y2="652.0"/>
<line class="edge" x1="269.1340521906444" y1="48.0" x2="162.81866159756197" y2="48.0"/>
<line class="edge" x1="269.1340521906444" y1="52.0" x2="162.81866159756197" y2="52.0"/>
<line class="edge" x1="427.3720437085407" y1="124.17267814487784" x2="443.79867493698214" y2="73.61670564187162"/>
<line class="edge" x1="423.5678176433602" y1="122.93661016737767" x2="439.99444887180164" y2="72.38063766437145"/>
<line class="edge" x1="423.5678176433601" y1="124.17267814487764" x2="444.1011066789052" y2="187.36764377363693"/>
<line class="edge" x1="427.37204370854073" y1="122.93661016737786" x2="447.9053327440858" y2="186.13157579613716"/>
<line class="edge" x1="440.7209913998069" y1="71.38063766437165" x2="343.95866392721683" y2="141.6825836819914"/>
<line class="edge" x1="443.07213240897687" y1="74.61670564187142" x2="346.3098049363868" y2="144.91865165949116"/>
<line class="edge" x1="401.79943423612104" y1="298.10819247894733" x2="481.53597718093283" y2="298.10819247894733"/>
<line class="edge" x1="401.79943423612104" y1="294.10819247894733" x2="481.53597718093283" y2="294.10819247894733"/>
<line class="edge" x1="479.6338641483425" y1="296.72622646769724" x2="506.8118650959553" y2="380.3715125574952"/>
<line class="edge" x1="483.43809021352314" y1="295.4901584901974" x2="510.6160911611359" y2="379.13544457999535"/>
<line class="edge" x1="507.53840762396067" y1="378.13544457999535" x2="415.4818912578185" y2="445.0184187000189"/>
<line class="edge" x1="509.8895486331305" y1="381.3715125574952" x2="417.83303226698837" y2="448.25448667751874"/>
<line class="edge" x1="344.39364022488223" y1="448.6364526887688" x2="416.65746176240344" y2="448.6364526887688"/>
<line class="edge" x1="344.39364022488223" y1="444.6364526887688" x2="416.65746176240344" y2="444.6364526887688"/>
<!-- Node Halos -->
<circle class="background" cx="295.4840436430387" cy="296.10819247894733" r="12.0"/>
<circle class="background" cx="433.08409299084036" cy="396.08048018576034" r="12.0"/>
<circle class="background" cx="173.71147222432353" cy="384.5811443592083" r="12.0"/>
<circle class="background" cx="209.47308588962358" cy="233.61757379661995" r="12.0"/>
<circle class="background" cx="119.81318272085443" cy="81.24530934116407" r="12.0"/>
<circle class="background" cx="279.0574124146025" cy="245.5522199759396" r="12.0"/>
<circle class="background" cx="298.3923948514565" cy="532.5610533769702" r="12.0"/>
<circle class="background" cx="233.88417653639593" cy="485.69308936522447" r="12.0"/>
<circle class="background" cx="180.49762504397847" cy="650.0" r="12.0"/>
<circle class="background" cx="87.47165827503137" cy="650.0" r="12.0"/>
<circle class="background" cx="269.1340521906444" cy="50.0" r="12.0"/>
<circle class="background" cx="162.81866159756197" cy="50.0" r="12.0"/>
<circle class="background" cx="425.4699306759504" cy="123.55464415612775" r="12.0"/>
<circle class="background" cx="446.0032197114955" cy="186.74960978488704" r="12.0"/>
<circle class="background" cx="441.8965619043919" cy="72.99867165312153" r="12.0"/>
<circle class="background" cx="345.1342344318018" cy="143.30061767074127" r="12.0"/>
<circle class="background" cx="401.79943423612104" cy="296.10819247894733" r="12.0"/>
<circle class="background" cx="481.53597718093283" cy="296.10819247894733" r="12.0"/>
<circle class="background" cx="508.7139781285456" cy="379.75347856874527" r="12.0"/>
<circle class="background" cx="344.39364022488223" cy="446.6364526887688" r="12.0"/>
<circle class="background" cx="50.0" cy="296.10819247894733" r="5.5"/>
<circle class="background" cx="416.65746176240344" cy="446.6364526887688" r="5.5"/>
<!-- Stations -->
<circle class="station-500" cx="295.4840436430387" cy="296.10819247894733" r="10.0"/>
<circle class="station-220" cx="433.08409299084036" cy="396.08048018576034" r="10.0"/>
<circle class="station-220" cx="173.71147222432353" cy="384.5811443592083" r="10.0"/>
<circle class="station-220" cx="209.47308588962358" cy="233.61757379661995" r="10.0"/>
<circle class="station-220" cx="119.81318272085443" cy="81.24530934116407" r="10.0"/>
<circle class="station-220" cx="279.0574124146025" cy="245.5522199759396" r="10.0"/>
<circle class="station-220" cx="298.3923948514565" cy="532.5610533769702" r="10.0"/>
<circle class="station-220" cx="233.88417653639593" cy="485.69308936522447" r="10.0"/>
<circle class="station-220" cx="180.49762504397847" cy="650.0" r="10.0"/>
<circle class="station-220" cx="87.47165827503137" cy="650.0" r="10.0"/>
<circle class="station-220" cx="269.1340521906444" cy="50.0" r="10.0"/>
<circle class="station-220" cx="162.81866159756197" cy="50.0" r="10.0"/>
<circle class="station-220" cx="425.4699306759504" cy="123.55464415612775" r="10.0"/>
<circle class="station-220" cx="446.0032197114955" cy="186.74960978488704" r="10.0"/>
<circle class="station-220" cx="441.8965619043919" cy="72.99867165312153" r="10.0"/>
<circle class="station-220" cx="345.1342344318018" cy="143.30061767074127" r="10.0"/>
<circle class="station-220" cx="401.79943423612104" cy="296.10819247894733" r="10.0"/>
<circle class="station-220" cx="481.53597718093283" cy="296.10819247894733" r="10.0"/>
<circle class="station-220" cx="508.7139781285456" cy="379.75347856874527" r="10.0"/>
<circle class="station-220" cx="344.39364022488223" cy="446.6364526887688" r="10.0"/>
<circle class="inter" cx="50.0" cy="296.10819247894733" r="5.0"/>
<text class="station-label" x="50.0" y="296.10819247894733">I0</text>
<circle class="dummy" cx="416.65746176240344" cy="446.6364526887688" r="5.0"/>
<text class="station-label" x="416.65746176240344" y="446.6364526887688">D0</text>
</svg>
