<?xml version="1.0" encoding="UTF-8"?>
<svg width="700.0" height="458.11970594846593" viewBox="0 0 700.0 458.11970594846593" xmlns="http://www.w3.org/2000/svg">
<defs>
  <style>
    .station-220 { fill: #2563eb; stroke: #1e40af; stroke-width: 2; }
    .station-500 { fill: #ef4444; stroke: #1e40af; stroke-width: 2; }
    .station-default { fill: #2563eb; stroke: #1e40af; stroke-width: 2; }
    .bend { fill: #111827; stroke: #111827; stroke-width: 1; }
    .dummy { fill: #8b4513; stroke: #8b4513; stroke-width: 1; }
    .inter { fill: #6b7280; stroke: #6b7280; stroke-width: 1; }
    .station-label { font-family: Arial, sans-serif; font-size: 8px; fill: white; text-anchor: middle; dominant-baseline: central; }
    .edge { stroke: #6b7280; stroke-width: 2; fill: none; }
    .background { fill: #f8fafc; }
  </style>
</defs>
<rect class="background" width="700.0" height="458.11970594846593"/>
<!-- Edges -->
<line class="edge" x1="277.2451939839141" y1="249.84730185276186" x2="464.3297037731436" y2="62.762792063531684"/>
<line class="edge" x1="274.41676685916786" y1="247.01887472801565" x2="461.5012766483974" y2="59.9343649387855"/>
<line class="edge" x1="274.41676685916786" y1="249.84730185276183" x2="340.5611296226297" y2="315.99166461622434"/>
<line class="edge" x1="277.2451939839141" y1="247.01887472801567" x2="343.38955674737593" y2="313.1632374914781"/>
<line class="edge" x1="275.83098042154097" y1="250.43308829038875" x2="556.4577451053852" y2="250.43308829038875"/>
<line class="edge" x1="275.83098042154097" y1="246.43308829038875" x2="556.4577451053852" y2="246.43308829038875"/>
<line class="edge" x1="275.83098042154097" y1="246.43308829038875" x2="182.2887255269263" y2="246.43308829038807"/>
<line class="edge" x1="275.83098042154097" y1="250.43308829038875" x2="182.28872552692624" y2="250.43308829038807"/>
<line class="edge" x1="274.41676685916786" y1="247.01887472801565" x2="114.73014920109071" y2="406.7054923860922"/>
<line class="edge" x1="277.2451939839141" y1="249.84730185276186" x2="117.5585763258369" y2="409.5339195108384"/>
<line class="edge" x1="277.2451939839141" y1="247.01887472801565" x2="211.10083122045094" y2="180.87451196455382"/>
<line class="edge" x1="274.41676685916786" y1="249.84730185276186" x2="208.2724040957048" y2="183.70293908930003"/>
<line class="edge" x1="273.83098042154097" y1="248.43308829038875" x2="273.83098042154097" y2="341.9753431850035"/>
<line class="edge" x1="277.83098042154097" y1="248.43308829038875" x2="277.83098042154097" y2="341.9753431850035"/>
<line class="edge" x1="462.9154902107705" y1="63.34857850115859" x2="556.4577451053852" y2="63.34857850115925"/>
<line class="edge" x1="462.9154902107705" y1="59.34857850115859" x2="556.4577451053852" y2="59.34857850115925"/>
<line class="edge" x1="554.4577451053852" y1="61.34857850115925" x2="554.4577451053852" y2="248.43308829038875"/>
<line class="edge" x1="558.4577451053852" y1="61.34857850115925" x2="558.4577451053852" y2="248.43308829038875"/>
<line class="edge" x1="556.4577451053852" y1="63.34857850115925" x2="650.0" y2="63.34857850115925"/>
<line class="edge" x1="556.4577451053852" y1="59.34857850115925" x2="650.0" y2="59.34857850115925"/>
<line class="edge" x1="555.0435315430121" y1="247.01887472801565" x2="488.89916877955034" y2="313.16323749147745"/>
<line class="edge" x1="557.8719586677583" y1="249.84730185276186" x2="491.72759590429655" y2="315.99166461622366"/>
<line class="edge" x1="490.31338234192344" y1="312.57745105385055" x2="341.9753431850028" y2="312.57745105385123"/>
<line class="edge" x1="490.31338234192344" y1="316.57745105385055" x2="341.9753431850028" y2="316.57745105385123"/>
<line class="edge" x1="180.87451196455316" y1="247.01887472801496" x2="114.73014920109071" y2="313.16323749147745"/>
<line class="edge" x1="183.70293908929938" y1="249.84730185276118" x2="117.5585763258369" y2="315.99166461622366"/>
<line class="edge" x1="114.1443627634638" y1="314.57745105385055" x2="114.1443627634638" y2="408.1197059484653"/>
<line class="edge" x1="118.1443627634638" y1="314.57745105385055" x2="118.1443627634638" y2="408.1197059484653"/>
<line class="edge" x1="114.73014920109073" y1="313.16323749147745" x2="48.58578643762692" y2="379.3076002549399"/>
<line class="edge" x1="117.55857632583688" y1="315.99166461622366" x2="51.41421356237308" y2="382.13602737968614"/>
<line class="edge" x1="211.10083122045094" y1="180.87451196455382" x2="144.95646845698784" y2="114.73014920109136"/>
<line class="edge" x1="208.2724040957048" y1="183.70293908930003" x2="142.12804133224168" y2="117.55857632583758"/>
<line class="edge" x1="144.9564684569879" y1="114.73014920109141" x2="78.81210569352673" y2="48.58578643762694"/>
<line class="edge" x1="142.12804133224162" y1="117.55857632583754" x2="75.98367856878046" y2="51.41421356237306"/>
<line class="edge" x1="274.41676685916786" y1="343.3895567473766" x2="340.5611296226304" y2="409.53391951083904"/>
<line class="edge" x1="277.2451939839141" y1="340.5611296226304" x2="343.3895567473766" y2="406.7054923860928"/>
<!-- Node Halos -->
<circle class="background" cx="275.83098042154097" cy="248.43308829038875" r="12.0"/>
<circle class="background" cx="462.9154902107705" cy="61.34857850115859" r="12.0"/>
<circle class="background" cx="556.4577451053852" cy="61.34857850115925" r="12.0"/>
<circle class="background" cx="556.4577451053852" cy="248.43308829038875" r="12.0"/>
<circle class="background" cx="490.31338234192344" cy="314.57745105385055" r="12.0"/>
<circle class="background" cx="341.9753431850028" cy="314.57745105385123" r="12.0"/>
<circle class="background" cx="182.28872552692627" cy="248.43308829038807" r="12.0"/>
<circle class="background" cx="116.1443627634638" cy="314.57745105385055" r="12.0"/>
<circle class="background" cx="116.1443627634638" cy="408.1197059484653" r="12.0"/>
<circle class="background" cx="209.68661765807786" cy="182.28872552692692" r="12.0"/>
<circle class="background" cx="143.54225489461476" cy="116.14436276346447" r="12.0"/>
<circle class="background" cx="77.3978921311536" cy="50.0" r="12.0"/>
<circle class="background" cx="275.83098042154097" cy="341.9753431850035" r="12.0"/>
<circle class="background" cx="341.9753431850035" cy="408.11970594846593" r="12.0"/>
<circle class="background" cx="650.0" cy="61.34857850115925" r="12.0"/>
<circle class="background" cx="50.0" cy="380.72181381731303" r="12.0"/>
<!-- Stations -->
<circle class="station-500" cx="275.83098042154097" cy="248.43308829038875" r="10.0"/>
<circle class="station-220" cx="462.9154902107705" cy="61.34857850115859" r="10.0"/>
<circle class="station-220" cx="556.4577451053852" cy="61.34857850115925" r="10.0"/>
<circle class="station-220" cx="556.4577451053852" cy="248.43308829038875" r="10.0"/>
<circle class="station-220" cx="490.31338234192344" cy="314.57745105385055" r="10.0"/>
<circle class="station-220" cx="341.9753431850028" cy="314.57745105385123" r="10.0"/>
<circle class="station-220" cx="182.28872552692627" cy="248.43308829038807" r="10.0"/>
<circle class="station-220" cx="116.1443627634638" cy="314.57745105385055" r="10.0"/>
<circle class="station-220" cx="116.1443627634638" cy="408.1197059484653" r="10.0"/>
<circle class="station-220" cx="209.68661765807786" cy="182.28872552692692" r="10.0"/>
<circle class="station-220" cx="143.54225489461476" cy="116.14436276346447" r="10.0"/>
<circle class="station-220" cx="77.3978921311536" cy="50.0" r="10.0"/>
<circle class="station-220" cx="275.83098042154097" cy="341.9753431850035" r="10.0"/>
<circle class="station-220" cx="341.9753431850035" cy="408.11970594846593" r="10.0"/>
<circle class="station-220" cx="650.0" cy="61.34857850115925" r="10.0"/>
<circle class="station-220" cx="50.0" cy="380.72181381731303" r="10.0"/>
</svg>
