<?xml version="1.0" encoding="UTF-8"?>
<svg width="731.0" height="788.0" viewBox="0 0 731.0 788.0" xmlns="http://www.w3.org/2000/svg">
<defs>
  <style>
    .station-220 { fill: #2563eb; stroke: #1e40af; stroke-width: 2; }
    .station-500 { fill: #ef4444; stroke: #1e40af; stroke-width: 2; }
    .station-default { fill: #2563eb; stroke: #1e40af; stroke-width: 2; }
    .bend { fill: #111827; stroke: #111827; stroke-width: 1; }
    .dummy { fill: #8b4513; stroke: #8b4513; stroke-width: 1; }
    .inter { fill: #6b7280; stroke: #6b7280; stroke-width: 1; }
    .station-label { font-family: Arial, sans-serif; font-size: 8px; fill: white; text-anchor: middle; dominant-baseline: central; }
    .edge { stroke: #6b7280; stroke-width: 2; fill: none; }
    .background { fill: #f8fafc; }
  </style>
</defs>
<rect class="background" width="731.0" height="788.0"/>
<!-- Edges -->
<line class="edge" x1="391.18381900582006" y1="384.61200885898904" x2="519.18381900582" y2="290.61200885898904"/>
<line class="edge" x1="388.81618099417994" y1="381.38799114101096" x2="516.81618099418" y2="287.38799114101096"/>
<line class="edge" x1="388.97100848914494" y1="384.71498585142507" x2="513.971008489145" y2="459.71498585142507"/>
<line class="edge" x1="391.02899151085506" y1="381.28501414857493" x2="516.028991510855" y2="456.28501414857493"/>
<line class="edge" x1="391.3348214060954" y1="381.5106203258304" x2="285.3348214060954" y2="286.5106203258304"/>
<line class="edge" x1="388.6651785939046" y1="384.4893796741696" x2="282.6651785939046" y2="289.4893796741696"/>
<line class="edge" x1="388.1430466182295" y1="383.7427813527082" x2="436.1430466182295" y2="503.7427813527082"/>
<line class="edge" x1="391.8569533817705" y1="382.2572186472918" x2="439.8569533817705" y2="502.2572186472918"/>
<line class="edge" x1="388.0769521047184" y1="382.45055774420524" x2="352.0769521047184" y2="508.45055774420524"/>
<line class="edge" x1="391.9230478952816" y1="383.54944225579476" x2="355.9230478952816" y2="509.54944225579476"/>
<line class="edge" x1="391.9369858651937" y1="383.4980820796212" x2="436.9369858651937" y2="208.49808207962124"/>
<line class="edge" x1="388.0630141348063" y1="382.5019179203788" x2="433.0630141348063" y2="207.50191792037876"/>
<line class="edge" x1="391.959378720612" y1="382.5989575718046" x2="356.959378720612" y2="211.59895757180456"/>
<line class="edge" x1="388.040621279388" y1="383.4010424281954" x2="353.040621279388" y2="212.40104242819544"/>
<line class="edge" x1="517.4356673520169" y1="290.91873100314257" x2="602.4356673520169" y2="315.91873100314257"/>
<line class="edge" x1="518.5643326479831" y1="287.08126899685743" x2="603.5643326479831" y2="312.08126899685743"/>
<line class="edge" x1="601.0102358226909" y1="313.797914575742" x2="588.0102358226909" y2="441.797914575742"/>
<line class="edge" x1="604.9897641773091" y1="314.202085424258" x2="591.9897641773091" y2="442.202085424258"/>
<line class="edge" x1="603.7591127125127" y1="315.8503372367495" x2="681.7591127125127" y2="283.8503372367495"/>
<line class="edge" x1="602.2408872874873" y1="312.1496627632505" x2="680.2408872874873" y2="280.1496627632505"/>
<line class="edge" x1="589.5827230564589" y1="440.0440143271514" x2="514.5827230564589" y2="456.0440143271514"/>
<line class="edge" x1="590.4172769435411" y1="443.9559856728486" x2="515.4172769435411" y2="459.9559856728486"/>
<line class="edge" x1="284.4621448615918" y1="286.05412689856087" x2="204.46214486159178" y2="267.05412689856087"/>
<line class="edge" x1="283.5378551384082" y1="289.94587310143913" x2="203.53785513840822" y2="270.94587310143913"/>
<line class="edge" x1="204.43657967621624" y1="267.04823203573915" x2="128.43657967621624" y2="250.04823203573915"/>
<line class="edge" x1="203.56342032378376" y1="270.95176796426085" x2="127.56342032378376" y2="253.95176796426085"/>
<line class="edge" x1="128.35332812558755" y1="250.03145758601224" x2="50.353328125587545" y2="236.03145758601224"/>
<line class="edge" x1="127.64667187441245" y1="253.96854241398776" x2="49.646671874412455" y2="239.96854241398776"/>
<line class="edge" x1="436.0569593224337" y1="503.47391236038203" x2="456.0569593224337" y2="585.473912360382"/>
<line class="edge" x1="439.9430406775663" y1="502.52608763961797" x2="459.9430406775663" y2="584.526087639618"/>
<line class="edge" x1="456.0769521047184" y1="584.4505577442053" x2="432.0769521047184" y2="668.4505577442053"/>
<line class="edge" x1="459.9230478952816" y1="585.5494422557947" x2="435.9230478952816" y2="669.5494422557947"/>
<line class="edge" x1="432.6937463038319" y1="670.5144970390355" x2="512.6937463038319" y2="739.5144970390355"/>
<line class="edge" x1="435.3062536961681" y1="667.4855029609645" x2="515.3062536961681" y2="736.4855029609645"/>
<line class="edge" x1="352.0843474295577" y1="508.42530422886733" x2="328.0843474295577" y2="588.4253042288673"/>
<line class="edge" x1="355.9156525704423" y1="509.57469577113267" x2="331.9156525704423" y2="589.5746957711327"/>
<line class="edge" x1="436.92027201421234" y1="208.55906653578336" x2="459.92027201421234" y2="129.55906653578336"/>
<line class="edge" x1="433.07972798578766" y1="207.44093346421664" x2="456.07972798578766" y2="128.44093346421664"/>
<line class="edge" x1="459.9388327490661" y1="128.50915626605922" x2="439.9388327490661" y2="49.50915626605922"/>
<line class="edge" x1="456.0611672509339" y1="129.49084373394078" x2="436.0611672509339" y2="50.49084373394078"/>
<line class="edge" x1="356.9020681374619" y1="211.38182785532487" x2="330.9020681374619" y2="131.38182785532487"/>
<line class="edge" x1="353.0979318625381" y1="212.61817214467513" x2="327.0979318625381" y2="132.61817214467513"/>
<line class="edge" x1="330.94587310143913" y1="132.46214486159178" x2="349.94587310143913" y2="52.46214486159179"/>
<line class="edge" x1="327.05412689856087" y1="131.53785513840822" x2="346.05412689856087" y2="51.53785513840821"/>
<!-- Node Halos -->
<circle class="background" cx="390.0" cy="383.0" r="12.0"/>
<circle class="background" cx="518.0" cy="289.0" r="12.0"/>
<circle class="background" cx="603.0" cy="314.0" r="12.0"/>
<circle class="background" cx="590.0" cy="442.0" r="12.0"/>
<circle class="background" cx="515.0" cy="458.0" r="12.0"/>
<circle class="background" cx="284.0" cy="288.0" r="12.0"/>
<circle class="background" cx="204.0" cy="269.0" r="12.0"/>
<circle class="background" cx="128.0" cy="252.0" r="12.0"/>
<circle class="background" cx="438.0" cy="503.0" r="12.0"/>
<circle class="background" cx="458.0" cy="585.0" r="12.0"/>
<circle class="background" cx="434.0" cy="669.0" r="12.0"/>
<circle class="background" cx="354.0" cy="509.0" r="12.0"/>
<circle class="background" cx="330.0" cy="589.0" r="12.0"/>
<circle class="background" cx="435.0" cy="208.0" r="12.0"/>
<circle class="background" cx="458.0" cy="129.0" r="12.0"/>
<circle class="background" cx="438.0" cy="50.0" r="12.0"/>
<circle class="background" cx="355.0" cy="212.0" r="12.0"/>
<circle class="background" cx="329.0" cy="132.0" r="12.0"/>
<circle class="background" cx="348.0" cy="52.0" r="12.0"/>
<circle class="background" cx="681.0" cy="282.0" r="12.0"/>
<circle class="background" cx="50.0" cy="238.0" r="12.0"/>
<circle class="background" cx="514.0" cy="738.0" r="12.0"/>
<!-- Stations -->
<circle class="station-500" cx="390.0" cy="383.0" r="10.0"/>
<circle class="station-220" cx="518.0" cy="289.0" r="10.0"/>
<circle class="station-220" cx="603.0" cy="314.0" r="10.0"/>
<circle class="station-220" cx="590.0" cy="442.0" r="10.0"/>
<circle class="station-220" cx="515.0" cy="458.0" r="10.0"/>
<circle class="station-220" cx="284.0" cy="288.0" r="10.0"/>
<circle class="station-220" cx="204.0" cy="269.0" r="10.0"/>
<circle class="station-220" cx="128.0" cy="252.0" r="10.0"/>
<circle class="station-220" cx="438.0" cy="503.0" r="10.0"/>
<circle class="station-220" cx="458.0" cy="585.0" r="10.0"/>
<circle class="station-220" cx="434.0" cy="669.0" r="10.0"/>
<circle class="station-220" cx="354.0" cy="509.0" r="10.0"/>
<circle class="station-220" cx="330.0" cy="589.0" r="10.0"/>
<circle class="station-220" cx="435.0" cy="208.0" r="10.0"/>
<circle class="station-220" cx="458.0" cy="129.0" r="10.0"/>
<circle class="station-220" cx="438.0" cy="50.0" r="10.0"/>
<circle class="station-220" cx="355.0" cy="212.0" r="10.0"/>
<circle class="station-220" cx="329.0" cy="132.0" r="10.0"/>
<circle class="station-220" cx="348.0" cy="52.0" r="10.0"/>
<circle class="station-220" cx="681.0" cy="282.0" r="10.0"/>
<circle class="station-220" cx="50.0" cy="238.0" r="10.0"/>
<circle class="station-220" cx="514.0" cy="738.0" r="10.0"/>
</svg>
