<?xml version="1.0" encoding="UTF-8"?>
<svg width="689.3398282201641" height="700.0" viewBox="0 0 689.3398282201641 700.0" xmlns="http://www.w3.org/2000/svg">
<defs>
  <style>
    .station-220 { fill: #2563eb; stroke: #1e40af; stroke-width: 2; }
    .station-500 { fill: #ef4444; stroke: #1e40af; stroke-width: 2; }
    .station-default { fill: #2563eb; stroke: #1e40af; stroke-width: 2; }
    .bend { fill: #111827; stroke: #111827; stroke-width: 1; }
    .dummy { fill: #8b4513; stroke: #8b4513; stroke-width: 1; }
    .inter { fill: #6b7280; stroke: #6b7280; stroke-width: 1; }
    .station-label { font-family: Arial, sans-serif; font-size: 8px; fill: white; text-anchor: middle; dominant-baseline: central; }
    .edge { stroke: #6b7280; stroke-width: 2; fill: none; }
    .background { fill: #f8fafc; }
  </style>
</defs>
<rect class="background" width="689.3398282201641" height="700.0"/>
<!-- Edges -->
<line class="edge" x1="377.7359312880567" y1="350.0" x2="377.7359312880567" y2="174.26406871192836"/>
<line class="edge" x1="373.7359312880567" y1="350.0" x2="373.7359312880567" y2="174.26406871192836"/>
<line class="edge" x1="375.7359312880567" y1="352.0" x2="463.6038969320925" y2="352.0"/>
<line class="edge" x1="375.7359312880567" y1="348.0" x2="463.6038969320925" y2="348.0"/>
<line class="edge" x1="374.3217177256834" y1="348.58578643762706" x2="312.18968336973415" y2="410.7178207935919"/>
<line class="edge" x1="377.15014485042997" y1="351.41421356237294" x2="315.0181104944807" y2="413.54624791833777"/>
<line class="edge" x1="374.3217177256836" y1="351.4142135623731" x2="436.45375208164774" y2="413.5462479183373"/>
<line class="edge" x1="377.1501448504298" y1="348.5857864376269" x2="439.28217920639395" y2="410.7178207935911"/>
<line class="edge" x1="373.7359312880567" y1="350.0" x2="373.7359312880567" y2="437.86796564403585"/>
<line class="edge" x1="377.7359312880567" y1="350.0" x2="377.7359312880567" y2="437.86796564403585"/>
<line class="edge" x1="377.1501448504298" y1="348.5857864376269" x2="252.88607613850138" y2="224.32171772569853"/>
<line class="edge" x1="374.3217177256836" y1="351.4142135623731" x2="250.05764901375517" y2="227.15014485044475"/>
<line class="edge" x1="375.7359312880567" y1="348.0" x2="199.99999999998502" y2="348.0"/>
<line class="edge" x1="375.7359312880567" y1="352.0" x2="199.99999999998502" y2="352.0"/>
<line class="edge" x1="375.7359312880567" y1="176.26406871192836" x2="551.4718625761284" y2="176.26406871192836"/>
<line class="edge" x1="375.7359312880567" y1="172.26406871192836" x2="551.4718625761284" y2="172.26406871192836"/>
<line class="edge" x1="549.4718625761284" y1="174.26406871192836" x2="549.4718625761284" y2="350.0"/>
<line class="edge" x1="553.4718625761284" y1="174.26406871192836" x2="553.4718625761284" y2="350.0"/>
<line class="edge" x1="551.4718625761284" y1="176.26406871192836" x2="639.3398282201641" y2="176.26406871192836"/>
<line class="edge" x1="551.4718625761284" y1="172.26406871192836" x2="639.3398282201641" y2="172.26406871192836"/>
<line class="edge" x1="551.4718625761284" y1="348.0" x2="463.6038969320925" y2="348.0"/>
<line class="edge" x1="551.4718625761284" y1="352.0" x2="463.6038969320925" y2="352.0"/>
<line class="edge" x1="313.60389693210743" y1="410.13203435596483" x2="225.73593128807164" y2="410.13203435596483"/>
<line class="edge" x1="313.60389693210743" y1="414.13203435596483" x2="225.73593128807164" y2="414.13203435596483"/>
<line class="edge" x1="225.73593128807164" y1="410.13203435596483" x2="137.86796564403582" y2="410.13203435596483"/>
<line class="edge" x1="225.73593128807164" y1="414.13203435596483" x2="137.86796564403582" y2="414.13203435596483"/>
<line class="edge" x1="137.86796564403582" y1="410.13203435596483" x2="50.0" y2="410.13203435596483"/>
<line class="edge" x1="137.86796564403582" y1="414.13203435596483" x2="50.0" y2="414.13203435596483"/>
<line class="edge" x1="435.86796564402084" y1="412.1320343559642" x2="435.86796564402084" y2="500.00000000000006"/>
<line class="edge" x1="439.86796564402084" y1="412.1320343559642" x2="439.86796564402084" y2="500.00000000000006"/>
<line class="edge" x1="435.86796564402084" y1="500.00000000000006" x2="435.86796564402084" y2="587.8679656440358"/>
<line class="edge" x1="439.86796564402084" y1="500.00000000000006" x2="439.86796564402084" y2="587.8679656440358"/>
<line class="edge" x1="436.45375208164774" y1="589.282179206409" x2="498.58578643761257" y2="651.4142135623731"/>
<line class="edge" x1="439.28217920639395" y1="586.4537520816627" x2="501.4142135623588" y2="648.5857864376269"/>
<line class="edge" x1="373.7359312880567" y1="437.86796564403585" x2="373.7359312880567" y2="525.7359312880717"/>
<line class="edge" x1="377.7359312880567" y1="437.86796564403585" x2="377.7359312880567" y2="525.7359312880717"/>
<line class="edge" x1="253.47186257612827" y1="225.73593128807164" x2="253.47186257612827" y2="137.86796564403582"/>
<line class="edge" x1="249.47186257612827" y1="225.73593128807164" x2="249.47186257612827" y2="137.86796564403582"/>
<line class="edge" x1="253.47186257612827" y1="137.86796564403582" x2="253.47186257612827" y2="50.0"/>
<line class="edge" x1="249.47186257612827" y1="137.86796564403582" x2="249.47186257612827" y2="50.0"/>
<line class="edge" x1="201.99999999998502" y1="350.0" x2="201.99999999998502" y2="262.1320343559642"/>
<line class="edge" x1="197.99999999998502" y1="350.0" x2="197.99999999998502" y2="262.1320343559642"/>
<line class="edge" x1="201.99999999998502" y1="262.1320343559642" x2="201.99999999998502" y2="174.26406871192836"/>
<line class="edge" x1="197.99999999998502" y1="262.1320343559642" x2="197.99999999998502" y2="174.26406871192836"/>
<!-- Node Halos -->
<circle class="background" cx="375.7359312880567" cy="350.0" r="12.0"/>
<circle class="background" cx="375.7359312880567" cy="174.26406871192836" r="12.0"/>
<circle class="background" cx="551.4718625761284" cy="174.26406871192836" r="12.0"/>
<circle class="background" cx="551.4718625761284" cy="350.0" r="12.0"/>
<circle class="background" cx="463.6038969320925" cy="350.0" r="12.0"/>
<circle class="background" cx="313.60389693210743" cy="412.13203435596483" r="12.0"/>
<circle class="background" cx="225.73593128807164" cy="412.13203435596483" r="12.0"/>
<circle class="background" cx="137.86796564403582" cy="412.13203435596483" r="12.0"/>
<circle class="background" cx="437.86796564402084" cy="412.1320343559642" r="12.0"/>
<circle class="background" cx="437.86796564402084" cy="500.00000000000006" r="12.0"/>
<circle class="background" cx="437.86796564402084" cy="587.8679656440358" r="12.0"/>
<circle class="background" cx="375.7359312880567" cy="437.86796564403585" r="12.0"/>
<circle class="background" cx="375.7359312880567" cy="525.7359312880717" r="12.0"/>
<circle class="background" cx="251.47186257612827" cy="225.73593128807164" r="12.0"/>
<circle class="background" cx="251.47186257612827" cy="137.86796564403582" r="12.0"/>
<circle class="background" cx="251.47186257612827" cy="50.0" r="12.0"/>
<circle class="background" cx="199.99999999998502" cy="350.0" r="12.0"/>
<circle class="background" cx="199.99999999998502" cy="262.1320343559642" r="12.0"/>
<circle class="background" cx="199.99999999998502" cy="174.26406871192836" r="12.0"/>
<circle class="background" cx="639.3398282201641" cy="174.26406871192836" r="12.0"/>
<circle class="background" cx="50.0" cy="412.13203435596483" r="12.0"/>
<circle class="background" cx="499.9999999999857" cy="650.0" r="12.0"/>
<!-- Stations -->
<circle class="station-500" cx="375.7359312880567" cy="350.0" r="10.0"/>
<circle class="station-220" cx="375.7359312880567" cy="174.26406871192836" r="10.0"/>
<circle class="station-220" cx="551.4718625761284" cy="174.26406871192836" r="10.0"/>
<circle class="station-220" cx="551.4718625761284" cy="350.0" r="10.0"/>
<circle class="station-220" cx="463.6038969320925" cy="350.0" r="10.0"/>
<circle class="station-220" cx="313.60389693210743" cy="412.13203435596483" r="10.0"/>
<circle class="station-220" cx="225.73593128807164" cy="412.13203435596483" r="10.0"/>
<circle class="station-220" cx="137.86796564403582" cy="412.13203435596483" r="10.0"/>
<circle class="station-220" cx="437.86796564402084" cy="412.1320343559642" r="10.0"/>
<circle class="station-220" cx="437.86796564402084" cy="500.00000000000006" r="10.0"/>
<circle class="station-220" cx="437.86796564402084" cy="587.8679656440358" r="10.0"/>
<circle class="station-220" cx="375.7359312880567" cy="437.86796564403585" r="10.0"/>
<circle class="station-220" cx="375.7359312880567" cy="525.7359312880717" r="10.0"/>
<circle class="station-220" cx="251.47186257612827" cy="225.73593128807164" r="10.0"/>
<circle class="station-220" cx="251.47186257612827" cy="137.86796564403582" r="10.0"/>
<circle class="station-220" cx="251.47186257612827" cy="50.0" r="10.0"/>
<circle class="station-220" cx="199.99999999998502" cy="350.0" r="10.0"/>
<circle class="station-220" cx="199.99999999998502" cy="262.1320343559642" r="10.0"/>
<circle class="station-220" cx="199.99999999998502" cy="174.26406871192836" r="10.0"/>
<circle class="station-220" cx="639.3398282201641" cy="174.26406871192836" r="10.0"/>
<circle class="station-220" cx="50.0" cy="412.13203435596483" r="10.0"/>
<circle class="station-220" cx="499.9999999999857" cy="650.0" r="10.0"/>
</svg>
