<?xml version="1.0" encoding="UTF-8"?>
<svg width="796.0" height="640.0" viewBox="0 0 796.0 640.0" xmlns="http://www.w3.org/2000/svg">
<defs>
  <style>
    .station-220 { fill: #2563eb; stroke: #1e40af; stroke-width: 2; }
    .station-500 { fill: #ef4444; stroke: #1e40af; stroke-width: 2; }
    .station-default { fill: #2563eb; stroke: #1e40af; stroke-width: 2; }
    .bend { fill: #111827; stroke: #111827; stroke-width: 1; }
    .dummy { fill: #8b4513; stroke: #8b4513; stroke-width: 1; }
    .inter { fill: #6b7280; stroke: #6b7280; stroke-width: 1; }
    .station-label { font-family: Arial, sans-serif; font-size: 8px; fill: white; text-anchor: middle; dominant-baseline: central; }
    .edge { stroke: #6b7280; stroke-width: 2; fill: none; }
    .background { fill: #f8fafc; }
  </style>
</defs>
<rect class="background" width="796.0" height="640.0"/>
<!-- Edges -->
<line class="edge" x1="490.23748446880614" y1="297.42881185421237" x2="377.23748446880614" y2="208.4288118542124"/>
<line class="edge" x1="487.76251553119386" y1="300.57118814578763" x2="374.76251553119386" y2="211.5711881457876"/>
<line class="edge" x1="488.0650057268224" y1="297.2320108289005" x2="384.0650057268224" y2="352.2320108289005"/>
<line class="edge" x1="489.9349942731776" y1="300.7679891710995" x2="385.9349942731776" y2="355.7679891710995"/>
<line class="edge" x1="489.4819495246673" y1="297.0589372355143" x2="50.4819495246673" y2="188.05893723551426"/>
<line class="edge" x1="488.5180504753327" y1="300.9410627644857" x2="49.5180504753327" y2="191.94106276448574"/>
<line class="edge" x1="489.9907311915905" y1="300.73736919105" x2="610.9907311915905" y2="231.73736919105"/>
<line class="edge" x1="488.0092688084095" y1="297.26263080895" x2="609.0092688084095" y2="228.26263080895"/>
<line class="edge" x1="488.34834786942207" y1="300.8908594608572" x2="665.3483478694221" y2="361.8908594608572"/>
<line class="edge" x1="489.65165213057793" y1="297.1091405391428" x2="666.6516521305779" y2="358.1091405391428"/>
<line class="edge" x1="487.0764721389986" y1="298.4522404104433" x2="444.0764721389986" y2="449.4522404104433"/>
<line class="edge" x1="490.9235278610014" y1="299.5477595895567" x2="447.9235278610014" y2="450.5477595895567"/>
<line class="edge" x1="490.8826788083123" y1="299.67492259165914" x2="547.8826788083122" y2="140.6749225916591"/>
<line class="edge" x1="487.1173211916877" y1="298.32507740834086" x2="544.1173211916878" y2="139.3250774083409"/>
<line class="edge" x1="487.0073710056564" y1="298.82844915942735" x2="474.0073710056564" y2="449.82844915942735"/>
<line class="edge" x1="490.9926289943436" y1="299.17155084057265" x2="477.9926289943436" y2="450.17155084057265"/>
<line class="edge" x1="377.4648519413103" y1="208.6383066461059" x2="311.4648519413103" y2="137.6383066461059"/>
<line class="edge" x1="374.5351480586897" y1="211.3616933538941" x2="308.5351480586897" y2="140.3616933538941"/>
<line class="edge" x1="308.11159963710844" y1="139.6587443126366" x2="383.11159963710844" y2="354.6587443126366"/>
<line class="edge" x1="311.88840036289156" y1="138.3412556873634" x2="386.88840036289156" y2="353.3412556873634"/>
<line class="edge" x1="311.9898517840456" y1="139.20122096692594" x2="320.9898517840456" y2="50.20122096692596"/>
<line class="edge" x1="308.0101482159544" y1="138.79877903307406" x2="317.0101482159544" y2="49.79877903307404"/>
<line class="edge" x1="383.1286483430242" y1="353.2942784005473" x2="294.1286483430242" y2="589.2942784005472"/>
<line class="edge" x1="386.8713516569758" y1="354.7057215994527" x2="297.8713516569758" y2="590.7057215994528"/>
<line class="edge" x1="296.3287979746107" y1="588.0272121523357" x2="56.328797974610715" y2="548.0272121523357"/>
<line class="edge" x1="295.6712020253893" y1="591.9727878476643" x2="55.671202025389285" y2="551.9727878476643"/>
<line class="edge" x1="57.9997222800792" y1="549.966671295332" x2="51.9997222800792" y2="189.96667129533202"/>
<line class="edge" x1="54.0002777199208" y1="550.033328704668" x2="48.0002777199208" y2="190.03332870466798"/>
<line class="edge" x1="610.853237351426" y1="231.80886318502303" x2="716.853237351426" y2="181.80886318502303"/>
<line class="edge" x1="609.146762648574" y1="228.19113681497697" x2="715.146762648574" y2="178.19113681497697"/>
<line class="edge" x1="714.0704723575245" y1="180.52623481158423" x2="744.0704723575245" y2="290.52623481158423"/>
<line class="edge" x1="717.9295276424755" y1="179.47376518841577" x2="747.9295276424755" y2="289.47376518841577"/>
<line class="edge" x1="744.682990784263" y1="288.49484661058625" x2="664.682990784263" y2="358.49484661058625"/>
<line class="edge" x1="747.317009215737" y1="291.50515338941375" x2="667.317009215737" y2="361.50515338941375"/>
<line class="edge" x1="444.12734164486193" y1="449.29775311682323" x2="414.12734164486193" y2="529.2977531168232"/>
<line class="edge" x1="447.87265835513807" y1="450.70224688317677" x2="417.87265835513807" y2="530.7022468831768"/>
<!-- Node Halos -->
<circle class="background" cx="489.0" cy="299.0" r="12.0"/>
<circle class="background" cx="376.0" cy="210.0" r="12.0"/>
<circle class="background" cx="310.0" cy="139.0" r="12.0"/>
<circle class="background" cx="385.0" cy="354.0" r="12.0"/>
<circle class="background" cx="296.0" cy="590.0" r="12.0"/>
<circle class="background" cx="56.0" cy="550.0" r="12.0"/>
<circle class="background" cx="50.0" cy="190.0" r="12.0"/>
<circle class="background" cx="610.0" cy="230.0" r="12.0"/>
<circle class="background" cx="716.0" cy="180.0" r="12.0"/>
<circle class="background" cx="746.0" cy="290.0" r="12.0"/>
<circle class="background" cx="666.0" cy="360.0" r="12.0"/>
<circle class="background" cx="446.0" cy="450.0" r="12.0"/>
<circle class="background" cx="416.0" cy="530.0" r="12.0"/>
<circle class="background" cx="546.0" cy="140.0" r="12.0"/>
<circle class="background" cx="476.0" cy="450.0" r="12.0"/>
<circle class="background" cx="319.0" cy="50.0" r="12.0"/>
<!-- Stations -->
<circle class="station-500" cx="489.0" cy="299.0" r="10.0"/>
<circle class="station-220" cx="376.0" cy="210.0" r="10.0"/>
<circle class="station-220" cx="310.0" cy="139.0" r="10.0"/>
<circle class="station-220" cx="385.0" cy="354.0" r="10.0"/>
<circle class="station-220" cx="296.0" cy="590.0" r="10.0"/>
<circle class="station-220" cx="56.0" cy="550.0" r="10.0"/>
<circle class="station-220" cx="50.0" cy="190.0" r="10.0"/>
<circle class="station-220" cx="610.0" cy="230.0" r="10.0"/>
<circle class="station-220" cx="716.0" cy="180.0" r="10.0"/>
<circle class="station-220" cx="746.0" cy="290.0" r="10.0"/>
<circle class="station-220" cx="666.0" cy="360.0" r="10.0"/>
<circle class="station-220" cx="446.0" cy="450.0" r="10.0"/>
<circle class="station-220" cx="416.0" cy="530.0" r="10.0"/>
<circle class="station-220" cx="546.0" cy="140.0" r="10.0"/>
<circle class="station-220" cx="476.0" cy="450.0" r="10.0"/>
<circle class="station-220" cx="319.0" cy="50.0" r="10.0"/>
</svg>
