<?xml version="1.0" encoding="UTF-8"?>
<svg width="656.7223249782437" height="700.0" viewBox="0 0 656.7223249782437 700.0" xmlns="http://www.w3.org/2000/svg">
<defs>
  <style>
    .station-220 { fill: #2563eb; stroke: #1e40af; stroke-width: 2; }
    .station-500 { fill: #ef4444; stroke: #1e40af; stroke-width: 2; }
    .station-default { fill: #2563eb; stroke: #1e40af; stroke-width: 2; }
    .bend { fill: #111827; stroke: #111827; stroke-width: 1; }
    .dummy { fill: #8b4513; stroke: #8b4513; stroke-width: 1; }
    .inter { fill: #6b7280; stroke: #6b7280; stroke-width: 1; }
    .station-label { font-family: Arial, sans-serif; font-size: 8px; fill: white; text-anchor: middle; dominant-baseline: central; }
    .edge { stroke: #6b7280; stroke-width: 2; fill: none; }
    .background { fill: #f8fafc; }
  </style>
</defs>
<rect class="background" width="656.7223249782437" height="700.0"/>
<!-- Edges -->
<line class="edge" x1="314.4744073105597" y1="383.87246982868936" x2="366.71518230330787" y2="331.6316948359412"/>
<line class="edge" x1="311.64598018581347" y1="381.04404270394315" x2="363.88675517856166" y2="328.80326771119496"/>
<line class="edge" x1="313.0601937481866" y1="384.45825626631625" x2="423.87961250362537" y2="384.45825626631625"/>
<line class="edge" x1="313.0601937481866" y1="380.45825626631625" x2="423.87961250362537" y2="380.45825626631625"/>
<line class="edge" x1="311.64598018581347" y1="383.87246982868936" x2="416.12753017130984" y2="488.35401981418573"/>
<line class="edge" x1="314.4744073105597" y1="381.04404270394315" x2="418.95595729605606" y2="485.5255926894395"/>
<line class="edge" x1="311.0601937481866" y1="382.45825626631625" x2="311.0601937481866" y2="493.27767502175504"/>
<line class="edge" x1="315.0601937481866" y1="382.45825626631625" x2="315.0601937481866" y2="493.27767502175504"/>
<line class="edge" x1="311.64598018581347" y1="381.04404270394315" x2="181.04404270394278" y2="511.64598018581387"/>
<line class="edge" x1="314.4744073105597" y1="383.87246982868936" x2="183.872469828689" y2="514.4744073105601"/>
<line class="edge" x1="313.0601937481866" y1="380.45825626631625" x2="128.361162489122" y2="380.45825626631625"/>
<line class="edge" x1="313.0601937481866" y1="384.45825626631625" x2="128.361162489122" y2="384.45825626631625"/>
<line class="edge" x1="314.4744073105597" y1="381.04404270394315" x2="236.1132448214377" y2="302.68288021482067"/>
<line class="edge" x1="311.64598018581347" y1="383.87246982868936" x2="233.28481769669148" y2="305.5113073395669"/>
<line class="edge" x1="315.0601937481866" y1="382.45825626631625" x2="315.0601937481866" y2="234.69903125906458"/>
<line class="edge" x1="311.0601937481866" y1="382.45825626631625" x2="311.0601937481866" y2="234.69903125906458"/>
<line class="edge" x1="367.30096874093476" y1="330.21748127356807" x2="367.30096874093425" y2="256.33786876994225"/>
<line class="edge" x1="363.30096874093476" y1="330.21748127356807" x2="363.30096874093425" y2="256.33786876994225"/>
<line class="edge" x1="366.71518230330736" y1="254.92365520756917" x2="340.5947948069335" y2="228.8032677111943"/>
<line class="edge" x1="363.88675517856115" y1="257.7520823323153" x2="337.7663676821873" y2="231.63169483594046"/>
<line class="edge" x1="425.2938260659985" y1="383.87246982868936" x2="529.7753760514943" y2="279.39091984319197"/>
<line class="edge" x1="422.46539894125226" y1="381.04404270394315" x2="526.9469489267481" y2="276.56249271844575"/>
<line class="edge" x1="529.7753760514943" y1="279.39091984319197" x2="608.1365385406168" y2="201.02975735406946"/>
<line class="edge" x1="526.9469489267481" y1="276.56249271844575" x2="605.3081114158706" y2="198.20133022932325"/>
<line class="edge" x1="418.95595729605606" y1="488.35401981418573" x2="549.5578947779268" y2="357.752082332315"/>
<line class="edge" x1="416.12753017130984" y1="485.5255926894395" x2="546.7294676531806" y2="354.9236552075688"/>
<line class="edge" x1="546.7294676531806" y1="357.752082332315" x2="598.9702426459293" y2="409.9928573250632"/>
<line class="edge" x1="549.5578947779268" y1="354.9236552075688" x2="601.7986697706755" y2="407.164430200317"/>
<line class="edge" x1="311.6459801858138" y1="494.6918885841285" x2="416.1275301713096" y2="599.173438569575"/>
<line class="edge" x1="314.47440731055934" y1="491.8634614593816" x2="418.95595729605515" y2="596.3450114448281"/>
<line class="edge" x1="181.04404270394278" y1="514.4744073105601" x2="207.16443020031662" y2="540.5947948069345"/>
<line class="edge" x1="183.872469828689" y1="511.64598018581387" x2="209.99285732506283" y2="537.7663676821883"/>
<line class="edge" x1="206.57864376268972" y1="539.1805812445614" x2="206.57864376268972" y2="650.0"/>
<line class="edge" x1="210.57864376268972" y1="539.1805812445614" x2="210.57864376268972" y2="650.0"/>
<line class="edge" x1="126.9469489267489" y1="381.04404270394315" x2="48.58578643762691" y2="459.40520519306517"/>
<line class="edge" x1="129.7753760514951" y1="383.87246982868936" x2="51.41421356237309" y2="462.2336323178114"/>
<line class="edge" x1="236.11324482143766" y1="302.68288021482067" x2="157.75208233231464" y2="224.3217177256981"/>
<line class="edge" x1="233.2848176966915" y1="305.5113073395669" x2="154.9236552075685" y2="227.15014485044432"/>
<line class="edge" x1="154.92365520756846" y1="224.32171772569814" x2="50.44210522207053" y2="328.80326771119655"/>
<line class="edge" x1="157.75208233231467" y1="227.1501448504443" x2="53.27053234681673" y2="331.63169483594277"/>
<line class="edge" x1="315.0601937481866" y1="234.69903125906458" x2="315.0601937481866" y2="50.0"/>
<line class="edge" x1="311.0601937481866" y1="234.69903125906458" x2="311.0601937481866" y2="50.0"/>
<!-- Node Halos -->
<circle class="background" cx="313.0601937481866" cy="382.45825626631625" r="12.0"/>
<circle class="background" cx="365.30096874093476" cy="330.21748127356807" r="12.0"/>
<circle class="background" cx="365.30096874093425" cy="256.33786876994225" r="12.0"/>
<circle class="background" cx="339.1805812445604" cy="230.2174812735674" r="12.0"/>
<circle class="background" cx="423.87961250362537" cy="382.45825626631625" r="12.0"/>
<circle class="background" cx="528.3611624891212" cy="277.97670628081886" r="12.0"/>
<circle class="background" cx="606.7223249782437" cy="199.61554379169635" r="12.0"/>
<circle class="background" cx="417.54174373368295" cy="486.9398062518126" r="12.0"/>
<circle class="background" cx="548.1436812155537" cy="356.3378687699419" r="12.0"/>
<circle class="background" cx="600.3844562083024" cy="408.5786437626901" r="12.0"/>
<circle class="background" cx="313.0601937481866" cy="493.27767502175504" r="12.0"/>
<circle class="background" cx="417.5417437336824" cy="597.7592250072015" r="12.0"/>
<circle class="background" cx="182.45825626631589" cy="513.060193748187" r="12.0"/>
<circle class="background" cx="208.57864376268972" cy="539.1805812445614" r="12.0"/>
<circle class="background" cx="208.57864376268972" cy="650.0" r="12.0"/>
<circle class="background" cx="128.361162489122" cy="382.45825626631625" r="12.0"/>
<circle class="background" cx="50.0" cy="460.8194187554383" r="12.0"/>
<circle class="background" cx="234.69903125906458" cy="304.0970937771938" r="12.0"/>
<circle class="background" cx="156.33786876994157" cy="225.7359312880712" r="12.0"/>
<circle class="background" cx="51.85631878444363" cy="330.21748127356966" r="12.0"/>
<circle class="background" cx="313.0601937481866" cy="234.69903125906458" r="12.0"/>
<circle class="background" cx="313.0601937481866" cy="50.0" r="12.0"/>
<!-- Stations -->
<circle class="station-500" cx="313.0601937481866" cy="382.45825626631625" r="10.0"/>
<circle class="station-220" cx="365.30096874093476" cy="330.21748127356807" r="10.0"/>
<circle class="station-220" cx="365.30096874093425" cy="256.33786876994225" r="10.0"/>
<circle class="station-220" cx="339.1805812445604" cy="230.2174812735674" r="10.0"/>
<circle class="station-220" cx="423.87961250362537" cy="382.45825626631625" r="10.0"/>
<circle class="station-220" cx="528.3611624891212" cy="277.97670628081886" r="10.0"/>
<circle class="station-220" cx="606.7223249782437" cy="199.61554379169635" r="10.0"/>
<circle class="station-220" cx="417.54174373368295" cy="486.9398062518126" r="10.0"/>
<circle class="station-220" cx="548.1436812155537" cy="356.3378687699419" r="10.0"/>
<circle class="station-220" cx="600.3844562083024" cy="408.5786437626901" r="10.0"/>
<circle class="station-220" cx="313.0601937481866" cy="493.27767502175504" r="10.0"/>
<circle class="station-220" cx="417.5417437336824" cy="597.7592250072015" r="10.0"/>
<circle class="station-220" cx="182.45825626631589" cy="513.060193748187" r="10.0"/>
<circle class="station-220" cx="208.57864376268972" cy="539.1805812445614" r="10.0"/>
<circle class="station-220" cx="208.57864376268972" cy="650.0" r="10.0"/>
<circle class="station-220" cx="128.361162489122" cy="382.45825626631625" r="10.0"/>
<circle class="station-220" cx="50.0" cy="460.8194187554383" r="10.0"/>
<circle class="station-220" cx="234.69903125906458" cy="304.0970937771938" r="10.0"/>
<circle class="station-220" cx="156.33786876994157" cy="225.7359312880712" r="10.0"/>
<circle class="station-220" cx="51.85631878444363" cy="330.21748127356966" r="10.0"/>
<circle class="station-220" cx="313.0601937481866" cy="234.69903125906458" r="10.0"/>
<circle class="station-220" cx="313.0601937481866" cy="50.0" r="10.0"/>
</svg>
