<?xml version="1.0" encoding="UTF-8"?>
<svg width="655.2560167416491" height="700.0" viewBox="0 0 655.2560167416491 700.0" xmlns="http://www.w3.org/2000/svg">
<defs>
  <style>
    .station-220 { fill: #2563eb; stroke: #1e40af; stroke-width: 2; }
    .station-500 { fill: #ef4444; stroke: #1e40af; stroke-width: 2; }
    .station-default { fill: #2563eb; stroke: #1e40af; stroke-width: 2; }
    .bend { fill: #111827; stroke: #111827; stroke-width: 1; }
    .dummy { fill: #8b4513; stroke: #8b4513; stroke-width: 1; }
    .inter { fill: #6b7280; stroke: #6b7280; stroke-width: 1; }
    .station-label { font-family: Arial, sans-serif; font-size: 8px; fill: white; text-anchor: middle; dominant-baseline: central; }
    .edge { stroke: #6b7280; stroke-width: 2; fill: none; }
    .background { fill: #f8fafc; }
  </style>
</defs>
<rect class="background" width="655.2560167416491" height="700.0"/>
<!-- Edges -->
<line class="edge" x1="420.2227904714391" y1="373.78620519154924" x2="539.3063795893669" y2="254.70261607362215"/>
<line class="edge" x1="417.3943633466929" y1="370.95777806680303" x2="536.4779524646207" y2="251.87418894887594"/>
<line class="edge" x1="418.808576909066" y1="374.37199162917614" x2="537.8921660269938" y2="374.37199162917614"/>
<line class="edge" x1="418.808576909066" y1="370.37199162917614" x2="537.8921660269938" y2="370.37199162917614"/>
<line class="edge" x1="417.3943633466929" y1="373.78620519154924" x2="488.8445168174496" y2="445.23635866230586"/>
<line class="edge" x1="420.2227904714391" y1="370.95777806680303" x2="491.6729439421958" y2="442.40793153755965"/>
<line class="edge" x1="420.2227904714391" y1="370.95777806680303" x2="169.30095231302033" y2="120.03593990838355"/>
<line class="edge" x1="417.3943633466929" y1="373.78620519154924" x2="166.47252518827412" y2="122.86436703312974"/>
<line class="edge" x1="418.808576909066" y1="370.37199162917614" x2="275.90826996755277" y2="370.37199162917614"/>
<line class="edge" x1="418.808576909066" y1="374.37199162917614" x2="275.90826996755277" y2="374.37199162917614"/>
<line class="edge" x1="416.808576909066" y1="372.37199162917614" x2="416.808576909066" y2="515.2722985706894"/>
<line class="edge" x1="420.808576909066" y1="372.37199162917614" x2="420.808576909066" y2="515.2722985706894"/>
<line class="edge" x1="417.3943633466929" y1="370.95777806680303" x2="240.812131047853" y2="547.5400103656436"/>
<line class="edge" x1="420.2227904714391" y1="373.78620519154924" x2="243.6405581725992" y2="550.3684374903899"/>
<line class="edge" x1="420.808576909066" y1="372.37199162917614" x2="420.808576909066" y2="229.47168468766282"/>
<line class="edge" x1="416.808576909066" y1="372.37199162917614" x2="416.808576909066" y2="229.47168468766282"/>
<line class="edge" x1="535.8921660269938" y1="253.28840251124905" x2="535.8921660269938" y2="300.92183815841946"/>
<line class="edge" x1="539.8921660269938" y1="253.28840251124905" x2="539.8921660269938" y2="300.92183815841946"/>
<line class="edge" x1="535.8921660269938" y1="300.92183815841946" x2="535.8921660269938" y2="372.37199162917614"/>
<line class="edge" x1="539.8921660269938" y1="300.92183815841946" x2="539.8921660269938" y2="372.37199162917614"/>
<line class="edge" x1="539.3063795893669" y1="302.33605172079257" x2="606.6702303040222" y2="234.97220100613728"/>
<line class="edge" x1="536.4779524646207" y1="299.50762459604636" x2="603.841803179276" y2="232.14377388139107"/>
<line class="edge" x1="539.8921660269938" y1="443.82214509993275" x2="539.8921660269938" y2="372.37199162917614"/>
<line class="edge" x1="535.8921660269938" y1="443.82214509993275" x2="535.8921660269938" y2="372.37199162917614"/>
<line class="edge" x1="537.8921660269938" y1="441.82214509993275" x2="490.2587303798227" y2="441.82214509993275"/>
<line class="edge" x1="537.8921660269938" y1="445.82214509993275" x2="490.2587303798227" y2="445.82214509993275"/>
<line class="edge" x1="166.47252518827412" y1="120.03593990838357" x2="82.26771179495486" y2="204.2407533017042"/>
<line class="edge" x1="169.30095231302033" y1="122.86436703312972" x2="85.09613891970108" y2="207.06918042645034"/>
<line class="edge" x1="81.68192535732797" y1="205.65496686407727" x2="81.68192535732797" y2="372.37199162917614"/>
<line class="edge" x1="85.68192535732797" y1="205.65496686407727" x2="85.68192535732797" y2="372.37199162917614"/>
<line class="edge" x1="85.09613891970105" y1="204.24075330170416" x2="51.41421356237308" y2="170.55882794437684"/>
<line class="edge" x1="82.26771179495489" y1="207.06918042645037" x2="48.58578643762692" y2="173.38725506912306"/>
<line class="edge" x1="83.68192535732797" y1="374.37199162917614" x2="275.90826996755277" y2="374.37199162917614"/>
<line class="edge" x1="83.68192535732797" y1="370.37199162917614" x2="275.90826996755277" y2="370.37199162917614"/>
<line class="edge" x1="417.3943633466929" y1="516.6865121330625" x2="451.0762887040209" y2="550.3684374903899"/>
<line class="edge" x1="420.2227904714391" y1="513.8580850083163" x2="453.9047158287671" y2="547.5400103656436"/>
<line class="edge" x1="452.490502266394" y1="546.9542239280167" x2="289.85978025739723" y2="546.9542239280167"/>
<line class="edge" x1="452.490502266394" y1="550.9542239280167" x2="289.85978025739723" y2="550.9542239280167"/>
<line class="edge" x1="451.0762887040209" y1="547.5400103656436" x2="350.03051263203764" y2="648.5857864376269"/>
<line class="edge" x1="453.9047158287671" y1="550.3684374903899" x2="352.85893975678385" y2="651.4142135623731"/>
<line class="edge" x1="289.85978025739723" y1="546.9542239280167" x2="242.2263446102261" y2="546.9542239280167"/>
<line class="edge" x1="289.85978025739723" y1="550.9542239280167" x2="242.2263446102261" y2="550.9542239280167"/>
<line class="edge" x1="420.808576909066" y1="229.47168468766282" x2="420.808576909066" y2="134.20481339332062"/>
<line class="edge" x1="416.808576909066" y1="229.47168468766282" x2="416.808576909066" y2="134.20481339332062"/>
<line class="edge" x1="420.2227904714391" y1="132.79059983094754" x2="336.01797707812057" y2="48.58578643762692"/>
<line class="edge" x1="417.3943633466929" y1="135.6190269556937" x2="333.18954995337435" y2="51.41421356237308"/>
<!-- Node Halos -->
<circle class="background" cx="418.808576909066" cy="372.37199162917614" r="12.0"/>
<circle class="background" cx="537.8921660269938" cy="253.28840251124905" r="12.0"/>
<circle class="background" cx="537.8921660269938" cy="300.92183815841946" r="12.0"/>
<circle class="background" cx="537.8921660269938" cy="443.82214509993275" r="12.0"/>
<circle class="background" cx="490.2587303798227" cy="443.82214509993275" r="12.0"/>
<circle class="background" cx="537.8921660269938" cy="372.37199162917614" r="12.0"/>
<circle class="background" cx="167.88673875064723" cy="121.45015347075665" r="12.0"/>
<circle class="background" cx="83.68192535732797" cy="205.65496686407727" r="12.0"/>
<circle class="background" cx="83.68192535732797" cy="372.37199162917614" r="12.0"/>
<circle class="background" cx="275.90826996755277" cy="372.37199162917614" r="12.0"/>
<circle class="background" cx="418.808576909066" cy="515.2722985706894" r="12.0"/>
<circle class="background" cx="452.490502266394" cy="548.9542239280167" r="12.0"/>
<circle class="background" cx="289.85978025739723" cy="548.9542239280167" r="12.0"/>
<circle class="background" cx="242.2263446102261" cy="548.9542239280167" r="12.0"/>
<circle class="background" cx="418.808576909066" cy="229.47168468766282" r="12.0"/>
<circle class="background" cx="418.808576909066" cy="134.20481339332062" r="12.0"/>
<circle class="background" cx="334.60376351574746" cy="50.0" r="12.0"/>
<circle class="background" cx="605.2560167416491" cy="233.55798744376418" r="12.0"/>
<circle class="background" cx="50.0" cy="171.97304150674995" r="12.0"/>
<circle class="background" cx="351.44472619441075" cy="650.0" r="12.0"/>
<!-- Stations -->
<circle class="station-500" cx="418.808576909066" cy="372.37199162917614" r="10.0"/>
<circle class="station-220" cx="537.8921660269938" cy="253.28840251124905" r="10.0"/>
<circle class="station-220" cx="537.8921660269938" cy="300.92183815841946" r="10.0"/>
<circle class="station-220" cx="537.8921660269938" cy="443.82214509993275" r="10.0"/>
<circle class="station-220" cx="490.2587303798227" cy="443.82214509993275" r="10.0"/>
<circle class="station-220" cx="537.8921660269938" cy="372.37199162917614" r="10.0"/>
<circle class="station-220" cx="167.88673875064723" cy="121.45015347075665" r="10.0"/>
<circle class="station-220" cx="83.68192535732797" cy="205.65496686407727" r="10.0"/>
<circle class="station-220" cx="83.68192535732797" cy="372.37199162917614" r="10.0"/>
<circle class="station-220" cx="275.90826996755277" cy="372.37199162917614" r="10.0"/>
<circle class="station-220" cx="418.808576909066" cy="515.2722985706894" r="10.0"/>
<circle class="station-220" cx="452.490502266394" cy="548.9542239280167" r="10.0"/>
<circle class="station-220" cx="289.85978025739723" cy="548.9542239280167" r="10.0"/>
<circle class="station-220" cx="242.2263446102261" cy="548.9542239280167" r="10.0"/>
<circle class="station-220" cx="418.808576909066" cy="229.47168468766282" r="10.0"/>
<circle class="station-220" cx="418.808576909066" cy="134.20481339332062" r="10.0"/>
<circle class="station-220" cx="334.60376351574746" cy="50.0" r="10.0"/>
<circle class="station-220" cx="605.2560167416491" cy="233.55798744376418" r="10.0"/>
<circle class="station-220" cx="50.0" cy="171.97304150674995" r="10.0"/>
<circle class="station-220" cx="351.44472619441075" cy="650.0" r="10.0"/>
</svg>
