<?xml version="1.0" encoding="UTF-8"?>
<svg width="707.0" height="621.0" viewBox="0 0 707.0 621.0" xmlns="http://www.w3.org/2000/svg">
<defs>
  <style>
    .station-220 { fill: #2563eb; stroke: #1e40af; stroke-width: 2; }
    .station-500 { fill: #ef4444; stroke: #1e40af; stroke-width: 2; }
    .station-default { fill: #2563eb; stroke: #1e40af; stroke-width: 2; }
    .bend { fill: #111827; stroke: #111827; stroke-width: 1; }
    .dummy { fill: #8b4513; stroke: #8b4513; stroke-width: 1; }
    .inter { fill: #6b7280; stroke: #6b7280; stroke-width: 1; }
    .station-label { font-family: Arial, sans-serif; font-size: 8px; fill: white; text-anchor: middle; dominant-baseline: central; }
    .edge { stroke: #6b7280; stroke-width: 2; fill: none; }
    .background { fill: #f8fafc; }
  </style>
</defs>
<rect class="background" width="707.0" height="621.0"/>
<!-- Edges -->
<line class="edge" x1="311.34750771537136" y1="306.47791168782663" x2="447.34750771537136" y2="182.47791168782666"/>
<line class="edge" x1="308.65249228462864" y1="303.52208831217337" x2="444.65249228462864" y2="179.52208831217334"/>
<line class="edge" x1="308.905079873884" y1="306.67366362134874" x2="415.905079873884" y2="376.67366362134874"/>
<line class="edge" x1="311.094920126116" y1="303.32633637865126" x2="418.094920126116" y2="373.32633637865126"/>
<line class="edge" x1="310.2388285770947" y1="306.98568902670155" x2="601.2388285770946" y2="271.98568902670155"/>
<line class="edge" x1="309.7611714229053" y1="303.01431097329845" x2="600.7611714229054" y2="268.01431097329845"/>
<line class="edge" x1="308.5201198532081" y1="303.6546544120074" x2="208.52011985320812" y2="413.6546544120074"/>
<line class="edge" x1="311.4798801467919" y1="306.3453455879926" x2="211.47988014679188" y2="416.3453455879926"/>
<line class="edge" x1="308.12549931219775" y1="304.3026857441376" x2="215.12549931219777" y2="554.3026857441375"/>
<line class="edge" x1="311.87450068780225" y1="305.6973142558624" x2="218.87450068780223" y2="555.6973142558625"/>
<line class="edge" x1="311.46170875501747" y1="303.6349331461407" x2="198.46170875501747" y2="182.63493314614072"/>
<line class="edge" x1="308.53829124498253" y1="306.3650668538593" x2="195.53829124498253" y2="185.36506685385928"/>
<line class="edge" x1="308.1369501857927" y1="305.72735506445076" x2="365.1369501857927" y2="451.72735506445076"/>
<line class="edge" x1="311.8630498142073" y1="304.27264493554924" x2="368.8630498142073" y2="450.27264493554924"/>
<line class="edge" x1="446.6170093960749" y1="182.90244563789753" x2="557.6170093960749" y2="146.90244563789753"/>
<line class="edge" x1="445.3829906039251" y1="179.09755436210247" x2="556.3829906039251" y2="143.09755436210247"/>
<line class="edge" x1="555.1134627396495" y1="145.66406111564336" x2="599.1134627396495" y2="270.66406111564334"/>
<line class="edge" x1="558.8865372603505" y1="144.33593888435664" x2="602.8865372603505" y2="269.33593888435666"/>
<line class="edge" x1="557.4667459049507" y1="146.94477460396104" x2="657.4667459049507" y2="122.94477460396104"/>
<line class="edge" x1="556.5332540950493" y1="143.05522539603896" x2="656.5332540950493" y2="119.05522539603896"/>
<line class="edge" x1="599.3640738578002" y1="268.84945853735405" x2="535.3640738578002" y2="359.84945853735405"/>
<line class="edge" x1="602.6359261421998" y1="271.15054146264595" x2="538.6359261421998" y2="362.15054146264595"/>
<line class="edge" x1="536.7682386008796" y1="359.0134737218255" x2="416.76823860087967" y2="373.0134737218255"/>
<line class="edge" x1="537.2317613991204" y1="362.9865262781745" x2="417.23176139912033" y2="376.9865262781745"/>
<line class="edge" x1="208.4752468073079" y1="413.7057327550404" x2="135.4752468073079" y2="499.7057327550404"/>
<line class="edge" x1="211.5247531926921" y1="416.2942672449596" x2="138.5247531926921" y2="502.2942672449596"/>
<line class="edge" x1="135.88105428999788" y1="502.6576973481513" x2="215.88105428999788" y2="556.6576973481513"/>
<line class="edge" x1="138.11894571000212" y1="499.3423026518487" x2="218.11894571000212" y2="553.3423026518487"/>
<line class="edge" x1="135.59585163443035" y1="499.57579237206505" x2="64.59585163443035" y2="569.575792372065"/>
<line class="edge" x1="138.40414836556965" y1="502.42420762793495" x2="67.40414836556965" y2="572.424207627935"/>
<line class="edge" x1="198.34810078827837" y1="182.52262927311958" x2="118.34810078827839" y2="109.52262927311958"/>
<line class="edge" x1="195.65189921172163" y1="185.47737072688042" x2="115.65189921172161" y2="112.47737072688042"/>
<line class="edge" x1="118.34644386590895" y1="109.52111903252623" x2="51.34644386590895" y2="48.52111903252623"/>
<line class="edge" x1="115.65355613409105" y1="112.47888096747377" x2="48.65355613409105" y2="51.47888096747377"/>
<line class="edge" x1="365.16488874938017" y1="451.7952148752686" x2="404.16488874938017" y2="541.7952148752686"/>
<line class="edge" x1="368.83511125061983" y1="450.2047851247314" x2="407.83511125061983" y2="540.2047851247314"/>
<!-- Node Halos -->
<circle class="background" cx="310.0" cy="305.0" r="12.0"/>
<circle class="background" cx="446.0" cy="181.0" r="12.0"/>
<circle class="background" cx="557.0" cy="145.0" r="12.0"/>
<circle class="background" cx="601.0" cy="270.0" r="12.0"/>
<circle class="background" cx="537.0" cy="361.0" r="12.0"/>
<circle class="background" cx="417.0" cy="375.0" r="12.0"/>
<circle class="background" cx="210.0" cy="415.0" r="12.0"/>
<circle class="background" cx="137.0" cy="501.0" r="12.0"/>
<circle class="background" cx="217.0" cy="555.0" r="12.0"/>
<circle class="background" cx="197.0" cy="184.0" r="12.0"/>
<circle class="background" cx="117.0" cy="111.0" r="12.0"/>
<circle class="background" cx="50.0" cy="50.0" r="12.0"/>
<circle class="background" cx="367.0" cy="451.0" r="12.0"/>
<circle class="background" cx="406.0" cy="541.0" r="12.0"/>
<circle class="background" cx="657.0" cy="121.0" r="12.0"/>
<circle class="background" cx="66.0" cy="571.0" r="12.0"/>
<!-- Stations -->
<circle class="station-500" cx="310.0" cy="305.0" r="10.0"/>
<circle class="station-220" cx="446.0" cy="181.0" r="10.0"/>
<circle class="station-220" cx="557.0" cy="145.0" r="10.0"/>
<circle class="station-220" cx="601.0" cy="270.0" r="10.0"/>
<circle class="station-220" cx="537.0" cy="361.0" r="10.0"/>
<circle class="station-220" cx="417.0" cy="375.0" r="10.0"/>
<circle class="station-220" cx="210.0" cy="415.0" r="10.0"/>
<circle class="station-220" cx="137.0" cy="501.0" r="10.0"/>
<circle class="station-220" cx="217.0" cy="555.0" r="10.0"/>
<circle class="station-220" cx="197.0" cy="184.0" r="10.0"/>
<circle class="station-220" cx="117.0" cy="111.0" r="10.0"/>
<circle class="station-220" cx="50.0" cy="50.0" r="10.0"/>
<circle class="station-220" cx="367.0" cy="451.0" r="10.0"/>
<circle class="station-220" cx="406.0" cy="541.0" r="10.0"/>
<circle class="station-220" cx="657.0" cy="121.0" r="10.0"/>
<circle class="station-220" cx="66.0" cy="571.0" r="10.0"/>
</svg>
